$MeshFormat
4.1 0 8
$EndMeshFormat
$Entities
0 0 1 0
1 -0.5 0 -0.5 0.5 0 0.5 0 0 
$EndEntities
$Nodes
1 289 1 1536
2 1 0 289
1
2
3
4
5
6
7
8
9
10
11
12
13
14
15
16
17
18
19
20
21
22
23
24
25
26
27
28
29
30
31
32
33
34
35
36
37
38
39
40
41
42
43
44
45
46
47
48
49
50
51
52
53
54
55
56
57
58
59
60
61
62
63
64
65
66
67
68
69
70
71
72
73
74
75
76
77
78
79
80
81
82
83
84
85
86
87
88
89
90
91
92
93
94
95
96
97
99
100
101
104
105
106
108
109
110
113
114
115
117
118
119
122
123
124
126
127
128
131
132
133
135
136
137
140
141
142
144
145
146
149
150
151
153
154
155
158
159
160
162
163
164
167
168
169
171
172
177
178
181
182
185
189
191
194
195
196
198
199
204
205
208
209
212
216
218
221
222
223
225
226
231
232
235
243
249
250
253
259
262
263
266
272
275
279
285
290
293
297
299
302
303
306
312
324
330
344
347
353
356
360
366
371
374
378
380
383
384
385
389
393
394
398
402
403
407
411
412
416
420
421
425
429
430
434
438
439
443
447
448
452
456
457
465
466
470
479
483
484
492
493
497
506
510
511
519
520
537
538
547
551
560
573
578
587
591
600
618
632
641
654
659
668
672
673
686
699
700
713
726
727
753
754
767
794
807
834
848
875
888
889
929
969
1010
1050
1051
1172
1293
1536
0.1875 0 0.125
0.125 0 0.1875
0.1875 0 0.1875
-0.1875 0 -0.1875
-0.1875 0 -0.125
-0.125 0 -0.1875
-0.125 0 0.3125
-0.1875 0 0.3125
-0.1875 0 0.375
0.375 0 0.3125
0.3125 0 0.3125
0.3125 0 0.375
0.375 0 -0.1875
0.3125 0 -0.1875
0.3125 0 -0.125
-0.3125 0 0.125
-0.375 0 0.1875
-0.3125 0 0.1875
0.1875 0 -0.375
0.125 0 -0.3125
0.1875 0 -0.3125
-0.3125 0 -0.375
-0.375 0 -0.3125
-0.3125 0 -0.3125
0.125 0 0.3125
0.0625 0 0.3125
0.0625 0 0.375
0.375 0 0.0625
0.3125 0 0.0625
0.3125 0 0.125
0.125 0 0.0625
0.0625 0 0.0625
0.0625 0 0.125
-0.0625 0 -0.125
-0.125 0 -0.0625
-0.0625 0 -0.0625
-0.0625 0 -0.375
-0.125 0 -0.3125
-0.0625 0 -0.3125
-0.3125 0 -0.125
-0.375 0 -0.0625
-0.3125 0 -0.0625
-0.3125 0 0.4375
-0.3125 0 0.375
-0.375 0 0.4375
-0.0625 0 0.4375
-0.0625 0 0.375
-0.125 0 0.4375
-0.0625 0 0.1875
-0.0625 0 0.125
-0.125 0 0.1875
0.1875 0 0.4375
0.1875 0 0.375
0.125 0 0.4375
0.4375 0 0.4375
0.4375 0 0.375
0.375 0 0.4375
0.4375 0 0.1875
0.4375 0 0.125
0.375 0 0.1875
0.1875 0 -0.0625
0.1875 0 -0.125
0.125 0 -0.0625
0.4375 0 -0.0625
0.4375 0 -0.125
0.375 0 -0.0625
0.4375 0 -0.3125
0.4375 0 -0.375
0.375 0 -0.3125
-0.375 0 0.3125
-0.4375 0 0.3125
-0.4375 0 0.375
-0.125 0 0.0625
-0.1875 0 0.0625
-0.1875 0 0.125
-0.375 0 0.0625
-0.4375 0 0.0625
-0.4375 0 0.125
0.125 0 -0.1875
0.0625 0 -0.1875
0.0625 0 -0.125
0.375 0 -0.4375
0.3125 0 -0.4375
0.3125 0 -0.375
0.125 0 -0.4375
0.0625 0 -0.4375
0.0625 0 -0.375
-0.375 0 -0.1875
-0.4375 0 -0.1875
-0.4375 0 -0.125
-0.125 0 -0.4375
-0.1875 0 -0.4375
-0.1875 0 -0.375
-0.375 0 -0.4375
-0.4375 0 -0.4375
-0.4375 0 -0.375
0.25 0 0.1875
0.1875 0 0.25
0.25 0 0.0625
0.1875 0 0.0625
0.0625 0 0.1875
0.0625 0 0.25
-0.0625 0 -0.25
-0.0625 0 -0.1875
-0.1875 0 -0.25
-0.25 0 -0.1875
-0.25 0 -0.0625
-0.1875 0 -0.0625
-0.1875 0 0.4375
-0.25 0 0.4375
-0.0625 0 0.3125
-0.0625 0 0.25
-0.1875 0 0.25
-0.25 0 0.3125
0.3125 0 0.4375
0.25 0 0.4375
0.4375 0 0.3125
0.4375 0 0.25
0.3125 0 0.25
0.25 0 0.3125
0.3125 0 -0.0625
0.25 0 -0.0625
0.4375 0 -0.1875
0.4375 0 -0.25
0.3125 0 -0.25
0.25 0 -0.1875
-0.25 0 0.1875
-0.3125 0 0.25
-0.25 0 0.0625
-0.3125 0 0.0625
-0.4375 0 0.1875
-0.4375 0 0.25
0.25 0 -0.3125
0.1875 0 -0.25
0.25 0 -0.4375
0.1875 0 -0.4375
0.0625 0 -0.3125
0.0625 0 -0.25
-0.25 0 -0.3125
-0.3125 0 -0.25
-0.25 0 -0.4375
-0.3125 0 -0.4375
-0.4375 0 -0.3125
-0.4375 0 -0.25
0.0625 0 0.4375
0 0 0.4375
0.1875 0 0.3125
0 0 0.3125
0.3125 0 0.1875
0.4375 0 0.0625
0.4375 0 0
0.3125 0 0
0 0 0.1875
0.1875 0 0
0.0625 0 0
0 0 0.0625
0 0 -0.0625
-0.0625 0 0
0 0 -0.1875
-0.1875 0 0
0 0 -0.3125
0 0 -0.4375
-0.0625 0 -0.4375
-0.1875 0 -0.3125
-0.3125 0 0
-0.3125 0 -0.1875
-0.4375 0 -0.0625
-0.4375 0 0
-0.4375 0 0.5
-0.4375 0 0.4375
-0.3125 0 0.5
-0.3125 0 0.3125
-0.1875 0 0.5
-0.0625 0 0.5
-0.1875 0 0.1875
-0.0625 0 0.0625
0.0625 0 0.5
0.1875 0 0.5
0.3125 0 0.5
0.4375 0 0.5
0.5 0 0.4375
0.5 0 0.3125
0.5 0 0.1875
0.5 0 0.0625
0.0625 0 -0.0625
0.1875 0 -0.1875
0.5 0 -0.0625
0.5 0 -0.1875
0.3125 0 -0.3125
0.5 0 -0.3125
0.5 0 -0.4375
0.4375 0 -0.4375
-0.5 0 0.4375
-0.5 0 0.3125
-0.5 0 0.1875
-0.5 0 0.0625
0.4375 0 -0.5
0.3125 0 -0.5
0.1875 0 -0.5
0.0625 0 -0.5
-0.5 0 -0.0625
-0.5 0 -0.1875
-0.0625 0 -0.5
-0.1875 0 -0.5
-0.5 0 -0.3125
-0.3125 0 -0.5
-0.4375 0 -0.5
-0.5 0 -0.4375
0.25 0 0.125
0.125 0 0.125
0.125 0 0.25
-0.125 0 -0.25
-0.25 0 -0.125
-0.125 0 -0.125
-0.125 0 0.375
-0.125 0 0.25
-0.25 0 0.375
0.375 0 0.375
0.375 0 0.25
0.25 0 0.375
0.375 0 -0.125
0.375 0 -0.25
0.25 0 -0.125
-0.25 0 0.125
-0.375 0 0.125
-0.375 0 0.25
0.25 0 -0.375
0.125 0 -0.375
0.125 0 -0.25
-0.25 0 -0.375
-0.375 0 -0.375
-0.375 0 -0.25
0.125 0 0.375
0 0 0.375
0.375 0 0.125
0.375 0 0
0.125 0 0
0 0 0.125
0 0 -0.125
-0.125 0 0
0 0 -0.375
-0.125 0 -0.375
-0.375 0 -0.125
-0.375 0 0
-0.375 0 0.5
-0.375 0 0.375
-0.125 0 0.5
-0.125 0 0.125
0.125 0 0.5
0.375 0 0.5
0.5 0 0.375
0.5 0 0.125
0.125 0 -0.125
0.5 0 -0.125
0.5 0 -0.375
0.375 0 -0.375
-0.5 0 0.375
-0.5 0 0.125
0.375 0 -0.5
0.125 0 -0.5
-0.5 0 -0.125
-0.125 0 -0.5
-0.375 0 -0.5
-0.5 0 -0.375
0.25 0 0.25
0.25 0 0
0 0 0.25
0 0 -0.25
-0.25 0 -0.25
-0.25 0 0
-0.25 0 0.5
-0.25 0 0.25
0.25 0 0.5
0.5 0 0.25
0.5 0 -0.25
0.25 0 -0.25
-0.5 0 0.25
0.25 0 -0.5
-0.25 0 -0.5
-0.5 0 -0.25
0 0 0.5
0.5 0 0
0 0 0
0 0 -0.5
-0.5 0 0
-0.5 0 0.5
0.5 0 0.5
0.5 0 -0.5
-0.5 0 -0.5
$EndNodes
$Elements
1 512 1 512
2 1 2 512
1 1 2 3 
2 4 5 6 
3 7 8 9 
4 10 11 12 
5 13 14 15 
6 16 17 18 
7 19 20 21 
8 22 23 24 
9 25 26 27 
10 28 29 30 
11 31 32 33 
12 34 35 36 
13 37 38 39 
14 40 41 42 
15 43 44 45 
16 46 47 48 
17 49 50 51 
18 52 53 54 
19 55 56 57 
20 58 59 60 
21 61 62 63 
22 64 65 66 
23 67 68 69 
24 70 71 72 
25 73 74 75 
26 76 77 78 
27 79 80 81 
28 82 83 84 
29 85 86 87 
30 88 89 90 
31 91 92 93 
32 94 95 96 
33 97 3 99 
34 100 101 1 
35 2 104 105 
36 106 6 108 
37 109 110 4 
38 5 113 114 
39 115 9 117 
40 118 119 7 
41 8 122 123 
42 124 12 126 
43 127 128 10 
44 11 131 132 
45 133 15 135 
46 136 137 13 
47 14 140 141 
48 142 18 144 
49 145 146 16 
50 17 149 150 
51 151 21 153 
52 154 155 19 
53 20 158 159 
54 160 24 162 
55 163 164 22 
56 23 167 168 
57 169 27 171 
58 172 99 25 
59 26 105 177 
60 178 30 97 
61 181 182 28 
62 29 185 100 
63 104 33 189 
64 101 191 31 
65 32 194 195 
66 196 36 198 
67 199 108 34 
68 35 114 204 
69 205 39 106 
70 208 209 37 
71 38 212 109 
72 113 42 216 
73 110 218 40 
74 41 221 222 
75 223 45 225 
76 226 117 43 
77 44 123 231 
78 232 48 115 
79 235 171 46 
80 47 177 118 
81 122 51 243 
82 119 189 49 
83 50 195 249 
84 250 54 169 
85 253 126 52 
86 53 132 172 
87 259 57 124 
88 262 263 55 
89 56 266 127 
90 131 60 178 
91 128 272 58 
92 59 275 181 
93 194 63 279 
94 191 135 61 
95 62 141 285 
96 185 66 133 
97 182 290 64 
98 65 293 136 
99 140 69 297 
100 137 299 67 
101 68 302 303 
102 225 72 306 
103 231 144 70 
104 71 150 312 
105 243 75 142 
106 249 198 73 
107 74 204 145 
108 149 78 324 
109 146 216 76 
110 77 222 330 
111 279 81 196 
112 285 153 79 
113 80 159 199 
114 297 84 151 
115 303 344 82 
116 83 347 154 
117 158 87 205 
118 155 353 85 
119 86 356 208 
120 221 90 360 
121 218 162 88 
122 89 168 366 
123 212 93 160 
124 209 371 91 
125 92 374 163 
126 167 96 378 
127 164 380 94 
128 95 383 384 
129 385 1 3 
130 1 389 2 
131 3 2 393 
132 394 4 6 
133 4 398 5 
134 6 5 402 
135 403 7 9 
136 7 407 8 
137 9 8 411 
138 412 10 12 
139 10 416 11 
140 12 11 420 
141 421 13 15 
142 13 425 14 
143 15 14 429 
144 430 16 18 
145 16 434 17 
146 18 17 438 
147 439 19 21 
148 19 443 20 
149 21 20 447 
150 448 22 24 
151 22 452 23 
152 24 23 456 
153 457 25 27 
154 25 393 26 
155 27 26 465 
156 466 28 30 
157 28 470 29 
158 30 29 385 
159 389 31 33 
160 31 479 32 
161 33 32 483 
162 484 34 36 
163 34 402 35 
164 36 35 492 
165 493 37 39 
166 37 497 38 
167 39 38 394 
168 398 40 42 
169 40 506 41 
170 42 41 510 
171 511 43 45 
172 43 411 44 
173 45 44 519 
174 520 46 48 
175 46 465 47 
176 48 47 403 
177 407 49 51 
178 49 483 50 
179 51 50 537 
180 538 52 54 
181 52 420 53 
182 54 53 457 
183 547 55 57 
184 55 551 56 
185 57 56 412 
186 416 58 60 
187 58 560 59 
188 60 59 466 
189 479 61 63 
190 61 429 62 
191 63 62 573 
192 470 64 66 
193 64 578 65 
194 66 65 421 
195 425 67 69 
196 67 587 68 
197 69 68 591 
198 519 70 72 
199 70 438 71 
200 72 71 600 
201 537 73 75 
202 73 492 74 
203 75 74 430 
204 434 76 78 
205 76 510 77 
206 78 77 618 
207 573 79 81 
208 79 447 80 
209 81 80 484 
210 591 82 84 
211 82 632 83 
212 84 83 439 
213 443 85 87 
214 85 641 86 
215 87 86 493 
216 506 88 90 
217 88 456 89 
218 90 89 654 
219 497 91 93 
220 91 659 92 
221 93 92 448 
222 452 94 96 
223 94 668 95 
224 96 95 672 
225 673 97 99 
226 97 385 3 
227 99 3 393 
228 385 100 1 
229 100 686 101 
230 1 101 389 
231 393 2 105 
232 2 389 104 
233 105 104 699 
234 700 106 108 
235 106 394 6 
236 108 6 402 
237 394 109 4 
238 109 713 110 
239 4 110 398 
240 402 5 114 
241 5 398 113 
242 114 113 726 
243 727 115 117 
244 115 403 9 
245 117 9 411 
246 403 118 7 
247 118 699 119 
248 7 119 407 
249 411 8 123 
250 8 407 122 
251 123 122 753 
252 754 124 126 
253 124 412 12 
254 126 12 420 
255 412 127 10 
256 127 767 128 
257 10 128 416 
258 420 11 132 
259 11 416 131 
260 132 131 673 
261 686 133 135 
262 133 421 15 
263 135 15 429 
264 421 136 13 
265 136 794 137 
266 13 137 425 
267 429 14 141 
268 14 425 140 
269 141 140 807 
270 753 142 144 
271 142 430 18 
272 144 18 438 
273 430 145 16 
274 145 726 146 
275 16 146 434 
276 438 17 150 
277 17 434 149 
278 150 149 834 
279 807 151 153 
280 151 439 21 
281 153 21 447 
282 439 154 19 
283 154 848 155 
284 19 155 443 
285 447 20 159 
286 20 443 158 
287 159 158 700 
288 713 160 162 
289 160 448 24 
290 162 24 456 
291 448 163 22 
292 163 875 164 
293 22 164 452 
294 456 23 168 
295 23 452 167 
296 168 167 888 
297 889 169 171 
298 169 457 27 
299 171 27 465 
300 457 172 25 
301 172 673 99 
302 25 99 393 
303 465 26 177 
304 26 393 105 
305 177 105 699 
306 673 178 97 
307 178 466 30 
308 97 30 385 
309 466 181 28 
310 181 929 182 
311 28 182 470 
312 385 29 100 
313 29 470 185 
314 100 185 686 
315 699 104 189 
316 104 389 33 
317 189 33 483 
318 389 101 31 
319 101 686 191 
320 31 191 479 
321 483 32 195 
322 32 479 194 
323 195 194 969 
324 969 196 198 
325 196 484 36 
326 198 36 492 
327 484 199 34 
328 199 700 108 
329 34 108 402 
330 492 35 204 
331 35 402 114 
332 204 114 726 
333 700 205 106 
334 205 493 39 
335 106 39 394 
336 493 208 37 
337 208 1010 209 
338 37 209 497 
339 394 38 109 
340 38 497 212 
341 109 212 713 
342 726 113 216 
343 113 398 42 
344 216 42 510 
345 398 110 40 
346 110 713 218 
347 40 218 506 
348 510 41 222 
349 41 506 221 
350 222 221 1050 
351 1051 223 225 
352 223 511 45 
353 225 45 519 
354 511 226 43 
355 226 727 117 
356 43 117 411 
357 519 44 231 
358 44 411 123 
359 231 123 753 
360 727 232 115 
361 232 520 48 
362 115 48 403 
363 520 235 46 
364 235 889 171 
365 46 171 465 
366 403 47 118 
367 47 465 177 
368 118 177 699 
369 753 122 243 
370 122 407 51 
371 243 51 537 
372 407 119 49 
373 119 699 189 
374 49 189 483 
375 537 50 249 
376 50 483 195 
377 249 195 969 
378 889 250 169 
379 250 538 54 
380 169 54 457 
381 538 253 52 
382 253 754 126 
383 52 126 420 
384 457 53 172 
385 53 420 132 
386 172 132 673 
387 754 259 124 
388 259 547 57 
389 124 57 412 
390 547 262 55 
391 262 1172 263 
392 55 263 551 
393 412 56 127 
394 56 551 266 
395 127 266 767 
396 673 131 178 
397 131 416 60 
398 178 60 466 
399 416 128 58 
400 128 767 272 
401 58 272 560 
402 466 59 181 
403 59 560 275 
404 181 275 929 
405 969 194 279 
406 194 479 63 
407 279 63 573 
408 479 191 61 
409 191 686 135 
410 61 135 429 
411 573 62 285 
412 62 429 141 
413 285 141 807 
414 686 185 133 
415 185 470 66 
416 133 66 421 
417 470 182 64 
418 182 929 290 
419 64 290 578 
420 421 65 136 
421 65 578 293 
422 136 293 794 
423 807 140 297 
424 140 425 69 
425 297 69 591 
426 425 137 67 
427 137 794 299 
428 67 299 587 
429 591 68 303 
430 68 587 302 
431 303 302 1293 
432 1051 225 306 
433 225 519 72 
434 306 72 600 
435 519 231 70 
436 231 753 144 
437 70 144 438 
438 600 71 312 
439 71 438 150 
440 312 150 834 
441 753 243 142 
442 243 537 75 
443 142 75 430 
444 537 249 73 
445 249 969 198 
446 73 198 492 
447 430 74 145 
448 74 492 204 
449 145 204 726 
450 834 149 324 
451 149 434 78 
452 324 78 618 
453 434 146 76 
454 146 726 216 
455 76 216 510 
456 618 77 330 
457 77 510 222 
458 330 222 1050 
459 969 279 196 
460 279 573 81 
461 196 81 484 
462 573 285 79 
463 285 807 153 
464 79 153 447 
465 484 80 199 
466 80 447 159 
467 199 159 700 
468 807 297 151 
469 297 591 84 
470 151 84 439 
471 591 303 82 
472 303 1293 344 
473 82 344 632 
474 439 83 154 
475 83 632 347 
476 154 347 848 
477 700 158 205 
478 158 443 87 
479 205 87 493 
480 443 155 85 
481 155 848 353 
482 85 353 641 
483 493 86 208 
484 86 641 356 
485 208 356 1010 
486 1050 221 360 
487 221 506 90 
488 360 90 654 
489 506 218 88 
490 218 713 162 
491 88 162 456 
492 654 89 366 
493 89 456 168 
494 366 168 888 
495 713 212 160 
496 212 497 93 
497 160 93 448 
498 497 209 91 
499 209 1010 371 
500 91 371 659 
501 448 92 163 
502 92 659 374 
503 163 374 875 
504 888 167 378 
505 167 452 96 
506 378 96 672 
507 452 164 94 
508 164 875 380 
509 94 380 668 
510 672 95 384 
511 95 668 383 
512 384 383 1536 
$EndElements
