$MeshFormat
4.1 0 8
$EndMeshFormat
$Entities
0 0 1 0
1 -1 0 -1 1 0 1 0 0
$EndEntities
$Nodes
1 81 1 81
2 1 0 81
1
2
3
4
5
6
7
8
9
10
11
12
13
14
15
16
17
18
19
20
21
22
23
24
25
26
27
28
29
30
31
32
33
34
35
36
37
38
39
40
41
42
43
44
45
46
47
48
49
50
51
52
53
54
55
56
57
58
59
60
61
62
63
64
65
66
67
68
69
70
71
72
73
74
75
76
77
78
79
80
81
0.5 0 0.25
0.25 0 0.25
0.25 0 0.5
-0.25 0 -0.5
-0.5 0 -0.25
-0.25 0 -0.25
-0.25 0 0.75
-0.25 0 0.5
-0.5 0 0.75
0.75 0 0.75
0.75 0 0.5
0.5 0 0.75
0.75 0 -0.25
0.75 0 -0.5
0.5 0 -0.25
-0.5 0 0.25
-0.75 0 0.25
-0.75 0 0.5
0.5 0 -0.75
0.25 0 -0.75
0.25 0 -0.5
-0.5 0 -0.75
-0.75 0 -0.75
-0.75 0 -0.5
0.25 0 0.75
0 0 0.75
0.75 0 0.25
0.75 0 0
0.25 0 0
0 0 0.25
0 0 -0.25
-0.25 0 0
0 0 -0.75
-0.25 0 -0.75
-0.75 0 -0.25
-0.75 0 0
-0.75 0 1
-0.75 0 0.75
-0.25 0 1
-0.25 0 0.25
0.25 0 1
0.75 0 1
1 0 0.75
1 0 0.25
0.25 0 -0.25
1 0 -0.25
1 0 -0.75
0.75 0 -0.75
-1 0 0.75
-1 0 0.25
0.75 0 -1
0.25 0 -1
-1 0 -0.25
-0.25 0 -1
-0.75 0 -1
-1 0 -0.75
0.5 0 0.5
0.5 0 0
0 0 0.5
0 0 -0.5
-0.5 0 -0.5
-0.5 0 0
-0.5 0 1
-0.5 0 0.5
0.5 0 1
1 0 0.5
1 0 -0.5
0.5 0 -0.5
-1 0 0.5
0.5 0 -1
-0.5 0 -1
-1 0 -0.5
0 0 1
1 0 0
0 0 0
0 0 -1
-1 0 0
-1 0 1
1 0 1
1 0 -1
-1 0 -1
$EndNodes
$Elements
1 128 1 128
2 1 2 128
1 1 2 3
2 4 5 6
3 7 8 9
4 10 11 12
5 13 14 15
6 16 17 18
7 19 20 21
8 22 23 24
9 25 3 26
10 27 28 1
11 2 29 30
12 31 6 32
13 33 34 4
14 5 35 36
15 37 9 38
16 39 26 7
17 8 30 40
18 41 12 25
19 42 43 10
20 11 44 27
21 29 15 45
22 28 46 13
23 14 47 48
24 38 18 49
25 40 32 16
26 17 36 50
27 45 21 31
28 48 51 19
29 20 52 33
30 35 24 53
31 34 54 22
32 23 55 56
33 57 1 3
34 1 58 2
35 3 2 59
36 60 4 6
37 4 61 5
38 6 5 62
39 63 7 9
40 7 59 8
41 9 8 64
42 65 10 12
43 10 66 11
44 12 11 57
45 58 13 15
46 13 67 14
47 15 14 68
48 64 16 18
49 16 62 17
50 18 17 69
51 68 19 21
52 19 70 20
53 21 20 60
54 61 22 24
55 22 71 23
56 24 23 72
57 73 25 26
58 25 57 3
59 26 3 59
60 57 27 1
61 27 74 28
62 1 28 58
63 59 2 30
64 2 58 29
65 30 29 75
66 75 31 32
67 31 60 6
68 32 6 62
69 60 33 4
70 33 76 34
71 4 34 61
72 62 5 36
73 5 61 35
74 36 35 77
75 78 37 38
76 37 63 9
77 38 9 64
78 63 39 7
79 39 73 26
80 7 26 59
81 64 8 40
82 8 59 30
83 40 30 75
84 73 41 25
85 41 65 12
86 25 12 57
87 65 42 10
88 42 79 43
89 10 43 66
90 57 11 27
91 11 66 44
92 27 44 74
93 75 29 45
94 29 58 15
95 45 15 68
96 58 28 13
97 28 74 46
98 13 46 67
99 68 14 48
100 14 67 47
101 48 47 80
102 78 38 49
103 38 64 18
104 49 18 69
105 64 40 16
106 40 75 32
107 16 32 62
108 69 17 50
109 17 62 36
110 50 36 77
111 75 45 31
112 45 68 21
113 31 21 60
114 68 48 19
115 48 80 51
116 19 51 70
117 60 20 33
118 20 70 52
119 33 52 76
120 77 35 53
121 35 61 24
122 53 24 72
123 61 34 22
124 34 76 54
125 22 54 71
126 72 23 56
127 23 71 55
128 56 55 81
$EndElements