$MeshFormat
4.1 0 8
$EndMeshFormat
$Entities
0 0 1 1
1 -0.9518560767173767 0.0001904776581795886 -0.6394214034080505 1.059078454971313 0.9992034435272217 0.6389963030815125 0 0 
1 -0.9518560767173767 0.0001904776581795886 -0.6394214034080505 1.059078454971313 0.9992034435272217 0.6389963030815125 0 1 1 
$EndEntities
$Nodes
2 155 1 155
2 1 0 150
1
2
3
4
5
6
7
8
9
10
11
12
13
14
15
16
17
18
19
20
21
22
23
24
25
26
27
28
29
30
31
32
33
34
35
36
37
38
39
40
41
42
43
44
45
46
47
48
49
50
51
52
53
54
55
56
57
58
59
60
61
62
63
64
65
66
67
68
69
70
71
72
73
74
75
76
77
78
79
80
81
82
83
84
85
86
87
88
89
90
91
92
93
94
95
96
97
98
99
100
101
102
103
104
105
106
107
108
109
110
111
112
113
114
115
116
117
118
119
120
121
122
123
124
125
126
127
128
129
130
131
132
133
134
135
136
137
138
139
140
141
142
143
144
145
146
147
148
149
150
-0.5421707630157471 0.6373298168182373 -0.004801390692591667
-0.5050782561302185 0.7086657285690308 0.08327673375606537
-0.7023130059242249 0.6530011296272278 0.02529036998748779
-0.435787171125412 0.7795436382293701 -0.1873464435338974
-0.4995841681957245 0.7019366025924683 -0.06987402588129044
-0.461907684803009 0.7950106859207153 0.01064572297036648
-0.7070856690406799 0.7137803435325623 0.03780899569392204
-0.8776773810386658 0.6545121073722839 0.05923964083194733
-0.9125683307647705 0.5312908291816711 0.07509297132492065
-0.9518560767173767 0.6692920923233032 -0.01216188352555037
-0.7441551089286804 0.6915417909622192 -0.07878855615854263
-0.905089259147644 0.6048886775970459 -0.07365946471691132
-0.590486466884613 0.4360877275466919 0.1905947923660278
-0.8250986933708191 0.4413802921772003 -0.05345509573817253
-0.6317082643508911 0.2508453726768494 -0.05335819721221924
-0.6411826014518738 0.2620610594749451 0.0713278129696846
-0.8386765718460083 0.3478517830371857 0.05273984745144844
-0.6043182015419006 0.1720467507839203 0.01856842450797558
-0.9415835738182068 0.4658852219581604 -0.01986133120954037
-0.7899765372276306 0.3043414354324341 -0.05657333508133888
0.7408522963523865 0.5260945558547974 0.03720703721046448
0.6142087578773499 0.4579392075538635 -0.008593074046075344
0.6181501150131226 0.4014398157596588 0.1525247842073441
0.7530776262283325 0.4337809979915619 0.1336666941642761
0.8228073716163635 0.7217326760292053 0.03635944426059723
0.9073045253753662 0.7016600966453552 0.06418087333440781
1.059078454971313 0.7921414375305176 0.05145859718322754
0.6322994828224182 0.2546430826187134 0.1271238029003143
0.7980923652648926 0.36517333984375 0.09359291195869446
0.9382774829864502 0.6793095469474792 0.0173649825155735
0.7153840065002441 0.2505989968776703 0
0.8204488754272461 0.3624351918697357 -0.04609488323330879
0.6184307932853699 0.2132752388715744 -0.03848640993237495
0.5768802165985107 0.1368141174316406 0.08458370715379715
0.7111506462097168 0.2795723974704742 -0.1095534488558769
0.8060409426689148 0.445900559425354 -0.1182458251714706
0.9713820219039917 0.7332748174667358 -0.04899131134152412
0.6222962141036987 0.3101745545864105 -0.158084899187088
0.7402276992797852 0.4848303198814392 -0.1130294874310493
0.8412162661552429 0.7426962852478027 -0.03635454922914505
0.6092917323112488 0.4331718385219574 -0.1334894150495529
0.4656994342803955 0.7942438125610352 -0.002077752957120538
0.4456015229225159 0.744570255279541 0.04035716131329536
0.4498770534992218 0.7941728234291077 0.1230809912085533
0.3709411025047302 0.7865569591522217 0.1903523802757263
0.4039701819419861 0.7942138910293579 0.2348531633615494
0.2873544692993164 0.749005138874054 0.3482089936733246
0.2455201596021652 0.7667199969291687 0.4118276834487915
0.3593093156814575 0.7163110375404358 0.3560977876186371
-0.004454214591532946 0.8035833835601807 0.4613429009914398
0.1294364482164383 0.7682343721389771 0.4610040187835693
-0.08396865427494049 0.7465543746948242 0.4390322268009186
-0.324408084154129 0.746885359287262 0.3238915503025055
-0.1233400925993919 0.7956354022026062 0.4491324126720428
-0.3308112025260925 0.8007601499557495 0.3263683021068573
-0.292475163936615 0.5376902222633362 0.5059447884559631
-0.4579336643218994 0.7458091974258423 0.02159099280834198
-0.4131212532520294 0.768176257610321 0.2439218461513519
-0.3417306840419769 0.7428854703903198 -0.2905622124671936
-0.2745817303657532 0.8001298308372498 -0.3516045808792114
-0.3257533609867096 0.7314280867576599 -0.3833486139774323
-0.116486482322216 0.7421517968177795 -0.4400161802768707
-0.007971598766744137 0.8033498525619507 -0.4580594599246979
-0.1326907724142075 0.7689364552497864 -0.4621498286724091
0.07220504432916641 0.7604755759239197 -0.432874321937561
0.1671051383018494 0.8081778883934021 -0.4308583438396454
0.2669439911842346 0.7430351972579956 -0.3646422028541565
0.3626619875431061 0.7990249991416931 -0.2979739308357239
0.4616312384605408 0.7567692995071411 -0.1320406943559647
0.537350594997406 0.4438693225383759 0.3111758530139923
0.5502773523330688 0.2517889142036438 0.324434220790863
0.4584128558635712 0.3678441941738129 0.4480197429656982
0.3069494962692261 0.4903772175312042 0.5196571350097656
0.3237793743610382 0.3096279799938202 0.5538724064826965
0.1643831878900528 0.4565431475639343 0.5927327871322632
0.08496921509504318 0.2540962696075439 0.6389963030815125
-0.0007343181641772389 0.4515159726142883 0.6160065531730652
-0.1693137139081955 0.4490906894207001 0.5942920446395874
-0.1637976318597794 0.2493027150630951 0.6167848110198975
-0.325464278459549 0.2776112258434296 0.5584201216697693
-0.4253208041191101 0.4932491183280945 0.4250602424144745
-0.4549446105957031 0.3095277547836304 0.4530352652072906
-0.5329533219337463 0.4519154727458954 0.3119914829730988
-0.5513405799865723 0.2519892752170563 0.3226589858531952
-0.6369951963424683 0.3576691448688507 -0.08642294257879257
-0.5416515469551086 0.5333645939826965 -0.2378168553113937
-0.552543044090271 0.3094422817230225 -0.3261015117168427
-0.4303779006004333 0.4671018421649933 -0.43088698387146
-0.3907009065151215 0.3073535859584808 -0.5163904428482056
-0.3078881800174713 0.4672702848911285 -0.5248781442642212
-0.1818306595087051 0.372209757566452 -0.6132886409759521
0.003373780287802219 0.5045928955078125 -0.5965569615364075
0.001342490664683282 0.3095244467258453 -0.6394214034080505
0.1611482352018356 0.5021147727966309 -0.5759344100952148
0.1730247884988785 0.3093239068984985 -0.6165835857391357
0.3073975443840027 0.4940704107284546 -0.517363965511322
0.3261010646820068 0.3094388842582703 -0.5525432229042053
0.426630049943924 0.4990247488021851 -0.4230791628360748
0.4549446702003479 0.3095242381095886 -0.4530349671840668
0.5330086946487427 0.4531355202198029 -0.3119063079357147
0.5520984530448914 0.2121556252241135 -0.3170309364795685
0.50519859790802 0.1481022834777832 0.2979918718338013
0.4597190916538239 0.02844860777258873 0.05952422320842743
0.3557739853858948 0.01218853518366814 0.2728672623634338
0.420259028673172 0.1784321814775467 0.4482540786266327
0.305491030216217 0.1770093441009521 0.5316514372825623
0.2459219843149185 0.01414573565125465 0.3683193922042847
0.07645860314369202 0.1315976679325104 0.5728467106819153
0.06426069885492325 0.02848692052066326 0.4591034352779388
-0.1580205112695694 0.1480452716350555 0.5636554956436157
-0.110914908349514 0.02873328328132629 0.4472564458847046
-0.2979919612407684 0.1481014788150787 0.5051978826522827
-0.2794932126998901 0.03088167496025562 0.374588280916214
-0.4370581805706024 0.1792128831148148 0.4311797618865967
-0.5208086967468262 0.1272571384906769 0.232199564576149
-0.460103303194046 0.02877076342701912 0.01321649644523859
-0.5863396525382996 0.1731246262788773 -0.1652608066797256
-0.4296766519546509 0.0284641720354557 -0.1768709570169449
-0.523348331451416 0.179229661822319 -0.3238475322723389
-0.3450222313404083 0.1880743354558945 -0.5161550045013428
-0.3010021150112152 0.03173507377505302 -0.3594052195549011
-0.1741907000541687 0.1766487210988998 -0.5881796479225159
-0.05907856300473213 0.01517357956618071 -0.4442421793937683
0.01113912276923656 0.1804835796356201 -0.6129976511001587
0.1575984507799149 0.1773671805858612 -0.592621386051178
0.1635918766260147 0.02741795964539051 -0.4332458972930908
0.3706558644771576 0.1776844263076782 -0.4950667917728424
0.3422446250915527 0.03051520884037018 -0.3256824314594269
0.5806633830070496 0.1681056320667267 -0.1692028045654297
0.4245986342430115 0.01596368104219437 -0.1296687126159668
0.1262999475002289 0.0001904776581795886 0.08761823177337646
-0.1573415249586105 0.000873236742336303 -0.2735681235790253
0.2077465355396271 0.01093879528343678 -0.3321610391139984
-0.3741664886474609 0.009508655406534672 0.06791847944259644
-0.4117008447647095 0.02114960178732872 0.2105926275253296
-0.1244900599122047 0.00631738593801856 0.3283956348896027
0.04065145179629326 0.8476110100746155 0.07728642225265503
0.09673133492469788 0.9903841614723206 0.08642058074474335
-0.04916736483573914 0.8528549671173096 -0.001445040805265307
0.05180105194449425 0.8505105376243591 -0.03732969239354134
0.3792572617530823 0.7926419973373413 -0.09603835642337799
0.1019081547856331 0.7954455018043518 0.3755518794059753
-0.2309241145849228 0.795044481754303 0.3158331215381622
-0.3842350542545319 0.7921212315559387 0.05173404887318611
-0.3409388363361359 0.7931671738624573 -0.1878480166196823
-0.07813860476016998 0.7942104339599609 -0.3896527588367462
0.2298869490623474 0.7929336428642273 -0.3086650669574738
0.08470538258552551 0.9927560091018677 -0.1145649030804634
-0.120436929166317 0.9992034435272217 -0.01305186375975609
-0.01411463506519794 0.9738625288009644 0.1222132667899132
3 1 0 5
151
152
153
154
155
-0.1772504974335702 0.4023646154326213 -0.1101020693137714
0.3055593350475807 0.325203118207085 0.01772256619249435
-0.2640436818807679 0.4023200668137962 0.2462729528672959
0.2124943714989665 0.3073373792326934 -0.2722753939407707
0.08988661187648993 0.376874090275925 0.2966827773988217
$EndNodes
$Elements
2 671 1 671
2 1 2 300
1 1 2 3 
2 13 2 1 
3 3 11 1 
4 11 5 1 
5 1 5 86 
6 13 1 85 
7 85 1 86 
8 2 7 3 
9 5 2 6 
10 5 7 2 
11 58 6 2 
12 83 2 13 
13 83 58 2 
14 3 7 8 
15 12 3 8 
16 12 11 3 
17 4 5 6 
18 5 4 86 
19 6 57 4 
20 4 57 59 
21 4 59 60 
22 4 60 61 
23 86 4 61 
24 11 7 5 
25 55 57 6 
26 58 55 6 
27 8 7 10 
28 10 7 11 
29 9 8 10 
30 14 8 9 
31 14 12 8 
32 9 10 19 
33 15 14 9 
34 15 9 16 
35 16 9 17 
36 17 9 19 
37 10 11 12 
38 19 10 12 
39 19 12 14 
40 84 13 16 
41 16 13 85 
42 84 83 13 
43 20 14 15 
44 20 19 14 
45 15 16 85 
46 18 20 15 
47 18 15 117 
48 15 85 117 
49 16 17 18 
50 115 16 18 
51 115 84 16 
52 18 17 20 
53 17 19 20 
54 115 18 116 
55 116 18 117 
56 21 22 23 
57 39 22 21 
58 21 23 24 
59 25 21 24 
60 40 21 25 
61 40 39 21 
62 22 44 23 
63 41 22 39 
64 41 42 22 
65 22 42 44 
66 28 24 23 
67 28 23 70 
68 23 44 46 
69 23 46 70 
70 25 24 26 
71 26 24 29 
72 24 28 29 
73 25 26 27 
74 40 25 27 
75 26 30 27 
76 26 29 30 
77 27 30 37 
78 27 37 40 
79 29 28 31 
80 31 28 33 
81 28 34 33 
82 34 28 71 
83 28 70 71 
84 29 32 30 
85 29 31 32 
86 30 32 36 
87 30 36 37 
88 32 31 35 
89 35 31 33 
90 32 35 36 
91 34 129 33 
92 35 33 38 
93 129 38 33 
94 34 71 102 
95 103 34 102 
96 130 34 103 
97 130 129 34 
98 36 35 38 
99 37 36 39 
100 36 38 39 
101 37 39 40 
102 39 38 41 
103 100 41 38 
104 101 100 38 
105 101 38 129 
106 41 69 42 
107 100 69 41 
108 42 43 44 
109 69 43 42 
110 44 43 45 
111 141 45 43 
112 141 43 69 
113 44 45 46 
114 46 45 47 
115 45 142 47 
116 141 137 45 
117 45 137 142 
118 46 47 48 
119 46 48 49 
120 70 46 49 
121 47 52 48 
122 52 47 142 
123 49 48 73 
124 48 50 51 
125 50 48 52 
126 73 48 51 
127 70 49 72 
128 72 49 73 
129 75 51 50 
130 50 52 53 
131 50 53 54 
132 77 50 54 
133 75 50 77 
134 73 51 75 
135 52 143 53 
136 142 143 52 
137 54 53 55 
138 55 53 57 
139 144 57 53 
140 53 143 144 
141 56 54 55 
142 78 54 56 
143 77 54 78 
144 56 55 81 
145 81 55 58 
146 78 56 80 
147 80 56 81 
148 57 145 59 
149 144 145 57 
150 81 58 83 
151 60 59 62 
152 59 146 62 
153 59 145 146 
154 61 60 64 
155 60 62 63 
156 60 63 64 
157 90 61 64 
158 86 61 88 
159 88 61 90 
160 63 62 65 
161 65 62 146 
162 64 63 92 
163 63 65 66 
164 92 63 66 
165 90 64 91 
166 91 64 92 
167 66 65 67 
168 65 147 67 
169 65 146 147 
170 66 67 68 
171 96 66 68 
172 92 66 94 
173 94 66 96 
174 68 67 69 
175 67 141 69 
176 67 147 141 
177 100 68 69 
178 96 68 98 
179 98 68 100 
180 71 70 72 
181 71 72 105 
182 102 71 105 
183 72 73 74 
184 105 72 74 
185 74 73 75 
186 74 75 76 
187 106 74 76 
188 105 74 106 
189 76 75 77 
190 76 77 78 
191 76 78 79 
192 108 76 79 
193 106 76 108 
194 79 78 80 
195 110 79 80 
196 108 79 110 
197 80 81 82 
198 80 82 114 
199 110 80 112 
200 112 80 114 
201 82 81 83 
202 82 83 84 
203 114 82 84 
204 114 84 115 
205 85 86 87 
206 117 85 87 
207 87 86 88 
208 87 88 89 
209 119 87 89 
210 117 87 119 
211 89 88 90 
212 89 90 91 
213 120 89 91 
214 119 89 120 
215 91 92 93 
216 122 91 93 
217 120 91 122 
218 93 92 94 
219 93 94 95 
220 124 93 95 
221 122 93 124 
222 95 94 96 
223 95 96 97 
224 125 95 97 
225 124 95 125 
226 97 96 98 
227 97 98 99 
228 127 97 99 
229 125 97 127 
230 99 98 100 
231 99 100 101 
232 127 99 101 
233 128 127 101 
234 128 101 129 
235 103 102 104 
236 104 102 105 
237 103 104 130 
238 104 105 107 
239 107 131 104 
240 104 131 130 
241 105 106 107 
242 107 106 108 
243 107 108 109 
244 109 136 107 
245 136 131 107 
246 109 108 110 
247 109 110 111 
248 111 136 109 
249 111 110 112 
250 111 112 113 
251 113 136 111 
252 113 112 114 
253 113 114 115 
254 115 135 113 
255 135 136 113 
256 116 135 115 
257 116 117 118 
258 118 134 116 
259 116 134 135 
260 118 117 119 
261 118 119 121 
262 121 132 118 
263 118 132 134 
264 119 120 121 
265 121 120 122 
266 121 122 123 
267 121 123 132 
268 123 122 124 
269 123 124 125 
270 123 125 126 
271 126 133 123 
272 133 132 123 
273 126 125 127 
274 126 127 128 
275 128 133 126 
276 128 129 130 
277 128 130 133 
278 130 131 132 
279 130 132 133 
280 132 131 136 
281 134 132 136 
282 134 136 135 
283 137 138 139 
284 138 137 140 
285 143 137 139 
286 141 140 137 
287 142 137 143 
288 138 150 139 
289 140 148 138 
290 148 149 138 
291 150 138 149 
292 146 139 140 
293 139 148 140 
294 143 139 144 
295 144 139 145 
296 145 139 146 
297 139 149 148 
298 150 149 139 
299 147 140 141 
300 146 140 147 
3 1 4 371
301 48 50 52 51 
302 92 65 62 154 
303 122 124 93 154 
304 62 65 146 151 
305 65 151 62 154 
306 42 22 44 43 
307 122 123 124 154 
308 65 67 147 154 
309 57 55 6 58 
310 57 55 58 53 
311 55 53 56 81 
312 89 87 119 151 
313 88 87 89 151 
314 53 55 58 81 
315 93 91 122 154 
316 57 4 59 5 
317 119 87 117 151 
318 1 2 13 153 
319 57 5 59 151 
320 4 61 60 59 
321 87 85 117 151 
322 65 92 94 154 
323 141 140 147 152 
324 143 53 144 153 
325 15 9 17 16 
326 88 89 90 151 
327 119 117 118 151 
328 140 147 152 154 
329 16 115 18 153 
330 92 62 151 154 
331 146 59 62 151 
332 50 54 52 77 
333 5 86 59 151 
334 18 116 117 151 
335 87 88 86 151 
336 78 52 54 77 
337 1 86 5 151 
338 105 71 102 155 
339 121 119 118 151 
340 57 59 145 151 
341 118 117 116 151 
342 85 1 13 151 
343 87 86 85 151 
344 53 57 144 153 
345 83 13 2 153 
346 146 145 59 151 
347 93 92 91 154 
348 137 153 151 155 
349 1 85 86 151 
350 132 130 133 152 
351 95 93 124 154 
352 137 151 152 155 
353 143 144 139 151 
354 91 151 122 154 
355 1 13 151 153 
356 58 83 2 153 
357 146 139 145 151 
358 143 151 137 153 
359 143 144 151 153 
360 137 143 139 151 
361 16 85 13 151 
362 146 140 139 151 
363 115 151 18 153 
364 59 4 61 86 
365 140 152 151 154 
366 109 111 110 155 
367 100 69 98 154 
368 43 141 69 152 
369 57 151 144 153 
370 57 145 144 151 
371 124 125 95 154 
372 140 137 151 152 
373 95 94 93 154 
374 125 123 126 154 
375 105 72 71 155 
376 144 145 139 151 
377 92 151 91 154 
378 117 85 15 151 
379 124 123 125 154 
380 47 152 49 155 
381 79 108 110 155 
382 15 18 117 151 
383 47 45 49 152 
384 38 101 129 154 
385 109 110 108 155 
386 16 18 151 153 
387 102 71 152 155 
388 16 151 13 153 
389 49 152 70 155 
390 123 133 126 154 
391 51 75 52 155 
392 26 21 24 25 
393 76 108 79 155 
394 111 153 110 155 
395 13 83 84 153 
396 16 15 85 151 
397 100 152 69 154 
398 51 73 75 155 
399 139 140 137 151 
400 15 16 18 151 
401 82 114 84 153 
402 70 49 45 152 
403 73 47 49 155 
404 113 115 114 153 
405 134 151 115 153 
406 79 110 153 155 
407 84 114 115 153 
408 102 104 105 155 
409 54 55 53 56 
410 134 115 135 153 
411 76 79 78 155 
412 38 100 101 154 
413 75 77 52 155 
414 112 110 111 153 
415 94 92 93 154 
416 132 151 131 152 
417 74 105 106 155 
418 76 78 77 155 
419 116 134 118 151 
420 38 129 33 152 
421 59 5 4 86 
422 111 113 112 153 
423 71 34 102 152 
424 56 52 54 78 
425 52 78 56 153 
426 132 131 130 152 
427 41 69 100 152 
428 71 28 34 152 
429 127 101 99 154 
430 79 153 78 155 
431 103 102 34 152 
432 84 83 82 153 
433 113 135 115 153 
434 38 129 152 154 
435 48 49 47 46 
436 72 105 74 155 
437 56 81 53 153 
438 113 114 112 153 
439 102 152 104 155 
440 82 80 114 153 
441 107 106 105 155 
442 62 60 63 64 
443 34 28 33 152 
444 80 110 112 153 
445 74 106 76 155 
446 114 80 112 153 
447 71 70 28 152 
448 60 61 62 59 
449 38 33 22 152 
450 38 152 100 154 
451 102 103 104 152 
452 99 101 100 154 
453 132 134 136 151 
454 118 132 121 151 
455 128 101 127 154 
456 97 95 125 154 
457 125 126 127 154 
458 100 38 41 152 
459 75 50 51 52 
460 105 104 107 155 
461 29 21 30 32 
462 133 152 130 154 
463 80 79 110 153 
464 76 106 108 155 
465 97 125 127 154 
466 22 33 28 152 
467 95 97 96 154 
468 107 108 106 155 
469 72 74 73 155 
470 80 82 81 153 
471 132 133 123 154 
472 97 99 98 154 
473 107 109 108 155 
474 136 131 132 151 
475 32 21 30 36 
476 83 81 82 153 
477 99 97 127 154 
478 63 62 92 65 
479 131 152 151 155 
480 28 70 23 152 
481 135 113 136 153 
482 151 153 136 155 
483 80 78 79 153 
484 104 152 131 155 
485 95 96 94 154 
486 109 136 111 155 
487 35 31 22 33 
488 100 69 68 98 
489 134 135 136 153 
490 75 74 76 155 
491 100 98 99 154 
492 118 134 132 151 
493 64 62 92 63 
494 80 81 56 153 
495 104 131 107 155 
496 45 49 70 46 
497 131 151 136 155 
498 136 153 111 155 
499 61 62 90 64 
500 75 50 52 77 
501 134 136 151 153 
502 22 31 28 33 
503 80 56 78 153 
504 74 75 73 155 
505 22 38 35 33 
506 40 30 21 39 
507 139 149 150 138 
508 97 98 96 154 
509 38 22 41 152 
510 133 130 128 154 
511 77 75 76 155 
512 130 152 129 154 
513 1 5 11 7 
514 36 21 30 39 
515 111 136 113 153 
516 21 25 30 40 
517 22 28 23 152 
518 7 11 1 3 
519 49 47 73 48 
520 9 14 12 8 
521 54 53 52 56 
522 22 32 31 35 
523 5 1 2 7 
524 36 39 38 35 
525 134 115 116 135 
526 6 5 4 57 
527 32 31 29 22 
528 25 26 21 30 
529 23 31 28 22 
530 39 32 22 35 
531 10 12 9 19 
532 1 2 7 3 
533 6 2 5 57 
534 9 12 14 19 
535 29 21 32 22 
536 29 24 21 22 
537 57 58 6 2 
538 39 32 21 22 
539 39 36 32 35 
540 62 61 60 64 
541 138 137 139 140 
542 36 32 21 39 
543 9 12 10 8 
544 21 24 23 22 
545 26 27 30 37 
546 45 47 49 46 
547 92 66 65 94 
548 53 50 54 52 
549 67 66 68 96 
550 92 66 63 65 
551 52 142 47 155 
552 37 39 30 40 
553 30 39 37 36 
554 129 128 154 101 
555 129 154 128 130 
556 119 120 151 121 
557 119 151 120 89 
558 120 91 151 122 
559 88 61 151 90 
560 62 151 61 90 
561 62 61 151 59 
562 152 132 154 133 
563 152 154 132 151 
564 151 89 91 120 
565 151 91 89 90 
566 57 58 153 53 
567 153 58 57 2 
568 155 73 48 51 
569 48 73 155 47 
570 48 52 155 51 
571 155 52 48 47 
572 46 45 23 70 
573 152 23 45 70 
574 137 141 152 140 
575 72 49 155 73 
576 155 49 72 70 
577 69 67 152 141 
578 69 152 67 154 
579 147 152 67 141 
580 147 67 152 154 
581 3 7 12 8 
582 3 12 7 11 
583 10 12 7 8 
584 10 7 12 11 
585 17 18 15 16 
586 17 15 18 20 
587 116 115 151 18 
588 116 151 115 134 
589 141 45 152 43 
590 141 152 45 137 
591 136 107 155 109 
592 136 155 107 131 
593 1 153 5 2 
594 1 5 153 151 
595 57 5 153 2 
596 57 153 5 151 
597 122 121 151 120 
598 155 78 52 153 
599 155 52 78 77 
600 29 26 21 24 
601 21 26 29 30 
602 147 146 151 140 
603 151 146 147 65 
604 151 154 147 140 
605 147 154 151 65 
606 154 69 96 67 
607 154 96 69 98 
608 68 96 69 67 
609 68 69 96 98 
610 45 23 44 46 
611 81 58 153 83 
612 81 153 58 53 
613 25 30 37 26 
614 37 30 25 40 
615 37 27 25 26 
616 25 27 37 40 
617 43 152 41 22 
618 41 152 43 69 
619 41 42 43 22 
620 43 42 41 69 
621 155 70 71 152 
622 155 71 70 72 
623 16 84 153 13 
624 16 153 84 115 
625 151 121 154 132 
626 151 154 121 122 
627 123 154 121 132 
628 123 121 154 122 
629 64 62 91 92 
630 64 91 62 90 
631 151 91 62 92 
632 151 62 91 90 
633 53 52 153 143 
634 53 153 52 56 
635 143 142 155 137 
636 155 142 143 52 
637 155 153 143 137 
638 143 153 155 52 
639 154 96 65 67 
640 154 65 96 94 
641 66 65 96 67 
642 66 96 65 94 
643 61 86 151 59 
644 151 86 61 88 
645 45 142 152 47 
646 45 152 142 137 
647 155 152 142 47 
648 155 142 152 137 
649 34 152 130 103 
650 128 126 154 127 
651 128 154 126 133 
652 129 34 152 130 
653 129 152 34 33 
654 139 148 138 140 
655 138 148 139 149 
656 39 38 22 41 
657 22 38 39 35 
658 22 24 31 29 
659 22 31 24 23 
660 28 31 24 29 
661 28 24 31 23 
662 15 9 20 17 
663 15 20 9 14 
664 19 20 9 17 
665 19 9 20 14 
666 130 104 152 131 
667 130 152 104 103 
668 44 22 45 43 
669 44 45 22 23 
670 152 45 22 43 
671 152 22 45 23 
$EndElements
