v -0.499733 -0.715076 0.0
v -0.499399 -0.462376 0.0
v -0.500202 -0.196740 0.0
v -0.504589 0.115551 0.0
v -0.500000 0.500000 0.0
v -0.249832 -0.714715 0.0
v -0.250297 -0.461453 0.0
v -0.257045 -0.199672 0.0
v -0.275675 0.077209 0.0
v -0.255731 0.306547 0.0
v -0.000000 -0.714524 0.0
v -0.000000 -0.460830 0.0
v -0.000000 -0.202317 0.0
v 0.000000 0.041306 0.0
v 0.000000 0.286996 0.0
v 0.249832 -0.714715 0.0
v 0.250297 -0.461453 0.0
v 0.257045 -0.199672 0.0
v 0.275675 0.077209 0.0
v 0.255731 0.306547 0.0
v 0.499733 -0.715076 0.0
v 0.499399 -0.462376 0.0
v 0.500202 -0.196740 0.0
v 0.504589 0.115551 0.0
v 0.500000 0.500000 0.0
f 1 6 7
f 1 7 2
f 2 7 8
f 2 8 3
f 3 8 9
f 3 9 4
f 4 9 10
f 4 10 5
f 6 11 12
f 6 12 7
f 7 12 13
f 7 13 8
f 8 13 14
f 8 14 9
f 9 14 15
f 9 15 10
f 11 16 17
f 11 17 12
f 12 17 18
f 12 18 13
f 13 18 19
f 13 19 14
f 14 19 20
f 14 20 15
f 16 21 22
f 16 22 17
f 17 22 23
f 17 23 18
f 18 23 24
f 18 24 19
f 19 24 25
f 19 25 20
