v -0.517913 -0.829451 0.0
v -0.507658 -0.551959 0.0
v -0.505083 -0.248739 0.0
v -0.506465 0.095680 0.0
v -0.500000 0.500000 0.0
v -0.265087 -0.811991 0.0
v -0.263261 -0.545389 0.0
v -0.272357 -0.258929 0.0
v -0.289649 0.039767 0.0
v -0.256565 0.276090 0.0
v 0.000000 -0.803320 0.0
v 0.000000 -0.538843 0.0
v 0.000000 -0.265032 0.0
v 0.000000 -0.022307 0.0
v 0.000000 0.181191 0.0
v 0.265087 -0.811991 0.0
v 0.263261 -0.545389 0.0
v 0.272357 -0.258929 0.0
v 0.289649 0.039767 0.0
v 0.256565 0.276090 0.0
v 0.517913 -0.829451 0.0
v 0.507658 -0.551959 0.0
v 0.505083 -0.248739 0.0
v 0.506465 0.095680 0.0
v 0.500000 0.500000 0.0
f 1 6 7
f 1 7 2
f 2 7 8
f 2 8 3
f 3 8 9
f 3 9 4
f 4 9 10
f 4 10 5
f 6 11 12
f 6 12 7
f 7 12 13
f 7 13 8
f 8 13 14
f 8 14 9
f 9 14 15
f 9 15 10
f 11 16 17
f 11 17 12
f 12 17 18
f 12 18 13
f 13 18 19
f 13 19 14
f 14 19 20
f 14 20 15
f 16 21 22
f 16 22 17
f 17 22 23
f 17 23 18
f 18 23 24
f 18 24 19
f 19 24 25
f 19 25 20
