v -0.537569 -0.821550 0.0
v -0.519824 -0.545937 0.0
v -0.510118 -0.245326 0.0
v -0.507875 0.096828 0.0
v -0.500000 0.500000 0.0
v -0.278483 -0.808285 0.0
v -0.271232 -0.545091 0.0
v -0.274577 -0.259710 0.0
v -0.289574 0.038888 0.0
v -0.257718 0.274954 0.0
v 0.000000 -0.798363 0.0
v 0.000000 -0.540911 0.0
v 0.000000 -0.268169 0.0
v 0.000000 -0.023557 0.0
v 0.000000 0.183873 0.0
v 0.278483 -0.808285 0.0
v 0.271232 -0.545091 0.0
v 0.274577 -0.259710 0.0
v 0.289574 0.038888 0.0
v 0.257718 0.274954 0.0
v 0.537569 -0.821550 0.0
v 0.519824 -0.545937 0.0
v 0.510118 -0.245326 0.0
v 0.507875 0.096828 0.0
v 0.500000 0.500000 0.0
f 1 6 7
f 1 7 2
f 2 7 8
f 2 8 3
f 3 8 9
f 3 9 4
f 4 9 10
f 4 10 5
f 6 11 12
f 6 12 7
f 7 12 13
f 7 13 8
f 8 13 14
f 8 14 9
f 9 14 15
f 9 15 10
f 11 16 17
f 11 17 12
f 12 17 18
f 12 18 13
f 13 18 19
f 13 19 14
f 14 19 20
f 14 20 15
f 16 21 22
f 16 22 17
f 17 22 23
f 17 23 18
f 18 23 24
f 18 24 19
f 19 24 25
f 19 25 20
