v -0.555376 -0.815388 0.0
v -0.530976 -0.541770 0.0
v -0.514593 -0.243454 0.0
v -0.508945 0.097073 0.0
v -0.500000 0.500000 0.0
v -0.289489 -0.806750 0.0
v -0.278093 -0.546767 0.0
v -0.276440 -0.262197 0.0
v -0.289377 0.036888 0.0
v -0.258886 0.272822 0.0
v 0.000000 -0.796281 0.0
v 0.000000 -0.545345 0.0
v 0.000000 -0.273195 0.0
v 0.000000 -0.026307 0.0
v 0.000000 0.185406 0.0
v 0.289489 -0.806750 0.0
v 0.278093 -0.546767 0.0
v 0.276440 -0.262197 0.0
v 0.289377 0.036888 0.0
v 0.258886 0.272822 0.0
v 0.555376 -0.815388 0.0
v 0.530976 -0.541770 0.0
v 0.514593 -0.243454 0.0
v 0.508945 0.097073 0.0
v 0.500000 0.500000 0.0
f 1 6 7
f 1 7 2
f 2 7 8
f 2 8 3
f 3 8 9
f 3 9 4
f 4 9 10
f 4 10 5
f 6 11 12
f 6 12 7
f 7 12 13
f 7 13 8
f 8 13 14
f 8 14 9
f 9 14 15
f 9 15 10
f 11 16 17
f 11 17 12
f 12 17 18
f 12 18 13
f 13 18 19
f 13 19 14
f 14 19 20
f 14 20 15
f 16 21 22
f 16 22 17
f 17 22 23
f 17 23 18
f 18 23 24
f 18 24 19
f 19 24 25
f 19 25 20
