v -0.570866 -0.811025 0.0
v -0.540758 -0.539563 0.0
v -0.518358 -0.243186 0.0
v -0.509626 0.096411 0.0
v -0.500000 0.500000 0.0
v -0.297868 -0.807338 0.0
v -0.283656 -0.550289 0.0
v -0.277949 -0.266261 0.0
v -0.289094 0.033855 0.0
v -0.260015 0.269773 0.0
v 0.000000 -0.797186 0.0
v 0.000000 -0.551791 0.0
v 0.000000 -0.279806 0.0
v 0.000000 -0.030460 0.0
v 0.000000 0.185645 0.0
v 0.297868 -0.807338 0.0
v 0.283656 -0.550289 0.0
v 0.277949 -0.266261 0.0
v 0.289094 0.033855 0.0
v 0.260015 0.269773 0.0
v 0.570866 -0.811025 0.0
v 0.540758 -0.539563 0.0
v 0.518358 -0.243186 0.0
v 0.509626 0.096411 0.0
v 0.500000 0.500000 0.0
f 1 6 7
f 1 7 2
f 2 7 8
f 2 8 3
f 3 8 9
f 3 9 4
f 4 9 10
f 4 10 5
f 6 11 12
f 6 12 7
f 7 12 13
f 7 13 8
f 8 13 14
f 8 14 9
f 9 14 15
f 9 15 10
f 11 16 17
f 11 17 12
f 12 17 18
f 12 18 13
f 13 18 19
f 13 19 14
f 14 19 20
f 14 20 15
f 16 21 22
f 16 22 17
f 17 22 23
f 17 23 18
f 18 23 24
f 18 24 19
f 19 24 25
f 19 25 20
