v -0.599140 -0.809934 0.0
v -0.558382 -0.545649 0.0
v -0.523943 -0.252240 0.0
v -0.508998 0.089297 0.0
v -0.500000 0.500000 0.0
v -0.308366 -0.821481 0.0
v -0.291920 -0.570358 0.0
v -0.280445 -0.285944 0.0
v -0.288304 0.019883 0.0
v -0.262834 0.256306 0.0
v 0.000000 -0.817526 0.0
v 0.000000 -0.579097 0.0
v 0.000000 -0.305486 0.0
v 0.000000 -0.049695 0.0
v -0.000000 0.177351 0.0
v 0.308366 -0.821481 0.0
v 0.291920 -0.570358 0.0
v 0.280445 -0.285944 0.0
v 0.288304 0.019883 0.0
v 0.262834 0.256306 0.0
v 0.599140 -0.809934 0.0
v 0.558382 -0.545649 0.0
v 0.523943 -0.252240 0.0
v 0.508998 0.089297 0.0
v 0.500000 0.500000 0.0
f 1 6 7
f 1 7 2
f 2 7 8
f 2 8 3
f 3 8 9
f 3 9 4
f 4 9 10
f 4 10 5
f 6 11 12
f 6 12 7
f 7 12 13
f 7 13 8
f 8 13 14
f 8 14 9
f 9 14 15
f 9 15 10
f 11 16 17
f 11 17 12
f 12 17 18
f 12 18 13
f 13 18 19
f 13 19 14
f 14 19 20
f 14 20 15
f 16 21 22
f 16 22 17
f 17 22 23
f 17 23 18
f 18 23 24
f 18 24 19
f 19 24 25
f 19 25 20
