v -0.600356 -0.820941 0.0
v -0.558037 -0.560693 0.0
v -0.521964 -0.265963 0.0
v -0.506380 0.081061 0.0
v -0.500000 0.500000 0.0
v -0.306268 -0.840915 0.0
v -0.290547 -0.589875 0.0
v -0.280335 -0.302795 0.0
v -0.288360 0.008271 0.0
v -0.264109 0.245302 0.0
v 0.000000 -0.843886 0.0
v 0.000000 -0.600496 0.0
v 0.000000 -0.323977 0.0
v 0.000000 -0.065904 0.0
v -0.000000 0.163747 0.0
v 0.306268 -0.840915 0.0
v 0.290547 -0.589875 0.0
v 0.280335 -0.302795 0.0
v 0.288360 0.008271 0.0
v 0.264109 0.245302 0.0
v 0.600356 -0.820941 0.0
v 0.558037 -0.560693 0.0
v 0.521964 -0.265963 0.0
v 0.506380 0.081061 0.0
v 0.500000 0.500000 0.0
f 1 6 7
f 1 7 2
f 2 7 8
f 2 8 3
f 3 8 9
f 3 9 4
f 4 9 10
f 4 10 5
f 6 11 12
f 6 12 7
f 7 12 13
f 7 13 8
f 8 13 14
f 8 14 9
f 9 14 15
f 9 15 10
f 11 16 17
f 11 17 12
f 12 17 18
f 12 18 13
f 13 18 19
f 13 19 14
f 14 19 20
f 14 20 15
f 16 21 22
f 16 22 17
f 17 22 23
f 17 23 18
f 18 23 24
f 18 24 19
f 19 24 25
f 19 25 20
