v -0.595772 -0.830488 0.0
v -0.554103 -0.571356 0.0
v -0.519204 -0.274704 0.0
v -0.504541 0.076246 0.0
v -0.500000 0.500000 0.0
v -0.303315 -0.853521 0.0
v -0.287922 -0.600944 0.0
v -0.279665 -0.311578 0.0
v -0.288649 0.002346 0.0
v -0.264556 0.239734 0.0
v 0.000000 -0.859954 0.0
v 0.000000 -0.611546 0.0
v 0.000000 -0.332833 0.0
v 0.000000 -0.074243 0.0
v -0.000000 0.154679 0.0
v 0.303315 -0.853521 0.0
v 0.287922 -0.600944 0.0
v 0.279665 -0.311578 0.0
v 0.288649 0.002346 0.0
v 0.264556 0.239734 0.0
v 0.595772 -0.830488 0.0
v 0.554103 -0.571356 0.0
v 0.519204 -0.274704 0.0
v 0.504541 0.076246 0.0
v 0.500000 0.500000 0.0
f 1 6 7
f 1 7 2
f 2 7 8
f 2 8 3
f 3 8 9
f 3 9 4
f 4 9 10
f 4 10 5
f 6 11 12
f 6 12 7
f 7 12 13
f 7 13 8
f 8 13 14
f 8 14 9
f 9 14 15
f 9 15 10
f 11 16 17
f 11 17 12
f 12 17 18
f 12 18 13
f 13 18 19
f 13 19 14
f 14 19 20
f 14 20 15
f 16 21 22
f 16 22 17
f 17 22 23
f 17 23 18
f 18 23 24
f 18 24 19
f 19 24 25
f 19 25 20
