v -0.499511 -0.757581 0.0
v -0.498974 -0.502997 0.0
v -0.500204 -0.229364 0.0
v -0.505756 0.099467 0.0
v -0.500000 0.500000 0.0
v -0.249703 -0.756931 0.0
v -0.250545 -0.501595 0.0
v -0.260231 -0.234160 0.0
v -0.282168 0.050921 0.0
v -0.259133 0.276365 0.0
v -0.000000 -0.756585 0.0
v -0.000000 -0.500667 0.0
v -0.000000 -0.238421 0.0
v 0.000000 0.003462 0.0
v 0.000000 0.246034 0.0
v 0.249703 -0.756931 0.0
v 0.250545 -0.501595 0.0
v 0.260231 -0.234160 0.0
v 0.282168 0.050921 0.0
v 0.259133 0.276365 0.0
v 0.499511 -0.757581 0.0
v 0.498974 -0.502997 0.0
v 0.500204 -0.229364 0.0
v 0.505756 0.099467 0.0
v 0.500000 0.500000 0.0
f 1 6 7
f 1 7 2
f 2 7 8
f 2 8 3
f 3 8 9
f 3 9 4
f 4 9 10
f 4 10 5
f 6 11 12
f 6 12 7
f 7 12 13
f 7 13 8
f 8 13 14
f 8 14 9
f 9 14 15
f 9 15 10
f 11 16 17
f 11 17 12
f 12 17 18
f 12 18 13
f 13 18 19
f 13 19 14
f 14 19 20
f 14 20 15
f 16 21 22
f 16 22 17
f 17 22 23
f 17 23 18
f 18 23 24
f 18 24 19
f 19 24 25
f 19 25 20
