v -0.535348 -0.919424 0.0
v -0.505443 -0.647831 0.0
v -0.491080 -0.327902 0.0
v -0.492634 0.050099 0.0
v -0.500000 0.500000 0.0
v -0.272654 -0.940752 0.0
v -0.259903 -0.663612 0.0
v -0.270125 -0.353320 0.0
v -0.291568 -0.023283 0.0
v -0.264353 0.217421 0.0
v 0.000000 -0.952903 0.0
v 0.000000 -0.669208 0.0
v 0.000000 -0.370176 0.0
v 0.000000 -0.109434 0.0
v 0.000000 0.096689 0.0
v 0.272654 -0.940752 0.0
v 0.259903 -0.663612 0.0
v 0.270125 -0.353320 0.0
v 0.291568 -0.023283 0.0
v 0.264353 0.217421 0.0
v 0.535348 -0.919424 0.0
v 0.505443 -0.647831 0.0
v 0.491080 -0.327902 0.0
v 0.492634 0.050099 0.0
v 0.500000 0.500000 0.0
f 1 6 7
f 1 7 2
f 2 7 8
f 2 8 3
f 3 8 9
f 3 9 4
f 4 9 10
f 4 10 5
f 6 11 12
f 6 12 7
f 7 12 13
f 7 13 8
f 8 13 14
f 8 14 9
f 9 14 15
f 9 15 10
f 11 16 17
f 11 17 12
f 12 17 18
f 12 18 13
f 13 18 19
f 13 19 14
f 14 19 20
f 14 20 15
f 16 21 22
f 16 22 17
f 17 22 23
f 17 23 18
f 18 23 24
f 18 24 19
f 19 24 25
f 19 25 20
