v -0.501057 -0.969982 0.0
v -0.478266 -0.683812 0.0
v -0.475561 -0.349674 0.0
v -0.487103 0.040021 0.0
v -0.500000 0.500000 0.0
v -0.253894 -0.981847 0.0
v -0.245690 -0.690046 0.0
v -0.264442 -0.368805 0.0
v -0.292290 -0.031229 0.0
v -0.262740 0.212394 0.0
v 0.000000 -0.988913 0.0
v 0.000000 -0.692900 0.0
v 0.000000 -0.383089 0.0
v 0.000000 -0.118625 0.0
v 0.000000 0.074403 0.0
v 0.253894 -0.981847 0.0
v 0.245690 -0.690046 0.0
v 0.264442 -0.368805 0.0
v 0.292290 -0.031229 0.0
v 0.262740 0.212394 0.0
v 0.501057 -0.969982 0.0
v 0.478266 -0.683812 0.0
v 0.475561 -0.349674 0.0
v 0.487103 0.040021 0.0
v 0.500000 0.500000 0.0
f 1 6 7
f 1 7 2
f 2 7 8
f 2 8 3
f 3 8 9
f 3 9 4
f 4 9 10
f 4 10 5
f 6 11 12
f 6 12 7
f 7 12 13
f 7 13 8
f 8 13 14
f 8 14 9
f 9 14 15
f 9 15 10
f 11 16 17
f 11 17 12
f 12 17 18
f 12 18 13
f 13 18 19
f 13 19 14
f 14 19 20
f 14 20 15
f 16 21 22
f 16 22 17
f 17 22 23
f 17 23 18
f 18 23 24
f 18 24 19
f 19 24 25
f 19 25 20
