v -0.482982 -0.996546 0.0
v -0.464311 -0.701734 0.0
v -0.467437 -0.360148 0.0
v -0.484095 0.035150 0.0
v -0.500000 0.500000 0.0
v -0.243568 -1.002076 0.0
v -0.238936 -0.703198 0.0
v -0.261541 -0.376513 0.0
v -0.292336 -0.034944 0.0
v -0.261605 0.210640 0.0
v 0.000000 -1.005494 0.0
v 0.000000 -0.704473 0.0
v 0.000000 -0.389584 0.0
v 0.000000 -0.122367 0.0
v 0.000000 0.064951 0.0
v 0.243568 -1.002076 0.0
v 0.238936 -0.703198 0.0
v 0.261541 -0.376513 0.0
v 0.292336 -0.034944 0.0
v 0.261605 0.210640 0.0
v 0.482982 -0.996546 0.0
v 0.464311 -0.701734 0.0
v 0.467437 -0.360148 0.0
v 0.484095 0.035150 0.0
v 0.500000 0.500000 0.0
f 1 6 7
f 1 7 2
f 2 7 8
f 2 8 3
f 3 8 9
f 3 9 4
f 4 9 10
f 4 10 5
f 6 11 12
f 6 12 7
f 7 12 13
f 7 13 8
f 8 13 14
f 8 14 9
f 9 14 15
f 9 15 10
f 11 16 17
f 11 17 12
f 12 17 18
f 12 18 13
f 13 18 19
f 13 19 14
f 14 19 20
f 14 20 15
f 16 21 22
f 16 22 17
f 17 22 23
f 17 23 18
f 18 23 24
f 18 24 19
f 19 24 25
f 19 25 20
