v -0.464592 -1.023023 0.0
v -0.450505 -0.719247 0.0
v -0.459242 -0.370286 0.0
v -0.480875 0.030386 0.0
v -0.500000 0.500000 0.0
v -0.232849 -1.021481 0.0
v -0.232679 -0.716165 0.0
v -0.258712 -0.384251 0.0
v -0.292148 -0.038608 0.0
v -0.260322 0.209276 0.0
v 0.000000 -1.020885 0.0
v 0.000000 -0.715655 0.0
v 0.000000 -0.396210 0.0
v 0.000000 -0.125777 0.0
v 0.000000 0.057014 0.0
v 0.232849 -1.021481 0.0
v 0.232679 -0.716165 0.0
v 0.258712 -0.384251 0.0
v 0.292148 -0.038608 0.0
v 0.260322 0.209276 0.0
v 0.464592 -1.023023 0.0
v 0.450505 -0.719247 0.0
v 0.459242 -0.370286 0.0
v 0.480875 0.030386 0.0
v 0.500000 0.500000 0.0
f 1 6 7
f 1 7 2
f 2 7 8
f 2 8 3
f 3 8 9
f 3 9 4
f 4 9 10
f 4 10 5
f 6 11 12
f 6 12 7
f 7 12 13
f 7 13 8
f 8 13 14
f 8 14 9
f 9 14 15
f 9 15 10
f 11 16 17
f 11 17 12
f 12 17 18
f 12 18 13
f 13 18 19
f 13 19 14
f 14 19 20
f 14 20 15
f 16 21 22
f 16 22 17
f 17 22 23
f 17 23 18
f 18 23 24
f 18 24 19
f 19 24 25
f 19 25 20
