v -0.409757 -1.094529 0.0
v -0.412462 -0.766901 0.0
v -0.435476 -0.398313 0.0
v -0.469925 0.016863 0.0
v -0.500000 0.500000 0.0
v -0.200277 -1.071031 0.0
v -0.217793 -0.752370 0.0
v -0.251340 -0.407278 0.0
v -0.290397 -0.049828 0.0
v -0.256567 0.206482 0.0
v 0.000000 -1.059011 0.0
v 0.000000 -0.745395 0.0
v 0.000000 -0.416696 0.0
v 0.000000 -0.135912 0.0
v 0.000000 0.043863 0.0
v 0.200277 -1.071031 0.0
v 0.217793 -0.752370 0.0
v 0.251340 -0.407278 0.0
v 0.290397 -0.049828 0.0
v 0.256567 0.206482 0.0
v 0.409757 -1.094529 0.0
v 0.412462 -0.766901 0.0
v 0.435476 -0.398313 0.0
v 0.469925 0.016863 0.0
v 0.500000 0.500000 0.0
f 1 6 7
f 1 7 2
f 2 7 8
f 2 8 3
f 3 8 9
f 3 9 4
f 4 9 10
f 4 10 5
f 6 11 12
f 6 12 7
f 7 12 13
f 7 13 8
f 8 13 14
f 8 14 9
f 9 14 15
f 9 15 10
f 11 16 17
f 11 17 12
f 12 17 18
f 12 18 13
f 13 18 19
f 13 19 14
f 14 19 20
f 14 20 15
f 16 21 22
f 16 22 17
f 17 22 23
f 17 23 18
f 18 23 24
f 18 24 19
f 19 24 25
f 19 25 20
