v -0.392413 -1.113597 0.0
v -0.401535 -0.780358 0.0
v -0.428230 -0.406611 0.0
v -0.466009 0.012742 0.0
v -0.500000 0.500000 0.0
v -0.189921 -1.083831 0.0
v -0.214117 -0.762847 0.0
v -0.249413 -0.414525 0.0
v -0.289580 -0.053621 0.0
v -0.255734 0.205651 0.0
v 0.000000 -1.068915 0.0
v 0.000000 -0.753643 0.0
v 0.000000 -0.423373 0.0
v 0.000000 -0.139639 0.0
v 0.000000 0.043108 0.0
v 0.189921 -1.083831 0.0
v 0.214117 -0.762847 0.0
v 0.249413 -0.414525 0.0
v 0.289580 -0.053621 0.0
v 0.255734 0.205651 0.0
v 0.392413 -1.113597 0.0
v 0.401535 -0.780358 0.0
v 0.428230 -0.406611 0.0
v 0.466009 0.012742 0.0
v 0.500000 0.500000 0.0
f 1 6 7
f 1 7 2
f 2 7 8
f 2 8 3
f 3 8 9
f 3 9 4
f 4 9 10
f 4 10 5
f 6 11 12
f 6 12 7
f 7 12 13
f 7 13 8
f 8 13 14
f 8 14 9
f 9 14 15
f 9 15 10
f 11 16 17
f 11 17 12
f 12 17 18
f 12 18 13
f 13 18 19
f 13 19 14
f 14 19 20
f 14 20 15
f 16 21 22
f 16 22 17
f 17 22 23
f 17 23 18
f 18 23 24
f 18 24 19
f 19 24 25
f 19 25 20
