v -0.375988 -1.129546 0.0
v -0.391696 -0.792200 0.0
v -0.421520 -0.414171 0.0
v -0.462137 0.008933 0.0
v -0.500000 0.500000 0.0
v -0.180109 -1.094569 0.0
v -0.210966 -0.772142 0.0
v -0.247792 -0.421271 0.0
v -0.288750 -0.057314 0.0
v -0.255289 0.204740 0.0
v 0.000000 -1.077415 0.0
v 0.000000 -0.760896 0.0
v 0.000000 -0.429677 0.0
v 0.000000 -0.143506 0.0
v 0.000000 0.043980 0.0
v 0.180109 -1.094569 0.0
v 0.210966 -0.772142 0.0
v 0.247792 -0.421271 0.0
v 0.288750 -0.057314 0.0
v 0.255289 0.204740 0.0
v 0.375988 -1.129546 0.0
v 0.391696 -0.792200 0.0
v 0.421520 -0.414171 0.0
v 0.462137 0.008933 0.0
v 0.500000 0.500000 0.0
f 1 6 7
f 1 7 2
f 2 7 8
f 2 8 3
f 3 8 9
f 3 9 4
f 4 9 10
f 4 10 5
f 6 11 12
f 6 12 7
f 7 12 13
f 7 13 8
f 8 13 14
f 8 14 9
f 9 14 15
f 9 15 10
f 11 16 17
f 11 17 12
f 12 17 18
f 12 18 13
f 13 18 19
f 13 19 14
f 14 19 20
f 14 20 15
f 16 21 22
f 16 22 17
f 17 22 23
f 17 23 18
f 18 23 24
f 18 24 19
f 19 24 25
f 19 25 20
