v -0.346987 -1.151440 0.0
v -0.375528 -0.810161 0.0
v -0.410147 -0.426331 0.0
v -0.455122 0.002652 0.0
v -0.500000 0.500000 0.0
v -0.162694 -1.109808 0.0
v -0.205830 -0.786364 0.0
v -0.245454 -0.432415 0.0
v -0.287274 -0.063851 0.0
v -0.255806 0.202542 0.0
v 0.000000 -1.090263 0.0
v -0.000000 -0.772062 0.0
v -0.000000 -0.440280 0.0
v 0.000000 -0.150882 0.0
v 0.000000 0.049622 0.0
v 0.162694 -1.109808 0.0
v 0.205830 -0.786364 0.0
v 0.245454 -0.432415 0.0
v 0.287274 -0.063851 0.0
v 0.255806 0.202542 0.0
v 0.346987 -1.151440 0.0
v 0.375528 -0.810161 0.0
v 0.410147 -0.426331 0.0
v 0.455122 0.002652 0.0
v 0.500000 0.500000 0.0
f 1 6 7
f 1 7 2
f 2 7 8
f 2 8 3
f 3 8 9
f 3 9 4
f 4 9 10
f 4 10 5
f 6 11 12
f 6 12 7
f 7 12 13
f 7 13 8
f 8 13 14
f 8 14 9
f 9 14 15
f 9 15 10
f 11 16 17
f 11 17 12
f 12 17 18
f 12 18 13
f 13 18 19
f 13 19 14
f 14 19 20
f 14 20 15
f 16 21 22
f 16 22 17
f 17 22 23
f 17 23 18
f 18 23 24
f 18 24 19
f 19 24 25
f 19 25 20
