v -0.334911 -1.157412 0.0
v -0.369260 -0.815941 0.0
v -0.405683 -0.430557 0.0
v -0.452290 0.000391 0.0
v -0.500000 0.500000 0.0
v -0.155340 -1.114370 0.0
v -0.203663 -0.790972 0.0
v -0.244688 -0.436399 0.0
v -0.286705 -0.066382 0.0
v -0.256796 0.201282 0.0
v -0.000000 -1.094629 0.0
v -0.000000 -0.775796 0.0
v -0.000000 -0.444135 0.0
v 0.000000 -0.153849 0.0
v 0.000000 0.053781 0.0
v 0.155340 -1.114370 0.0
v 0.203663 -0.790972 0.0
v 0.244688 -0.436399 0.0
v 0.286705 -0.066382 0.0
v 0.256796 0.201282 0.0
v 0.334911 -1.157412 0.0
v 0.369260 -0.815941 0.0
v 0.405683 -0.430557 0.0
v 0.452290 0.000391 0.0
v 0.500000 0.500000 0.0
f 1 6 7
f 1 7 2
f 2 7 8
f 2 8 3
f 3 8 9
f 3 9 4
f 4 9 10
f 4 10 5
f 6 11 12
f 6 12 7
f 7 12 13
f 7 13 8
f 8 13 14
f 8 14 9
f 9 14 15
f 9 15 10
f 11 16 17
f 11 17 12
f 12 17 18
f 12 18 13
f 13 18 19
f 13 19 14
f 14 19 20
f 14 20 15
f 16 21 22
f 16 22 17
f 17 22 23
f 17 23 18
f 18 23 24
f 18 24 19
f 19 24 25
f 19 25 20
