v -0.324733 -1.160263 0.0
v -0.364216 -0.819459 0.0
v -0.402140 -0.433340 0.0
v -0.450089 -0.001158 0.0
v -0.500000 0.500000 0.0
v -0.149026 -1.116959 0.0
v -0.201677 -0.793777 0.0
v -0.244137 -0.439087 0.0
v -0.286273 -0.068221 0.0
v -0.258223 0.200005 0.0
v -0.000000 -1.097616 0.0
v -0.000000 -0.778181 0.0
v -0.000000 -0.446759 0.0
v 0.000000 -0.155961 0.0
v 0.000000 0.058397 0.0
v 0.149026 -1.116959 0.0
v 0.201677 -0.793777 0.0
v 0.244137 -0.439087 0.0
v 0.286273 -0.068221 0.0
v 0.258223 0.200005 0.0
v 0.324733 -1.160263 0.0
v 0.364216 -0.819459 0.0
v 0.402140 -0.433340 0.0
v 0.450089 -0.001158 0.0
v 0.500000 0.500000 0.0
f 1 6 7
f 1 7 2
f 2 7 8
f 2 8 3
f 3 8 9
f 3 9 4
f 4 9 10
f 4 10 5
f 6 11 12
f 6 12 7
f 7 12 13
f 7 13 8
f 8 13 14
f 8 14 9
f 9 14 15
f 9 15 10
f 11 16 17
f 11 17 12
f 12 17 18
f 12 18 13
f 13 18 19
f 13 19 14
f 14 19 20
f 14 20 15
f 16 21 22
f 16 22 17
f 17 22 23
f 17 23 18
f 18 23 24
f 18 24 19
f 19 24 25
f 19 25 20
