v -0.316615 -1.160222 0.0
v -0.360395 -0.820700 0.0
v -0.399578 -0.434589 0.0
v -0.448611 -0.001931 0.0
v -0.500000 0.500000 0.0
v -0.143837 -1.117630 0.0
v -0.199844 -0.794736 0.0
v -0.243751 -0.440354 0.0
v -0.285977 -0.069246 0.0
v -0.259996 0.198823 0.0
v -0.000000 -1.099196 0.0
v -0.000000 -0.779139 0.0
v -0.000000 -0.448005 0.0
v 0.000000 -0.156996 0.0
v 0.000000 0.063168 0.0
v 0.143837 -1.117630 0.0
v 0.199844 -0.794736 0.0
v 0.243751 -0.440354 0.0
v 0.285977 -0.069246 0.0
v 0.259996 0.198823 0.0
v 0.316615 -1.160222 0.0
v 0.360395 -0.820700 0.0
v 0.399578 -0.434589 0.0
v 0.448611 -0.001931 0.0
v 0.500000 0.500000 0.0
f 1 6 7
f 1 7 2
f 2 7 8
f 2 8 3
f 3 8 9
f 3 9 4
f 4 9 10
f 4 10 5
f 6 11 12
f 6 12 7
f 7 12 13
f 7 13 8
f 8 13 14
f 8 14 9
f 9 14 15
f 9 15 10
f 11 16 17
f 11 17 12
f 12 17 18
f 12 18 13
f 13 18 19
f 13 19 14
f 14 19 20
f 14 20 15
f 16 21 22
f 16 22 17
f 17 22 23
f 17 23 18
f 18 23 24
f 18 24 19
f 19 24 25
f 19 25 20
