v -0.310681 -1.157553 0.0
v -0.357792 -0.819718 0.0
v -0.398034 -0.434277 0.0
v -0.447906 -0.001896 0.0
v -0.500000 0.500000 0.0
v -0.139844 -1.116435 0.0
v -0.198165 -0.793853 0.0
v -0.243482 -0.440129 0.0
v -0.285805 -0.069376 0.0
v -0.261995 0.197875 0.0
v -0.000000 -1.099328 0.0
v -0.000000 -0.778610 0.0
v -0.000000 -0.447774 0.0
v -0.000000 -0.156822 0.0
v 0.000000 0.067842 0.0
v 0.139844 -1.116435 0.0
v 0.198165 -0.793853 0.0
v 0.243482 -0.440129 0.0
v 0.285805 -0.069376 0.0
v 0.261995 0.197875 0.0
v 0.310681 -1.157553 0.0
v 0.357792 -0.819718 0.0
v 0.398034 -0.434277 0.0
v 0.447906 -0.001896 0.0
v 0.500000 0.500000 0.0
f 1 6 7
f 1 7 2
f 2 7 8
f 2 8 3
f 3 8 9
f 3 9 4
f 4 9 10
f 4 10 5
f 6 11 12
f 6 12 7
f 7 12 13
f 7 13 8
f 8 13 14
f 8 14 9
f 9 14 15
f 9 15 10
f 11 16 17
f 11 17 12
f 12 17 18
f 12 18 13
f 13 18 19
f 13 19 14
f 14 19 20
f 14 20 15
f 16 21 22
f 16 22 17
f 17 22 23
f 17 23 18
f 18 23 24
f 18 24 19
f 19 24 25
f 19 25 20
