v -0.498569 -0.852667 0.0
v -0.497344 -0.590896 0.0
v -0.499769 -0.293900 0.0
v -0.507000 0.068222 0.0
v -0.500000 0.500000 0.0
v -0.249195 -0.850830 0.0
v -0.251533 -0.588191 0.0
v -0.268575 -0.304537 0.0
v -0.294824 0.000101 0.0
v -0.268508 0.220916 0.0
v -0.000000 -0.849861 0.0
v -0.000000 -0.586513 0.0
v -0.000000 -0.313550 0.0
v 0.000000 -0.073805 0.0
v 0.000000 0.156966 0.0
v 0.249195 -0.850830 0.0
v 0.251533 -0.588191 0.0
v 0.268575 -0.304537 0.0
v 0.294824 0.000101 0.0
v 0.268508 0.220916 0.0
v 0.498569 -0.852667 0.0
v 0.497344 -0.590896 0.0
v 0.499769 -0.293900 0.0
v 0.507000 0.068222 0.0
v 0.500000 0.500000 0.0
f 1 6 7
f 1 7 2
f 2 7 8
f 2 8 3
f 3 8 9
f 3 9 4
f 4 9 10
f 4 10 5
f 6 11 12
f 6 12 7
f 7 12 13
f 7 13 8
f 8 13 14
f 8 14 9
f 9 14 15
f 9 15 10
f 11 16 17
f 11 17 12
f 12 17 18
f 12 18 13
f 13 18 19
f 13 19 14
f 14 19 20
f 14 20 15
f 16 21 22
f 16 22 17
f 17 22 23
f 17 23 18
f 18 23 24
f 18 24 19
f 19 24 25
f 19 25 20
