v -0.307010 -1.152531 0.0
v -0.356404 -0.816628 0.0
v -0.397522 -0.432443 0.0
v -0.447976 -0.001059 0.0
v -0.500000 0.500000 0.0
v -0.137106 -1.113425 0.0
v -0.196667 -0.791169 0.0
v -0.243289 -0.438404 0.0
v -0.285735 -0.068572 0.0
v -0.264073 0.197307 0.0
v -0.000000 -1.097957 0.0
v -0.000000 -0.776559 0.0
v -0.000000 -0.446033 0.0
v -0.000000 -0.155402 0.0
v 0.000000 0.072239 0.0
v 0.137106 -1.113425 0.0
v 0.196667 -0.791169 0.0
v 0.243289 -0.438404 0.0
v 0.285735 -0.068572 0.0
v 0.264073 0.197307 0.0
v 0.307010 -1.152531 0.0
v 0.356404 -0.816628 0.0
v 0.397522 -0.432443 0.0
v 0.447976 -0.001059 0.0
v 0.500000 0.500000 0.0
f 1 6 7
f 1 7 2
f 2 7 8
f 2 8 3
f 3 8 9
f 3 9 4
f 4 9 10
f 4 10 5
f 6 11 12
f 6 12 7
f 7 12 13
f 7 13 8
f 8 13 14
f 8 14 9
f 9 14 15
f 9 15 10
f 11 16 17
f 11 17 12
f 12 17 18
f 12 18 13
f 13 18 19
f 13 19 14
f 14 19 20
f 14 20 15
f 16 21 22
f 16 22 17
f 17 22 23
f 17 23 18
f 18 23 24
f 18 24 19
f 19 24 25
f 19 25 20
