v -0.315227 -1.114204 0.0
v -0.362926 -0.786916 0.0
v -0.405334 -0.412433 0.0
v -0.454778 0.009148 0.0
v -0.500000 0.500000 0.0
v -0.139340 -1.084572 0.0
v -0.193778 -0.764564 0.0
v -0.243041 -0.418241 0.0
v -0.286041 -0.056794 0.0
v -0.270096 0.200988 0.0
v -0.000000 -1.076465 0.0
v -0.000000 -0.753680 0.0
v -0.000000 -0.425493 0.0
v -0.000000 -0.139275 0.0
v -0.000000 0.086062 0.0
v 0.139340 -1.084572 0.0
v 0.193778 -0.764564 0.0
v 0.243041 -0.418241 0.0
v 0.286041 -0.056794 0.0
v 0.270096 0.200988 0.0
v 0.315227 -1.114204 0.0
v 0.362926 -0.786916 0.0
v 0.405334 -0.412433 0.0
v 0.454778 0.009148 0.0
v 0.500000 0.500000 0.0
f 1 6 7
f 1 7 2
f 2 7 8
f 2 8 3
f 3 8 9
f 3 9 4
f 4 9 10
f 4 10 5
f 6 11 12
f 6 12 7
f 7 12 13
f 7 13 8
f 8 13 14
f 8 14 9
f 9 14 15
f 9 15 10
f 11 16 17
f 11 17 12
f 12 17 18
f 12 18 13
f 13 18 19
f 13 19 14
f 14 19 20
f 14 20 15
f 16 21 22
f 16 22 17
f 17 22 23
f 17 23 18
f 18 23 24
f 18 24 19
f 19 24 25
f 19 25 20
