v -0.322750 -1.101264 0.0
v -0.367550 -0.776280 0.0
v -0.409466 -0.405138 0.0
v -0.457619 0.012962 0.0
v -0.500000 0.500000 0.0
v -0.143216 -1.073649 0.0
v -0.194278 -0.754752 0.0
v -0.243221 -0.410680 0.0
v -0.286182 -0.052201 0.0
v -0.270412 0.203593 0.0
v -0.000000 -1.067048 0.0
v -0.000000 -0.744773 0.0
v -0.000000 -0.417777 0.0
v -0.000000 -0.133486 0.0
v -0.000000 0.088830 0.0
v 0.143216 -1.073649 0.0
v 0.194278 -0.754752 0.0
v 0.243221 -0.410680 0.0
v 0.286182 -0.052201 0.0
v 0.270412 0.203593 0.0
v 0.322750 -1.101264 0.0
v 0.367550 -0.776280 0.0
v 0.409466 -0.405138 0.0
v 0.457619 0.012962 0.0
v 0.500000 0.500000 0.0
f 1 6 7
f 1 7 2
f 2 7 8
f 2 8 3
f 3 8 9
f 3 9 4
f 4 9 10
f 4 10 5
f 6 11 12
f 6 12 7
f 7 12 13
f 7 13 8
f 8 13 14
f 8 14 9
f 9 14 15
f 9 15 10
f 11 16 17
f 11 17 12
f 12 17 18
f 12 18 13
f 13 18 19
f 13 19 14
f 14 19 20
f 14 20 15
f 16 21 22
f 16 22 17
f 17 22 23
f 17 23 18
f 18 23 24
f 18 24 19
f 19 24 25
f 19 25 20
