v -0.343517 -1.072830 0.0
v -0.380271 -0.752771 0.0
v -0.419754 -0.389050 0.0
v -0.463938 0.021429 0.0
v -0.500000 0.500000 0.0
v -0.154773 -1.048426 0.0
v -0.197423 -0.732790 0.0
v -0.244237 -0.393936 0.0
v -0.286514 -0.041972 0.0
v -0.269280 0.210510 0.0
v -0.000000 -1.043891 0.0
v -0.000000 -0.724302 0.0
v -0.000000 -0.400752 0.0
v -0.000000 -0.121080 0.0
v -0.000000 0.094231 0.0
v 0.154773 -1.048426 0.0
v 0.197423 -0.732790 0.0
v 0.244237 -0.393936 0.0
v 0.286514 -0.041972 0.0
v 0.269280 0.210510 0.0
v 0.343517 -1.072830 0.0
v 0.380271 -0.752771 0.0
v 0.419754 -0.389050 0.0
v 0.463938 0.021429 0.0
v 0.500000 0.500000 0.0
f 1 6 7
f 1 7 2
f 2 7 8
f 2 8 3
f 3 8 9
f 3 9 4
f 4 9 10
f 4 10 5
f 6 11 12
f 6 12 7
f 7 12 13
f 7 13 8
f 8 13 14
f 8 14 9
f 9 14 15
f 9 15 10
f 11 16 17
f 11 17 12
f 12 17 18
f 12 18 13
f 13 18 19
f 13 19 14
f 14 19 20
f 14 20 15
f 16 21 22
f 16 22 17
f 17 22 23
f 17 23 18
f 18 23 24
f 18 24 19
f 19 24 25
f 19 25 20
