v -0.497686 -0.904561 0.0
v -0.495941 -0.636695 0.0
v -0.499036 -0.324796 0.0
v -0.506574 0.052735 0.0
v -0.500000 0.500000 0.0
v -0.248758 -0.901661 0.0
v -0.252355 -0.633275 0.0
v -0.273257 -0.339230 0.0
v -0.300019 -0.023484 0.0
v -0.273723 0.197480 0.0
v 0.000000 -0.900143 0.0
v -0.000000 -0.631241 0.0
v -0.000000 -0.351111 0.0
v 0.000000 -0.110725 0.0
v 0.000000 0.110384 0.0
v 0.248758 -0.901661 0.0
v 0.252355 -0.633275 0.0
v 0.273257 -0.339230 0.0
v 0.300019 -0.023484 0.0
v 0.273723 0.197480 0.0
v 0.497686 -0.904561 0.0
v 0.495941 -0.636695 0.0
v 0.499036 -0.324796 0.0
v 0.506574 0.052735 0.0
v 0.500000 0.500000 0.0
f 1 6 7
f 1 7 2
f 2 7 8
f 2 8 3
f 3 8 9
f 3 9 4
f 4 9 10
f 4 10 5
f 6 11 12
f 6 12 7
f 7 12 13
f 7 13 8
f 8 13 14
f 8 14 9
f 9 14 15
f 9 15 10
f 11 16 17
f 11 17 12
f 12 17 18
f 12 18 13
f 13 18 19
f 13 19 14
f 14 19 20
f 14 20 15
f 16 21 22
f 16 22 17
f 17 22 23
f 17 23 18
f 18 23 24
f 18 24 19
f 19 24 25
f 19 25 20
