v -0.470360 -0.950698 0.0
v -0.465738 -0.654472 0.0
v -0.473929 -0.322193 0.0
v -0.488492 0.056566 0.0
v -0.500000 0.500000 0.0
v -0.234888 -0.935625 0.0
v -0.241360 -0.645609 0.0
v -0.261330 -0.331943 0.0
v -0.289032 -0.004699 0.0
v -0.255455 0.242476 0.0
v -0.000000 -0.928235 0.0
v -0.000000 -0.640475 0.0
v -0.000000 -0.340765 0.0
v -0.000000 -0.079514 0.0
v 0.000000 0.120165 0.0
v 0.234888 -0.935625 0.0
v 0.241360 -0.645609 0.0
v 0.261330 -0.331943 0.0
v 0.289032 -0.004699 0.0
v 0.255455 0.242476 0.0
v 0.470360 -0.950698 0.0
v 0.465738 -0.654472 0.0
v 0.473929 -0.322193 0.0
v 0.488492 0.056566 0.0
v 0.500000 0.500000 0.0
f 1 6 7
f 1 7 2
f 2 7 8
f 2 8 3
f 3 8 9
f 3 9 4
f 4 9 10
f 4 10 5
f 6 11 12
f 6 12 7
f 7 12 13
f 7 13 8
f 8 13 14
f 8 14 9
f 9 14 15
f 9 15 10
f 11 16 17
f 11 17 12
f 12 17 18
f 12 18 13
f 13 18 19
f 13 19 14
f 14 19 20
f 14 20 15
f 16 21 22
f 16 22 17
f 17 22 23
f 17 23 18
f 18 23 24
f 18 24 19
f 19 24 25
f 19 25 20
