v -0.516507 -0.912573 0.0
v -0.500550 -0.625014 0.0
v -0.493084 -0.302606 0.0
v -0.495434 0.066239 0.0
v -0.500000 0.500000 0.0
v -0.263120 -0.903112 0.0
v -0.261525 -0.624399 0.0
v -0.269922 -0.319234 0.0
v -0.289996 0.002095 0.0
v -0.254674 0.247583 0.0
v -0.000000 -0.895100 0.0
v -0.000000 -0.622101 0.0
v -0.000000 -0.330892 0.0
v -0.000000 -0.072906 0.0
v 0.000000 0.129341 0.0
v 0.263120 -0.903112 0.0
v 0.261525 -0.624399 0.0
v 0.269922 -0.319234 0.0
v 0.289996 0.002095 0.0
v 0.254674 0.247583 0.0
v 0.516507 -0.912573 0.0
v 0.500550 -0.625014 0.0
v 0.493084 -0.302606 0.0
v 0.495434 0.066239 0.0
v 0.500000 0.500000 0.0
f 1 6 7
f 1 7 2
f 2 7 8
f 2 8 3
f 3 8 9
f 3 9 4
f 4 9 10
f 4 10 5
f 6 11 12
f 6 12 7
f 7 12 13
f 7 13 8
f 8 13 14
f 8 14 9
f 9 14 15
f 9 15 10
f 11 16 17
f 11 17 12
f 12 17 18
f 12 18 13
f 13 18 19
f 13 19 14
f 14 19 20
f 14 20 15
f 16 21 22
f 16 22 17
f 17 22 23
f 17 23 18
f 18 23 24
f 18 24 19
f 19 24 25
f 19 25 20
