v -0.496377 -0.958630 0.0
v -0.493984 -0.682508 0.0
v -0.497657 -0.354493 0.0
v -0.505171 0.037299 0.0
v -0.500000 0.500000 0.0
v -0.248159 -0.954223 0.0
v -0.253399 -0.678467 0.0
v -0.277723 -0.372925 0.0
v -0.303883 -0.045342 0.0
v -0.278378 0.177638 0.0
v 0.000000 -0.951952 0.0
v -0.000000 -0.676173 0.0
v -0.000000 -0.387644 0.0
v 0.000000 -0.144682 0.0
v 0.000000 0.063934 0.0
v 0.248159 -0.954223 0.0
v 0.253399 -0.678467 0.0
v 0.277723 -0.372925 0.0
v 0.303883 -0.045342 0.0
v 0.278378 0.177638 0.0
v 0.496377 -0.958630 0.0
v 0.493984 -0.682508 0.0
v 0.497657 -0.354493 0.0
v 0.505171 0.037299 0.0
v 0.500000 0.500000 0.0
f 1 6 7
f 1 7 2
f 2 7 8
f 2 8 3
f 3 8 9
f 3 9 4
f 4 9 10
f 4 10 5
f 6 11 12
f 6 12 7
f 7 12 13
f 7 13 8
f 8 13 14
f 8 14 9
f 9 14 15
f 9 15 10
f 11 16 17
f 11 17 12
f 12 17 18
f 12 18 13
f 13 18 19
f 13 19 14
f 14 19 20
f 14 20 15
f 16 21 22
f 16 22 17
f 17 22 23
f 17 23 18
f 18 23 24
f 18 24 19
f 19 24 25
f 19 25 20
