v -0.540385 -0.892496 0.0
v -0.519256 -0.610094 0.0
v -0.503245 -0.293286 0.0
v -0.499084 0.070419 0.0
v -0.500000 0.500000 0.0
v -0.276202 -0.887420 0.0
v -0.271379 -0.615350 0.0
v -0.274381 -0.314838 0.0
v -0.290466 0.003789 0.0
v -0.256128 0.247623 0.0
v -0.000000 -0.880750 0.0
v -0.000000 -0.615439 0.0
v -0.000000 -0.328560 0.0
v -0.000000 -0.071683 0.0
v 0.000000 0.133757 0.0
v 0.276202 -0.887420 0.0
v 0.271379 -0.615350 0.0
v 0.274381 -0.314838 0.0
v 0.290466 0.003789 0.0
v 0.256128 0.247623 0.0
v 0.540385 -0.892496 0.0
v 0.519256 -0.610094 0.0
v 0.503245 -0.293286 0.0
v 0.499084 0.070419 0.0
v 0.500000 0.500000 0.0
f 1 6 7
f 1 7 2
f 2 7 8
f 2 8 3
f 3 8 9
f 3 9 4
f 4 9 10
f 4 10 5
f 6 11 12
f 6 12 7
f 7 12 13
f 7 13 8
f 8 13 14
f 8 14 9
f 9 14 15
f 9 15 10
f 11 16 17
f 11 17 12
f 12 17 18
f 12 18 13
f 13 18 19
f 13 19 14
f 14 19 20
f 14 20 15
f 16 21 22
f 16 22 17
f 17 22 23
f 17 23 18
f 18 23 24
f 18 24 19
f 19 24 25
f 19 25 20
