v -0.562828 -0.869995 0.0
v -0.537002 -0.595660 0.0
v -0.513378 -0.286303 0.0
v -0.503317 0.072514 0.0
v -0.500000 0.500000 0.0
v -0.286862 -0.873422 0.0
v -0.279003 -0.609518 0.0
v -0.278503 -0.314277 0.0
v -0.291209 0.001804 0.0
v -0.261115 0.241511 0.0
v -0.000000 -0.872815 0.0
v -0.000000 -0.613345 0.0
v -0.000000 -0.330751 0.0
v -0.000000 -0.075149 0.0
v -0.000000 0.136139 0.0
v 0.286862 -0.873422 0.0
v 0.279003 -0.609518 0.0
v 0.278503 -0.314277 0.0
v 0.291209 0.001804 0.0
v 0.261115 0.241511 0.0
v 0.562828 -0.869995 0.0
v 0.537002 -0.595660 0.0
v 0.513378 -0.286303 0.0
v 0.503317 0.072514 0.0
v 0.500000 0.500000 0.0
f 1 6 7
f 1 7 2
f 2 7 8
f 2 8 3
f 3 8 9
f 3 9 4
f 4 9 10
f 4 10 5
f 6 11 12
f 6 12 7
f 7 12 13
f 7 13 8
f 8 13 14
f 8 14 9
f 9 14 15
f 9 15 10
f 11 16 17
f 11 17 12
f 12 17 18
f 12 18 13
f 13 18 19
f 13 19 14
f 14 19 20
f 14 20 15
f 16 21 22
f 16 22 17
f 17 22 23
f 17 23 18
f 18 23 24
f 18 24 19
f 19 24 25
f 19 25 20
