v -0.562591 -0.868820 0.0
v -0.536656 -0.595737 0.0
v -0.513408 -0.287097 0.0
v -0.503612 0.071831 0.0
v -0.500000 0.500000 0.0
v -0.286569 -0.873920 0.0
v -0.278414 -0.610480 0.0
v -0.278450 -0.315450 0.0
v -0.291375 0.000603 0.0
v -0.262306 0.239317 0.0
v -0.000000 -0.874958 0.0
v -0.000000 -0.614767 0.0
v -0.000000 -0.332156 0.0
v -0.000000 -0.076802 0.0
v -0.000000 0.135170 0.0
v 0.286569 -0.873920 0.0
v 0.278414 -0.610480 0.0
v 0.278450 -0.315450 0.0
v 0.291375 0.000603 0.0
v 0.262306 0.239317 0.0
v 0.562591 -0.868820 0.0
v 0.536656 -0.595737 0.0
v 0.513408 -0.287097 0.0
v 0.503612 0.071831 0.0
v 0.500000 0.500000 0.0
f 1 6 7
f 1 7 2
f 2 7 8
f 2 8 3
f 3 8 9
f 3 9 4
f 4 9 10
f 4 10 5
f 6 11 12
f 6 12 7
f 7 12 13
f 7 13 8
f 8 13 14
f 8 14 9
f 9 14 15
f 9 15 10
f 11 16 17
f 11 17 12
f 12 17 18
f 12 18 13
f 13 18 19
f 13 19 14
f 14 19 20
f 14 20 15
f 16 21 22
f 16 22 17
f 17 22 23
f 17 23 18
f 18 23 24
f 18 24 19
f 19 24 25
f 19 25 20
