v -0.560130 -0.869643 0.0
v -0.534458 -0.597349 0.0
v -0.512424 -0.288836 0.0
v -0.503571 0.070750 0.0
v -0.500000 0.500000 0.0
v -0.285209 -0.876091 0.0
v -0.276924 -0.612350 0.0
v -0.277975 -0.317021 0.0
v -0.291521 -0.000734 0.0
v -0.263335 0.237109 0.0
v -0.000000 -0.878572 0.0
v -0.000000 -0.616878 0.0
v -0.000000 -0.333766 0.0
v -0.000000 -0.078604 0.0
v -0.000000 0.133574 0.0
v 0.285209 -0.876091 0.0
v 0.276924 -0.612350 0.0
v 0.277975 -0.317021 0.0
v 0.291521 -0.000734 0.0
v 0.263335 0.237109 0.0
v 0.560130 -0.869643 0.0
v 0.534458 -0.597349 0.0
v 0.512424 -0.288836 0.0
v 0.503571 0.070750 0.0
v 0.500000 0.500000 0.0
f 1 6 7
f 1 7 2
f 2 7 8
f 2 8 3
f 3 8 9
f 3 9 4
f 4 9 10
f 4 10 5
f 6 11 12
f 6 12 7
f 7 12 13
f 7 13 8
f 8 13 14
f 8 14 9
f 9 14 15
f 9 15 10
f 11 16 17
f 11 17 12
f 12 17 18
f 12 18 13
f 13 18 19
f 13 19 14
f 14 19 20
f 14 20 15
f 16 21 22
f 16 22 17
f 17 22 23
f 17 23 18
f 18 23 24
f 18 24 19
f 19 24 25
f 19 25 20
