v -0.541338 -0.884533 0.0
v -0.518449 -0.610977 0.0
v -0.503994 -0.298943 0.0
v -0.501363 0.065607 0.0
v -0.500000 0.500000 0.0
v -0.275270 -0.892436 0.0
v -0.267872 -0.623128 0.0
v -0.274277 -0.323783 0.0
v -0.291690 -0.005107 0.0
v -0.265033 0.231464 0.0
v -0.000000 -0.897007 0.0
v -0.000000 -0.627129 0.0
v -0.000000 -0.339626 0.0
v -0.000000 -0.084241 0.0
v -0.000000 0.125555 0.0
v 0.275270 -0.892436 0.0
v 0.267872 -0.623128 0.0
v 0.274277 -0.323783 0.0
v 0.291690 -0.005107 0.0
v 0.265033 0.231464 0.0
v 0.541338 -0.884533 0.0
v 0.518449 -0.610977 0.0
v 0.503994 -0.298943 0.0
v 0.501363 0.065607 0.0
v 0.500000 0.500000 0.0
f 1 6 7
f 1 7 2
f 2 7 8
f 2 8 3
f 3 8 9
f 3 9 4
f 4 9 10
f 4 10 5
f 6 11 12
f 6 12 7
f 7 12 13
f 7 13 8
f 8 13 14
f 8 14 9
f 9 14 15
f 9 15 10
f 11 16 17
f 11 17 12
f 12 17 18
f 12 18 13
f 13 18 19
f 13 19 14
f 14 19 20
f 14 20 15
f 16 21 22
f 16 22 17
f 17 22 23
f 17 23 18
f 18 23 24
f 18 24 19
f 19 24 25
f 19 25 20
