v -0.521673 -0.904436 0.0
v -0.502146 -0.626489 0.0
v -0.494756 -0.308873 0.0
v -0.498172 0.060984 0.0
v -0.500000 0.500000 0.0
v -0.264467 -0.910655 0.0
v -0.259136 -0.634321 0.0
v -0.270378 -0.329966 0.0
v -0.291450 -0.008200 0.0
v -0.264821 0.229170 0.0
v -0.000000 -0.914266 0.0
v -0.000000 -0.637058 0.0
v -0.000000 -0.344553 0.0
v -0.000000 -0.087824 0.0
v -0.000000 0.118420 0.0
v 0.264467 -0.910655 0.0
v 0.259136 -0.634321 0.0
v 0.270378 -0.329966 0.0
v 0.291450 -0.008200 0.0
v 0.264821 0.229170 0.0
v 0.521673 -0.904436 0.0
v 0.502146 -0.626489 0.0
v 0.494756 -0.308873 0.0
v 0.498172 0.060984 0.0
v 0.500000 0.500000 0.0
f 1 6 7
f 1 7 2
f 2 7 8
f 2 8 3
f 3 8 9
f 3 9 4
f 4 9 10
f 4 10 5
f 6 11 12
f 6 12 7
f 7 12 13
f 7 13 8
f 8 13 14
f 8 14 9
f 9 14 15
f 9 15 10
f 11 16 17
f 11 17 12
f 12 17 18
f 12 18 13
f 13 18 19
f 13 19 14
f 14 19 20
f 14 20 15
f 16 21 22
f 16 22 17
f 17 22 23
f 17 23 18
f 18 23 24
f 18 24 19
f 19 24 25
f 19 25 20
