v -0.510424 -0.916990 0.0
v -0.493014 -0.635784 0.0
v -0.489387 -0.314553 0.0
v -0.496094 0.058387 0.0
v -0.500000 0.500000 0.0
v -0.258098 -0.921488 0.0
v -0.254360 -0.641013 0.0
v -0.268177 -0.333621 0.0
v -0.291206 -0.009855 0.0
v -0.264325 0.228500 0.0
v -0.000000 -0.923950 0.0
v -0.000000 -0.642881 0.0
v -0.000000 -0.347451 0.0
v -0.000000 -0.089564 0.0
v -0.000000 0.114660 0.0
v 0.258098 -0.921488 0.0
v 0.254360 -0.641013 0.0
v 0.268177 -0.333621 0.0
v 0.291206 -0.009855 0.0
v 0.264325 0.228500 0.0
v 0.510424 -0.916990 0.0
v 0.493014 -0.635784 0.0
v 0.489387 -0.314553 0.0
v 0.496094 0.058387 0.0
v 0.500000 0.500000 0.0
f 1 6 7
f 1 7 2
f 2 7 8
f 2 8 3
f 3 8 9
f 3 9 4
f 4 9 10
f 4 10 5
f 6 11 12
f 6 12 7
f 7 12 13
f 7 13 8
f 8 13 14
f 8 14 9
f 9 14 15
f 9 15 10
f 11 16 17
f 11 17 12
f 12 17 18
f 12 18 13
f 13 18 19
f 13 19 14
f 14 19 20
f 14 20 15
f 16 21 22
f 16 22 17
f 17 22 23
f 17 23 18
f 18 23 24
f 18 24 19
f 19 24 25
f 19 25 20
