v -0.498525 -0.930977 0.0
v -0.483529 -0.645895 0.0
v -0.483674 -0.320623 0.0
v -0.493721 0.055615 0.0
v -0.500000 0.500000 0.0
v -0.251242 -0.933178 0.0
v -0.249497 -0.648367 0.0
v -0.265895 -0.337690 0.0
v -0.290883 -0.011637 0.0
v -0.263606 0.228092 0.0
v -0.000000 -0.934136 0.0
v -0.000000 -0.649226 0.0
v -0.000000 -0.350713 0.0
v -0.000000 -0.091321 0.0
v -0.000000 0.110934 0.0
v 0.251242 -0.933178 0.0
v 0.249497 -0.648367 0.0
v 0.265895 -0.337690 0.0
v 0.290883 -0.011637 0.0
v 0.263606 0.228092 0.0
v 0.498525 -0.930977 0.0
v 0.483529 -0.645895 0.0
v 0.483674 -0.320623 0.0
v 0.493721 0.055615 0.0
v 0.500000 0.500000 0.0
f 1 6 7
f 1 7 2
f 2 7 8
f 2 8 3
f 3 8 9
f 3 9 4
f 4 9 10
f 4 10 5
f 6 11 12
f 6 12 7
f 7 12 13
f 7 13 8
f 8 13 14
f 8 14 9
f 9 14 15
f 9 15 10
f 11 16 17
f 11 17 12
f 12 17 18
f 12 18 13
f 13 18 19
f 13 19 14
f 14 19 20
f 14 20 15
f 16 21 22
f 16 22 17
f 17 22 23
f 17 23 18
f 18 23 24
f 18 24 19
f 19 24 25
f 19 25 20
