v -0.486182 -0.946108 0.0
v -0.473899 -0.656653 0.0
v -0.477726 -0.327026 0.0
v -0.491084 0.052676 0.0
v -0.500000 0.500000 0.0
v -0.244028 -0.945480 0.0
v -0.244678 -0.656317 0.0
v -0.263593 -0.342193 0.0
v -0.290490 -0.013592 0.0
v -0.262710 0.227870 0.0
v -0.000000 -0.944670 0.0
v -0.000000 -0.656041 0.0
v -0.000000 -0.354387 0.0
v -0.000000 -0.093157 0.0
v -0.000000 0.107352 0.0
v 0.244028 -0.945480 0.0
v 0.244678 -0.656317 0.0
v 0.263593 -0.342193 0.0
v 0.290490 -0.013592 0.0
v 0.262710 0.227870 0.0
v 0.486182 -0.946108 0.0
v 0.473899 -0.656653 0.0
v 0.477726 -0.327026 0.0
v 0.491084 0.052676 0.0
v 0.500000 0.500000 0.0
f 1 6 7
f 1 7 2
f 2 7 8
f 2 8 3
f 3 8 9
f 3 9 4
f 4 9 10
f 4 10 5
f 6 11 12
f 6 12 7
f 7 12 13
f 7 13 8
f 8 13 14
f 8 14 9
f 9 14 15
f 9 15 10
f 11 16 17
f 11 17 12
f 12 17 18
f 12 18 13
f 13 18 19
f 13 19 14
f 14 19 20
f 14 20 15
f 16 21 22
f 16 22 17
f 17 22 23
f 17 23 18
f 18 23 24
f 18 24 19
f 19 24 25
f 19 25 20
