v -0.460914 -0.978460 0.0
v -0.454940 -0.679417 0.0
v -0.465552 -0.340620 0.0
v -0.485182 0.046334 0.0
v -0.500000 0.500000 0.0
v -0.229053 -0.970914 0.0
v -0.235604 -0.673633 0.0
v -0.259147 -0.352499 0.0
v -0.289545 -0.018188 0.0
v -0.260623 0.227604 0.0
v -0.000000 -0.966206 0.0
v -0.000000 -0.670821 0.0
v -0.000000 -0.363092 0.0
v -0.000000 -0.097363 0.0
v -0.000000 0.100984 0.0
v 0.229053 -0.970914 0.0
v 0.235604 -0.673633 0.0
v 0.259147 -0.352499 0.0
v 0.289545 -0.018188 0.0
v 0.260623 0.227604 0.0
v 0.460914 -0.978460 0.0
v 0.454940 -0.679417 0.0
v 0.465552 -0.340620 0.0
v 0.485182 0.046334 0.0
v 0.500000 0.500000 0.0
f 1 6 7
f 1 7 2
f 2 7 8
f 2 8 3
f 3 8 9
f 3 9 4
f 4 9 10
f 4 10 5
f 6 11 12
f 6 12 7
f 7 12 13
f 7 13 8
f 8 13 14
f 8 14 9
f 9 14 15
f 9 15 10
f 11 16 17
f 11 17 12
f 12 17 18
f 12 18 13
f 13 18 19
f 13 19 14
f 14 19 20
f 14 20 15
f 16 21 22
f 16 22 17
f 17 22 23
f 17 23 18
f 18 23 24
f 18 24 19
f 19 24 25
f 19 25 20
