v -0.448346 -0.994954 0.0
v -0.445931 -0.691071 0.0
v -0.459525 -0.347692 0.0
v -0.482021 0.042964 0.0
v -0.500000 0.500000 0.0
v -0.221555 -0.983566 0.0
v -0.231511 -0.682768 0.0
v -0.257093 -0.358242 0.0
v -0.289025 -0.020882 0.0
v -0.259575 0.227349 0.0
v -0.000000 -0.976940 0.0
v -0.000000 -0.678622 0.0
v -0.000000 -0.368119 0.0
v -0.000000 -0.099878 0.0
v -0.000000 0.098321 0.0
v 0.221555 -0.983566 0.0
v 0.231511 -0.682768 0.0
v 0.257093 -0.358242 0.0
v 0.289025 -0.020882 0.0
v 0.259575 0.227349 0.0
v 0.448346 -0.994954 0.0
v 0.445931 -0.691071 0.0
v 0.459525 -0.347692 0.0
v 0.482021 0.042964 0.0
v 0.500000 0.500000 0.0
f 1 6 7
f 1 7 2
f 2 7 8
f 2 8 3
f 3 8 9
f 3 9 4
f 4 9 10
f 4 10 5
f 6 11 12
f 6 12 7
f 7 12 13
f 7 13 8
f 8 13 14
f 8 14 9
f 9 14 15
f 9 15 10
f 11 16 17
f 11 17 12
f 12 17 18
f 12 18 13
f 13 18 19
f 13 19 14
f 14 19 20
f 14 20 15
f 16 21 22
f 16 22 17
f 17 22 23
f 17 23 18
f 18 23 24
f 18 24 19
f 19 24 25
f 19 25 20
