v -0.436051 -1.011174 0.0
v -0.437409 -0.702667 0.0
v -0.453662 -0.354849 0.0
v -0.478807 0.039498 0.0
v -0.500000 0.500000 0.0
v -0.214217 -0.995892 0.0
v -0.227780 -0.692033 0.0
v -0.255200 -0.364291 0.0
v -0.288498 -0.023846 0.0
v -0.258627 0.226878 0.0
v -0.000000 -0.987490 0.0
v -0.000000 -0.686565 0.0
v -0.000000 -0.373543 0.0
v -0.000000 -0.102739 0.0
v -0.000000 0.096041 0.0
v 0.214217 -0.995892 0.0
v 0.227780 -0.692033 0.0
v 0.255200 -0.364291 0.0
v 0.288498 -0.023846 0.0
v 0.258627 0.226878 0.0
v 0.436051 -1.011174 0.0
v 0.437409 -0.702667 0.0
v 0.453662 -0.354849 0.0
v 0.478807 0.039498 0.0
v 0.500000 0.500000 0.0
f 1 6 7
f 1 7 2
f 2 7 8
f 2 8 3
f 3 8 9
f 3 9 4
f 4 9 10
f 4 10 5
f 6 11 12
f 6 12 7
f 7 12 13
f 7 13 8
f 8 13 14
f 8 14 9
f 9 14 15
f 9 15 10
f 11 16 17
f 11 17 12
f 12 17 18
f 12 18 13
f 13 18 19
f 13 19 14
f 14 19 20
f 14 20 15
f 16 21 22
f 16 22 17
f 17 22 23
f 17 23 18
f 18 23 24
f 18 24 19
f 19 24 25
f 19 25 20
