v -0.392946 -1.067119 0.0
v -0.409953 -0.744860 0.0
v -0.433597 -0.382270 0.0
v -0.466994 0.025653 0.0
v -0.500000 0.500000 0.0
v -0.188679 -1.038824 0.0
v -0.216656 -0.727175 0.0
v -0.249704 -0.389287 0.0
v -0.286713 -0.037572 0.0
v -0.257189 0.221544 0.0
v -0.000000 -1.025839 0.0
v -0.000000 -0.717405 0.0
v -0.000000 -0.397185 0.0
v -0.000000 -0.117450 0.0
v 0.000000 0.090147 0.0
v 0.188679 -1.038824 0.0
v 0.216656 -0.727175 0.0
v 0.249704 -0.389287 0.0
v 0.286713 -0.037572 0.0
v 0.257189 0.221544 0.0
v 0.392946 -1.067119 0.0
v 0.409953 -0.744860 0.0
v 0.433597 -0.382270 0.0
v 0.466994 0.025653 0.0
v 0.500000 0.500000 0.0
f 1 6 7
f 1 7 2
f 2 7 8
f 2 8 3
f 3 8 9
f 3 9 4
f 4 9 10
f 4 10 5
f 6 11 12
f 6 12 7
f 7 12 13
f 7 13 8
f 8 13 14
f 8 14 9
f 9 14 15
f 9 15 10
f 11 16 17
f 11 17 12
f 12 17 18
f 12 18 13
f 13 18 19
f 13 19 14
f 14 19 20
f 14 20 15
f 16 21 22
f 16 22 17
f 17 22 23
f 17 23 18
f 18 23 24
f 18 24 19
f 19 24 25
f 19 25 20
