v -0.384475 -1.077728 0.0
v -0.405013 -0.753487 0.0
v -0.429815 -0.388205 0.0
v -0.464709 0.022523 0.0
v -0.500000 0.500000 0.0
v -0.183717 -1.047413 0.0
v -0.214754 -0.734677 0.0
v -0.248902 -0.395036 0.0
v -0.286440 -0.041077 0.0
v -0.257625 0.219291 0.0
v -0.000000 -1.034016 0.0
v -0.000000 -0.724255 0.0
v -0.000000 -0.402875 0.0
v -0.000000 -0.121555 0.0
v 0.000000 0.089132 0.0
v 0.183717 -1.047413 0.0
v 0.214754 -0.734677 0.0
v 0.248902 -0.395036 0.0
v 0.286440 -0.041077 0.0
v 0.257625 0.219291 0.0
v 0.384475 -1.077728 0.0
v 0.405013 -0.753487 0.0
v 0.429815 -0.388205 0.0
v 0.464709 0.022523 0.0
v 0.500000 0.500000 0.0
f 1 6 7
f 1 7 2
f 2 7 8
f 2 8 3
f 3 8 9
f 3 9 4
f 4 9 10
f 4 10 5
f 6 11 12
f 6 12 7
f 7 12 13
f 7 13 8
f 8 13 14
f 8 14 9
f 9 14 15
f 9 15 10
f 11 16 17
f 11 17 12
f 12 17 18
f 12 18 13
f 13 18 19
f 13 19 14
f 14 19 20
f 14 20 15
f 16 21 22
f 16 22 17
f 17 22 23
f 17 23 18
f 18 23 24
f 18 24 19
f 19 24 25
f 19 25 20
