v -0.483774 -1.176279 0.0
v -0.477649 -0.848155 0.0
v -0.480246 -0.461510 0.0
v -0.488589 -0.020128 0.0
v -0.500000 0.500000 0.0
v -0.243483 -1.160589 0.0
v -0.256833 -0.844217 0.0
v -0.283535 -0.489653 0.0
v -0.304593 -0.111852 0.0
v -0.277104 0.132116 0.0
v 0.000000 -1.153413 0.0
v 0.000000 -0.841981 0.0
v 0.000000 -0.510742 0.0
v 0.000000 -0.233831 0.0
v 0.000000 -0.087042 0.0
v 0.243483 -1.160589 0.0
v 0.256833 -0.844217 0.0
v 0.283535 -0.489653 0.0
v 0.304593 -0.111852 0.0
v 0.277104 0.132116 0.0
v 0.483774 -1.176279 0.0
v 0.477649 -0.848155 0.0
v 0.480246 -0.461510 0.0
v 0.488589 -0.020128 0.0
v 0.500000 0.500000 0.0
f 1 6 7
f 1 7 2
f 2 7 8
f 2 8 3
f 3 8 9
f 3 9 4
f 4 9 10
f 4 10 5
f 6 11 12
f 6 12 7
f 7 12 13
f 7 13 8
f 8 13 14
f 8 14 9
f 9 14 15
f 9 15 10
f 11 16 17
f 11 17 12
f 12 17 18
f 12 18 13
f 13 18 19
f 13 19 14
f 14 19 20
f 14 20 15
f 16 21 22
f 16 22 17
f 17 22 23
f 17 23 18
f 18 23 24
f 18 24 19
f 19 24 25
f 19 25 20
