v -0.477991 -1.223893 0.0
v -0.470671 -0.882055 0.0
v -0.472019 -0.484490 0.0
v -0.482116 -0.032177 0.0
v -0.500000 0.500000 0.0
v -0.241507 -1.204578 0.0
v -0.256111 -0.878444 0.0
v -0.280611 -0.512423 0.0
v -0.302400 -0.123290 0.0
v -0.271040 0.127644 0.0
v 0.000000 -1.196092 0.0
v 0.000000 -0.876151 0.0
v 0.000000 -0.533707 0.0
v 0.000000 -0.244829 0.0
v 0.000000 -0.107790 0.0
v 0.241507 -1.204578 0.0
v 0.256111 -0.878444 0.0
v 0.280611 -0.512423 0.0
v 0.302400 -0.123290 0.0
v 0.271040 0.127644 0.0
v 0.477991 -1.223893 0.0
v 0.470671 -0.882055 0.0
v 0.472019 -0.484490 0.0
v 0.482116 -0.032177 0.0
v 0.500000 0.500000 0.0
f 1 6 7
f 1 7 2
f 2 7 8
f 2 8 3
f 3 8 9
f 3 9 4
f 4 9 10
f 4 10 5
f 6 11 12
f 6 12 7
f 7 12 13
f 7 13 8
f 8 13 14
f 8 14 9
f 9 14 15
f 9 15 10
f 11 16 17
f 11 17 12
f 12 17 18
f 12 18 13
f 13 18 19
f 13 19 14
f 14 19 20
f 14 20 15
f 16 21 22
f 16 22 17
f 17 22 23
f 17 23 18
f 18 23 24
f 18 24 19
f 19 24 25
f 19 25 20
