v -0.430687 -1.354424 0.0
v -0.416768 -0.981838 0.0
v -0.415487 -0.553171 0.0
v -0.446566 -0.067231 0.0
v -0.500000 0.500000 0.0
v -0.221979 -1.325644 0.0
v -0.233778 -0.974906 0.0
v -0.253814 -0.574913 0.0
v -0.292317 -0.153520 0.0
v -0.244672 0.136307 0.0
v 0.000000 -1.315003 0.0
v 0.000000 -0.971095 0.0
v 0.000000 -0.594582 0.0
v 0.000000 -0.268569 0.0
v -0.000000 -0.090870 0.0
v 0.221979 -1.325644 0.0
v 0.233778 -0.974906 0.0
v 0.253814 -0.574913 0.0
v 0.292317 -0.153520 0.0
v 0.244672 0.136307 0.0
v 0.430687 -1.354424 0.0
v 0.416768 -0.981838 0.0
v 0.415487 -0.553171 0.0
v 0.446566 -0.067231 0.0
v 0.500000 0.500000 0.0
f 1 6 7
f 1 7 2
f 2 7 8
f 2 8 3
f 3 8 9
f 3 9 4
f 4 9 10
f 4 10 5
f 6 11 12
f 6 12 7
f 7 12 13
f 7 13 8
f 8 13 14
f 8 14 9
f 9 14 15
f 9 15 10
f 11 16 17
f 11 17 12
f 12 17 18
f 12 18 13
f 13 18 19
f 13 19 14
f 14 19 20
f 14 20 15
f 16 21 22
f 16 22 17
f 17 22 23
f 17 23 18
f 18 23 24
f 18 24 19
f 19 24 25
f 19 25 20
