v -0.405493 -1.349158 0.0
v -0.390637 -0.979932 0.0
v -0.393894 -0.551872 0.0
v -0.435462 -0.066342 0.0
v -0.500000 0.500000 0.0
v -0.208613 -1.322833 0.0
v -0.219296 -0.971650 0.0
v -0.245439 -0.572330 0.0
v -0.289187 -0.151158 0.0
v -0.247851 0.146802 0.0
v 0.000000 -1.313345 0.0
v 0.000000 -0.967854 0.0
v 0.000000 -0.591055 0.0
v 0.000000 -0.262784 0.0
v -0.000000 -0.046175 0.0
v 0.208613 -1.322833 0.0
v 0.219296 -0.971650 0.0
v 0.245439 -0.572330 0.0
v 0.289187 -0.151158 0.0
v 0.247851 0.146802 0.0
v 0.405493 -1.349158 0.0
v 0.390637 -0.979932 0.0
v 0.393894 -0.551872 0.0
v 0.435462 -0.066342 0.0
v 0.500000 0.500000 0.0
f 1 6 7
f 1 7 2
f 2 7 8
f 2 8 3
f 3 8 9
f 3 9 4
f 4 9 10
f 4 10 5
f 6 11 12
f 6 12 7
f 7 12 13
f 7 13 8
f 8 13 14
f 8 14 9
f 9 14 15
f 9 15 10
f 11 16 17
f 11 17 12
f 12 17 18
f 12 18 13
f 13 18 19
f 13 19 14
f 14 19 20
f 14 20 15
f 16 21 22
f 16 22 17
f 17 22 23
f 17 23 18
f 18 23 24
f 18 24 19
f 19 24 25
f 19 25 20
