v -0.392524 -1.335539 0.0
v -0.378172 -0.969635 0.0
v -0.385000 -0.544623 0.0
v -0.431536 -0.062433 0.0
v -0.500000 0.500000 0.0
v -0.201017 -1.311397 0.0
v -0.212190 -0.961230 0.0
v -0.242340 -0.564560 0.0
v -0.287691 -0.146117 0.0
v -0.252261 0.152003 0.0
v 0.000000 -1.302651 0.0
v 0.000000 -0.957540 0.0
v 0.000000 -0.582659 0.0
v 0.000000 -0.254763 0.0
v -0.000000 -0.021485 0.0
v 0.201017 -1.311397 0.0
v 0.212190 -0.961230 0.0
v 0.242340 -0.564560 0.0
v 0.287691 -0.146117 0.0
v 0.252261 0.152003 0.0
v 0.392524 -1.335539 0.0
v 0.378172 -0.969635 0.0
v 0.385000 -0.544623 0.0
v 0.431536 -0.062433 0.0
v 0.500000 0.500000 0.0
f 1 6 7
f 1 7 2
f 2 7 8
f 2 8 3
f 3 8 9
f 3 9 4
f 4 9 10
f 4 10 5
f 6 11 12
f 6 12 7
f 7 12 13
f 7 13 8
f 8 13 14
f 8 14 9
f 9 14 15
f 9 15 10
f 11 16 17
f 11 17 12
f 12 17 18
f 12 18 13
f 13 18 19
f 13 19 14
f 14 19 20
f 14 20 15
f 16 21 22
f 16 22 17
f 17 22 23
f 17 23 18
f 18 23 24
f 18 24 19
f 19 24 25
f 19 25 20
