v -0.367406 -1.290205 0.0
v -0.356462 -0.932893 0.0
v -0.372247 -0.518301 0.0
v -0.427524 -0.048330 0.0
v -0.500000 0.500000 0.0
v -0.184965 -1.271189 0.0
v -0.199577 -0.924872 0.0
v -0.237720 -0.536831 0.0
v -0.284927 -0.128563 0.0
v -0.263919 0.162482 0.0
v 0.000000 -1.263849 0.0
v 0.000000 -0.921250 0.0
v 0.000000 -0.553080 0.0
v 0.000000 -0.228475 0.0
v -0.000000 0.026576 0.0
v 0.184965 -1.271189 0.0
v 0.199577 -0.924872 0.0
v 0.237720 -0.536831 0.0
v 0.284927 -0.128563 0.0
v 0.263919 0.162482 0.0
v 0.367406 -1.290205 0.0
v 0.356462 -0.932893 0.0
v 0.372247 -0.518301 0.0
v 0.427524 -0.048330 0.0
v 0.500000 0.500000 0.0
f 1 6 7
f 1 7 2
f 2 7 8
f 2 8 3
f 3 8 9
f 3 9 4
f 4 9 10
f 4 10 5
f 6 11 12
f 6 12 7
f 7 12 13
f 7 13 8
f 8 13 14
f 8 14 9
f 9 14 15
f 9 15 10
f 11 16 17
f 11 17 12
f 12 17 18
f 12 18 13
f 13 18 19
f 13 19 14
f 14 19 20
f 14 20 15
f 16 21 22
f 16 22 17
f 17 22 23
f 17 23 18
f 18 23 24
f 18 24 19
f 19 24 25
f 19 25 20
