v -0.328690 -1.151112 0.0
v -0.333659 -0.815988 0.0
v -0.369369 -0.433384 0.0
v -0.434082 -0.002704 0.0
v -0.500000 0.500000 0.0
v -0.155080 -1.139570 0.0
v -0.183732 -0.806945 0.0
v -0.232000 -0.445833 0.0
v -0.280911 -0.071531 0.0
v -0.282454 0.190470 0.0
v 0.000000 -1.133243 0.0
v -0.000000 -0.801749 0.0
v 0.000000 -0.456071 0.0
v 0.000000 -0.150585 0.0
v 0.000000 0.102983 0.0
v 0.155080 -1.139570 0.0
v 0.183732 -0.806945 0.0
v 0.232000 -0.445833 0.0
v 0.280911 -0.071531 0.0
v 0.282454 0.190470 0.0
v 0.328690 -1.151112 0.0
v 0.333659 -0.815988 0.0
v 0.369369 -0.433384 0.0
v 0.434082 -0.002704 0.0
v 0.500000 0.500000 0.0
f 1 6 7
f 1 7 2
f 2 7 8
f 2 8 3
f 3 8 9
f 3 9 4
f 4 9 10
f 4 10 5
f 6 11 12
f 6 12 7
f 7 12 13
f 7 13 8
f 8 13 14
f 8 14 9
f 9 14 15
f 9 15 10
f 11 16 17
f 11 17 12
f 12 17 18
f 12 18 13
f 13 18 19
f 13 19 14
f 14 19 20
f 14 20 15
f 16 21 22
f 16 22 17
f 17 22 23
f 17 23 18
f 18 23 24
f 18 24 19
f 19 24 25
f 19 25 20
