v -0.322829 -1.111132 0.0
v -0.333205 -0.782331 0.0
v -0.373381 -0.409028 0.0
v -0.438306 0.010406 0.0
v -0.500000 0.500000 0.0
v -0.149044 -1.100082 0.0
v -0.181793 -0.772093 0.0
v -0.231210 -0.419145 0.0
v -0.280248 -0.054888 0.0
v -0.283739 0.199860 0.0
v 0.000000 -1.093558 0.0
v -0.000000 -0.766111 0.0
v -0.000000 -0.427708 0.0
v 0.000000 -0.129564 0.0
v 0.000000 0.117721 0.0
v 0.149044 -1.100082 0.0
v 0.181793 -0.772093 0.0
v 0.231210 -0.419145 0.0
v 0.280248 -0.054888 0.0
v 0.283739 0.199860 0.0
v 0.322829 -1.111132 0.0
v 0.333205 -0.782331 0.0
v 0.373381 -0.409028 0.0
v 0.438306 0.010406 0.0
v 0.500000 0.500000 0.0
f 1 6 7
f 1 7 2
f 2 7 8
f 2 8 3
f 3 8 9
f 3 9 4
f 4 9 10
f 4 10 5
f 6 11 12
f 6 12 7
f 7 12 13
f 7 13 8
f 8 13 14
f 8 14 9
f 9 14 15
f 9 15 10
f 11 16 17
f 11 17 12
f 12 17 18
f 12 18 13
f 13 18 19
f 13 19 14
f 14 19 20
f 14 20 15
f 16 21 22
f 16 22 17
f 17 22 23
f 17 23 18
f 18 23 24
f 18 24 19
f 19 24 25
f 19 25 20
