v -0.316841 -1.030241 0.0
v -0.339018 -0.714705 0.0
v -0.386783 -0.360505 0.0
v -0.449359 0.036502 0.0
v -0.500000 0.500000 0.0
v -0.139505 -1.018242 0.0
v -0.180166 -0.700755 0.0
v -0.230763 -0.365046 0.0
v -0.279322 -0.021337 0.0
v -0.281491 0.221302 0.0
v 0.000000 -1.011014 0.0
v -0.000000 -0.692861 0.0
v -0.000000 -0.370397 0.0
v -0.000000 -0.088792 0.0
v 0.000000 0.143475 0.0
v 0.139505 -1.018242 0.0
v 0.180166 -0.700755 0.0
v 0.230763 -0.365046 0.0
v 0.279322 -0.021337 0.0
v 0.281491 0.221302 0.0
v 0.316841 -1.030241 0.0
v 0.339018 -0.714705 0.0
v 0.386783 -0.360505 0.0
v 0.449359 0.036502 0.0
v 0.500000 0.500000 0.0
f 1 6 7
f 1 7 2
f 2 7 8
f 2 8 3
f 3 8 9
f 3 9 4
f 4 9 10
f 4 10 5
f 6 11 12
f 6 12 7
f 7 12 13
f 7 13 8
f 8 13 14
f 8 14 9
f 9 14 15
f 9 15 10
f 11 16 17
f 11 17 12
f 12 17 18
f 12 18 13
f 13 18 19
f 13 19 14
f 14 19 20
f 14 20 15
f 16 21 22
f 16 22 17
f 17 22 23
f 17 23 18
f 18 23 24
f 18 24 19
f 19 24 25
f 19 25 20
