v -0.318991 -0.952382 0.0
v -0.353594 -0.650527 0.0
v -0.406749 -0.315098 0.0
v -0.463430 0.060906 0.0
v -0.500000 0.500000 0.0
v -0.133967 -0.937049 0.0
v -0.181578 -0.631122 0.0
v -0.232402 -0.313066 0.0
v -0.279061 0.010571 0.0
v -0.273927 0.245144 0.0
v 0.000000 -0.929101 0.0
v -0.000000 -0.621010 0.0
v -0.000000 -0.315425 0.0
v -0.000000 -0.051364 0.0
v 0.000000 0.165713 0.0
v 0.133967 -0.937049 0.0
v 0.181578 -0.631122 0.0
v 0.232402 -0.313066 0.0
v 0.279061 0.010571 0.0
v 0.273927 0.245144 0.0
v 0.318991 -0.952382 0.0
v 0.353594 -0.650527 0.0
v 0.406749 -0.315098 0.0
v 0.463430 0.060906 0.0
v 0.500000 0.500000 0.0
f 1 6 7
f 1 7 2
f 2 7 8
f 2 8 3
f 3 8 9
f 3 9 4
f 4 9 10
f 4 10 5
f 6 11 12
f 6 12 7
f 7 12 13
f 7 13 8
f 8 13 14
f 8 14 9
f 9 14 15
f 9 15 10
f 11 16 17
f 11 17 12
f 12 17 18
f 12 18 13
f 13 18 19
f 13 19 14
f 14 19 20
f 14 20 15
f 16 21 22
f 16 22 17
f 17 22 23
f 17 23 18
f 18 23 24
f 18 24 19
f 19 24 25
f 19 25 20
