v -0.499999 -0.539237 0.0
v -0.499994 -0.289209 0.0
v -0.500008 -0.038862 0.0
v -0.500175 0.215433 0.0
v -0.500000 0.500000 0.0
v -0.249999 -0.539235 0.0
v -0.250001 -0.289195 0.0
v -0.250177 -0.038890 0.0
v -0.252022 0.212983 0.0
v -0.249981 0.461151 0.0
v -0.000000 -0.539234 0.0
v 0.000000 -0.289185 0.0
v -0.000000 -0.038914 0.0
v 0.000000 0.210815 0.0
v 0.000000 0.460775 0.0
v 0.249999 -0.539235 0.0
v 0.250001 -0.289195 0.0
v 0.250177 -0.038890 0.0
v 0.252022 0.212983 0.0
v 0.249981 0.461151 0.0
v 0.499999 -0.539237 0.0
v 0.499994 -0.289209 0.0
v 0.500008 -0.038862 0.0
v 0.500175 0.215433 0.0
v 0.500000 0.500000 0.0
f 1 6 7
f 1 7 2
f 2 7 8
f 2 8 3
f 3 8 9
f 3 9 4
f 4 9 10
f 4 10 5
f 6 11 12
f 6 12 7
f 7 12 13
f 7 13 8
f 8 13 14
f 8 14 9
f 9 14 15
f 9 15 10
f 11 16 17
f 11 17 12
f 12 17 18
f 12 18 13
f 13 18 19
f 13 19 14
f 14 19 20
f 14 20 15
f 16 21 22
f 16 22 17
f 17 22 23
f 17 23 18
f 18 23 24
f 18 24 19
f 19 24 25
f 19 25 20
