v -0.337201 -0.850209 0.0
v -0.389534 -0.568350 0.0
v -0.445937 -0.257832 0.0
v -0.487909 0.092006 0.0
v -0.500000 0.500000 0.0
v -0.135177 -0.826280 0.0
v -0.190621 -0.537980 0.0
v -0.240492 -0.245444 0.0
v -0.280794 0.051319 0.0
v -0.258285 0.281201 0.0
v 0.000000 -0.818098 0.0
v -0.000000 -0.524155 0.0
v -0.000000 -0.243293 0.0
v -0.000000 -0.004354 0.0
v -0.000000 0.194372 0.0
v 0.135177 -0.826280 0.0
v 0.190621 -0.537980 0.0
v 0.240492 -0.245444 0.0
v 0.280794 0.051319 0.0
v 0.258285 0.281201 0.0
v 0.337201 -0.850209 0.0
v 0.389534 -0.568350 0.0
v 0.445937 -0.257832 0.0
v 0.487909 0.092006 0.0
v 0.500000 0.500000 0.0
f 1 6 7
f 1 7 2
f 2 7 8
f 2 8 3
f 3 8 9
f 3 9 4
f 4 9 10
f 4 10 5
f 6 11 12
f 6 12 7
f 7 12 13
f 7 13 8
f 8 13 14
f 8 14 9
f 9 14 15
f 9 15 10
f 11 16 17
f 11 17 12
f 12 17 18
f 12 18 13
f 13 18 19
f 13 19 14
f 14 19 20
f 14 20 15
f 16 21 22
f 16 22 17
f 17 22 23
f 17 23 18
f 18 23 24
f 18 24 19
f 19 24 25
f 19 25 20
