v -0.358014 -0.796018 0.0
v -0.419743 -0.526006 0.0
v -0.474845 -0.228347 0.0
v -0.503860 0.108600 0.0
v -0.500000 0.500000 0.0
v -0.144224 -0.764654 0.0
v -0.202706 -0.487535 0.0
v -0.250511 -0.210499 0.0
v -0.283959 0.071702 0.0
v -0.249519 0.301945 0.0
v 0.000000 -0.756921 0.0
v -0.000000 -0.470896 0.0
v -0.000000 -0.205035 0.0
v -0.000000 0.019396 0.0
v -0.000000 0.210281 0.0
v 0.144224 -0.764654 0.0
v 0.202706 -0.487535 0.0
v 0.250511 -0.210499 0.0
v 0.283959 0.071702 0.0
v 0.249519 0.301945 0.0
v 0.358014 -0.796018 0.0
v 0.419743 -0.526006 0.0
v 0.474845 -0.228347 0.0
v 0.503860 0.108600 0.0
v 0.500000 0.500000 0.0
f 1 6 7
f 1 7 2
f 2 7 8
f 2 8 3
f 3 8 9
f 3 9 4
f 4 9 10
f 4 10 5
f 6 11 12
f 6 12 7
f 7 12 13
f 7 13 8
f 8 13 14
f 8 14 9
f 9 14 15
f 9 15 10
f 11 16 17
f 11 17 12
f 12 17 18
f 12 18 13
f 13 18 19
f 13 19 14
f 14 19 20
f 14 20 15
f 16 21 22
f 16 22 17
f 17 22 23
f 17 23 18
f 18 23 24
f 18 24 19
f 19 24 25
f 19 25 20
