v -0.370503 -0.773803 0.0
v -0.435690 -0.508890 0.0
v -0.489075 -0.216232 0.0
v -0.510976 0.115656 0.0
v -0.500000 0.500000 0.0
v -0.151736 -0.738431 0.0
v -0.210811 -0.466636 0.0
v -0.256835 -0.196690 0.0
v -0.286142 0.079458 0.0
v -0.246628 0.310350 0.0
v 0.000000 -0.730899 0.0
v -0.000000 -0.448476 0.0
v -0.000000 -0.189537 0.0
v -0.000000 0.028626 0.0
v -0.000000 0.217080 0.0
v 0.151736 -0.738431 0.0
v 0.210811 -0.466636 0.0
v 0.256835 -0.196690 0.0
v 0.286142 0.079458 0.0
v 0.246628 0.310350 0.0
v 0.370503 -0.773803 0.0
v 0.435690 -0.508890 0.0
v 0.489075 -0.216232 0.0
v 0.510976 0.115656 0.0
v 0.500000 0.500000 0.0
f 1 6 7
f 1 7 2
f 2 7 8
f 2 8 3
f 3 8 9
f 3 9 4
f 4 9 10
f 4 10 5
f 6 11 12
f 6 12 7
f 7 12 13
f 7 13 8
f 8 13 14
f 8 14 9
f 9 14 15
f 9 15 10
f 11 16 17
f 11 17 12
f 12 17 18
f 12 18 13
f 13 18 19
f 13 19 14
f 14 19 20
f 14 20 15
f 16 21 22
f 16 22 17
f 17 22 23
f 17 23 18
f 18 23 24
f 18 24 19
f 19 24 25
f 19 25 20
