v -0.384136 -0.755036 0.0
v -0.451768 -0.494467 0.0
v -0.502708 -0.205796 0.0
v -0.517277 0.121870 0.0
v -0.500000 0.500000 0.0
v -0.161347 -0.715578 0.0
v -0.220193 -0.448903 0.0
v -0.263784 -0.185502 0.0
v -0.288608 0.085470 0.0
v -0.244980 0.317040 0.0
v -0.000000 -0.708060 0.0
v -0.000000 -0.429194 0.0
v -0.000000 -0.176774 0.0
v -0.000000 0.035935 0.0
v -0.000000 0.222997 0.0
v 0.161347 -0.715578 0.0
v 0.220193 -0.448903 0.0
v 0.263784 -0.185502 0.0
v 0.288608 0.085470 0.0
v 0.244980 0.317040 0.0
v 0.384136 -0.755036 0.0
v 0.451768 -0.494467 0.0
v 0.502708 -0.205796 0.0
v 0.517277 0.121870 0.0
v 0.500000 0.500000 0.0
f 1 6 7
f 1 7 2
f 2 7 8
f 2 8 3
f 3 8 9
f 3 9 4
f 4 9 10
f 4 10 5
f 6 11 12
f 6 12 7
f 7 12 13
f 7 13 8
f 8 13 14
f 8 14 9
f 9 14 15
f 9 15 10
f 11 16 17
f 11 17 12
f 12 17 18
f 12 18 13
f 13 18 19
f 13 19 14
f 14 19 20
f 14 20 15
f 16 21 22
f 16 22 17
f 17 22 23
f 17 23 18
f 18 23 24
f 18 24 19
f 19 24 25
f 19 25 20
