v -0.398749 -0.739805 0.0
v -0.467724 -0.482670 0.0
v -0.515467 -0.196976 0.0
v -0.522675 0.127194 0.0
v -0.500000 0.500000 0.0
v -0.172993 -0.696280 0.0
v -0.230601 -0.434490 0.0
v -0.271034 -0.177008 0.0
v -0.291207 0.089686 0.0
v -0.244610 0.321773 0.0
v -0.000000 -0.688442 0.0
v -0.000000 -0.413308 0.0
v -0.000000 -0.166990 0.0
v -0.000000 0.041217 0.0
v -0.000000 0.227945 0.0
v 0.172993 -0.696280 0.0
v 0.230601 -0.434490 0.0
v 0.271034 -0.177008 0.0
v 0.291207 0.089686 0.0
v 0.244610 0.321773 0.0
v 0.398749 -0.739805 0.0
v 0.467724 -0.482670 0.0
v 0.515467 -0.196976 0.0
v 0.522675 0.127194 0.0
v 0.500000 0.500000 0.0
f 1 6 7
f 1 7 2
f 2 7 8
f 2 8 3
f 3 8 9
f 3 9 4
f 4 9 10
f 4 10 5
f 6 11 12
f 6 12 7
f 7 12 13
f 7 13 8
f 8 13 14
f 8 14 9
f 9 14 15
f 9 15 10
f 11 16 17
f 11 17 12
f 12 17 18
f 12 18 13
f 13 18 19
f 13 19 14
f 14 19 20
f 14 20 15
f 16 21 22
f 16 22 17
f 17 22 23
f 17 23 18
f 18 23 24
f 18 24 19
f 19 24 25
f 19 25 20
