v -0.414202 -0.728151 0.0
v -0.483364 -0.473402 0.0
v -0.527131 -0.189725 0.0
v -0.527154 0.131556 0.0
v -0.500000 0.500000 0.0
v -0.186455 -0.680684 0.0
v -0.241635 -0.423508 0.0
v -0.278188 -0.171233 0.0
v -0.293754 0.092087 0.0
v -0.245437 0.324374 0.0
v -0.000000 -0.672064 0.0
v -0.000000 -0.401086 0.0
v -0.000000 -0.160411 0.0
v -0.000000 0.044386 0.0
v -0.000000 0.231841 0.0
v 0.186455 -0.680684 0.0
v 0.241635 -0.423508 0.0
v 0.278188 -0.171233 0.0
v 0.293754 0.092087 0.0
v 0.245437 0.324374 0.0
v 0.414202 -0.728151 0.0
v 0.483364 -0.473402 0.0
v 0.527131 -0.189725 0.0
v 0.527154 0.131556 0.0
v 0.500000 0.500000 0.0
f 1 6 7
f 1 7 2
f 2 7 8
f 2 8 3
f 3 8 9
f 3 9 4
f 4 9 10
f 4 10 5
f 6 11 12
f 6 12 7
f 7 12 13
f 7 13 8
f 8 13 14
f 8 14 9
f 9 14 15
f 9 15 10
f 11 16 17
f 11 17 12
f 12 17 18
f 12 18 13
f 13 18 19
f 13 19 14
f 14 19 20
f 14 20 15
f 16 21 22
f 16 22 17
f 17 22 23
f 17 23 18
f 18 23 24
f 18 24 19
f 19 24 25
f 19 25 20
