v -0.430372 -0.720068 0.0
v -0.498537 -0.466547 0.0
v -0.537519 -0.184025 0.0
v -0.530752 0.134861 0.0
v -0.500000 0.500000 0.0
v -0.201343 -0.668891 0.0
v -0.252789 -0.416030 0.0
v -0.284824 -0.168161 0.0
v -0.296057 0.092691 0.0
v -0.247277 0.324750 0.0
v -0.000000 -0.658954 0.0
v -0.000000 -0.392805 0.0
v -0.000000 -0.157219 0.0
v -0.000000 0.045388 0.0
v -0.000000 0.234600 0.0
v 0.201343 -0.668891 0.0
v 0.252789 -0.416030 0.0
v 0.284824 -0.168161 0.0
v 0.296057 0.092691 0.0
v 0.247277 0.324750 0.0
v 0.430372 -0.720068 0.0
v 0.498537 -0.466547 0.0
v 0.537519 -0.184025 0.0
v 0.530752 0.134861 0.0
v 0.500000 0.500000 0.0
f 1 6 7
f 1 7 2
f 2 7 8
f 2 8 3
f 3 8 9
f 3 9 4
f 4 9 10
f 4 10 5
f 6 11 12
f 6 12 7
f 7 12 13
f 7 13 8
f 8 13 14
f 8 14 9
f 9 14 15
f 9 15 10
f 11 16 17
f 11 17 12
f 12 17 18
f 12 18 13
f 13 18 19
f 13 19 14
f 14 19 20
f 14 20 15
f 16 21 22
f 16 22 17
f 17 22 23
f 17 23 18
f 18 23 24
f 18 24 19
f 19 24 25
f 19 25 20
