v -0.464366 -0.714275 0.0
v -0.526890 -0.459610 0.0
v -0.553885 -0.177409 0.0
v -0.535563 0.137914 0.0
v -0.500000 0.500000 0.0
v -0.233065 -0.656919 0.0
v -0.273273 -0.411702 0.0
v -0.295127 -0.169909 0.0
v -0.299311 0.088765 0.0
v -0.252956 0.318904 0.0
v -0.000000 -0.642895 0.0
v -0.000000 -0.389022 0.0
v -0.000000 -0.161317 0.0
v -0.000000 0.040896 0.0
v -0.000000 0.236335 0.0
v 0.233065 -0.656919 0.0
v 0.273273 -0.411702 0.0
v 0.295127 -0.169909 0.0
v 0.299311 0.088765 0.0
v 0.252956 0.318904 0.0
v 0.464366 -0.714275 0.0
v 0.526890 -0.459610 0.0
v 0.553885 -0.177409 0.0
v 0.535563 0.137914 0.0
v 0.500000 0.500000 0.0
f 1 6 7
f 1 7 2
f 2 7 8
f 2 8 3
f 3 8 9
f 3 9 4
f 4 9 10
f 4 10 5
f 6 11 12
f 6 12 7
f 7 12 13
f 7 13 8
f 8 13 14
f 8 14 9
f 9 14 15
f 9 15 10
f 11 16 17
f 11 17 12
f 12 17 18
f 12 18 13
f 13 18 19
f 13 19 14
f 14 19 20
f 14 20 15
f 16 21 22
f 16 22 17
f 17 22 23
f 17 23 18
f 18 23 24
f 18 24 19
f 19 24 25
f 19 25 20
