v -0.481876 -0.716231 0.0
v -0.539683 -0.459336 0.0
v -0.559597 -0.176657 0.0
v -0.536882 0.137509 0.0
v -0.500000 0.500000 0.0
v -0.248473 -0.656750 0.0
v -0.281683 -0.414857 0.0
v -0.298368 -0.174563 0.0
v -0.300079 0.084455 0.0
v -0.256231 0.312936 0.0
v -0.000000 -0.640299 0.0
v -0.000000 -0.393815 0.0
v -0.000000 -0.168496 0.0
v -0.000000 0.035520 0.0
v -0.000000 0.235110 0.0
v 0.248473 -0.656750 0.0
v 0.281683 -0.414857 0.0
v 0.298368 -0.174563 0.0
v 0.300079 0.084455 0.0
v 0.256231 0.312936 0.0
v 0.481876 -0.716231 0.0
v 0.539683 -0.459336 0.0
v 0.559597 -0.176657 0.0
v 0.536882 0.137509 0.0
v 0.500000 0.500000 0.0
f 1 6 7
f 1 7 2
f 2 7 8
f 2 8 3
f 3 8 9
f 3 9 4
f 4 9 10
f 4 10 5
f 6 11 12
f 6 12 7
f 7 12 13
f 7 13 8
f 8 13 14
f 8 14 9
f 9 14 15
f 9 15 10
f 11 16 17
f 11 17 12
f 12 17 18
f 12 18 13
f 13 18 19
f 13 19 14
f 14 19 20
f 14 20 15
f 16 21 22
f 16 22 17
f 17 22 23
f 17 23 18
f 18 23 24
f 18 24 19
f 19 24 25
f 19 25 20
