v -0.516684 -0.728522 0.0
v -0.561105 -0.464979 0.0
v -0.565498 -0.180898 0.0
v -0.537404 0.132696 0.0
v -0.500000 0.500000 0.0
v -0.274815 -0.667945 0.0
v -0.293698 -0.431669 0.0
v -0.300958 -0.190844 0.0
v -0.299896 0.071927 0.0
v -0.262457 0.296166 0.0
v -0.000000 -0.647290 0.0
v -0.000000 -0.416523 0.0
v -0.000000 -0.191917 0.0
v -0.000000 0.019125 0.0
v -0.000000 0.227936 0.0
v 0.274815 -0.667945 0.0
v 0.293698 -0.431669 0.0
v 0.300958 -0.190844 0.0
v 0.299896 0.071927 0.0
v 0.262457 0.296166 0.0
v 0.516684 -0.728522 0.0
v 0.561105 -0.464979 0.0
v 0.565498 -0.180898 0.0
v 0.537404 0.132696 0.0
v 0.500000 0.500000 0.0
f 1 6 7
f 1 7 2
f 2 7 8
f 2 8 3
f 3 8 9
f 3 9 4
f 4 9 10
f 4 10 5
f 6 11 12
f 6 12 7
f 7 12 13
f 7 13 8
f 8 13 14
f 8 14 9
f 9 14 15
f 9 15 10
f 11 16 17
f 11 17 12
f 12 17 18
f 12 18 13
f 13 18 19
f 13 19 14
f 14 19 20
f 14 20 15
f 16 21 22
f 16 22 17
f 17 22 23
f 17 23 18
f 18 23 24
f 18 24 19
f 19 24 25
f 19 25 20
