v -0.533247 -0.738200 0.0
v -0.569051 -0.470972 0.0
v -0.565534 -0.186159 0.0
v -0.536544 0.128352 0.0
v -0.500000 0.500000 0.0
v -0.284720 -0.679260 0.0
v -0.297344 -0.445160 0.0
v -0.300583 -0.202150 0.0
v -0.299096 0.064082 0.0
v -0.265094 0.286076 0.0
v -0.000000 -0.657431 0.0
v -0.000000 -0.433885 0.0
v -0.000000 -0.207362 0.0
v -0.000000 0.008457 0.0
v -0.000000 0.221790 0.0
v 0.284720 -0.679260 0.0
v 0.297344 -0.445160 0.0
v 0.300583 -0.202150 0.0
v 0.299096 0.064082 0.0
v 0.265094 0.286076 0.0
v 0.533247 -0.738200 0.0
v 0.569051 -0.470972 0.0
v 0.565534 -0.186159 0.0
v 0.536544 0.128352 0.0
v 0.500000 0.500000 0.0
f 1 6 7
f 1 7 2
f 2 7 8
f 2 8 3
f 3 8 9
f 3 9 4
f 4 9 10
f 4 10 5
f 6 11 12
f 6 12 7
f 7 12 13
f 7 13 8
f 8 13 14
f 8 14 9
f 9 14 15
f 9 15 10
f 11 16 17
f 11 17 12
f 12 17 18
f 12 18 13
f 13 18 19
f 13 19 14
f 14 19 20
f 14 20 15
f 16 21 22
f 16 22 17
f 17 22 23
f 17 23 18
f 18 23 24
f 18 24 19
f 19 24 25
f 19 25 20
