v -0.548621 -0.749798 0.0
v -0.574710 -0.479214 0.0
v -0.563605 -0.193650 0.0
v -0.534874 0.122826 0.0
v -0.500000 0.500000 0.0
v -0.292152 -0.694357 0.0
v -0.299620 -0.461820 0.0
v -0.299346 -0.215299 0.0
v -0.297972 0.055441 0.0
v -0.267302 0.275408 0.0
v -0.000000 -0.672276 0.0
v -0.000000 -0.454645 0.0
v -0.000000 -0.224653 0.0
v -0.000000 -0.003576 0.0
v -0.000000 0.213847 0.0
v 0.292152 -0.694357 0.0
v 0.299620 -0.461820 0.0
v 0.299346 -0.215299 0.0
v 0.297972 0.055441 0.0
v 0.267302 0.275408 0.0
v 0.548621 -0.749798 0.0
v 0.574710 -0.479214 0.0
v 0.563605 -0.193650 0.0
v 0.534874 0.122826 0.0
v 0.500000 0.500000 0.0
f 1 6 7
f 1 7 2
f 2 7 8
f 2 8 3
f 3 8 9
f 3 9 4
f 4 9 10
f 4 10 5
f 6 11 12
f 6 12 7
f 7 12 13
f 7 13 8
f 8 13 14
f 8 14 9
f 9 14 15
f 9 15 10
f 11 16 17
f 11 17 12
f 12 17 18
f 12 18 13
f 13 18 19
f 13 19 14
f 14 19 20
f 14 20 15
f 16 21 22
f 16 22 17
f 17 22 23
f 17 23 18
f 18 23 24
f 18 24 19
f 19 24 25
f 19 25 20
