v -0.562271 -0.763059 0.0
v -0.577819 -0.489842 0.0
v -0.559770 -0.203403 0.0
v -0.532359 0.116237 0.0
v -0.500000 0.500000 0.0
v -0.297203 -0.713197 0.0
v -0.300704 -0.481371 0.0
v -0.297419 -0.230049 0.0
v -0.296645 0.046186 0.0
v -0.269058 0.264609 0.0
v -0.000000 -0.691902 0.0
v -0.000000 -0.478206 0.0
v -0.000000 -0.243279 0.0
v -0.000000 -0.016729 0.0
v -0.000000 0.204087 0.0
v 0.297203 -0.713197 0.0
v 0.300704 -0.481371 0.0
v 0.297419 -0.230049 0.0
v 0.296645 0.046186 0.0
v 0.269058 0.264609 0.0
v 0.562271 -0.763059 0.0
v 0.577819 -0.489842 0.0
v 0.559770 -0.203403 0.0
v 0.532359 0.116237 0.0
v 0.500000 0.500000 0.0
f 1 6 7
f 1 7 2
f 2 7 8
f 2 8 3
f 3 8 9
f 3 9 4
f 4 9 10
f 4 10 5
f 6 11 12
f 6 12 7
f 7 12 13
f 7 13 8
f 8 13 14
f 8 14 9
f 9 14 15
f 9 15 10
f 11 16 17
f 11 17 12
f 12 17 18
f 12 18 13
f 13 18 19
f 13 19 14
f 14 19 20
f 14 20 15
f 16 21 22
f 16 22 17
f 17 22 23
f 17 23 18
f 18 23 24
f 18 24 19
f 19 24 25
f 19 25 20
