v -0.573660 -0.777828 0.0
v -0.578222 -0.502985 0.0
v -0.554157 -0.215371 0.0
v -0.528988 0.108724 0.0
v -0.500000 0.500000 0.0
v -0.300153 -0.735689 0.0
v -0.300717 -0.503447 0.0
v -0.294939 -0.246134 0.0
v -0.295227 0.036480 0.0
v -0.270365 0.254113 0.0
v -0.000000 -0.716256 0.0
v -0.000000 -0.503910 0.0
v -0.000000 -0.262742 0.0
v -0.000000 -0.030723 0.0
v -0.000000 0.192553 0.0
v 0.300153 -0.735689 0.0
v 0.300717 -0.503447 0.0
v 0.294939 -0.246134 0.0
v 0.295227 0.036480 0.0
v 0.270365 0.254113 0.0
v 0.573660 -0.777828 0.0
v 0.578222 -0.502985 0.0
v 0.554157 -0.215371 0.0
v 0.528988 0.108724 0.0
v 0.500000 0.500000 0.0
f 1 6 7
f 1 7 2
f 2 7 8
f 2 8 3
f 3 8 9
f 3 9 4
f 4 9 10
f 4 10 5
f 6 11 12
f 6 12 7
f 7 12 13
f 7 13 8
f 8 13 14
f 8 14 9
f 9 14 15
f 9 15 10
f 11 16 17
f 11 17 12
f 12 17 18
f 12 18 13
f 13 18 19
f 13 19 14
f 14 19 20
f 14 20 15
f 16 21 22
f 16 22 17
f 17 22 23
f 17 23 18
f 18 23 24
f 18 24 19
f 19 24 25
f 19 25 20
