v -0.499988 -0.582373 0.0
v -0.499960 -0.332186 0.0
v -0.500038 -0.080450 0.0
v -0.500800 0.183854 0.0
v -0.500000 0.500000 0.0
v -0.249992 -0.582355 0.0
v -0.250013 -0.332100 0.0
v -0.250870 -0.080652 0.0
v -0.256382 0.175382 0.0
v -0.250260 0.419698 0.0
v -0.000000 -0.582346 0.0
v -0.000000 -0.332040 0.0
v -0.000000 -0.080830 0.0
v 0.000000 0.168010 0.0
v 0.000000 0.417735 0.0
v 0.249992 -0.582355 0.0
v 0.250013 -0.332100 0.0
v 0.250870 -0.080652 0.0
v 0.256382 0.175382 0.0
v 0.250260 0.419698 0.0
v 0.499988 -0.582373 0.0
v 0.499960 -0.332186 0.0
v 0.500038 -0.080450 0.0
v 0.500800 0.183854 0.0
v 0.500000 0.500000 0.0
f 1 6 7
f 1 7 2
f 2 7 8
f 2 8 3
f 3 8 9
f 3 9 4
f 4 9 10
f 4 10 5
f 6 11 12
f 6 12 7
f 7 12 13
f 7 13 8
f 8 13 14
f 8 14 9
f 9 14 15
f 9 15 10
f 11 16 17
f 11 17 12
f 12 17 18
f 12 18 13
f 13 18 19
f 13 19 14
f 14 19 20
f 14 20 15
f 16 21 22
f 16 22 17
f 17 22 23
f 17 23 18
f 18 23 24
f 18 24 19
f 19 24 25
f 19 25 20
