v -0.587863 -0.811854 0.0
v -0.570854 -0.537064 0.0
v -0.538372 -0.245294 0.0
v -0.519818 0.091523 0.0
v -0.500000 0.500000 0.0
v -0.301281 -0.790857 0.0
v -0.297579 -0.553351 0.0
v -0.288663 -0.281138 0.0
v -0.292503 0.016273 0.0
v -0.271658 0.235479 0.0
v -0.000000 -0.778193 0.0
v -0.000000 -0.559104 0.0
v -0.000000 -0.302438 0.0
v -0.000000 -0.059975 0.0
v 0.000000 0.164674 0.0
v 0.301281 -0.790857 0.0
v 0.297579 -0.553351 0.0
v 0.288663 -0.281138 0.0
v 0.292503 0.016273 0.0
v 0.271658 0.235479 0.0
v 0.587863 -0.811854 0.0
v 0.570854 -0.537064 0.0
v 0.538372 -0.245294 0.0
v 0.519818 0.091523 0.0
v 0.500000 0.500000 0.0
f 1 6 7
f 1 7 2
f 2 7 8
f 2 8 3
f 3 8 9
f 3 9 4
f 4 9 10
f 4 10 5
f 6 11 12
f 6 12 7
f 7 12 13
f 7 13 8
f 8 13 14
f 8 14 9
f 9 14 15
f 9 15 10
f 11 16 17
f 11 17 12
f 12 17 18
f 12 18 13
f 13 18 19
f 13 19 14
f 14 19 20
f 14 20 15
f 16 21 22
f 16 22 17
f 17 22 23
f 17 23 18
f 18 23 24
f 18 24 19
f 19 24 25
f 19 25 20
