v -0.588979 -0.852746 0.0
v -0.553470 -0.581022 0.0
v -0.518122 -0.281236 0.0
v -0.508020 0.072421 0.0
v -0.500000 0.500000 0.0
v -0.298135 -0.857219 0.0
v -0.289684 -0.607650 0.0
v -0.281021 -0.317892 0.0
v -0.290386 -0.004198 0.0
v -0.271097 0.221414 0.0
v -0.000000 -0.854425 0.0
v -0.000000 -0.615676 0.0
v -0.000000 -0.340940 0.0
v -0.000000 -0.088607 0.0
v 0.000000 0.132014 0.0
v 0.298135 -0.857219 0.0
v 0.289684 -0.607650 0.0
v 0.281021 -0.317892 0.0
v 0.290386 -0.004198 0.0
v 0.271097 0.221414 0.0
v 0.588979 -0.852746 0.0
v 0.553470 -0.581022 0.0
v 0.518122 -0.281236 0.0
v 0.508020 0.072421 0.0
v 0.500000 0.500000 0.0
f 1 6 7
f 1 7 2
f 2 7 8
f 2 8 3
f 3 8 9
f 3 9 4
f 4 9 10
f 4 10 5
f 6 11 12
f 6 12 7
f 7 12 13
f 7 13 8
f 8 13 14
f 8 14 9
f 9 14 15
f 9 15 10
f 11 16 17
f 11 17 12
f 12 17 18
f 12 18 13
f 13 18 19
f 13 19 14
f 14 19 20
f 14 20 15
f 16 21 22
f 16 22 17
f 17 22 23
f 17 23 18
f 18 23 24
f 18 24 19
f 19 24 25
f 19 25 20
