v -0.584581 -0.876221 0.0
v -0.541589 -0.606095 0.0
v -0.506956 -0.300498 0.0
v -0.501480 0.062532 0.0
v -0.500000 0.500000 0.0
v -0.295312 -0.893267 0.0
v -0.283753 -0.635303 0.0
v -0.276828 -0.336199 0.0
v -0.289659 -0.014245 0.0
v -0.270034 0.216164 0.0
v -0.000000 -0.895887 0.0
v -0.000000 -0.643583 0.0
v -0.000000 -0.359184 0.0
v -0.000000 -0.101860 0.0
v 0.000000 0.114785 0.0
v 0.295312 -0.893267 0.0
v 0.283753 -0.635303 0.0
v 0.276828 -0.336199 0.0
v 0.289659 -0.014245 0.0
v 0.270034 0.216164 0.0
v 0.584581 -0.876221 0.0
v 0.541589 -0.606095 0.0
v 0.506956 -0.300498 0.0
v 0.501480 0.062532 0.0
v 0.500000 0.500000 0.0
f 1 6 7
f 1 7 2
f 2 7 8
f 2 8 3
f 3 8 9
f 3 9 4
f 4 9 10
f 4 10 5
f 6 11 12
f 6 12 7
f 7 12 13
f 7 13 8
f 8 13 14
f 8 14 9
f 9 14 15
f 9 15 10
f 11 16 17
f 11 17 12
f 12 17 18
f 12 18 13
f 13 18 19
f 13 19 14
f 14 19 20
f 14 20 15
f 16 21 22
f 16 22 17
f 17 22 23
f 17 23 18
f 18 23 24
f 18 24 19
f 19 24 25
f 19 25 20
