v -0.522379 -1.024119 0.0
v -0.462152 -0.742689 0.0
v -0.448864 -0.394204 0.0
v -0.468637 0.015840 0.0
v -0.500000 0.500000 0.0
v -0.265508 -1.072346 0.0
v -0.239632 -0.764495 0.0
v -0.254895 -0.419361 0.0
v -0.288743 -0.058788 0.0
v -0.257855 0.199883 0.0
v -0.000000 -1.089353 0.0
v -0.000000 -0.772746 0.0
v -0.000000 -0.437669 0.0
v -0.000000 -0.151831 0.0
v 0.000000 0.038244 0.0
v 0.265508 -1.072346 0.0
v 0.239632 -0.764495 0.0
v 0.254895 -0.419361 0.0
v 0.288743 -0.058788 0.0
v 0.257855 0.199883 0.0
v 0.522379 -1.024119 0.0
v 0.462152 -0.742689 0.0
v 0.448864 -0.394204 0.0
v 0.468637 0.015840 0.0
v 0.500000 0.500000 0.0
f 1 6 7
f 1 7 2
f 2 7 8
f 2 8 3
f 3 8 9
f 3 9 4
f 4 9 10
f 4 10 5
f 6 11 12
f 6 12 7
f 7 12 13
f 7 13 8
f 8 13 14
f 8 14 9
f 9 14 15
f 9 15 10
f 11 16 17
f 11 17 12
f 12 17 18
f 12 18 13
f 13 18 19
f 13 19 14
f 14 19 20
f 14 20 15
f 16 21 22
f 16 22 17
f 17 22 23
f 17 23 18
f 18 23 24
f 18 24 19
f 19 24 25
f 19 25 20
