v -0.463706 -1.123267 0.0
v -0.411590 -0.812612 0.0
v -0.417143 -0.438175 0.0
v -0.452790 -0.005878 0.0
v -0.500000 0.500000 0.0
v -0.233341 -1.152101 0.0
v -0.214439 -0.822633 0.0
v -0.243716 -0.458190 0.0
v -0.288000 -0.079812 0.0
v -0.251502 0.190996 0.0
v -0.000000 -1.160378 0.0
v -0.000000 -0.828765 0.0
v -0.000000 -0.474144 0.0
v -0.000000 -0.173059 0.0
v -0.000000 0.013998 0.0
v 0.233341 -1.152101 0.0
v 0.214439 -0.822633 0.0
v 0.243716 -0.458190 0.0
v 0.288000 -0.079812 0.0
v 0.251502 0.190996 0.0
v 0.463706 -1.123267 0.0
v 0.411590 -0.812612 0.0
v 0.417143 -0.438175 0.0
v 0.452790 -0.005878 0.0
v 0.500000 0.500000 0.0
f 1 6 7
f 1 7 2
f 2 7 8
f 2 8 3
f 3 8 9
f 3 9 4
f 4 9 10
f 4 10 5
f 6 11 12
f 6 12 7
f 7 12 13
f 7 13 8
f 8 13 14
f 8 14 9
f 9 14 15
f 9 15 10
f 11 16 17
f 11 17 12
f 12 17 18
f 12 18 13
f 13 18 19
f 13 19 14
f 14 19 20
f 14 20 15
f 16 21 22
f 16 22 17
f 17 22 23
f 17 23 18
f 18 23 24
f 18 24 19
f 19 24 25
f 19 25 20
