v -0.442230 -1.153419 0.0
v -0.396652 -0.831252 0.0
v -0.407867 -0.449584 0.0
v -0.448491 -0.011618 0.0
v -0.500000 0.500000 0.0
v -0.220902 -1.170888 0.0
v -0.208316 -0.836848 0.0
v -0.240942 -0.468280 0.0
v -0.287444 -0.085668 0.0
v -0.250961 0.187824 0.0
v -0.000000 -1.174537 0.0
v -0.000000 -0.841041 0.0
v -0.000000 -0.483762 0.0
v -0.000000 -0.179496 0.0
v -0.000000 0.010540 0.0
v 0.220902 -1.170888 0.0
v 0.208316 -0.836848 0.0
v 0.240942 -0.468280 0.0
v 0.287444 -0.085668 0.0
v 0.250961 0.187824 0.0
v 0.442230 -1.153419 0.0
v 0.396652 -0.831252 0.0
v 0.407867 -0.449584 0.0
v 0.448491 -0.011618 0.0
v 0.500000 0.500000 0.0
f 1 6 7
f 1 7 2
f 2 7 8
f 2 8 3
f 3 8 9
f 3 9 4
f 4 9 10
f 4 10 5
f 6 11 12
f 6 12 7
f 7 12 13
f 7 13 8
f 8 13 14
f 8 14 9
f 9 14 15
f 9 15 10
f 11 16 17
f 11 17 12
f 12 17 18
f 12 18 13
f 13 18 19
f 13 19 14
f 14 19 20
f 14 20 15
f 16 21 22
f 16 22 17
f 17 22 23
f 17 23 18
f 18 23 24
f 18 24 19
f 19 24 25
f 19 25 20
