v -0.420249 -1.180435 0.0
v -0.383197 -0.847217 0.0
v -0.399516 -0.459135 0.0
v -0.444750 -0.016469 0.0
v -0.500000 0.500000 0.0
v -0.208034 -1.185415 0.0
v -0.203532 -0.848160 0.0
v -0.238838 -0.476589 0.0
v -0.286805 -0.090722 0.0
v -0.251402 0.184682 0.0
v -0.000000 -1.184231 0.0
v -0.000000 -0.849817 0.0
v -0.000000 -0.491653 0.0
v -0.000000 -0.185390 0.0
v -0.000000 0.009240 0.0
v 0.208034 -1.185415 0.0
v 0.203532 -0.848160 0.0
v 0.238838 -0.476589 0.0
v 0.286805 -0.090722 0.0
v 0.251402 0.184682 0.0
v 0.420249 -1.180435 0.0
v 0.383197 -0.847217 0.0
v 0.399516 -0.459135 0.0
v 0.444750 -0.016469 0.0
v 0.500000 0.500000 0.0
f 1 6 7
f 1 7 2
f 2 7 8
f 2 8 3
f 3 8 9
f 3 9 4
f 4 9 10
f 4 10 5
f 6 11 12
f 6 12 7
f 7 12 13
f 7 13 8
f 8 13 14
f 8 14 9
f 9 14 15
f 9 15 10
f 11 16 17
f 11 17 12
f 12 17 18
f 12 18 13
f 13 18 19
f 13 19 14
f 14 19 20
f 14 20 15
f 16 21 22
f 16 22 17
f 17 22 23
f 17 23 18
f 18 23 24
f 18 24 19
f 19 24 25
f 19 25 20
