v -0.398095 -1.203367 0.0
v -0.371397 -0.860368 0.0
v -0.392264 -0.466735 0.0
v -0.441622 -0.020338 0.0
v -0.500000 0.500000 0.0
v -0.195030 -1.195652 0.0
v -0.200030 -0.856487 0.0
v -0.237477 -0.482952 0.0
v -0.286178 -0.094790 0.0
v -0.252791 0.181704 0.0
v -0.000000 -1.189759 0.0
v -0.000000 -0.855163 0.0
v -0.000000 -0.497558 0.0
v -0.000000 -0.190410 0.0
v -0.000000 0.009886 0.0
v 0.195030 -1.195652 0.0
v 0.200030 -0.856487 0.0
v 0.237477 -0.482952 0.0
v 0.286178 -0.094790 0.0
v 0.252791 0.181704 0.0
v 0.398095 -1.203367 0.0
v 0.371397 -0.860368 0.0
v 0.392264 -0.466735 0.0
v 0.441622 -0.020338 0.0
v 0.500000 0.500000 0.0
f 1 6 7
f 1 7 2
f 2 7 8
f 2 8 3
f 3 8 9
f 3 9 4
f 4 9 10
f 4 10 5
f 6 11 12
f 6 12 7
f 7 12 13
f 7 13 8
f 8 13 14
f 8 14 9
f 9 14 15
f 9 15 10
f 11 16 17
f 11 17 12
f 12 17 18
f 12 18 13
f 13 18 19
f 13 19 14
f 14 19 20
f 14 20 15
f 16 21 22
f 16 22 17
f 17 22 23
f 17 23 18
f 18 23 24
f 18 24 19
f 19 24 25
f 19 25 20
