v -0.376160 -1.221438 0.0
v -0.361324 -0.870565 0.0
v -0.386272 -0.472318 0.0
v -0.439169 -0.023145 0.0
v -0.500000 0.500000 0.0
v -0.182183 -1.201675 0.0
v -0.197656 -0.861804 0.0
v -0.236882 -0.487256 0.0
v -0.285662 -0.097702 0.0
v -0.254998 0.179047 0.0
v 0.000000 -1.191453 0.0
v 0.000000 -0.857250 0.0
v -0.000000 -0.501282 0.0
v -0.000000 -0.194172 0.0
v -0.000000 0.012220 0.0
v 0.182183 -1.201675 0.0
v 0.197656 -0.861804 0.0
v 0.236882 -0.487256 0.0
v 0.285662 -0.097702 0.0
v 0.254998 0.179047 0.0
v 0.376160 -1.221438 0.0
v 0.361324 -0.870565 0.0
v 0.386272 -0.472318 0.0
v 0.439169 -0.023145 0.0
v 0.500000 0.500000 0.0
f 1 6 7
f 1 7 2
f 2 7 8
f 2 8 3
f 3 8 9
f 3 9 4
f 4 9 10
f 4 10 5
f 6 11 12
f 6 12 7
f 7 12 13
f 7 13 8
f 8 13 14
f 8 14 9
f 9 14 15
f 9 15 10
f 11 16 17
f 11 17 12
f 12 17 18
f 12 18 13
f 13 18 19
f 13 19 14
f 14 19 20
f 14 20 15
f 16 21 22
f 16 22 17
f 17 22 23
f 17 23 18
f 18 23 24
f 18 24 19
f 19 24 25
f 19 25 20
