v -0.354888 -1.234100 0.0
v -0.352962 -0.877647 0.0
v -0.381669 -0.475842 0.0
v -0.437449 -0.024840 0.0
v -0.500000 0.500000 0.0
v -0.169768 -1.203639 0.0
v -0.196190 -0.864123 0.0
v -0.237006 -0.489441 0.0
v -0.285342 -0.099335 0.0
v -0.257817 0.176885 0.0
v 0.000000 -1.189655 0.0
v 0.000000 -0.856295 0.0
v -0.000000 -0.502707 0.0
v -0.000000 -0.196325 0.0
v -0.000000 0.015963 0.0
v 0.169768 -1.203639 0.0
v 0.196190 -0.864123 0.0
v 0.237006 -0.489441 0.0
v 0.285342 -0.099335 0.0
v 0.257817 0.176885 0.0
v 0.354888 -1.234100 0.0
v 0.352962 -0.877647 0.0
v 0.381669 -0.475842 0.0
v 0.437449 -0.024840 0.0
v 0.500000 0.500000 0.0
f 1 6 7
f 1 7 2
f 2 7 8
f 2 8 3
f 3 8 9
f 3 9 4
f 4 9 10
f 4 10 5
f 6 11 12
f 6 12 7
f 7 12 13
f 7 13 8
f 8 13 14
f 8 14 9
f 9 14 15
f 9 15 10
f 11 16 17
f 11 17 12
f 12 17 18
f 12 18 13
f 13 18 19
f 13 19 14
f 14 19 20
f 14 20 15
f 16 21 22
f 16 22 17
f 17 22 23
f 17 23 18
f 18 23 24
f 18 24 19
f 19 24 25
f 19 25 20
