v -0.316207 -1.242358 0.0
v -0.341040 -0.881878 0.0
v -0.376921 -0.476639 0.0
v -0.436385 -0.024850 0.0
v -0.500000 0.500000 0.0
v -0.147194 -1.196303 0.0
v -0.194974 -0.859950 0.0
v -0.238936 -0.487400 0.0
v -0.285455 -0.098561 0.0
v -0.264257 0.174720 0.0
v 0.000000 -1.176938 0.0
v 0.000000 -0.846163 0.0
v -0.000000 -0.498577 0.0
v -0.000000 -0.194946 0.0
v -0.000000 0.026598 0.0
v 0.147194 -1.196303 0.0
v 0.194974 -0.859950 0.0
v 0.238936 -0.487400 0.0
v 0.285455 -0.098561 0.0
v 0.264257 0.174720 0.0
v 0.316207 -1.242358 0.0
v 0.341040 -0.881878 0.0
v 0.376921 -0.476639 0.0
v 0.436385 -0.024850 0.0
v 0.500000 0.500000 0.0
f 1 6 7
f 1 7 2
f 2 7 8
f 2 8 3
f 3 8 9
f 3 9 4
f 4 9 10
f 4 10 5
f 6 11 12
f 6 12 7
f 7 12 13
f 7 13 8
f 8 13 14
f 8 14 9
f 9 14 15
f 9 15 10
f 11 16 17
f 11 17 12
f 12 17 18
f 12 18 13
f 13 18 19
f 13 19 14
f 14 19 20
f 14 20 15
f 16 21 22
f 16 22 17
f 17 22 23
f 17 23 18
f 18 23 24
f 18 24 19
f 19 24 25
f 19 25 20
