v -0.299693 -1.238174 0.0
v -0.337277 -0.878869 0.0
v -0.376795 -0.473918 0.0
v -0.437074 -0.023208 0.0
v -0.500000 0.500000 0.0
v -0.137432 -1.187542 0.0
v -0.194750 -0.853610 0.0
v -0.240393 -0.483226 0.0
v -0.285870 -0.096184 0.0
v -0.267334 0.175006 0.0
v 0.000000 -1.166663 0.0
v 0.000000 -0.837418 0.0
v -0.000000 -0.493152 0.0
v -0.000000 -0.191335 0.0
v -0.000000 0.033021 0.0
v 0.137432 -1.187542 0.0
v 0.194750 -0.853610 0.0
v 0.240393 -0.483226 0.0
v 0.285870 -0.096184 0.0
v 0.267334 0.175006 0.0
v 0.299693 -1.238174 0.0
v 0.337277 -0.878869 0.0
v 0.376795 -0.473918 0.0
v 0.437074 -0.023208 0.0
v 0.500000 0.500000 0.0
f 1 6 7
f 1 7 2
f 2 7 8
f 2 8 3
f 3 8 9
f 3 9 4
f 4 9 10
f 4 10 5
f 6 11 12
f 6 12 7
f 7 12 13
f 7 13 8
f 8 13 14
f 8 14 9
f 9 14 15
f 9 15 10
f 11 16 17
f 11 17 12
f 12 17 18
f 12 18 13
f 13 18 19
f 13 19 14
f 14 19 20
f 14 20 15
f 16 21 22
f 16 22 17
f 17 22 23
f 17 23 18
f 18 23 24
f 18 24 19
f 19 24 25
f 19 25 20
