v -0.499933 -0.641086 0.0
v -0.499822 -0.390274 0.0
v -0.500111 -0.134381 0.0
v -0.502289 0.149254 0.0
v -0.500000 0.500000 0.0
v -0.249956 -0.640993 0.0
v -0.250073 -0.389945 0.0
v -0.252834 -0.135279 0.0
v -0.264309 0.128805 0.0
v -0.251696 0.366486 0.0
v -0.000000 -0.640944 0.0
v -0.000000 -0.389718 0.0
v -0.000000 -0.136097 0.0
v 0.000000 0.110722 0.0
v 0.000000 0.359478 0.0
v 0.249956 -0.640993 0.0
v 0.250073 -0.389945 0.0
v 0.252834 -0.135279 0.0
v 0.264309 0.128805 0.0
v 0.251696 0.366486 0.0
v 0.499933 -0.641086 0.0
v 0.499822 -0.390274 0.0
v 0.500111 -0.134381 0.0
v 0.502289 0.149254 0.0
v 0.500000 0.500000 0.0
f 1 6 7
f 1 7 2
f 2 7 8
f 2 8 3
f 3 8 9
f 3 9 4
f 4 9 10
f 4 10 5
f 6 11 12
f 6 12 7
f 7 12 13
f 7 13 8
f 8 13 14
f 8 14 9
f 9 14 15
f 9 15 10
f 11 16 17
f 11 17 12
f 12 17 18
f 12 18 13
f 13 18 19
f 13 19 14
f 14 19 20
f 14 20 15
f 16 21 22
f 16 22 17
f 17 22 23
f 17 23 18
f 18 23 24
f 18 24 19
f 19 24 25
f 19 25 20
