v -0.285574 -1.228950 0.0
v -0.334861 -0.872497 0.0
v -0.378097 -0.469169 0.0
v -0.438557 -0.020527 0.0
v -0.500000 0.500000 0.0
v -0.128906 -1.175781 0.0
v -0.194533 -0.844587 0.0
v -0.241921 -0.477032 0.0
v -0.286450 -0.092556 0.0
v -0.269985 0.176331 0.0
v 0.000000 -1.154174 0.0
v 0.000000 -0.826497 0.0
v -0.000000 -0.485659 0.0
v -0.000000 -0.185941 0.0
v -0.000000 0.039934 0.0
v 0.128906 -1.175781 0.0
v 0.194533 -0.844587 0.0
v 0.241921 -0.477032 0.0
v 0.286450 -0.092556 0.0
v 0.269985 0.176331 0.0
v 0.285574 -1.228950 0.0
v 0.334861 -0.872497 0.0
v 0.378097 -0.469169 0.0
v 0.438557 -0.020527 0.0
v 0.500000 0.500000 0.0
f 1 6 7
f 1 7 2
f 2 7 8
f 2 8 3
f 3 8 9
f 3 9 4
f 4 9 10
f 4 10 5
f 6 11 12
f 6 12 7
f 7 12 13
f 7 13 8
f 8 13 14
f 8 14 9
f 9 14 15
f 9 15 10
f 11 16 17
f 11 17 12
f 12 17 18
f 12 18 13
f 13 18 19
f 13 19 14
f 14 19 20
f 14 20 15
f 16 21 22
f 16 22 17
f 17 22 23
f 17 23 18
f 18 23 24
f 18 24 19
f 19 24 25
f 19 25 20
