v -0.260111 -1.177115 0.0
v -0.335255 -0.835491 0.0
v -0.389387 -0.443866 0.0
v -0.447143 -0.006880 0.0
v -0.500000 0.500000 0.0
v -0.111803 -1.125664 0.0
v -0.193114 -0.803266 0.0
v -0.245439 -0.447536 0.0
v -0.288301 -0.075034 0.0
v -0.273766 0.186646 0.0
v 0.000000 -1.106043 0.0
v 0.000000 -0.782809 0.0
v 0.000000 -0.452695 0.0
v 0.000000 -0.161492 0.0
v -0.000000 0.062436 0.0
v 0.111803 -1.125664 0.0
v 0.193114 -0.803266 0.0
v 0.245439 -0.447536 0.0
v 0.288301 -0.075034 0.0
v 0.273766 0.186646 0.0
v 0.260111 -1.177115 0.0
v 0.335255 -0.835491 0.0
v 0.389387 -0.443866 0.0
v 0.447143 -0.006880 0.0
v 0.500000 0.500000 0.0
f 1 6 7
f 1 7 2
f 2 7 8
f 2 8 3
f 3 8 9
f 3 9 4
f 4 9 10
f 4 10 5
f 6 11 12
f 6 12 7
f 7 12 13
f 7 13 8
f 8 13 14
f 8 14 9
f 9 14 15
f 9 15 10
f 11 16 17
f 11 17 12
f 12 17 18
f 12 18 13
f 13 18 19
f 13 19 14
f 14 19 20
f 14 20 15
f 16 21 22
f 16 22 17
f 17 22 23
f 17 23 18
f 18 23 24
f 18 24 19
f 19 24 25
f 19 25 20
