v -0.262193 -1.103513 0.0
v -0.347067 -0.779700 0.0
v -0.408613 -0.406189 0.0
v -0.459850 0.013206 0.0
v -0.500000 0.500000 0.0
v -0.108328 -1.060247 0.0
v -0.191182 -0.746291 0.0
v -0.246406 -0.405779 0.0
v -0.288882 -0.049925 0.0
v -0.270605 0.204842 0.0
v 0.000000 -1.046870 0.0
v 0.000000 -0.727794 0.0
v 0.000000 -0.408836 0.0
v 0.000000 -0.129777 0.0
v 0.000000 0.086208 0.0
v 0.108328 -1.060247 0.0
v 0.191182 -0.746291 0.0
v 0.246406 -0.405779 0.0
v 0.288882 -0.049925 0.0
v 0.270605 0.204842 0.0
v 0.262193 -1.103513 0.0
v 0.347067 -0.779700 0.0
v 0.408613 -0.406189 0.0
v 0.459850 0.013206 0.0
v 0.500000 0.500000 0.0
f 1 6 7
f 1 7 2
f 2 7 8
f 2 8 3
f 3 8 9
f 3 9 4
f 4 9 10
f 4 10 5
f 6 11 12
f 6 12 7
f 7 12 13
f 7 13 8
f 8 13 14
f 8 14 9
f 9 14 15
f 9 15 10
f 11 16 17
f 11 17 12
f 12 17 18
f 12 18 13
f 13 18 19
f 13 19 14
f 14 19 20
f 14 20 15
f 16 21 22
f 16 22 17
f 17 22 23
f 17 23 18
f 18 23 24
f 18 24 19
f 19 24 25
f 19 25 20
