v -0.499862 -0.676205 0.0
v -0.499664 -0.424684 0.0
v -0.500160 -0.164829 0.0
v -0.503377 0.132151 0.0
v -0.500000 0.500000 0.0
v -0.249911 -0.676016 0.0
v -0.250153 -0.424114 0.0
v -0.254600 -0.166509 0.0
v -0.269629 0.103360 0.0
v -0.253292 0.336933 0.0
v -0.000000 -0.675915 0.0
v -0.000000 -0.423724 0.0
v -0.000000 -0.168037 0.0
v 0.000000 0.077296 0.0
v 0.000000 0.324916 0.0
v 0.249911 -0.676016 0.0
v 0.250153 -0.424114 0.0
v 0.254600 -0.166509 0.0
v 0.269629 0.103360 0.0
v 0.253292 0.336933 0.0
v 0.499862 -0.676205 0.0
v 0.499664 -0.424684 0.0
v 0.500160 -0.164829 0.0
v 0.503377 0.132151 0.0
v 0.500000 0.500000 0.0
f 1 6 7
f 1 7 2
f 2 7 8
f 2 8 3
f 3 8 9
f 3 9 4
f 4 9 10
f 4 10 5
f 6 11 12
f 6 12 7
f 7 12 13
f 7 13 8
f 8 13 14
f 8 14 9
f 9 14 15
f 9 15 10
f 11 16 17
f 11 17 12
f 12 17 18
f 12 18 13
f 13 18 19
f 13 19 14
f 14 19 20
f 14 20 15
f 16 21 22
f 16 22 17
f 17 22 23
f 17 23 18
f 18 23 24
f 18 24 19
f 19 24 25
f 19 25 20
