v -0.305639 -0.999962 0.0
v -0.380185 -0.696401 0.0
v -0.439213 -0.348916 0.0
v -0.477904 0.043970 0.0
v -0.500000 0.500000 0.0
v -0.125235 -0.965268 0.0
v -0.193718 -0.662686 0.0
v -0.247656 -0.343798 0.0
v -0.287874 -0.011959 0.0
v -0.260852 0.234643 0.0
v 0.000000 -0.961174 0.0
v 0.000000 -0.649353 0.0
v 0.000000 -0.345394 0.0
v 0.000000 -0.084827 0.0
v 0.000000 0.118257 0.0
v 0.125235 -0.965268 0.0
v 0.193718 -0.662686 0.0
v 0.247656 -0.343798 0.0
v 0.287874 -0.011959 0.0
v 0.260852 0.234643 0.0
v 0.305639 -0.999962 0.0
v 0.380185 -0.696401 0.0
v 0.439213 -0.348916 0.0
v 0.477904 0.043970 0.0
v 0.500000 0.500000 0.0
f 1 6 7
f 1 7 2
f 2 7 8
f 2 8 3
f 3 8 9
f 3 9 4
f 4 9 10
f 4 10 5
f 6 11 12
f 6 12 7
f 7 12 13
f 7 13 8
f 8 13 14
f 8 14 9
f 9 14 15
f 9 15 10
f 11 16 17
f 11 17 12
f 12 17 18
f 12 18 13
f 13 18 19
f 13 19 14
f 14 19 20
f 14 20 15
f 16 21 22
f 16 22 17
f 17 22 23
f 17 23 18
f 18 23 24
f 18 24 19
f 19 24 25
f 19 25 20
