v -0.322635 -0.975993 0.0
v -0.391093 -0.676441 0.0
v -0.446835 -0.334984 0.0
v -0.481993 0.051472 0.0
v -0.500000 0.500000 0.0
v -0.133453 -0.942435 0.0
v -0.196378 -0.643000 0.0
v -0.248792 -0.329185 0.0
v -0.287693 -0.002907 0.0
v -0.258578 0.241969 0.0
v 0.000000 -0.940040 0.0
v 0.000000 -0.630685 0.0
v 0.000000 -0.330441 0.0
v 0.000000 -0.074165 0.0
v 0.000000 0.126108 0.0
v 0.133453 -0.942435 0.0
v 0.196378 -0.643000 0.0
v 0.248792 -0.329185 0.0
v 0.287693 -0.002907 0.0
v 0.258578 0.241969 0.0
v 0.322635 -0.975993 0.0
v 0.391093 -0.676441 0.0
v 0.446835 -0.334984 0.0
v 0.481993 0.051472 0.0
v 0.500000 0.500000 0.0
f 1 6 7
f 1 7 2
f 2 7 8
f 2 8 3
f 3 8 9
f 3 9 4
f 4 9 10
f 4 10 5
f 6 11 12
f 6 12 7
f 7 12 13
f 7 13 8
f 8 13 14
f 8 14 9
f 9 14 15
f 9 15 10
f 11 16 17
f 11 17 12
f 12 17 18
f 12 18 13
f 13 18 19
f 13 19 14
f 14 19 20
f 14 20 15
f 16 21 22
f 16 22 17
f 17 22 23
f 17 23 18
f 18 23 24
f 18 24 19
f 19 24 25
f 19 25 20
