v -0.341542 -0.953325 0.0
v -0.402791 -0.657357 0.0
v -0.454262 -0.321596 0.0
v -0.485803 0.058670 0.0
v -0.500000 0.500000 0.0
v -0.143366 -0.920630 0.0
v -0.200148 -0.624519 0.0
v -0.250404 -0.315478 0.0
v -0.287643 0.005607 0.0
v -0.256658 0.248914 0.0
v 0.000000 -0.919485 0.0
v 0.000000 -0.612956 0.0
v 0.000000 -0.316394 0.0
v 0.000000 -0.064066 0.0
v 0.000000 0.133803 0.0
v 0.143366 -0.920630 0.0
v 0.200148 -0.624519 0.0
v 0.250404 -0.315478 0.0
v 0.287643 0.005607 0.0
v 0.256658 0.248914 0.0
v 0.341542 -0.953325 0.0
v 0.402791 -0.657357 0.0
v 0.454262 -0.321596 0.0
v 0.485803 0.058670 0.0
v 0.500000 0.500000 0.0
f 1 6 7
f 1 7 2
f 2 7 8
f 2 8 3
f 3 8 9
f 3 9 4
f 4 9 10
f 4 10 5
f 6 11 12
f 6 12 7
f 7 12 13
f 7 13 8
f 8 13 14
f 8 14 9
f 9 14 15
f 9 15 10
f 11 16 17
f 11 17 12
f 12 17 18
f 12 18 13
f 13 18 19
f 13 19 14
f 14 19 20
f 14 20 15
f 16 21 22
f 16 22 17
f 17 22 23
f 17 23 18
f 18 23 24
f 18 24 19
f 19 24 25
f 19 25 20
