v -0.362015 -0.932112 0.0
v -0.415124 -0.639332 0.0
v -0.461451 -0.308902 0.0
v -0.489318 0.065468 0.0
v -0.500000 0.500000 0.0
v -0.155010 -0.900162 0.0
v -0.205114 -0.607546 0.0
v -0.252488 -0.302907 0.0
v -0.287740 0.013425 0.0
v -0.255174 0.255329 0.0
v 0.000000 -0.899739 0.0
v 0.000000 -0.596456 0.0
v 0.000000 -0.303521 0.0
v 0.000000 -0.054701 0.0
v 0.000000 0.141285 0.0
v 0.155010 -0.900162 0.0
v 0.205114 -0.607546 0.0
v 0.252488 -0.302907 0.0
v 0.287740 0.013425 0.0
v 0.255174 0.255329 0.0
v 0.362015 -0.932112 0.0
v 0.415124 -0.639332 0.0
v 0.461451 -0.308902 0.0
v 0.489318 0.065468 0.0
v 0.500000 0.500000 0.0
f 1 6 7
f 1 7 2
f 2 7 8
f 2 8 3
f 3 8 9
f 3 9 4
f 4 9 10
f 4 10 5
f 6 11 12
f 6 12 7
f 7 12 13
f 7 13 8
f 8 13 14
f 8 14 9
f 9 14 15
f 9 15 10
f 11 16 17
f 11 17 12
f 12 17 18
f 12 18 13
f 13 18 19
f 13 19 14
f 14 19 20
f 14 20 15
f 16 21 22
f 16 22 17
f 17 22 23
f 17 23 18
f 18 23 24
f 18 24 19
f 19 24 25
f 19 25 20
