v -0.383682 -0.912457 0.0
v -0.427947 -0.622512 0.0
v -0.468390 -0.297032 0.0
v -0.492538 0.071782 0.0
v -0.500000 0.500000 0.0
v -0.168336 -0.881309 0.0
v -0.211294 -0.592337 0.0
v -0.254991 -0.291668 0.0
v -0.287972 0.020408 0.0
v -0.254171 0.261074 0.0
v 0.000000 -0.881029 0.0
v 0.000000 -0.581485 0.0
v 0.000000 -0.292085 0.0
v 0.000000 -0.046240 0.0
v 0.000000 0.148490 0.0
v 0.168336 -0.881309 0.0
v 0.211294 -0.592337 0.0
v 0.254991 -0.291668 0.0
v 0.287972 0.020408 0.0
v 0.254171 0.261074 0.0
v 0.383682 -0.912457 0.0
v 0.427947 -0.622512 0.0
v 0.468390 -0.297032 0.0
v 0.492538 0.071782 0.0
v 0.500000 0.500000 0.0
f 1 6 7
f 1 7 2
f 2 7 8
f 2 8 3
f 3 8 9
f 3 9 4
f 4 9 10
f 4 10 5
f 6 11 12
f 6 12 7
f 7 12 13
f 7 13 8
f 8 13 14
f 8 14 9
f 9 14 15
f 9 15 10
f 11 16 17
f 11 17 12
f 12 17 18
f 12 18 13
f 13 18 19
f 13 19 14
f 14 19 20
f 14 20 15
f 16 21 22
f 16 22 17
f 17 22 23
f 17 23 18
f 18 23 24
f 18 24 19
f 19 24 25
f 19 25 20
