v -0.406163 -0.894425 0.0
v -0.441125 -0.607007 0.0
v -0.475084 -0.286099 0.0
v -0.495478 0.077536 0.0
v -0.500000 0.500000 0.0
v -0.183188 -0.864315 0.0
v -0.218614 -0.579095 0.0
v -0.257819 -0.281921 0.0
v -0.288305 0.026439 0.0
v -0.253652 0.266025 0.0
v 0.000000 -0.863579 0.0
v 0.000000 -0.568342 0.0
v 0.000000 -0.282334 0.0
v 0.000000 -0.038847 0.0
v 0.000000 0.155346 0.0
v 0.183188 -0.864315 0.0
v 0.218614 -0.579095 0.0
v 0.257819 -0.281921 0.0
v 0.288305 0.026439 0.0
v 0.253652 0.266025 0.0
v 0.406163 -0.894425 0.0
v 0.441125 -0.607007 0.0
v 0.475084 -0.286099 0.0
v 0.495478 0.077536 0.0
v 0.500000 0.500000 0.0
f 1 6 7
f 1 7 2
f 2 7 8
f 2 8 3
f 3 8 9
f 3 9 4
f 4 9 10
f 4 10 5
f 6 11 12
f 6 12 7
f 7 12 13
f 7 13 8
f 8 13 14
f 8 14 9
f 9 14 15
f 9 15 10
f 11 16 17
f 11 17 12
f 12 17 18
f 12 18 13
f 13 18 19
f 13 19 14
f 14 19 20
f 14 20 15
f 16 21 22
f 16 22 17
f 17 22 23
f 17 23 18
f 18 23 24
f 18 24 19
f 19 24 25
f 19 25 20
