v -0.429080 -0.878053 0.0
v -0.454532 -0.592907 0.0
v -0.481552 -0.276201 0.0
v -0.498158 0.082661 0.0
v -0.500000 0.500000 0.0
v -0.199276 -0.849373 0.0
v -0.226900 -0.567959 0.0
v -0.260850 -0.273794 0.0
v -0.288689 0.031423 0.0
v -0.253588 0.270080 0.0
v 0.000000 -0.847613 0.0
v 0.000000 -0.557323 0.0
v 0.000000 -0.274494 0.0
v 0.000000 -0.032671 0.0
v 0.000000 0.161772 0.0
v 0.199276 -0.849373 0.0
v 0.226900 -0.567959 0.0
v 0.260850 -0.273794 0.0
v 0.288689 0.031423 0.0
v 0.253588 0.270080 0.0
v 0.429080 -0.878053 0.0
v 0.454532 -0.592907 0.0
v 0.481552 -0.276201 0.0
v 0.498158 0.082661 0.0
v 0.500000 0.500000 0.0
f 1 6 7
f 1 7 2
f 2 7 8
f 2 8 3
f 3 8 9
f 3 9 4
f 4 9 10
f 4 10 5
f 6 11 12
f 6 12 7
f 7 12 13
f 7 13 8
f 8 13 14
f 8 14 9
f 9 14 15
f 9 15 10
f 11 16 17
f 11 17 12
f 12 17 18
f 12 18 13
f 13 18 19
f 13 19 14
f 14 19 20
f 14 20 15
f 16 21 22
f 16 22 17
f 17 22 23
f 17 23 18
f 18 23 24
f 18 24 19
f 19 24 25
f 19 25 20
