v -0.496848 -0.839060 0.0
v -0.494801 -0.559744 0.0
v -0.499622 -0.253616 0.0
v -0.504760 0.093651 0.0
v -0.500000 0.500000 0.0
v -0.249783 -0.817922 0.0
v -0.254463 -0.547762 0.0
v -0.269803 -0.259930 0.0
v -0.289582 0.039472 0.0
v -0.255496 0.276181 0.0
v 0.000000 -0.810964 0.0
v 0.000000 -0.539392 0.0
v 0.000000 -0.264011 0.0
v 0.000000 -0.022607 0.0
v 0.000000 0.177508 0.0
v 0.249783 -0.817922 0.0
v 0.254463 -0.547762 0.0
v 0.269803 -0.259930 0.0
v 0.289582 0.039472 0.0
v 0.255496 0.276181 0.0
v 0.496848 -0.839060 0.0
v 0.494801 -0.559744 0.0
v 0.499622 -0.253616 0.0
v 0.504760 0.093651 0.0
v 0.500000 0.500000 0.0
f 1 6 7
f 1 7 2
f 2 7 8
f 2 8 3
f 3 8 9
f 3 9 4
f 4 9 10
f 4 10 5
f 6 11 12
f 6 12 7
f 7 12 13
f 7 13 8
f 8 13 14
f 8 14 9
f 9 14 15
f 9 15 10
f 11 16 17
f 11 17 12
f 12 17 18
f 12 18 13
f 13 18 19
f 13 19 14
f 14 19 20
f 14 20 15
f 16 21 22
f 16 22 17
f 17 22 23
f 17 23 18
f 18 23 24
f 18 24 19
f 19 24 25
f 19 25 20
