$MeshFormat
4.1 0 8
$EndMeshFormat
$Entities
0 0 1 1
1 -0.5 -0.5 -0.5 0.5 0.5 0.5 0 0 
1 -0.5 -0.5 -0.5 0.5 0.5 0.5 0 1 1 
$EndEntities
$Nodes
2 63 1 63
2 1 0 62
1
2
3
4
5
6
7
8
9
10
11
12
13
14
15
16
17
18
19
20
21
22
23
24
25
26
27
28
29
30
31
32
33
34
35
36
37
38
39
40
41
42
43
44
45
46
47
48
49
50
51
52
53
54
55
56
57
58
59
60
61
62
0.216506 -0.433013 -0.125
0.25 -0.433013 -0
0 -0.5 -0
0.125 -0.433013 -0.216506
0 -0.433013 -0.25
-0.125 -0.433013 -0.216506
-0.216506 -0.433013 -0.125
-0.25 -0.433013 -0
-0.216506 -0.433013 0.125
-0.125 -0.433013 0.216506
0 -0.433013 0.25
0.125 -0.433013 0.216506
0.216506 -0.433013 0.125
0.433013 -0.25 -0
0.3750000000000001 -0.25 -0.216506
0.216506 -0.25 -0.3750000000000001
0 -0.25 -0.433013
-0.216506 -0.25 -0.3750000000000001
-0.3750000000000001 -0.25 -0.216506
-0.433013 -0.25 -0
-0.3750000000000001 -0.25 0.216506
-0.216506 -0.25 0.3750000000000001
0 -0.25 0.433013
0.216506 -0.25 0.3750000000000001
0.3750000000000001 -0.25 0.216506
0.5 0 0
0.433013 0 -0.25
0.25 0 -0.433013
0 0 -0.5
-0.25 0 -0.433013
-0.433013 0 -0.25
-0.5 0 0
-0.433013 -0 0.25
-0.25 -0 0.433013
0 -0 0.5
0.25 -0 0.433013
0.433013 -0 0.25
0.3750000000000001 0.25 -0.216506
0.433013 0.25 0
0.216506 0.25 -0.3750000000000001
0 0.25 -0.433013
-0.216506 0.25 -0.3750000000000001
-0.3750000000000001 0.25 -0.216506
-0.433013 0.25 0
-0.3750000000000001 0.25 0.216506
-0.216506 0.25 0.3750000000000001
0 0.25 0.433013
0.216506 0.25 0.3750000000000001
0.3750000000000001 0.25 0.216506
0.25 0.433013 0
0.216506 0.433013 -0.125
0.125 0.433013 -0.216506
0 0.433013 -0.25
-0.125 0.433013 -0.216506
-0.216506 0.433013 -0.125
-0.25 0.433013 0
-0.216506 0.433013 0.125
-0.125 0.433013 0.216506
0 0.433013 0.25
0.125 0.433013 0.216506
0.216506 0.433013 0.125
0 0.5 0
3 1 0 1
63
0 6.539282643824862e-06 -2.268525705895197e-06
$EndNodes
$Elements
2 240 1 240
2 1 2 120
1 1 2 3 
2 1 14 2 
3 4 1 3 
4 4 15 1 
5 15 14 1 
6 2 13 3 
7 2 14 13 
8 5 4 3 
9 6 5 3 
10 7 6 3 
11 8 7 3 
12 9 8 3 
13 10 9 3 
14 11 10 3 
15 12 11 3 
16 13 12 3 
17 5 17 4 
18 16 15 4 
19 17 16 4 
20 17 5 6 
21 18 6 7 
22 18 17 6 
23 20 7 8 
24 19 18 7 
25 20 19 7 
26 20 8 9 
27 21 9 10 
28 21 20 9 
29 23 10 11 
30 22 21 10 
31 23 22 10 
32 12 23 11 
33 13 24 12 
34 24 23 12 
35 14 25 13 
36 25 24 13 
37 15 26 14 
38 14 26 25 
39 16 28 15 
40 27 26 15 
41 28 27 15 
42 17 29 16 
43 29 28 16 
44 29 17 18 
45 31 18 19 
46 30 29 18 
47 31 30 18 
48 32 19 20 
49 32 31 19 
50 32 20 21 
51 34 21 22 
52 33 32 21 
53 34 33 21 
54 35 22 23 
55 35 34 22 
56 24 35 23 
57 25 37 24 
58 36 35 24 
59 37 36 24 
60 26 37 25 
61 27 38 26 
62 26 49 37 
63 38 39 26 
64 39 49 26 
65 28 38 27 
66 29 40 28 
67 40 38 28 
68 42 29 30 
69 41 40 29 
70 42 41 29 
71 43 30 31 
72 43 42 30 
73 43 31 32 
74 45 32 33 
75 44 43 32 
76 45 44 32 
77 45 33 34 
78 46 34 35 
79 46 45 34 
80 36 48 35 
81 47 46 35 
82 48 47 35 
83 37 49 36 
84 49 48 36 
85 38 50 39 
86 40 51 38 
87 51 50 38 
88 39 50 49 
89 41 53 40 
90 52 51 40 
91 53 52 40 
92 53 41 42 
93 55 42 43 
94 54 53 42 
95 55 54 42 
96 56 43 44 
97 56 55 43 
98 56 44 45 
99 58 45 46 
100 57 56 45 
101 58 57 45 
102 58 46 47 
103 48 60 47 
104 59 58 47 
105 60 59 47 
106 49 60 48 
107 50 61 49 
108 61 60 49 
109 51 62 50 
110 50 62 61 
111 52 62 51 
112 53 62 52 
113 62 53 54 
114 62 54 55 
115 62 55 56 
116 62 56 57 
117 62 57 58 
118 62 58 59 
119 60 62 59 
120 61 62 60 
3 1 4 120
121 10 11 3 63 
122 11 12 3 63 
123 3 13 2 63 
124 9 3 8 63 
125 3 2 1 63 
126 8 3 7 63 
127 3 5 6 63 
128 4 5 3 63 
129 59 58 62 63 
130 59 62 60 63 
131 56 62 57 63 
132 50 61 62 63 
133 58 57 62 63 
134 60 62 61 63 
135 54 53 62 63 
136 53 52 62 63 
137 54 62 55 63 
138 51 62 52 63 
139 23 12 11 63 
140 23 11 10 63 
141 20 9 8 63 
142 14 2 13 63 
143 7 20 8 63 
144 14 1 2 63 
145 17 6 5 63 
146 17 5 4 63 
147 60 47 59 63 
148 47 58 59 63 
149 3 12 13 63 
150 9 10 3 63 
151 7 3 6 63 
152 4 3 1 63 
153 56 55 62 63 
154 50 62 51 63 
155 58 45 57 63 
156 60 61 49 63 
157 44 56 45 63 
158 39 49 50 63 
159 56 57 45 63 
160 61 50 49 63 
161 44 43 56 63 
162 39 50 38 63 
163 54 55 42 63 
164 51 52 40 63 
165 42 41 53 63 
166 53 41 40 63 
167 53 54 42 63 
168 52 53 40 63 
169 33 34 21 63 
170 33 21 32 63 
171 15 26 27 63 
172 28 15 27 63 
173 45 34 33 63 
174 33 32 45 63 
175 45 32 44 63 
176 26 49 39 63 
177 38 27 26 63 
178 44 32 43 63 
179 26 39 38 63 
180 28 27 38 63 
181 41 42 29 63 
182 41 29 40 63 
183 10 22 23 63 
184 23 24 12 63 
185 21 10 9 63 
186 24 13 12 63 
187 14 13 25 63 
188 20 21 9 63 
189 7 19 20 63 
190 14 15 1 63 
191 4 16 17 63 
192 4 1 15 63 
193 18 7 6 63 
194 18 6 17 63 
195 58 47 46 63 
196 60 48 47 63 
197 43 55 56 63 
198 50 51 38 63 
199 35 23 22 63 
200 35 24 23 63 
201 25 26 14 63 
202 32 21 20 63 
203 32 20 19 63 
204 26 15 14 63 
205 48 35 47 63 
206 46 47 35 63 
207 29 17 16 63 
208 18 17 29 63 
209 24 25 13 63 
210 10 21 22 63 
211 15 16 4 63 
212 19 7 18 63 
213 49 48 60 63 
214 45 58 46 63 
215 38 51 40 63 
216 42 55 43 63 
217 22 34 35 63 
218 36 24 35 63 
219 22 21 34 63 
220 37 25 24 63 
221 24 36 37 63 
222 25 37 26 63 
223 31 32 19 63 
224 35 34 46 63 
225 36 35 48 63 
226 28 16 15 63 
227 18 31 19 63 
228 46 34 45 63 
229 36 48 49 63 
230 30 31 18 63 
231 37 36 49 63 
232 29 16 28 63 
233 18 29 30 63 
234 37 49 26 63 
235 31 43 32 63 
236 30 42 43 63 
237 38 40 28 63 
238 43 31 30 63 
239 30 29 42 63 
240 40 29 28 63 
$EndElements
