$MeshFormat
4.1 0 8
$EndMeshFormat
$Entities
0 0 1 2
1 -0.5 -0.5 -0.5 0.5 0.5 0.5 0 0 
1 -0.5 -0.5 -0.5 0.5 0.5 0.5 0 1 1 
2 0 0 0 0 0 0 0 1 1 
$EndEntities
$Nodes
3 27 1 27
2 1 0 26
1
2
3
4
5
6
7
8
9
10
11
12
13
14
15
16
17
18
19
20
21
22
23
24
25
26
0.5 -0.5 -0.5
-0.5 -0.5 -0.5
-0.5 0.5 -0.5
-0.5 0.5 0.5
-0.5 -0.5 0.5
0.5 -0.5 0.5
0.5 0.5 -0.5
0.5 0.5 0.5
0 -0.5 -0.5
-0.5 0 -0.5
0 0 -0.5
0 -0.5 0
-0.5 -0.5 0
0.5 0 -0.5
0 0.5 -0.5
0.5 -0.5 0
0 -0.5 0.5
0.5 0 0
-0.5 0 0
-0.5 0 0.5
-0.5 0.5 0
0 0.5 0
0 0 0.5
0 0.5 0.5
0.5 0 0.5
0.5 0.5 0
3 1 0 1
27
0 0 0
3 2 0 0
$EndNodes
$Elements
2 96 1 96
2 1 2 48
1 1 9 11 
2 9 10 11 
3 9 2 10 
4 11 10 3 
5 2 9 13 
6 9 12 13 
7 9 1 12 
8 13 12 5 
9 7 14 15 
10 14 11 15 
11 14 1 11 
12 15 11 3 
13 1 16 12 
14 16 17 12 
15 16 6 17 
16 12 17 5 
17 1 14 16 
18 14 18 16 
19 14 7 18 
20 16 18 6 
21 2 13 10 
22 13 19 10 
23 13 5 19 
24 10 19 3 
25 5 20 19 
26 20 21 19 
27 20 4 21 
28 19 21 3 
29 7 15 22 
30 15 21 22 
31 15 3 21 
32 22 21 4 
33 4 20 23 
34 20 17 23 
35 20 5 17 
36 23 17 6 
37 8 24 25 
38 24 23 25 
39 24 4 23 
40 25 23 6 
41 8 26 24 
42 26 22 24 
43 26 7 22 
44 24 22 4 
45 7 26 18 
46 26 25 18 
47 26 8 25 
48 18 25 6 
3 1 4 48
49 3 11 19 10 
50 11 1 12 9 
51 19 12 5 13 
52 10 9 13 2 
53 11 19 10 9 
54 11 9 12 19 
55 19 10 9 13 
56 19 13 9 12 
57 4 23 22 24 
58 23 6 18 25 
59 22 18 7 26 
60 24 25 26 8 
61 23 22 24 25 
62 23 25 18 22 
63 22 24 25 26 
64 22 26 25 18 
65 7 18 27 14 
66 18 6 17 16 
67 27 17 5 12 
68 14 16 12 1 
69 18 27 14 16 
70 18 16 17 27 
71 27 14 16 12 
72 27 12 16 17 
73 3 19 15 21 
74 19 5 27 20 
75 15 27 7 22 
76 21 20 22 4 
77 19 15 21 20 
78 19 20 27 15 
79 15 21 20 22 
80 15 22 20 27 
81 6 23 18 17 
82 23 4 22 20 
83 18 22 7 27 
84 17 20 27 5 
85 23 18 17 20 
86 23 20 22 18 
87 18 17 20 27 
88 18 27 20 22 
89 1 11 12 14 
90 11 3 19 15 
91 12 19 5 27 
92 14 15 27 7 
93 11 12 14 15 
94 11 15 19 12 
95 12 14 15 27 
96 12 27 15 19 
$EndElements
