$MeshFormat
4.1 0 8
$EndMeshFormat
$Entities
0 0 1 2
1 -0.5 -0.5 -0.5 0.5 0.5 0.5 0 0 
1 -0.5 -0.5 -0.5 0.5 0.5 0.5 0 1 1 
2 0 0 0 0 0 0 0 1 1 
$EndEntities
$Nodes
3 125 1 125
2 1 0 98
1
2
3
4
5
6
7
8
9
10
11
12
13
14
15
16
17
18
19
20
21
22
23
24
25
26
27
28
29
30
31
32
33
34
35
36
37
38
39
40
41
42
43
44
45
46
47
48
49
50
51
52
53
54
55
56
57
58
59
60
61
62
63
64
65
66
67
68
69
70
71
72
73
74
75
76
77
78
79
80
81
82
83
84
85
86
87
88
89
90
91
92
93
94
95
96
97
98
0.5 -0.5 -0.5
-0.5 -0.5 -0.5
-0.5 0.5 -0.5
-0.5 0.5 0.5
-0.5 -0.5 0.5
0.5 -0.5 0.5
0.5 0.5 -0.5
0.5 0.5 0.5
0 -0.5 -0.5
-0.5 0 -0.5
0 0 -0.5
0 -0.5 0
-0.5 -0.5 0
0.5 0 -0.5
0 0.5 -0.5
0.5 -0.5 0
0 -0.5 0.5
0.5 0 0
-0.5 0 0
-0.5 0 0.5
-0.5 0.5 0
0 0.5 0
0 0 0.5
0 0.5 0.5
0.5 0 0.5
0.5 0.5 0
0.25 -0.5 -0.5
0 -0.25 -0.5
0.25 -0.25 -0.5
-0.25 -0.25 -0.5
-0.25 0 -0.5
-0.25 -0.5 -0.5
-0.5 -0.25 -0.5
-0.5 0.25 -0.5
-0.25 0.25 -0.5
-0.25 -0.5 -0.25
-0.5 -0.5 -0.25
0 -0.5 -0.25
-0.25 -0.5 0
0.25 -0.5 -0.25
-0.25 -0.5 0.25
-0.5 -0.5 0.25
0.5 0.25 -0.5
0.25 0.25 -0.5
0.25 0.5 -0.5
0.25 0 -0.5
0 0.25 -0.5
0.5 -0.25 -0.5
-0.25 0.5 -0.5
0.5 -0.5 -0.25
0.25 -0.5 0
0.25 -0.5 0.25
0 -0.5 0.25
0.5 -0.5 0.25
0.25 -0.5 0.5
-0.25 -0.5 0.5
0.5 -0.25 -0.25
0.5 0 -0.25
0.5 -0.25 0
0.5 0.25 -0.25
0.5 -0.25 0.25
-0.5 -0.25 -0.25
-0.5 -0.25 0
-0.5 0 -0.25
-0.5 -0.25 0.25
-0.5 0.25 -0.25
-0.5 -0.25 0.5
-0.5 0 0.25
-0.5 0.25 0.25
-0.5 0.25 0
-0.5 0.25 0.5
-0.5 0.5 0.25
-0.5 0.5 -0.25
0 0.5 -0.25
0.25 0.5 -0.25
-0.25 0.5 -0.25
-0.25 0.5 0
-0.25 0.5 0.25
-0.25 0 0.5
-0.25 0.25 0.5
-0.25 -0.25 0.5
0 -0.25 0.5
0.25 -0.25 0.5
0.25 0.5 0.5
0.25 0.25 0.5
0.5 0.25 0.5
0 0.25 0.5
0.25 0 0.5
-0.25 0.5 0.5
0.5 -0.25 0.5
0.5 0.5 0.25
0.25 0.5 0.25
0.25 0.5 0
0 0.5 0.25
0.5 0.5 -0.25
0.5 0.25 0
0.5 0.25 0.25
0.5 0 0.25
3 1 0 27
99
100
101
102
103
104
105
106
107
108
109
110
111
112
113
114
115
116
117
118
119
120
121
122
123
124
125
0 0 0
-0.25 0 -0.25
0 -0.25 -0.25
-0.25 -0.25 0
-0.25 -0.25 -0.25
0 0.25 0.25
0.25 0 0.25
0.25 0.25 0
0.25 0.25 0.25
0.25 0 0
0.25 0.25 -0.25
0.25 0 -0.25
0.25 -0.25 0.25
0 -0.25 0.25
-0.25 -0.25 0.25
0 -0.25 0
0.25 -0.25 -0.25
0.25 -0.25 0
-0.25 0.25 -0.25
-0.25 0 0
-0.25 0 0.25
0 0.25 -0.25
0 0.25 0
-0.25 0.25 0.25
-0.25 0.25 0
0 0 0.25
0 0 -0.25
3 2 0 0
$EndNodes
$Elements
2 576 1 576
2 1 2 192
1 1 27 29 
2 27 28 29 
3 27 9 28 
4 29 28 11 
5 9 30 28 
6 30 31 28 
7 30 10 31 
8 28 31 11 
9 9 32 30 
10 32 33 30 
11 32 2 33 
12 30 33 10 
13 11 31 35 
14 31 34 35 
15 31 10 34 
16 35 34 3 
17 2 32 37 
18 32 36 37 
19 32 9 36 
20 37 36 13 
21 9 38 36 
22 38 39 36 
23 38 12 39 
24 36 39 13 
25 9 27 38 
26 27 40 38 
27 27 1 40 
28 38 40 12 
29 13 39 42 
30 39 41 42 
31 39 12 41 
32 42 41 5 
33 7 43 45 
34 43 44 45 
35 43 14 44 
36 45 44 15 
37 14 46 44 
38 46 47 44 
39 46 11 47 
40 44 47 15 
41 14 48 46 
42 48 29 46 
43 48 1 29 
44 46 29 11 
45 15 47 49 
46 47 35 49 
47 47 11 35 
48 49 35 3 
49 1 50 40 
50 50 51 40 
51 50 16 51 
52 40 51 12 
53 16 52 51 
54 52 53 51 
55 52 17 53 
56 51 53 12 
57 16 54 52 
58 54 55 52 
59 54 6 55 
60 52 55 17 
61 12 53 41 
62 53 56 41 
63 53 17 56 
64 41 56 5 
65 1 48 50 
66 48 57 50 
67 48 14 57 
68 50 57 16 
69 14 58 57 
70 58 59 57 
71 58 18 59 
72 57 59 16 
73 14 43 58 
74 43 60 58 
75 43 7 60 
76 58 60 18 
77 16 59 54 
78 59 61 54 
79 59 18 61 
80 54 61 6 
81 2 37 33 
82 37 62 33 
83 37 13 62 
84 33 62 10 
85 13 63 62 
86 63 64 62 
87 63 19 64 
88 62 64 10 
89 13 42 63 
90 42 65 63 
91 42 5 65 
92 63 65 19 
93 10 64 34 
94 64 66 34 
95 64 19 66 
96 34 66 3 
97 5 67 65 
98 67 68 65 
99 67 20 68 
100 65 68 19 
101 20 69 68 
102 69 70 68 
103 69 21 70 
104 68 70 19 
105 20 71 69 
106 71 72 69 
107 71 4 72 
108 69 72 21 
109 19 70 66 
110 70 73 66 
111 70 21 73 
112 66 73 3 
113 7 45 75 
114 45 74 75 
115 45 15 74 
116 75 74 22 
117 15 76 74 
118 76 77 74 
119 76 21 77 
120 74 77 22 
121 15 49 76 
122 49 73 76 
123 49 3 73 
124 76 73 21 
125 22 77 78 
126 77 72 78 
127 77 21 72 
128 78 72 4 
129 4 71 80 
130 71 79 80 
131 71 20 79 
132 80 79 23 
133 20 81 79 
134 81 82 79 
135 81 17 82 
136 79 82 23 
137 20 67 81 
138 67 56 81 
139 67 5 56 
140 81 56 17 
141 23 82 83 
142 82 55 83 
143 82 17 55 
144 83 55 6 
145 8 84 86 
146 84 85 86 
147 84 24 85 
148 86 85 25 
149 24 87 85 
150 87 88 85 
151 87 23 88 
152 85 88 25 
153 24 89 87 
154 89 80 87 
155 89 4 80 
156 87 80 23 
157 25 88 90 
158 88 83 90 
159 88 23 83 
160 90 83 6 
161 8 91 84 
162 91 92 84 
163 91 26 92 
164 84 92 24 
165 26 93 92 
166 93 94 92 
167 93 22 94 
168 92 94 24 
169 26 95 93 
170 95 75 93 
171 95 7 75 
172 93 75 22 
173 24 94 89 
174 94 78 89 
175 94 22 78 
176 89 78 4 
177 7 95 60 
178 95 96 60 
179 95 26 96 
180 60 96 18 
181 26 97 96 
182 97 98 96 
183 97 25 98 
184 96 98 18 
185 26 91 97 
186 91 86 97 
187 91 8 86 
188 97 86 25 
189 18 98 61 
190 98 90 61 
191 98 25 90 
192 61 90 6 
3 1 4 384
193 3 35 66 34 
194 35 11 100 31 
195 66 100 19 64 
196 34 31 64 10 
197 35 66 34 31 
198 35 31 100 66 
199 66 34 31 64 
200 66 64 31 100 
201 11 29 101 28 
202 29 1 40 27 
203 101 40 12 38 
204 28 27 38 9 
205 29 101 28 27 
206 29 27 40 101 
207 101 28 27 38 
208 101 38 27 40 
209 19 102 65 63 
210 102 12 41 39 
211 65 41 5 42 
212 63 39 42 13 
213 102 65 63 39 
214 102 39 41 65 
215 65 63 39 42 
216 65 42 39 41 
217 10 30 62 33 
218 30 9 36 32 
219 62 36 13 37 
220 33 32 37 2 
221 30 62 33 32 
222 30 32 36 62 
223 62 33 32 37 
224 62 37 32 36 
225 11 100 31 28 
226 100 19 64 103 
227 31 64 10 30 
228 28 103 30 9 
229 100 31 28 103 
230 100 103 64 31 
231 31 28 103 30 
232 31 30 103 64 
233 11 28 101 100 
234 28 9 38 103 
235 101 38 12 102 
236 100 103 102 19 
237 28 101 100 103 
238 28 103 38 101 
239 101 100 103 102 
240 101 102 103 38 
241 19 64 103 63 
242 64 10 30 62 
243 103 30 9 36 
244 63 62 36 13 
245 64 103 63 62 
246 64 62 30 103 
247 103 63 62 36 
248 103 36 62 30 
249 19 63 103 102 
250 63 13 36 39 
251 103 36 9 38 
252 102 39 38 12 
253 63 103 102 39 
254 63 39 36 103 
255 103 102 39 38 
256 103 38 39 36 
257 4 80 78 89 
258 80 23 104 87 
259 78 104 22 94 
260 89 87 94 24 
261 80 78 89 87 
262 80 87 104 78 
263 78 89 87 94 
264 78 94 87 104 
265 23 83 105 88 
266 83 6 61 90 
267 105 61 18 98 
268 88 90 98 25 
269 83 105 88 90 
270 83 90 61 105 
271 105 88 90 98 
272 105 98 90 61 
273 22 106 75 93 
274 106 18 60 96 
275 75 60 7 95 
276 93 96 95 26 
277 106 75 93 96 
278 106 96 60 75 
279 75 93 96 95 
280 75 95 96 60 
281 24 85 92 84 
282 85 25 97 86 
283 92 97 26 91 
284 84 86 91 8 
285 85 92 84 86 
286 85 86 97 92 
287 92 84 86 91 
288 92 91 86 97 
289 23 104 87 88 
290 104 22 94 107 
291 87 94 24 85 
292 88 107 85 25 
293 104 87 88 107 
294 104 107 94 87 
295 87 88 107 85 
296 87 85 107 94 
297 23 88 105 104 
298 88 25 98 107 
299 105 98 18 106 
300 104 107 106 22 
301 88 105 104 107 
302 88 107 98 105 
303 105 104 107 106 
304 105 106 107 98 
305 22 94 107 93 
306 94 24 85 92 
307 107 85 25 97 
308 93 92 97 26 
309 94 107 93 92 
310 94 92 85 107 
311 107 93 92 97 
312 107 97 92 85 
313 22 93 107 106 
314 93 26 97 96 
315 107 97 25 98 
316 106 96 98 18 
317 93 107 106 96 
318 93 96 97 107 
319 107 106 96 98 
320 107 98 96 97 
321 7 60 109 43 
322 60 18 108 58 
323 109 108 99 110 
324 43 58 110 14 
325 60 109 43 58 
326 60 58 108 109 
327 109 43 58 110 
328 109 110 58 108 
329 18 61 111 59 
330 61 6 55 54 
331 111 55 17 52 
332 59 54 52 16 
333 61 111 59 54 
334 61 54 55 111 
335 111 59 54 52 
336 111 52 54 55 
337 99 112 113 114 
338 112 17 56 53 
339 113 56 5 41 
340 114 53 41 12 
341 112 113 114 53 
342 112 53 56 113 
343 113 114 53 41 
344 113 41 53 56 
345 14 57 115 48 
346 57 16 51 50 
347 115 51 12 40 
348 48 50 40 1 
349 57 115 48 50 
350 57 50 51 115 
351 115 48 50 40 
352 115 40 50 51 
353 18 108 58 59 
354 108 99 110 116 
355 58 110 14 57 
356 59 116 57 16 
357 108 58 59 116 
358 108 116 110 58 
359 58 59 116 57 
360 58 57 116 110 
361 18 59 111 108 
362 59 16 52 116 
363 111 52 17 112 
364 108 116 112 99 
365 59 111 108 116 
366 59 116 52 111 
367 111 108 116 112 
368 111 112 116 52 
369 99 110 116 114 
370 110 14 57 115 
371 116 57 16 51 
372 114 115 51 12 
373 110 116 114 115 
374 110 115 57 116 
375 116 114 115 51 
376 116 51 115 57 
377 99 114 116 112 
378 114 12 51 53 
379 116 51 16 52 
380 112 53 52 17 
381 114 116 112 53 
382 114 53 51 116 
383 116 112 53 52 
384 116 52 53 51 
385 3 66 49 73 
386 66 19 117 70 
387 49 117 15 76 
388 73 70 76 21 
389 66 49 73 70 
390 66 70 117 49 
391 49 73 70 76 
392 49 76 70 117 
393 19 65 118 68 
394 65 5 113 67 
395 118 113 99 119 
396 68 67 119 20 
397 65 118 68 67 
398 65 67 113 118 
399 118 68 67 119 
400 118 119 67 113 
401 15 120 45 74 
402 120 99 109 121 
403 45 109 7 75 
404 74 121 75 22 
405 120 45 74 121 
406 120 121 109 45 
407 45 74 121 75 
408 45 75 121 109 
409 21 69 77 72 
410 69 20 122 71 
411 77 122 22 78 
412 72 71 78 4 
413 69 77 72 71 
414 69 71 122 77 
415 77 72 71 78 
416 77 78 71 122 
417 19 117 70 68 
418 117 15 76 123 
419 70 76 21 69 
420 68 123 69 20 
421 117 70 68 123 
422 117 123 76 70 
423 70 68 123 69 
424 70 69 123 76 
425 19 68 118 117 
426 68 20 119 123 
427 118 119 99 120 
428 117 123 120 15 
429 68 118 117 123 
430 68 123 119 118 
431 118 117 123 120 
432 118 120 123 119 
433 15 76 123 74 
434 76 21 69 77 
435 123 69 20 122 
436 74 77 122 22 
437 76 123 74 77 
438 76 77 69 123 
439 123 74 77 122 
440 123 122 77 69 
441 15 74 123 120 
442 74 22 122 121 
443 123 122 20 119 
444 120 121 119 99 
445 74 123 120 121 
446 74 121 122 123 
447 123 120 121 119 
448 123 119 121 122 
449 6 83 61 55 
450 83 23 105 82 
451 61 105 18 111 
452 55 82 111 17 
453 83 61 55 82 
454 83 82 105 61 
455 61 55 82 111 
456 61 111 82 105 
457 23 80 104 79 
458 80 4 78 71 
459 104 78 22 122 
460 79 71 122 20 
461 80 104 79 71 
462 80 71 78 104 
463 104 79 71 122 
464 104 122 71 78 
465 18 106 60 108 
466 106 22 75 121 
467 60 75 7 109 
468 108 121 109 99 
469 106 60 108 121 
470 106 121 75 60 
471 60 108 121 109 
472 60 109 121 75 
473 17 81 112 56 
474 81 20 119 67 
475 112 119 99 113 
476 56 67 113 5 
477 81 112 56 67 
478 81 67 119 112 
479 112 56 67 113 
480 112 113 67 119 
481 23 105 82 79 
482 105 18 111 124 
483 82 111 17 81 
484 79 124 81 20 
485 105 82 79 124 
486 105 124 111 82 
487 82 79 124 81 
488 82 81 124 111 
489 23 79 104 105 
490 79 20 122 124 
491 104 122 22 106 
492 105 124 106 18 
493 79 104 105 124 
494 79 124 122 104 
495 104 105 124 106 
496 104 106 124 122 
497 18 111 124 108 
498 111 17 81 112 
499 124 81 20 119 
500 108 112 119 99 
501 111 124 108 112 
502 111 112 81 124 
503 124 108 112 119 
504 124 119 112 81 
505 18 108 124 106 
506 108 99 119 121 
507 124 119 20 122 
508 106 121 122 22 
509 108 124 106 121 
510 108 121 119 124 
511 124 106 121 122 
512 124 122 121 119 
513 1 29 40 48 
514 29 11 101 46 
515 40 101 12 115 
516 48 46 115 14 
517 29 40 48 46 
518 29 46 101 40 
519 40 48 46 115 
520 40 115 46 101 
521 11 35 100 47 
522 35 3 66 49 
523 100 66 19 117 
524 47 49 117 15 
525 35 100 47 49 
526 35 49 66 100 
527 100 47 49 117 
528 100 117 49 66 
529 12 102 41 114 
530 102 19 65 118 
531 41 65 5 113 
532 114 118 113 99 
533 102 41 114 118 
534 102 118 65 41 
535 41 114 118 113 
536 41 113 118 65 
537 14 44 110 43 
538 44 15 120 45 
539 110 120 99 109 
540 43 45 109 7 
541 44 110 43 45 
542 44 45 120 110 
543 110 43 45 109 
544 110 109 45 120 
545 11 101 46 47 
546 101 12 115 125 
547 46 115 14 44 
548 47 125 44 15 
549 101 46 47 125 
550 101 125 115 46 
551 46 47 125 44 
552 46 44 125 115 
553 11 47 100 101 
554 47 15 117 125 
555 100 117 19 102 
556 101 125 102 12 
557 47 100 101 125 
558 47 125 117 100 
559 100 101 125 102 
560 100 102 125 117 
561 12 115 125 114 
562 115 14 44 110 
563 125 44 15 120 
564 114 110 120 99 
565 115 125 114 110 
566 115 110 44 125 
567 125 114 110 120 
568 125 120 110 44 
569 12 114 125 102 
570 114 99 120 118 
571 125 120 15 117 
572 102 118 117 19 
573 114 125 102 118 
574 114 118 120 125 
575 125 102 118 117 
576 125 117 118 120 
$EndElements
