$MeshFormat
4.1 0 8
$EndMeshFormat
$Entities
0 0 1 2
1 -0.5 -0.5 -0.5 0.5 0.5 0.5 0 0 
1 -0.5 -0.5 -0.5 0.5 0.5 0.5 0 1 1 
2 -0.5 -0.5 -0.5 0.5 0.5 0.5 0 1 1 
$EndEntities
$Nodes
3 8 1 8
2 1 0 8
1
2
3
4
5
6
7
8
0.5 -0.5 -0.5
-0.5 -0.5 -0.5
-0.5 0.5 -0.5
-0.5 0.5 0.5
-0.5 -0.5 0.5
0.5 -0.5 0.5
0.5 0.5 -0.5
0.5 0.5 0.5
3 1 0 0
3 2 0 0
$EndNodes
$Elements
2 18 1 18
2 1 2 12
1 1 2 3 
2 2 1 5 
3 7 1 3 
4 1 6 5 
5 1 7 6 
6 2 5 3 
7 5 4 3 
8 7 3 4 
9 4 5 6 
10 8 4 6 
11 8 7 4 
12 7 8 6 
3 1 4 6
13 3 1 5 2 
14 4 6 7 8 
15 7 6 5 1 
16 3 5 7 4 
17 6 4 7 5 
18 1 3 5 7 
$EndElements
