v -0.530427 -0.991586 0.0
v -0.546932 -0.793942 0.0
v -0.542896 -0.581629 0.0
v -0.528166 -0.360556 0.0
v -0.511944 -0.127119 0.0
v -0.266567 -0.991611 0.0
v -0.273231 -0.790664 0.0
v -0.272984 -0.588860 0.0
v -0.265216 -0.371829 0.0
v -0.256836 -0.137683 0.0
v -0.000000 -0.991602 0.0
v -0.000000 -0.791913 0.0
v -0.000000 -0.590594 0.0
v -0.000000 -0.375149 0.0
v 0.000000 -0.141637 0.0
v 0.266567 -0.991611 0.0
v 0.273231 -0.790664 0.0
v 0.272984 -0.588860 0.0
v 0.265216 -0.371829 0.0
v 0.256836 -0.137683 0.0
v 0.530427 -0.991586 0.0
v 0.546932 -0.793942 0.0
v 0.542896 -0.581629 0.0
v 0.528166 -0.360556 0.0
v 0.511944 -0.127119 0.0
v 0.000000 0.099907 0.0
f 1 6 7
f 1 7 2
f 2 7 8
f 2 8 3
f 3 8 9
f 3 9 4
f 4 9 10
f 4 10 5
f 6 11 12
f 6 12 7
f 7 12 13
f 7 13 8
f 8 13 14
f 8 14 9
f 9 14 15
f 9 15 10
f 11 16 17
f 11 17 12
f 12 17 18
f 12 18 13
f 13 18 19
f 13 19 14
f 14 19 20
f 14 20 15
f 16 21 22
f 16 22 17
f 17 22 23
f 17 23 18
f 18 23 24
f 18 24 19
f 19 24 25
f 19 25 20
