v -0.530437 -0.991628 0.0
v -0.545612 -0.797266 0.0
v -0.540559 -0.584521 0.0
v -0.526762 -0.359647 0.0
v -0.509616 -0.122709 0.0
v -0.266574 -0.991688 0.0
v -0.272153 -0.793259 0.0
v -0.272224 -0.591139 0.0
v -0.265114 -0.372411 0.0
v -0.255485 -0.137455 0.0
v -0.000000 -0.991681 0.0
v -0.000000 -0.794042 0.0
v -0.000000 -0.592937 0.0
v -0.000000 -0.377116 0.0
v 0.000000 -0.143395 0.0
v 0.266574 -0.991688 0.0
v 0.272153 -0.793259 0.0
v 0.272224 -0.591139 0.0
v 0.265114 -0.372411 0.0
v 0.255485 -0.137455 0.0
v 0.530437 -0.991628 0.0
v 0.545612 -0.797266 0.0
v 0.540559 -0.584521 0.0
v 0.526762 -0.359647 0.0
v 0.509616 -0.122709 0.0
v 0.000000 0.084904 0.0
f 1 6 7
f 1 7 2
f 2 7 8
f 2 8 3
f 3 8 9
f 3 9 4
f 4 9 10
f 4 10 5
f 6 11 12
f 6 12 7
f 7 12 13
f 7 13 8
f 8 13 14
f 8 14 9
f 9 14 15
f 9 15 10
f 11 16 17
f 11 17 12
f 12 17 18
f 12 18 13
f 13 18 19
f 13 19 14
f 14 19 20
f 14 20 15
f 16 21 22
f 16 22 17
f 17 22 23
f 17 23 18
f 18 23 24
f 18 24 19
f 19 24 25
f 19 25 20
