v -0.530438 -0.991602 0.0
v -0.543674 -0.796214 0.0
v -0.537953 -0.582530 0.0
v -0.524717 -0.355980 0.0
v -0.507904 -0.117692 0.0
v -0.266574 -0.991686 0.0
v -0.270976 -0.792477 0.0
v -0.270865 -0.588462 0.0
v -0.264102 -0.368152 0.0
v -0.254519 -0.132365 0.0
v -0.000000 -0.991683 0.0
v -0.000000 -0.792977 0.0
v -0.000000 -0.589868 0.0
v -0.000000 -0.372767 0.0
v 0.000000 -0.138351 0.0
v 0.266574 -0.991686 0.0
v 0.270976 -0.792477 0.0
v 0.270865 -0.588462 0.0
v 0.264102 -0.368152 0.0
v 0.254519 -0.132365 0.0
v 0.530438 -0.991602 0.0
v 0.543674 -0.796214 0.0
v 0.537953 -0.582530 0.0
v 0.524717 -0.355980 0.0
v 0.507904 -0.117692 0.0
v 0.000000 0.079903 0.0
f 1 6 7
f 1 7 2
f 2 7 8
f 2 8 3
f 3 8 9
f 3 9 4
f 4 9 10
f 4 10 5
f 6 11 12
f 6 12 7
f 7 12 13
f 7 13 8
f 8 13 14
f 8 14 9
f 9 14 15
f 9 15 10
f 11 16 17
f 11 17 12
f 12 17 18
f 12 18 13
f 13 18 19
f 13 19 14
f 14 19 20
f 14 20 15
f 16 21 22
f 16 22 17
f 17 22 23
f 17 23 18
f 18 23 24
f 18 24 19
f 19 24 25
f 19 25 20
