v -0.530437 -0.991488 0.0
v -0.538520 -0.790139 0.0
v -0.531510 -0.573308 0.0
v -0.519511 -0.343673 0.0
v -0.504260 -0.103356 0.0
v -0.266572 -0.991628 0.0
v -0.268273 -0.788323 0.0
v -0.267225 -0.578259 0.0
v -0.261129 -0.353750 0.0
v -0.252454 -0.115612 0.0
v -0.000000 -0.991638 0.0
v -0.000000 -0.788611 0.0
v -0.000000 -0.579016 0.0
v -0.000000 -0.357462 0.0
v 0.000000 -0.120612 0.0
v 0.266572 -0.991628 0.0
v 0.268273 -0.788323 0.0
v 0.267225 -0.578259 0.0
v 0.261129 -0.353750 0.0
v 0.252454 -0.115612 0.0
v 0.530437 -0.991488 0.0
v 0.538520 -0.790139 0.0
v 0.531510 -0.573308 0.0
v 0.519511 -0.343673 0.0
v 0.504260 -0.103356 0.0
v 0.000000 0.069901 0.0
f 1 6 7
f 1 7 2
f 2 7 8
f 2 8 3
f 3 8 9
f 3 9 4
f 4 9 10
f 4 10 5
f 6 11 12
f 6 12 7
f 7 12 13
f 7 13 8
f 8 13 14
f 8 14 9
f 9 14 15
f 9 15 10
f 11 16 17
f 11 17 12
f 12 17 18
f 12 18 13
f 13 18 19
f 13 19 14
f 14 19 20
f 14 20 15
f 16 21 22
f 16 22 17
f 17 22 23
f 17 23 18
f 18 23 24
f 18 24 19
f 19 24 25
f 19 25 20
