v -0.530435 -0.991392 0.0
v -0.535430 -0.785247 0.0
v -0.527958 -0.566166 0.0
v -0.516689 -0.335166 0.0
v -0.502762 -0.094189 0.0
v -0.266571 -0.991565 0.0
v -0.266887 -0.784987 0.0
v -0.265103 -0.571003 0.0
v -0.259352 -0.343964 0.0
v -0.251590 -0.104421 0.0
v -0.000000 -0.991584 0.0
v -0.000000 -0.785427 0.0
v -0.000000 -0.571719 0.0
v -0.000000 -0.347019 0.0
v 0.000000 -0.108513 0.0
v 0.266571 -0.991565 0.0
v 0.266887 -0.784987 0.0
v 0.265103 -0.571003 0.0
v 0.259352 -0.343964 0.0
v 0.251590 -0.104421 0.0
v 0.530435 -0.991392 0.0
v 0.535430 -0.785247 0.0
v 0.527958 -0.566166 0.0
v 0.516689 -0.335166 0.0
v 0.502762 -0.094189 0.0
v 0.000000 0.064900 0.0
f 1 6 7
f 1 7 2
f 2 7 8
f 2 8 3
f 3 8 9
f 3 9 4
f 4 9 10
f 4 10 5
f 6 11 12
f 6 12 7
f 7 12 13
f 7 13 8
f 8 13 14
f 8 14 9
f 9 14 15
f 9 15 10
f 11 16 17
f 11 17 12
f 12 17 18
f 12 18 13
f 13 18 19
f 13 19 14
f 14 19 20
f 14 20 15
f 16 21 22
f 16 22 17
f 17 22 23
f 17 23 18
f 18 23 24
f 18 24 19
f 19 24 25
f 19 25 20
