v -0.530196 -0.991114 0.0
v -0.528616 -0.772999 0.0
v -0.520612 -0.547968 0.0
v -0.511152 -0.314218 0.0
v -0.501043 -0.072220 0.0
v -0.266565 -0.991360 0.0
v -0.264211 -0.776212 0.0
v -0.260640 -0.553192 0.0
v -0.255679 -0.320366 0.0
v -0.250530 -0.077871 0.0
v -0.000000 -0.991397 0.0
v -0.000000 -0.777341 0.0
v -0.000000 -0.554458 0.0
v -0.000000 -0.322150 0.0
v 0.000000 -0.079872 0.0
v 0.266565 -0.991360 0.0
v 0.264211 -0.776212 0.0
v 0.260640 -0.553192 0.0
v 0.255679 -0.320366 0.0
v 0.250530 -0.077871 0.0
v 0.530196 -0.991114 0.0
v 0.528616 -0.772999 0.0
v 0.520612 -0.547968 0.0
v 0.511152 -0.314218 0.0
v 0.501043 -0.072220 0.0
v 0.000000 0.054898 0.0
f 1 6 7
f 1 7 2
f 2 7 8
f 2 8 3
f 3 8 9
f 3 9 4
f 4 9 10
f 4 10 5
f 6 11 12
f 6 12 7
f 7 12 13
f 7 13 8
f 8 13 14
f 8 14 9
f 9 14 15
f 9 15 10
f 11 16 17
f 11 17 12
f 12 17 18
f 12 18 13
f 13 18 19
f 13 19 14
f 14 19 20
f 14 20 15
f 16 21 22
f 16 22 17
f 17 22 23
f 17 23 18
f 18 23 24
f 18 24 19
f 19 24 25
f 19 25 20
