v -0.527561 -0.990753 0.0
v -0.521278 -0.759837 0.0
v -0.513123 -0.527153 0.0
v -0.506075 -0.289803 0.0
v -0.500897 -0.046443 0.0
v -0.266084 -0.991052 0.0
v -0.261383 -0.765601 0.0
v -0.256279 -0.532789 0.0
v -0.252390 -0.293437 0.0
v -0.250296 -0.048031 0.0
v -0.000000 -0.991110 0.0
v -0.000000 -0.767524 0.0
v -0.000000 -0.534803 0.0
v 0.000000 -0.294381 0.0
v 0.000000 -0.048330 0.0
v 0.266084 -0.991052 0.0
v 0.261383 -0.765601 0.0
v 0.256279 -0.532789 0.0
v 0.252390 -0.293437 0.0
v 0.250296 -0.048031 0.0
v 0.527561 -0.990753 0.0
v 0.521278 -0.759837 0.0
v 0.513123 -0.527153 0.0
v 0.506075 -0.289803 0.0
v 0.500897 -0.046443 0.0
v 0.000000 0.044896 0.0
f 1 6 7
f 1 7 2
f 2 7 8
f 2 8 3
f 3 8 9
f 3 9 4
f 4 9 10
f 4 10 5
f 6 11 12
f 6 12 7
f 7 12 13
f 7 13 8
f 8 13 14
f 8 14 9
f 9 14 15
f 9 15 10
f 11 16 17
f 11 17 12
f 12 17 18
f 12 18 13
f 13 18 19
f 13 19 14
f 14 19 20
f 14 20 15
f 16 21 22
f 16 22 17
f 17 22 23
f 17 23 18
f 18 23 24
f 18 24 19
f 19 24 25
f 19 25 20
