v -0.520696 -0.990391 0.0
v -0.513281 -0.748387 0.0
v -0.505703 -0.507183 0.0
v -0.501599 -0.264783 0.0
v -0.501288 -0.019121 0.0
v -0.262779 -0.990671 0.0
v -0.257750 -0.754430 0.0
v -0.252373 -0.512237 0.0
v -0.249906 -0.266218 0.0
v -0.250379 -0.017972 0.0
v -0.000000 -0.990739 0.0
v -0.000000 -0.756541 0.0
v -0.000000 -0.514306 0.0
v 0.000000 -0.266732 0.0
v 0.000000 -0.017435 0.0
v 0.262779 -0.990671 0.0
v 0.257750 -0.754430 0.0
v 0.252373 -0.512237 0.0
v 0.249906 -0.266218 0.0
v 0.250379 -0.017972 0.0
v 0.520696 -0.990391 0.0
v 0.513281 -0.748387 0.0
v 0.505703 -0.507183 0.0
v 0.501599 -0.264783 0.0
v 0.501288 -0.019121 0.0
v 0.000000 0.034894 0.0
f 1 6 7
f 1 7 2
f 2 7 8
f 2 8 3
f 3 8 9
f 3 9 4
f 4 9 10
f 4 10 5
f 6 11 12
f 6 12 7
f 7 12 13
f 7 13 8
f 8 13 14
f 8 14 9
f 9 14 15
f 9 15 10
f 11 16 17
f 11 17 12
f 12 17 18
f 12 18 13
f 13 18 19
f 13 19 14
f 14 19 20
f 14 20 15
f 16 21 22
f 16 22 17
f 17 22 23
f 17 23 18
f 18 23 24
f 18 24 19
f 19 24 25
f 19 25 20
