v -0.515656 -0.990234 0.0
v -0.508913 -0.743790 0.0
v -0.502154 -0.498419 0.0
v -0.499609 -0.253047 0.0
v -0.501284 -0.005875 0.0
v -0.259909 -0.990469 0.0
v -0.255494 -0.749036 0.0
v -0.250652 -0.502624 0.0
v -0.248994 -0.253529 0.0
v -0.250348 -0.003903 0.0
v -0.000000 -0.990533 0.0
v -0.000000 -0.750856 0.0
v -0.000000 -0.504356 0.0
v 0.000000 -0.253878 0.0
v 0.000000 -0.003243 0.0
v 0.259909 -0.990469 0.0
v 0.255494 -0.749036 0.0
v 0.250652 -0.502624 0.0
v 0.248994 -0.253529 0.0
v 0.250348 -0.003903 0.0
v 0.515656 -0.990234 0.0
v 0.508913 -0.743790 0.0
v 0.502154 -0.498419 0.0
v 0.499609 -0.253047 0.0
v 0.501284 -0.005875 0.0
v 0.000000 0.029893 0.0
f 1 6 7
f 1 7 2
f 2 7 8
f 2 8 3
f 3 8 9
f 3 9 4
f 4 9 10
f 4 10 5
f 6 11 12
f 6 12 7
f 7 12 13
f 7 13 8
f 8 13 14
f 8 14 9
f 9 14 15
f 9 15 10
f 11 16 17
f 11 17 12
f 12 17 18
f 12 18 13
f 13 18 19
f 13 19 14
f 14 19 20
f 14 20 15
f 16 21 22
f 16 22 17
f 17 22 23
f 17 23 18
f 18 23 24
f 18 24 19
f 19 24 25
f 19 25 20
