v -0.509798 -0.990102 0.0
v -0.504302 -0.740003 0.0
v -0.498809 -0.490775 0.0
v -0.497799 -0.242336 0.0
v -0.500998 0.006499 0.0
v -0.256421 -0.990273 0.0
v -0.252967 -0.743981 0.0
v -0.249093 -0.493784 0.0
v -0.248271 -0.241962 0.0
v -0.250201 0.008972 0.0
v -0.000000 -0.990324 0.0
v -0.000000 -0.745295 0.0
v 0.000000 -0.494992 0.0
v 0.000000 -0.242124 0.0
v 0.000000 0.009636 0.0
v 0.256421 -0.990273 0.0
v 0.252967 -0.743981 0.0
v 0.249093 -0.493784 0.0
v 0.248271 -0.241962 0.0
v 0.250201 0.008972 0.0
v 0.509798 -0.990102 0.0
v 0.504302 -0.740003 0.0
v 0.498809 -0.490775 0.0
v 0.497799 -0.242336 0.0
v 0.500998 0.006499 0.0
v 0.000000 0.024892 0.0
f 1 6 7
f 1 7 2
f 2 7 8
f 2 8 3
f 3 8 9
f 3 9 4
f 4 9 10
f 4 10 5
f 6 11 12
f 6 12 7
f 7 12 13
f 7 13 8
f 8 13 14
f 8 14 9
f 9 14 15
f 9 15 10
f 11 16 17
f 11 17 12
f 12 17 18
f 12 18 13
f 13 18 19
f 13 19 14
f 14 19 20
f 14 20 15
f 16 21 22
f 16 22 17
f 17 22 23
f 17 23 18
f 18 23 24
f 18 24 19
f 19 24 25
f 19 25 20
