v -0.486681 -0.988930 0.0
v -0.488725 -0.735336 0.0
v -0.493850 -0.483290 0.0
v -0.502408 -0.238570 0.0
v -0.504394 -0.004579 0.0
v -0.241992 -0.988537 0.0
v -0.243612 -0.733261 0.0
v -0.246775 -0.481006 0.0
v -0.249942 -0.237871 0.0
v -0.251051 -0.004327 0.0
v -0.000000 -0.988424 0.0
v 0.000000 -0.732454 0.0
v 0.000000 -0.480581 0.0
v 0.000000 -0.237894 0.0
v 0.000000 -0.004290 0.0
v 0.241992 -0.988537 0.0
v 0.243612 -0.733261 0.0
v 0.246775 -0.481006 0.0
v 0.249942 -0.237871 0.0
v 0.251051 -0.004327 0.0
v 0.486681 -0.988930 0.0
v 0.488725 -0.735336 0.0
v 0.493850 -0.483290 0.0
v 0.502408 -0.238570 0.0
v 0.504394 -0.004579 0.0
v 0.000000 0.005019 0.0
f 1 6 7
f 1 7 2
f 2 7 8
f 2 8 3
f 3 8 9
f 3 9 4
f 4 9 10
f 4 10 5
f 6 11 12
f 6 12 7
f 7 12 13
f 7 13 8
f 8 13 14
f 8 14 9
f 9 14 15
f 9 15 10
f 11 16 17
f 11 17 12
f 12 17 18
f 12 18 13
f 13 18 19
f 13 19 14
f 14 19 20
f 14 20 15
f 16 21 22
f 16 22 17
f 17 22 23
f 17 23 18
f 18 23 24
f 18 24 19
f 19 24 25
f 19 25 20
