v -0.483664 -0.989850 0.0
v -0.487969 -0.738309 0.0
v -0.496123 -0.489348 0.0
v -0.505877 -0.246840 0.0
v -0.506409 -0.009650 0.0
v -0.239997 -0.988763 0.0
v -0.242854 -0.734803 0.0
v -0.247753 -0.485498 0.0
v -0.251721 -0.245107 0.0
v -0.252505 -0.009434 0.0
v 0.000000 -0.988407 0.0
v 0.000000 -0.733643 0.0
v 0.000000 -0.484761 0.0
v 0.000000 -0.244832 0.0
v 0.000000 -0.009376 0.0
v 0.239997 -0.988763 0.0
v 0.242854 -0.734803 0.0
v 0.247753 -0.485498 0.0
v 0.251721 -0.245107 0.0
v 0.252505 -0.009434 0.0
v 0.483664 -0.989850 0.0
v 0.487969 -0.738309 0.0
v 0.496123 -0.489348 0.0
v 0.505877 -0.246840 0.0
v 0.506409 -0.009650 0.0
v 0.000000 0.000033 0.0
f 1 6 7
f 1 7 2
f 2 7 8
f 2 8 3
f 3 8 9
f 3 9 4
f 4 9 10
f 4 10 5
f 6 11 12
f 6 12 7
f 7 12 13
f 7 13 8
f 8 13 14
f 8 14 9
f 9 14 15
f 9 15 10
f 11 16 17
f 11 17 12
f 12 17 18
f 12 18 13
f 13 18 19
f 13 19 14
f 14 19 20
f 14 20 15
f 16 21 22
f 16 22 17
f 17 22 23
f 17 23 18
f 18 23 24
f 18 24 19
f 19 24 25
f 19 25 20
