v -0.482654 -0.990423 0.0
v -0.489120 -0.743189 0.0
v -0.499527 -0.497763 0.0
v -0.509060 -0.256146 0.0
v -0.508298 -0.014749 0.0
v -0.239171 -0.990089 0.0
v -0.243039 -0.738286 0.0
v -0.249314 -0.492158 0.0
v -0.253787 -0.253097 0.0
v -0.254313 -0.014602 0.0
v 0.000000 -0.989832 0.0
v 0.000000 -0.736864 0.0
v 0.000000 -0.490915 0.0
v 0.000000 -0.252311 0.0
v -0.000000 -0.014531 0.0
v 0.239171 -0.990089 0.0
v 0.243039 -0.738286 0.0
v 0.249314 -0.492158 0.0
v 0.253787 -0.253097 0.0
v 0.254313 -0.014602 0.0
v 0.482654 -0.990423 0.0
v 0.489120 -0.743189 0.0
v 0.499527 -0.497763 0.0
v 0.509060 -0.256146 0.0
v 0.508298 -0.014749 0.0
v 0.000000 -0.004958 0.0
f 1 6 7
f 1 7 2
f 2 7 8
f 2 8 3
f 3 8 9
f 3 9 4
f 4 9 10
f 4 10 5
f 6 11 12
f 6 12 7
f 7 12 13
f 7 13 8
f 8 13 14
f 8 14 9
f 9 14 15
f 9 15 10
f 11 16 17
f 11 17 12
f 12 17 18
f 12 18 13
f 13 18 19
f 13 19 14
f 14 19 20
f 14 20 15
f 16 21 22
f 16 22 17
f 17 22 23
f 17 23 18
f 18 23 24
f 18 24 19
f 19 24 25
f 19 25 20
