v -0.483639 -0.990641 0.0
v -0.492165 -0.749313 0.0
v -0.503521 -0.507341 0.0
v -0.511470 -0.265307 0.0
v -0.509870 -0.019893 0.0
v -0.239551 -0.990600 0.0
v -0.244143 -0.743015 0.0
v -0.251262 -0.500065 0.0
v -0.255787 -0.261117 0.0
v -0.256108 -0.019802 0.0
v 0.000000 -0.990557 0.0
v 0.000000 -0.741383 0.0
v 0.000000 -0.498096 0.0
v 0.000000 -0.259670 0.0
v -0.000000 -0.019726 0.0
v 0.239551 -0.990600 0.0
v 0.244143 -0.743015 0.0
v 0.251262 -0.500065 0.0
v 0.255787 -0.261117 0.0
v 0.256108 -0.019802 0.0
v 0.483639 -0.990641 0.0
v 0.492165 -0.749313 0.0
v 0.503521 -0.507341 0.0
v 0.511470 -0.265307 0.0
v 0.509870 -0.019893 0.0
v 0.000000 -0.009955 0.0
f 1 6 7
f 1 7 2
f 2 7 8
f 2 8 3
f 3 8 9
f 3 9 4
f 4 9 10
f 4 10 5
f 6 11 12
f 6 12 7
f 7 12 13
f 7 13 8
f 8 13 14
f 8 14 9
f 9 14 15
f 9 15 10
f 11 16 17
f 11 17 12
f 12 17 18
f 12 18 13
f 13 18 19
f 13 19 14
f 14 19 20
f 14 20 15
f 16 21 22
f 16 22 17
f 17 22 23
f 17 23 18
f 18 23 24
f 18 24 19
f 19 24 25
f 19 25 20
