v -0.486466 -0.990806 0.0
v -0.496843 -0.755808 0.0
v -0.507532 -0.516772 0.0
v -0.512890 -0.273607 0.0
v -0.511011 -0.025390 0.0
v -0.240850 -0.990750 0.0
v -0.246102 -0.748155 0.0
v -0.253366 -0.508316 0.0
v -0.257369 -0.268808 0.0
v -0.257514 -0.025102 0.0
v 0.000000 -0.990724 0.0
v 0.000000 -0.746289 0.0
v 0.000000 -0.505502 0.0
v 0.000000 -0.266694 0.0
v -0.000000 -0.024911 0.0
v 0.240850 -0.990750 0.0
v 0.246102 -0.748155 0.0
v 0.253366 -0.508316 0.0
v 0.257369 -0.268808 0.0
v 0.257514 -0.025102 0.0
v 0.486466 -0.990806 0.0
v 0.496843 -0.755808 0.0
v 0.507532 -0.516772 0.0
v 0.512890 -0.273607 0.0
v 0.511011 -0.025390 0.0
v 0.000000 -0.014957 0.0
f 1 6 7
f 1 7 2
f 2 7 8
f 2 8 3
f 3 8 9
f 3 9 4
f 4 9 10
f 4 10 5
f 6 11 12
f 6 12 7
f 7 12 13
f 7 13 8
f 8 13 14
f 8 14 9
f 9 14 15
f 9 15 10
f 11 16 17
f 11 17 12
f 12 17 18
f 12 18 13
f 13 18 19
f 13 19 14
f 14 19 20
f 14 20 15
f 16 21 22
f 16 22 17
f 17 22 23
f 17 23 18
f 18 23 24
f 18 24 19
f 19 24 25
f 19 25 20
