v -0.496095 -0.991080 0.0
v -0.508844 -0.766604 0.0
v -0.514002 -0.531235 0.0
v -0.513220 -0.286995 0.0
v -0.511793 -0.038221 0.0
v -0.245841 -0.990981 0.0
v -0.251810 -0.757428 0.0
v -0.257209 -0.523279 0.0
v -0.258575 -0.283039 0.0
v -0.258310 -0.037591 0.0
v 0.000000 -0.990925 0.0
v 0.000000 -0.755096 0.0
v 0.000000 -0.519269 0.0
v 0.000000 -0.280342 0.0
v -0.000000 -0.036863 0.0
v 0.245841 -0.990981 0.0
v 0.251810 -0.757428 0.0
v 0.257209 -0.523279 0.0
v 0.258575 -0.283039 0.0
v 0.258310 -0.037591 0.0
v 0.496095 -0.991080 0.0
v 0.508844 -0.766604 0.0
v 0.514002 -0.531235 0.0
v 0.513220 -0.286995 0.0
v 0.511793 -0.038221 0.0
v 0.000000 -0.024959 0.0
f 1 6 7
f 1 7 2
f 2 7 8
f 2 8 3
f 3 8 9
f 3 9 4
f 4 9 10
f 4 10 5
f 6 11 12
f 6 12 7
f 7 12 13
f 7 13 8
f 8 13 14
f 8 14 9
f 9 14 15
f 9 15 10
f 11 16 17
f 11 17 12
f 12 17 18
f 12 18 13
f 13 18 19
f 13 19 14
f 14 19 20
f 14 20 15
f 16 21 22
f 16 22 17
f 17 22 23
f 17 23 18
f 18 23 24
f 18 24 19
f 19 24 25
f 19 25 20
