v -0.501947 -0.991140 0.0
v -0.514729 -0.769778 0.0
v -0.516170 -0.535477 0.0
v -0.512701 -0.292308 0.0
v -0.511396 -0.045117 0.0
v -0.249196 -0.991057 0.0
v -0.254951 -0.761102 0.0
v -0.258655 -0.529398 0.0
v -0.258284 -0.289650 0.0
v -0.257703 -0.044538 0.0
v 0.000000 -0.991007 0.0
v 0.000000 -0.758764 0.0
v 0.000000 -0.525465 0.0
v 0.000000 -0.287299 0.0
v -0.000000 -0.043785 0.0
v 0.249196 -0.991057 0.0
v 0.254951 -0.761102 0.0
v 0.258655 -0.529398 0.0
v 0.258284 -0.289650 0.0
v 0.257703 -0.044538 0.0
v 0.501947 -0.991140 0.0
v 0.514729 -0.769778 0.0
v 0.516170 -0.535477 0.0
v 0.512701 -0.292308 0.0
v 0.511396 -0.045117 0.0
v 0.000000 -0.029960 0.0
f 1 6 7
f 1 7 2
f 2 7 8
f 2 8 3
f 3 8 9
f 3 9 4
f 4 9 10
f 4 10 5
f 6 11 12
f 6 12 7
f 7 12 13
f 7 13 8
f 8 13 14
f 8 14 9
f 9 14 15
f 9 15 10
f 11 16 17
f 11 17 12
f 12 17 18
f 12 18 13
f 13 18 19
f 13 19 14
f 14 19 20
f 14 20 15
f 16 21 22
f 16 22 17
f 17 22 23
f 17 23 18
f 18 23 24
f 18 24 19
f 19 24 25
f 19 25 20
