v -0.507821 -0.991159 0.0
v -0.519769 -0.771257 0.0
v -0.517719 -0.537955 0.0
v -0.512100 -0.296865 0.0
v -0.510499 -0.051757 0.0
v -0.252757 -0.991102 0.0
v -0.257885 -0.764117 0.0
v -0.259696 -0.534568 0.0
v -0.257637 -0.295867 0.0
v -0.256637 -0.051449 0.0
v 0.000000 -0.991064 0.0
v 0.000000 -0.762090 0.0
v 0.000000 -0.531290 0.0
v -0.000000 -0.294276 0.0
v -0.000000 -0.050947 0.0
v 0.252757 -0.991102 0.0
v 0.257885 -0.764117 0.0
v 0.259696 -0.534568 0.0
v 0.257637 -0.295867 0.0
v 0.256637 -0.051449 0.0
v 0.507821 -0.991159 0.0
v 0.519769 -0.771257 0.0
v 0.517719 -0.537955 0.0
v 0.512100 -0.296865 0.0
v 0.510499 -0.051757 0.0
v 0.000000 -0.034961 0.0
f 1 6 7
f 1 7 2
f 2 7 8
f 2 8 3
f 3 8 9
f 3 9 4
f 4 9 10
f 4 10 5
f 6 11 12
f 6 12 7
f 7 12 13
f 7 13 8
f 8 13 14
f 8 14 9
f 9 14 15
f 9 15 10
f 11 16 17
f 11 17 12
f 12 17 18
f 12 18 13
f 13 18 19
f 13 19 14
f 14 19 20
f 14 20 15
f 16 21 22
f 16 22 17
f 17 22 23
f 17 23 18
f 18 23 24
f 18 24 19
f 19 24 25
f 19 25 20
