v -0.513259 -0.991148 0.0
v -0.523678 -0.771308 0.0
v -0.518814 -0.539156 0.0
v -0.511586 -0.300701 0.0
v -0.509176 -0.057681 0.0
v -0.256200 -0.991131 0.0
v -0.260400 -0.766567 0.0
v -0.260349 -0.538876 0.0
v -0.256847 -0.301553 0.0
v -0.255322 -0.057905 0.0
v 0.000000 -0.991109 0.0
v 0.000000 -0.765206 0.0
v 0.000000 -0.536758 0.0
v -0.000000 -0.300995 0.0
v -0.000000 -0.057898 0.0
v 0.256200 -0.991131 0.0
v 0.260400 -0.766567 0.0
v 0.260349 -0.538876 0.0
v 0.256847 -0.301553 0.0
v 0.255322 -0.057905 0.0
v 0.513259 -0.991148 0.0
v 0.523678 -0.771308 0.0
v 0.518814 -0.539156 0.0
v 0.511586 -0.300701 0.0
v 0.509176 -0.057681 0.0
v 0.000000 -0.039962 0.0
f 1 6 7
f 1 7 2
f 2 7 8
f 2 8 3
f 3 8 9
f 3 9 4
f 4 9 10
f 4 10 5
f 6 11 12
f 6 12 7
f 7 12 13
f 7 13 8
f 8 13 14
f 8 14 9
f 9 14 15
f 9 15 10
f 11 16 17
f 11 17 12
f 12 17 18
f 12 18 13
f 13 18 19
f 13 19 14
f 14 19 20
f 14 20 15
f 16 21 22
f 16 22 17
f 17 22 23
f 17 23 18
f 18 23 24
f 18 24 19
f 19 24 25
f 19 25 20
