v -0.517815 -0.991124 0.0
v -0.526459 -0.770437 0.0
v -0.519608 -0.539602 0.0
v -0.511228 -0.303799 0.0
v -0.507539 -0.062508 0.0
v -0.259183 -0.991153 0.0
v -0.262410 -0.768535 0.0
v -0.260688 -0.542404 0.0
v -0.256089 -0.306538 0.0
v -0.253943 -0.063555 0.0
v 0.000000 -0.991151 0.0
v 0.000000 -0.768124 0.0
v 0.000000 -0.541759 0.0
v -0.000000 -0.307097 0.0
v -0.000000 -0.064198 0.0
v 0.259183 -0.991153 0.0
v 0.262410 -0.768535 0.0
v 0.260688 -0.542404 0.0
v 0.256089 -0.306538 0.0
v 0.253943 -0.063555 0.0
v 0.517815 -0.991124 0.0
v 0.526459 -0.770437 0.0
v 0.519608 -0.539602 0.0
v 0.511228 -0.303799 0.0
v 0.507539 -0.062508 0.0
v 0.000000 -0.044963 0.0
f 1 6 7
f 1 7 2
f 2 7 8
f 2 8 3
f 3 8 9
f 3 9 4
f 4 9 10
f 4 10 5
f 6 11 12
f 6 12 7
f 7 12 13
f 7 13 8
f 8 13 14
f 8 14 9
f 9 14 15
f 9 15 10
f 11 16 17
f 11 17 12
f 12 17 18
f 12 18 13
f 13 18 19
f 13 19 14
f 14 19 20
f 14 20 15
f 16 21 22
f 16 22 17
f 17 22 23
f 17 23 18
f 18 23 24
f 18 24 19
f 19 24 25
f 19 25 20
