v -0.521274 -0.991093 0.0
v -0.528164 -0.769226 0.0
v -0.520195 -0.539723 0.0
v -0.511021 -0.306118 0.0
v -0.505731 -0.065983 0.0
v -0.261499 -0.991173 0.0
v -0.263844 -0.770104 0.0
v -0.260809 -0.545201 0.0
v -0.255481 -0.310653 0.0
v -0.252634 -0.068140 0.0
v 0.000000 -0.991192 0.0
v 0.000000 -0.770766 0.0
v 0.000000 -0.546084 0.0
v 0.000000 -0.312239 0.0
v -0.000000 -0.069483 0.0
v 0.261499 -0.991173 0.0
v 0.263844 -0.770104 0.0
v 0.260809 -0.545201 0.0
v 0.255481 -0.310653 0.0
v 0.252634 -0.068140 0.0
v 0.521274 -0.991093 0.0
v 0.528164 -0.769226 0.0
v 0.520195 -0.539723 0.0
v 0.511021 -0.306118 0.0
v 0.505731 -0.065983 0.0
v 0.000000 -0.049964 0.0
f 1 6 7
f 1 7 2
f 2 7 8
f 2 8 3
f 3 8 9
f 3 9 4
f 4 9 10
f 4 10 5
f 6 11 12
f 6 12 7
f 7 12 13
f 7 13 8
f 8 13 14
f 8 14 9
f 9 14 15
f 9 15 10
f 11 16 17
f 11 17 12
f 12 17 18
f 12 18 13
f 13 18 19
f 13 19 14
f 14 19 20
f 14 20 15
f 16 21 22
f 16 22 17
f 17 22 23
f 17 23 18
f 18 23 24
f 18 24 19
f 19 24 25
f 19 25 20
