v -0.523531 -0.991067 0.0
v -0.528948 -0.768177 0.0
v -0.520611 -0.539806 0.0
v -0.510920 -0.307622 0.0
v -0.503906 -0.067990 0.0
v -0.263032 -0.991193 0.0
v -0.264701 -0.771305 0.0
v -0.260806 -0.547267 0.0
v -0.255082 -0.313752 0.0
v -0.251481 -0.071493 0.0
v 0.000000 -0.991230 0.0
v 0.000000 -0.772959 0.0
v 0.000000 -0.549482 0.0
v 0.000000 -0.316159 0.0
v -0.000000 -0.073492 0.0
v 0.263032 -0.991193 0.0
v 0.264701 -0.771305 0.0
v 0.260806 -0.547267 0.0
v 0.255082 -0.313752 0.0
v 0.251481 -0.071493 0.0
v 0.523531 -0.991067 0.0
v 0.528948 -0.768177 0.0
v 0.520611 -0.539806 0.0
v 0.510920 -0.307622 0.0
v 0.503906 -0.067990 0.0
v 0.000000 -0.054965 0.0
f 1 6 7
f 1 7 2
f 2 7 8
f 2 8 3
f 3 8 9
f 3 9 4
f 4 9 10
f 4 10 5
f 6 11 12
f 6 12 7
f 7 12 13
f 7 13 8
f 8 13 14
f 8 14 9
f 9 14 15
f 9 15 10
f 11 16 17
f 11 17 12
f 12 17 18
f 12 18 13
f 13 18 19
f 13 19 14
f 14 19 20
f 14 20 15
f 16 21 22
f 16 22 17
f 17 22 23
f 17 23 18
f 18 23 24
f 18 24 19
f 19 24 25
f 19 25 20
