v -0.524601 -0.991053 0.0
v -0.528993 -0.767602 0.0
v -0.520855 -0.539988 0.0
v -0.510865 -0.308440 0.0
v -0.502286 -0.069735 0.0
v -0.263761 -0.991214 0.0
v -0.265012 -0.772123 0.0
v -0.260748 -0.548588 0.0
v -0.254840 -0.315791 0.0
v -0.250544 -0.073546 0.0
v 0.000000 -0.991262 0.0
v 0.000000 -0.774506 0.0
v 0.000000 -0.551740 0.0
v 0.000000 -0.318698 0.0
v -0.000000 -0.076075 0.0
v 0.263761 -0.991214 0.0
v 0.265012 -0.772123 0.0
v 0.260748 -0.548588 0.0
v 0.254840 -0.315791 0.0
v 0.250544 -0.073546 0.0
v 0.524601 -0.991053 0.0
v 0.528993 -0.767602 0.0
v 0.520855 -0.539988 0.0
v 0.510865 -0.308440 0.0
v 0.502286 -0.069735 0.0
v 0.000000 -0.059966 0.0
f 1 6 7
f 1 7 2
f 2 7 8
f 2 8 3
f 3 8 9
f 3 9 4
f 4 9 10
f 4 10 5
f 6 11 12
f 6 12 7
f 7 12 13
f 7 13 8
f 8 13 14
f 8 14 9
f 9 14 15
f 9 15 10
f 11 16 17
f 11 17 12
f 12 17 18
f 12 18 13
f 13 18 19
f 13 19 14
f 14 19 20
f 14 20 15
f 16 21 22
f 16 22 17
f 17 22 23
f 17 23 18
f 18 23 24
f 18 24 19
f 19 24 25
f 19 25 20
