v -0.524601 -0.991064 0.0
v -0.526862 -0.768758 0.0
v -0.520760 -0.541899 0.0
v -0.511779 -0.312551 0.0
v -0.502231 -0.084275 0.0
v -0.263766 -0.991257 0.0
v -0.263813 -0.772398 0.0
v -0.260436 -0.549308 0.0
v -0.254255 -0.319707 0.0
v -0.250257 -0.084228 0.0
v 0.000000 -0.991299 0.0
v 0.000000 -0.774750 0.0
v 0.000000 -0.552436 0.0
v 0.000000 -0.321448 0.0
v 0.000000 -0.084067 0.0
v 0.263766 -0.991257 0.0
v 0.263813 -0.772398 0.0
v 0.260436 -0.549308 0.0
v 0.254255 -0.319707 0.0
v 0.250257 -0.084228 0.0
v 0.524601 -0.991064 0.0
v 0.526862 -0.768758 0.0
v 0.520760 -0.541899 0.0
v 0.511779 -0.312551 0.0
v 0.502231 -0.084275 0.0
v 0.000000 -0.074916 0.0
f 1 6 7
f 1 7 2
f 2 7 8
f 2 8 3
f 3 8 9
f 3 9 4
f 4 9 10
f 4 10 5
f 6 11 12
f 6 12 7
f 7 12 13
f 7 13 8
f 8 13 14
f 8 14 9
f 9 14 15
f 9 15 10
f 11 16 17
f 11 17 12
f 12 17 18
f 12 18 13
f 13 18 19
f 13 19 14
f 14 19 20
f 14 20 15
f 16 21 22
f 16 22 17
f 17 22 23
f 17 23 18
f 18 23 24
f 18 24 19
f 19 24 25
f 19 25 20
