v -0.524598 -0.991072 0.0
v -0.526134 -0.769613 0.0
v -0.520873 -0.543432 0.0
v -0.513138 -0.315657 0.0
v -0.504177 -0.089196 0.0
v -0.263764 -0.991266 0.0
v -0.263240 -0.772245 0.0
v -0.260445 -0.549566 0.0
v -0.254825 -0.321967 0.0
v -0.251314 -0.089238 0.0
v 0.000000 -0.991299 0.0
v 0.000000 -0.774115 0.0
v 0.000000 -0.552070 0.0
v 0.000000 -0.323157 0.0
v 0.000000 -0.089189 0.0
v 0.263764 -0.991266 0.0
v 0.263240 -0.772245 0.0
v 0.260445 -0.549566 0.0
v 0.254825 -0.321967 0.0
v 0.251314 -0.089238 0.0
v 0.524598 -0.991072 0.0
v 0.526134 -0.769613 0.0
v 0.520873 -0.543432 0.0
v 0.513138 -0.315657 0.0
v 0.504177 -0.089196 0.0
v 0.000000 -0.079894 0.0
f 1 6 7
f 1 7 2
f 2 7 8
f 2 8 3
f 3 8 9
f 3 9 4
f 4 9 10
f 4 10 5
f 6 11 12
f 6 12 7
f 7 12 13
f 7 13 8
f 8 13 14
f 8 14 9
f 9 14 15
f 9 15 10
f 11 16 17
f 11 17 12
f 12 17 18
f 12 18 13
f 13 18 19
f 13 19 14
f 14 19 20
f 14 20 15
f 16 21 22
f 16 22 17
f 17 22 23
f 17 23 18
f 18 23 24
f 18 24 19
f 19 24 25
f 19 25 20
