v -0.524589 -0.991136 0.0
v -0.526072 -0.773155 0.0
v -0.523661 -0.551816 0.0
v -0.520370 -0.328783 0.0
v -0.513629 -0.104083 0.0
v -0.263754 -0.991321 0.0
v -0.262569 -0.773605 0.0
v -0.261718 -0.553854 0.0
v -0.259223 -0.331516 0.0
v -0.257093 -0.104040 0.0
v 0.000000 -0.991340 0.0
v 0.000000 -0.774258 0.0
v 0.000000 -0.554416 0.0
v 0.000000 -0.331691 0.0
v 0.000000 -0.104047 0.0
v 0.263754 -0.991321 0.0
v 0.262569 -0.773605 0.0
v 0.261718 -0.553854 0.0
v 0.259223 -0.331516 0.0
v 0.257093 -0.104040 0.0
v 0.524589 -0.991136 0.0
v 0.526072 -0.773155 0.0
v 0.523661 -0.551816 0.0
v 0.520370 -0.328783 0.0
v 0.513629 -0.104083 0.0
v 0.000000 -0.094823 0.0
f 1 6 7
f 1 7 2
f 2 7 8
f 2 8 3
f 3 8 9
f 3 9 4
f 4 9 10
f 4 10 5
f 6 11 12
f 6 12 7
f 7 12 13
f 7 13 8
f 8 13 14
f 8 14 9
f 9 14 15
f 9 15 10
f 11 16 17
f 11 17 12
f 12 17 18
f 12 18 13
f 13 18 19
f 13 19 14
f 14 19 20
f 14 20 15
f 16 21 22
f 16 22 17
f 17 22 23
f 17 23 18
f 18 23 24
f 18 24 19
f 19 24 25
f 19 25 20
