v -0.524587 -0.991179 0.0
v -0.526932 -0.774908 0.0
v -0.525347 -0.555576 0.0
v -0.523160 -0.333697 0.0
v -0.517040 -0.109066 0.0
v -0.263751 -0.991355 0.0
v -0.262809 -0.774821 0.0
v -0.262551 -0.556402 0.0
v -0.260987 -0.335250 0.0
v -0.259263 -0.109013 0.0
v 0.000000 -0.991372 0.0
v 0.000000 -0.775278 0.0
v 0.000000 -0.556473 0.0
v 0.000000 -0.335133 0.0
v 0.000000 -0.109011 0.0
v 0.263751 -0.991355 0.0
v 0.262809 -0.774821 0.0
v 0.262551 -0.556402 0.0
v 0.260987 -0.335250 0.0
v 0.259263 -0.109013 0.0
v 0.524587 -0.991179 0.0
v 0.526932 -0.774908 0.0
v 0.525347 -0.555576 0.0
v 0.523160 -0.333697 0.0
v 0.517040 -0.109066 0.0
v 0.000000 -0.099798 0.0
f 1 6 7
f 1 7 2
f 2 7 8
f 2 8 3
f 3 8 9
f 3 9 4
f 4 9 10
f 4 10 5
f 6 11 12
f 6 12 7
f 7 12 13
f 7 13 8
f 8 13 14
f 8 14 9
f 9 14 15
f 9 15 10
f 11 16 17
f 11 17 12
f 12 17 18
f 12 18 13
f 13 18 19
f 13 19 14
f 14 19 20
f 14 20 15
f 16 21 22
f 16 22 17
f 17 22 23
f 17 23 18
f 18 23 24
f 18 24 19
f 19 24 25
f 19 25 20
