v -0.524586 -0.991229 0.0
v -0.528156 -0.776984 0.0
v -0.527190 -0.559527 0.0
v -0.525726 -0.338578 0.0
v -0.520104 -0.114048 0.0
v -0.263748 -0.991393 0.0
v -0.263240 -0.776294 0.0
v -0.263497 -0.559305 0.0
v -0.262600 -0.339170 0.0
v -0.261213 -0.113987 0.0
v 0.000000 -0.991408 0.0
v 0.000000 -0.776623 0.0
v 0.000000 -0.558967 0.0
v 0.000000 -0.338752 0.0
v 0.000000 -0.113982 0.0
v 0.263748 -0.991393 0.0
v 0.263240 -0.776294 0.0
v 0.263497 -0.559305 0.0
v 0.262600 -0.339170 0.0
v 0.261213 -0.113987 0.0
v 0.524586 -0.991229 0.0
v 0.528156 -0.776984 0.0
v 0.527190 -0.559527 0.0
v 0.525726 -0.338578 0.0
v 0.520104 -0.114048 0.0
v 0.000000 -0.104774 0.0
f 1 6 7
f 1 7 2
f 2 7 8
f 2 8 3
f 3 8 9
f 3 9 4
f 4 9 10
f 4 10 5
f 6 11 12
f 6 12 7
f 7 12 13
f 7 13 8
f 8 13 14
f 8 14 9
f 9 14 15
f 9 15 10
f 11 16 17
f 11 17 12
f 12 17 18
f 12 18 13
f 13 18 19
f 13 19 14
f 14 19 20
f 14 20 15
f 16 21 22
f 16 22 17
f 17 22 23
f 17 23 18
f 18 23 24
f 18 24 19
f 19 24 25
f 19 25 20
