v -0.524586 -0.991284 0.0
v -0.529624 -0.779305 0.0
v -0.529025 -0.563483 0.0
v -0.527872 -0.343312 0.0
v -0.522593 -0.119025 0.0
v -0.263745 -0.991433 0.0
v -0.263801 -0.777900 0.0
v -0.264479 -0.562433 0.0
v -0.263940 -0.343251 0.0
v -0.262779 -0.118959 0.0
v 0.000000 -0.991445 0.0
v 0.000000 -0.778128 0.0
v 0.000000 -0.561751 0.0
v 0.000000 -0.342550 0.0
v 0.000000 -0.118952 0.0
v 0.263745 -0.991433 0.0
v 0.263801 -0.777900 0.0
v 0.264479 -0.562433 0.0
v 0.263940 -0.343251 0.0
v 0.262779 -0.118959 0.0
v 0.524586 -0.991284 0.0
v 0.529624 -0.779305 0.0
v 0.529025 -0.563483 0.0
v 0.527872 -0.343312 0.0
v 0.522593 -0.119025 0.0
v 0.000000 -0.109750 0.0
f 1 6 7
f 1 7 2
f 2 7 8
f 2 8 3
f 3 8 9
f 3 9 4
f 4 9 10
f 4 10 5
f 6 11 12
f 6 12 7
f 7 12 13
f 7 13 8
f 8 13 14
f 8 14 9
f 9 14 15
f 9 15 10
f 11 16 17
f 11 17 12
f 12 17 18
f 12 18 13
f 13 18 19
f 13 19 14
f 14 19 20
f 14 20 15
f 16 21 22
f 16 22 17
f 17 22 23
f 17 23 18
f 18 23 24
f 18 24 19
f 19 24 25
f 19 25 20
