v -0.524586 -0.991339 0.0
v -0.531201 -0.781746 0.0
v -0.530722 -0.567284 0.0
v -0.529487 -0.347825 0.0
v -0.524353 -0.123994 0.0
v -0.263743 -0.991470 0.0
v -0.264427 -0.779533 0.0
v -0.265424 -0.565681 0.0
v -0.264939 -0.347460 0.0
v -0.263859 -0.123927 0.0
v 0.000000 -0.991479 0.0
v 0.000000 -0.779660 0.0
v 0.000000 -0.564711 0.0
v 0.000000 -0.346543 0.0
v 0.000000 -0.123919 0.0
v 0.263743 -0.991470 0.0
v 0.264427 -0.779533 0.0
v 0.265424 -0.565681 0.0
v 0.264939 -0.347460 0.0
v 0.263859 -0.123927 0.0
v 0.524586 -0.991339 0.0
v 0.531201 -0.781746 0.0
v 0.530722 -0.567284 0.0
v 0.529487 -0.347825 0.0
v 0.524353 -0.123994 0.0
v 0.000000 -0.114725 0.0
f 1 6 7
f 1 7 2
f 2 7 8
f 2 8 3
f 3 8 9
f 3 9 4
f 4 9 10
f 4 10 5
f 6 11 12
f 6 12 7
f 7 12 13
f 7 13 8
f 8 13 14
f 8 14 9
f 9 14 15
f 9 15 10
f 11 16 17
f 11 17 12
f 12 17 18
f 12 18 13
f 13 18 19
f 13 19 14
f 14 19 20
f 14 20 15
f 16 21 22
f 16 22 17
f 17 22 23
f 17 23 18
f 18 23 24
f 18 24 19
f 19 24 25
f 19 25 20
