v -0.524588 -0.991390 0.0
v -0.532763 -0.784163 0.0
v -0.532201 -0.570819 0.0
v -0.530548 -0.352083 0.0
v -0.525321 -0.128953 0.0
v -0.263742 -0.991505 0.0
v -0.265060 -0.781126 0.0
v -0.266278 -0.568971 0.0
v -0.265577 -0.351759 0.0
v -0.264417 -0.128887 0.0
v 0.000000 -0.991511 0.0
v 0.000000 -0.781148 0.0
v 0.000000 -0.567777 0.0
v 0.000000 -0.350733 0.0
v 0.000000 -0.128883 0.0
v 0.263742 -0.991505 0.0
v 0.265060 -0.781126 0.0
v 0.266278 -0.568971 0.0
v 0.265577 -0.351759 0.0
v 0.264417 -0.128887 0.0
v 0.524588 -0.991390 0.0
v 0.532763 -0.784163 0.0
v 0.532201 -0.570819 0.0
v 0.530548 -0.352083 0.0
v 0.525321 -0.128953 0.0
v 0.000000 -0.119700 0.0
f 1 6 7
f 1 7 2
f 2 7 8
f 2 8 3
f 3 8 9
f 3 9 4
f 4 9 10
f 4 10 5
f 6 11 12
f 6 12 7
f 7 12 13
f 7 13 8
f 8 13 14
f 8 14 9
f 9 14 15
f 9 15 10
f 11 16 17
f 11 17 12
f 12 17 18
f 12 18 13
f 13 18 19
f 13 19 14
f 14 19 20
f 14 20 15
f 16 21 22
f 16 22 17
f 17 22 23
f 17 23 18
f 18 23 24
f 18 24 19
f 19 24 25
f 19 25 20
