v -0.524590 -0.991436 0.0
v -0.534216 -0.786429 0.0
v -0.533437 -0.574027 0.0
v -0.531109 -0.356083 0.0
v -0.525525 -0.133901 0.0
v -0.263740 -0.991537 0.0
v -0.265663 -0.782648 0.0
v -0.267009 -0.572251 0.0
v -0.265876 -0.356111 0.0
v -0.264482 -0.133841 0.0
v 0.000000 -0.991539 0.0
v 0.000000 -0.782574 0.0
v 0.000000 -0.570915 0.0
v 0.000000 -0.355100 0.0
v 0.000000 -0.133841 0.0
v 0.263740 -0.991537 0.0
v 0.265663 -0.782648 0.0
v 0.267009 -0.572251 0.0
v 0.265876 -0.356111 0.0
v 0.264482 -0.133841 0.0
v 0.524590 -0.991436 0.0
v 0.534216 -0.786429 0.0
v 0.533437 -0.574027 0.0
v 0.531109 -0.356083 0.0
v 0.525525 -0.133901 0.0
v 0.000000 -0.124674 0.0
f 1 6 7
f 1 7 2
f 2 7 8
f 2 8 3
f 3 8 9
f 3 9 4
f 4 9 10
f 4 10 5
f 6 11 12
f 6 12 7
f 7 12 13
f 7 13 8
f 8 13 14
f 8 14 9
f 9 14 15
f 9 15 10
f 11 16 17
f 11 17 12
f 12 17 18
f 12 18 13
f 13 18 19
f 13 19 14
f 14 19 20
f 14 20 15
f 16 21 22
f 16 22 17
f 17 22 23
f 17 23 18
f 18 23 24
f 18 24 19
f 19 24 25
f 19 25 20
