v -0.524592 -0.991477 0.0
v -0.535512 -0.788458 0.0
v -0.534450 -0.576898 0.0
v -0.531278 -0.359844 0.0
v -0.525077 -0.138840 0.0
v -0.263739 -0.991566 0.0
v -0.266217 -0.784096 0.0
v -0.267611 -0.575484 0.0
v -0.265893 -0.360481 0.0
v -0.264133 -0.138788 0.0
v 0.000000 -0.991567 0.0
v 0.000000 -0.783958 0.0
v 0.000000 -0.574109 0.0
v 0.000000 -0.359602 0.0
v 0.000000 -0.138794 0.0
v 0.263739 -0.991566 0.0
v 0.266217 -0.784096 0.0
v 0.267611 -0.575484 0.0
v 0.265893 -0.360481 0.0
v 0.264133 -0.138788 0.0
v 0.524592 -0.991477 0.0
v 0.535512 -0.788458 0.0
v 0.534450 -0.576898 0.0
v 0.531278 -0.359844 0.0
v 0.525077 -0.138840 0.0
v 0.000000 -0.129647 0.0
f 1 6 7
f 1 7 2
f 2 7 8
f 2 8 3
f 3 8 9
f 3 9 4
f 4 9 10
f 4 10 5
f 6 11 12
f 6 12 7
f 7 12 13
f 7 13 8
f 8 13 14
f 8 14 9
f 9 14 15
f 9 15 10
f 11 16 17
f 11 17 12
f 12 17 18
f 12 18 13
f 13 18 19
f 13 19 14
f 14 19 20
f 14 20 15
f 16 21 22
f 16 22 17
f 17 22 23
f 17 23 18
f 18 23 24
f 18 24 19
f 19 24 25
f 19 25 20
