v -0.524598 -0.991540 0.0
v -0.537633 -0.791709 0.0
v -0.536026 -0.581781 0.0
v -0.530988 -0.366819 0.0
v -0.522945 -0.148698 0.0
v -0.263738 -0.991618 0.0
v -0.267188 -0.786821 0.0
v -0.268503 -0.581728 0.0
v -0.265406 -0.369181 0.0
v -0.262671 -0.148669 0.0
v 0.000000 -0.991619 0.0
v 0.000000 -0.786732 0.0
v 0.000000 -0.580632 0.0
v 0.000000 -0.368797 0.0
v 0.000000 -0.148686 0.0
v 0.263738 -0.991618 0.0
v 0.267188 -0.786821 0.0
v 0.268503 -0.581728 0.0
v 0.265406 -0.369181 0.0
v 0.262671 -0.148669 0.0
v 0.524598 -0.991540 0.0
v 0.537633 -0.791709 0.0
v 0.536026 -0.581781 0.0
v 0.530988 -0.366819 0.0
v 0.522945 -0.148698 0.0
v 0.000000 -0.139589 0.0
f 1 6 7
f 1 7 2
f 2 7 8
f 2 8 3
f 3 8 9
f 3 9 4
f 4 9 10
f 4 10 5
f 6 11 12
f 6 12 7
f 7 12 13
f 7 13 8
f 8 13 14
f 8 14 9
f 9 14 15
f 9 15 10
f 11 16 17
f 11 17 12
f 12 17 18
f 12 18 13
f 13 18 19
f 13 19 14
f 14 19 20
f 14 20 15
f 16 21 22
f 16 22 17
f 17 22 23
f 17 23 18
f 18 23 24
f 18 24 19
f 19 24 25
f 19 25 20
