v -0.524601 -0.991566 0.0
v -0.538531 -0.793002 0.0
v -0.536724 -0.583932 0.0
v -0.530804 -0.370138 0.0
v -0.521677 -0.153621 0.0
v -0.263738 -0.991642 0.0
v -0.267637 -0.788126 0.0
v -0.268866 -0.584724 0.0
v -0.265083 -0.373482 0.0
v -0.261821 -0.153605 0.0
v 0.000000 -0.991644 0.0
v 0.000000 -0.788155 0.0
v 0.000000 -0.583927 0.0
v 0.000000 -0.373387 0.0
v 0.000000 -0.153627 0.0
v 0.263738 -0.991642 0.0
v 0.267637 -0.788126 0.0
v 0.268866 -0.584724 0.0
v 0.265083 -0.373482 0.0
v 0.261821 -0.153605 0.0
v 0.524601 -0.991566 0.0
v 0.538531 -0.793002 0.0
v 0.536724 -0.583932 0.0
v 0.530804 -0.370138 0.0
v 0.521677 -0.153621 0.0
v 0.000000 -0.144559 0.0
f 1 6 7
f 1 7 2
f 2 7 8
f 2 8 3
f 3 8 9
f 3 9 4
f 4 9 10
f 4 10 5
f 6 11 12
f 6 12 7
f 7 12 13
f 7 13 8
f 8 13 14
f 8 14 9
f 9 14 15
f 9 15 10
f 11 16 17
f 11 17 12
f 12 17 18
f 12 18 13
f 13 18 19
f 13 19 14
f 14 19 20
f 14 20 15
f 16 21 22
f 16 22 17
f 17 22 23
f 17 23 18
f 18 23 24
f 18 24 19
f 19 24 25
f 19 25 20
