v -0.524605 -0.991590 0.0
v -0.539388 -0.794173 0.0
v -0.537445 -0.586000 0.0
v -0.530742 -0.373420 0.0
v -0.520535 -0.158545 0.0
v -0.263738 -0.991664 0.0
v -0.268084 -0.789399 0.0
v -0.269227 -0.587637 0.0
v -0.264818 -0.377738 0.0
v -0.261055 -0.158540 0.0
v 0.000000 -0.991669 0.0
v 0.000000 -0.789592 0.0
v 0.000000 -0.587203 0.0
v 0.000000 -0.377919 0.0
v 0.000000 -0.158567 0.0
v 0.263738 -0.991664 0.0
v 0.268084 -0.789399 0.0
v 0.269227 -0.587637 0.0
v 0.264818 -0.377738 0.0
v 0.261055 -0.158540 0.0
v 0.524605 -0.991590 0.0
v 0.539388 -0.794173 0.0
v 0.537445 -0.586000 0.0
v 0.530742 -0.373420 0.0
v 0.520535 -0.158545 0.0
v 0.000000 -0.149527 0.0
f 1 6 7
f 1 7 2
f 2 7 8
f 2 8 3
f 3 8 9
f 3 9 4
f 4 9 10
f 4 10 5
f 6 11 12
f 6 12 7
f 7 12 13
f 7 13 8
f 8 13 14
f 8 14 9
f 9 14 15
f 9 15 10
f 11 16 17
f 11 17 12
f 12 17 18
f 12 18 13
f 13 18 19
f 13 19 14
f 14 19 20
f 14 20 15
f 16 21 22
f 16 22 17
f 17 22 23
f 17 23 18
f 18 23 24
f 18 24 19
f 19 24 25
f 19 25 20
