v -0.524609 -0.991613 0.0
v -0.540248 -0.795309 0.0
v -0.538235 -0.588069 0.0
v -0.530880 -0.376718 0.0
v -0.519673 -0.163470 0.0
v -0.263739 -0.991686 0.0
v -0.268541 -0.790641 0.0
v -0.269623 -0.590474 0.0
v -0.264672 -0.381940 0.0
v -0.260465 -0.163475 0.0
v 0.000000 -0.991691 0.0
v 0.000000 -0.791014 0.0
v 0.000000 -0.590421 0.0
v 0.000000 -0.382364 0.0
v 0.000000 -0.163507 0.0
v 0.263739 -0.991686 0.0
v 0.268541 -0.790641 0.0
v 0.269623 -0.590474 0.0
v 0.264672 -0.381940 0.0
v 0.260465 -0.163475 0.0
v 0.524609 -0.991613 0.0
v 0.540248 -0.795309 0.0
v 0.538235 -0.588069 0.0
v 0.530880 -0.376718 0.0
v 0.519673 -0.163470 0.0
v 0.000000 -0.154493 0.0
f 1 6 7
f 1 7 2
f 2 7 8
f 2 8 3
f 3 8 9
f 3 9 4
f 4 9 10
f 4 10 5
f 6 11 12
f 6 12 7
f 7 12 13
f 7 13 8
f 8 13 14
f 8 14 9
f 9 14 15
f 9 15 10
f 11 16 17
f 11 17 12
f 12 17 18
f 12 18 13
f 13 18 19
f 13 19 14
f 14 19 20
f 14 20 15
f 16 21 22
f 16 22 17
f 17 22 23
f 17 23 18
f 18 23 24
f 18 24 19
f 19 24 25
f 19 25 20
