v -0.524613 -0.991636 0.0
v -0.541141 -0.796490 0.0
v -0.539124 -0.590210 0.0
v -0.531262 -0.380078 0.0
v -0.519195 -0.168399 0.0
v -0.263740 -0.991705 0.0
v -0.269012 -0.791847 0.0
v -0.270078 -0.593246 0.0
v -0.264690 -0.386082 0.0
v -0.260115 -0.168412 0.0
v 0.000000 -0.991712 0.0
v 0.000000 -0.792385 0.0
v 0.000000 -0.593538 0.0
v 0.000000 -0.386701 0.0
v 0.000000 -0.168446 0.0
v 0.263740 -0.991705 0.0
v 0.269012 -0.791847 0.0
v 0.270078 -0.593246 0.0
v 0.264690 -0.386082 0.0
v 0.260115 -0.168412 0.0
v 0.524613 -0.991636 0.0
v 0.541141 -0.796490 0.0
v 0.539124 -0.590210 0.0
v 0.531262 -0.380078 0.0
v 0.519195 -0.168399 0.0
v 0.000000 -0.159459 0.0
f 1 6 7
f 1 7 2
f 2 7 8
f 2 8 3
f 3 8 9
f 3 9 4
f 4 9 10
f 4 10 5
f 6 11 12
f 6 12 7
f 7 12 13
f 7 13 8
f 8 13 14
f 8 14 9
f 9 14 15
f 9 15 10
f 11 16 17
f 11 17 12
f 12 17 18
f 12 18 13
f 13 18 19
f 13 19 14
f 14 19 20
f 14 20 15
f 16 21 22
f 16 22 17
f 17 22 23
f 17 23 18
f 18 23 24
f 18 24 19
f 19 24 25
f 19 25 20
