v -0.524623 -0.991681 0.0
v -0.543057 -0.799206 0.0
v -0.541224 -0.594906 0.0
v -0.532784 -0.387113 0.0
v -0.519552 -0.178266 0.0
v -0.263743 -0.991741 0.0
v -0.269973 -0.794142 0.0
v -0.271203 -0.598621 0.0
v -0.265272 -0.394166 0.0
v -0.260229 -0.178288 0.0
v 0.000000 -0.991747 0.0
v 0.000000 -0.794852 0.0
v 0.000000 -0.599332 0.0
v 0.000000 -0.395013 0.0
v 0.000000 -0.178328 0.0
v 0.263743 -0.991741 0.0
v 0.269973 -0.794142 0.0
v 0.271203 -0.598621 0.0
v 0.265272 -0.394166 0.0
v 0.260229 -0.178288 0.0
v 0.524623 -0.991681 0.0
v 0.543057 -0.799206 0.0
v 0.541224 -0.594906 0.0
v 0.532784 -0.387113 0.0
v 0.519552 -0.178266 0.0
v 0.000000 -0.169387 0.0
f 1 6 7
f 1 7 2
f 2 7 8
f 2 8 3
f 3 8 9
f 3 9 4
f 4 9 10
f 4 10 5
f 6 11 12
f 6 12 7
f 7 12 13
f 7 13 8
f 8 13 14
f 8 14 9
f 9 14 15
f 9 15 10
f 11 16 17
f 11 17 12
f 12 17 18
f 12 18 13
f 13 18 19
f 13 19 14
f 14 19 20
f 14 20 15
f 16 21 22
f 16 22 17
f 17 22 23
f 17 23 18
f 18 23 24
f 18 24 19
f 19 24 25
f 19 25 20
