v -0.524628 -0.991705 0.0
v -0.544056 -0.800789 0.0
v -0.542409 -0.597511 0.0
v -0.533879 -0.390820 0.0
v -0.520347 -0.183206 0.0
v -0.263744 -0.991757 0.0
v -0.270439 -0.795232 0.0
v -0.271859 -0.601238 0.0
v -0.265818 -0.398105 0.0
v -0.260670 -0.183229 0.0
v 0.000000 -0.991761 0.0
v 0.000000 -0.795913 0.0
v 0.000000 -0.601969 0.0
v 0.000000 -0.398982 0.0
v 0.000000 -0.183269 0.0
v 0.263744 -0.991757 0.0
v 0.270439 -0.795232 0.0
v 0.271859 -0.601238 0.0
v 0.265818 -0.398105 0.0
v 0.260670 -0.183229 0.0
v 0.524628 -0.991705 0.0
v 0.544056 -0.800789 0.0
v 0.542409 -0.597511 0.0
v 0.533879 -0.390820 0.0
v 0.520347 -0.183206 0.0
v 0.000000 -0.174349 0.0
f 1 6 7
f 1 7 2
f 2 7 8
f 2 8 3
f 3 8 9
f 3 9 4
f 4 9 10
f 4 10 5
f 6 11 12
f 6 12 7
f 7 12 13
f 7 13 8
f 8 13 14
f 8 14 9
f 9 14 15
f 9 15 10
f 11 16 17
f 11 17 12
f 12 17 18
f 12 18 13
f 13 18 19
f 13 19 14
f 14 19 20
f 14 20 15
f 16 21 22
f 16 22 17
f 17 22 23
f 17 23 18
f 18 23 24
f 18 24 19
f 19 24 25
f 19 25 20
