v -0.524633 -0.991728 0.0
v -0.545051 -0.802515 0.0
v -0.543646 -0.600285 0.0
v -0.535136 -0.394651 0.0
v -0.521465 -0.188149 0.0
v -0.263746 -0.991772 0.0
v -0.270877 -0.796291 0.0
v -0.272554 -0.603813 0.0
v -0.266497 -0.401982 0.0
v -0.261314 -0.188170 0.0
v 0.000000 -0.991774 0.0
v 0.000000 -0.796862 0.0
v 0.000000 -0.604431 0.0
v 0.000000 -0.402832 0.0
v 0.000000 -0.188210 0.0
v 0.263746 -0.991772 0.0
v 0.270877 -0.796291 0.0
v 0.272554 -0.603813 0.0
v 0.266497 -0.401982 0.0
v 0.261314 -0.188170 0.0
v 0.524633 -0.991728 0.0
v 0.545051 -0.802515 0.0
v 0.543646 -0.600285 0.0
v 0.535136 -0.394651 0.0
v 0.521465 -0.188149 0.0
v 0.000000 -0.179311 0.0
f 1 6 7
f 1 7 2
f 2 7 8
f 2 8 3
f 3 8 9
f 3 9 4
f 4 9 10
f 4 10 5
f 6 11 12
f 6 12 7
f 7 12 13
f 7 13 8
f 8 13 14
f 8 14 9
f 9 14 15
f 9 15 10
f 11 16 17
f 11 17 12
f 12 17 18
f 12 18 13
f 13 18 19
f 13 19 14
f 14 19 20
f 14 20 15
f 16 21 22
f 16 22 17
f 17 22 23
f 17 23 18
f 18 23 24
f 18 24 19
f 19 24 25
f 19 25 20
