v -0.524638 -0.991751 0.0
v -0.546017 -0.804356 0.0
v -0.544902 -0.603206 0.0
v -0.536500 -0.398591 0.0
v -0.522811 -0.193094 0.0
v -0.263748 -0.991788 0.0
v -0.271277 -0.797325 0.0
v -0.273262 -0.606351 0.0
v -0.267268 -0.405804 0.0
v -0.262102 -0.193111 0.0
v 0.000000 -0.991786 0.0
v 0.000000 -0.797715 0.0
v 0.000000 -0.606737 0.0
v 0.000000 -0.406579 0.0
v 0.000000 -0.193151 0.0
v 0.263748 -0.991788 0.0
v 0.271277 -0.797325 0.0
v 0.273262 -0.606351 0.0
v 0.267268 -0.405804 0.0
v 0.262102 -0.193111 0.0
v 0.524638 -0.991751 0.0
v 0.546017 -0.804356 0.0
v 0.544902 -0.603206 0.0
v 0.536500 -0.398591 0.0
v 0.522811 -0.193094 0.0
v 0.000000 -0.184272 0.0
f 1 6 7
f 1 7 2
f 2 7 8
f 2 8 3
f 3 8 9
f 3 9 4
f 4 9 10
f 4 10 5
f 6 11 12
f 6 12 7
f 7 12 13
f 7 13 8
f 8 13 14
f 8 14 9
f 9 14 15
f 9 15 10
f 11 16 17
f 11 17 12
f 12 17 18
f 12 18 13
f 13 18 19
f 13 19 14
f 14 19 20
f 14 20 15
f 16 21 22
f 16 22 17
f 17 22 23
f 17 23 18
f 18 23 24
f 18 24 19
f 19 24 25
f 19 25 20
