v -0.524644 -0.991773 0.0
v -0.546933 -0.806274 0.0
v -0.546140 -0.606238 0.0
v -0.537912 -0.402612 0.0
v -0.524280 -0.198040 0.0
v -0.263750 -0.991803 0.0
v -0.271633 -0.798344 0.0
v -0.273960 -0.608856 0.0
v -0.268088 -0.409585 0.0
v -0.262972 -0.198052 0.0
v 0.000000 -0.991798 0.0
v 0.000000 -0.798500 0.0
v 0.000000 -0.608918 0.0
v 0.000000 -0.410244 0.0
v 0.000000 -0.198091 0.0
v 0.263750 -0.991803 0.0
v 0.271633 -0.798344 0.0
v 0.273960 -0.608856 0.0
v 0.268088 -0.409585 0.0
v 0.262972 -0.198052 0.0
v 0.524644 -0.991773 0.0
v 0.546933 -0.806274 0.0
v 0.546140 -0.606238 0.0
v 0.537912 -0.402612 0.0
v 0.524280 -0.198040 0.0
v 0.000000 -0.189233 0.0
f 1 6 7
f 1 7 2
f 2 7 8
f 2 8 3
f 3 8 9
f 3 9 4
f 4 9 10
f 4 10 5
f 6 11 12
f 6 12 7
f 7 12 13
f 7 13 8
f 8 13 14
f 8 14 9
f 9 14 15
f 9 15 10
f 11 16 17
f 11 17 12
f 12 17 18
f 12 18 13
f 13 18 19
f 13 19 14
f 14 19 20
f 14 20 15
f 16 21 22
f 16 22 17
f 17 22 23
f 17 23 18
f 18 23 24
f 18 24 19
f 19 24 25
f 19 25 20
