v -0.524666 -0.991850 0.0
v -0.550002 -0.813984 0.0
v -0.550480 -0.618621 0.0
v -0.543081 -0.418872 0.0
v -0.529545 -0.217820 0.0
v -0.263756 -0.991863 0.0
v -0.272700 -0.802442 0.0
v -0.276367 -0.618771 0.0
v -0.271102 -0.424637 0.0
v -0.266120 -0.217810 0.0
v 0.000000 -0.991849 0.0
v 0.000000 -0.801560 0.0
v 0.000000 -0.617293 0.0
v 0.000000 -0.424683 0.0
v 0.000000 -0.217843 0.0
v 0.263756 -0.991863 0.0
v 0.272700 -0.802442 0.0
v 0.276367 -0.618771 0.0
v 0.271102 -0.424637 0.0
v 0.266120 -0.217810 0.0
v 0.524666 -0.991850 0.0
v 0.550002 -0.813984 0.0
v 0.550480 -0.618621 0.0
v 0.543081 -0.418872 0.0
v 0.529545 -0.217820 0.0
v 0.000000 -0.209068 0.0
f 1 6 7
f 1 7 2
f 2 7 8
f 2 8 3
f 3 8 9
f 3 9 4
f 4 9 10
f 4 10 5
f 6 11 12
f 6 12 7
f 7 12 13
f 7 13 8
f 8 13 14
f 8 14 9
f 9 14 15
f 9 15 10
f 11 16 17
f 11 17 12
f 12 17 18
f 12 18 13
f 13 18 19
f 13 19 14
f 14 19 20
f 14 20 15
f 16 21 22
f 16 22 17
f 17 22 23
f 17 23 18
f 18 23 24
f 18 24 19
f 19 24 25
f 19 25 20
