v -0.524672 -0.991867 0.0
v -0.550681 -0.815803 0.0
v -0.551394 -0.621599 0.0
v -0.544108 -0.422841 0.0
v -0.530410 -0.222761 0.0
v -0.263757 -0.991878 0.0
v -0.272938 -0.803505 0.0
v -0.276863 -0.621297 0.0
v -0.271666 -0.428471 0.0
v -0.266634 -0.222747 0.0
v 0.000000 -0.991863 0.0
v 0.000000 -0.802423 0.0
v 0.000000 -0.619528 0.0
v 0.000000 -0.428404 0.0
v 0.000000 -0.222779 0.0
v 0.263757 -0.991878 0.0
v 0.272938 -0.803505 0.0
v 0.276863 -0.621297 0.0
v 0.271666 -0.428471 0.0
v 0.266634 -0.222747 0.0
v 0.524672 -0.991867 0.0
v 0.550681 -0.815803 0.0
v 0.551394 -0.621599 0.0
v 0.544108 -0.422841 0.0
v 0.530410 -0.222761 0.0
v 0.000000 -0.214026 0.0
f 1 6 7
f 1 7 2
f 2 7 8
f 2 8 3
f 3 8 9
f 3 9 4
f 4 9 10
f 4 10 5
f 6 11 12
f 6 12 7
f 7 12 13
f 7 13 8
f 8 13 14
f 8 14 9
f 9 14 15
f 9 15 10
f 11 16 17
f 11 17 12
f 12 17 18
f 12 18 13
f 13 18 19
f 13 19 14
f 14 19 20
f 14 20 15
f 16 21 22
f 16 22 17
f 17 22 23
f 17 23 18
f 18 23 24
f 18 24 19
f 19 24 25
f 19 25 20
