v -0.524677 -0.991882 0.0
v -0.551368 -0.817568 0.0
v -0.552268 -0.624490 0.0
v -0.545012 -0.426737 0.0
v -0.531053 -0.227700 0.0
v -0.263759 -0.991893 0.0
v -0.273194 -0.804591 0.0
v -0.277336 -0.623876 0.0
v -0.272139 -0.432364 0.0
v -0.267009 -0.227684 0.0
v 0.000000 -0.991877 0.0
v 0.000000 -0.803348 0.0
v 0.000000 -0.621892 0.0
v 0.000000 -0.432225 0.0
v 0.000000 -0.227715 0.0
v 0.263759 -0.991893 0.0
v 0.273194 -0.804591 0.0
v 0.277336 -0.623876 0.0
v 0.272139 -0.432364 0.0
v 0.267009 -0.227684 0.0
v 0.524677 -0.991882 0.0
v 0.551368 -0.817568 0.0
v 0.552268 -0.624490 0.0
v 0.545012 -0.426737 0.0
v 0.531053 -0.227700 0.0
v 0.000000 -0.218982 0.0
f 1 6 7
f 1 7 2
f 2 7 8
f 2 8 3
f 3 8 9
f 3 9 4
f 4 9 10
f 4 10 5
f 6 11 12
f 6 12 7
f 7 12 13
f 7 13 8
f 8 13 14
f 8 14 9
f 9 14 15
f 9 15 10
f 11 16 17
f 11 17 12
f 12 17 18
f 12 18 13
f 13 18 19
f 13 19 14
f 14 19 20
f 14 20 15
f 16 21 22
f 16 22 17
f 17 22 23
f 17 23 18
f 18 23 24
f 18 24 19
f 19 24 25
f 19 25 20
