v -0.524702 -0.991938 0.0
v -0.554593 -0.824436 0.0
v -0.555821 -0.635329 0.0
v -0.547701 -0.441679 0.0
v -0.531878 -0.247440 0.0
v -0.263765 -0.991945 0.0
v -0.274633 -0.809160 0.0
v -0.279302 -0.634974 0.0
v -0.273336 -0.448690 0.0
v -0.267391 -0.247433 0.0
v 0.000000 -0.991927 0.0
v 0.000000 -0.807556 0.0
v 0.000000 -0.632885 0.0
v 0.000000 -0.448757 0.0
v 0.000000 -0.247469 0.0
v 0.263765 -0.991945 0.0
v 0.274633 -0.809160 0.0
v 0.279302 -0.634974 0.0
v 0.273336 -0.448690 0.0
v 0.267391 -0.247433 0.0
v 0.524702 -0.991938 0.0
v 0.554593 -0.824436 0.0
v 0.555821 -0.635329 0.0
v 0.547701 -0.441679 0.0
v 0.531878 -0.247440 0.0
v 0.000000 -0.238801 0.0
f 1 6 7
f 1 7 2
f 2 7 8
f 2 8 3
f 3 8 9
f 3 9 4
f 4 9 10
f 4 10 5
f 6 11 12
f 6 12 7
f 7 12 13
f 7 13 8
f 8 13 14
f 8 14 9
f 9 14 15
f 9 15 10
f 11 16 17
f 11 17 12
f 12 17 18
f 12 18 13
f 13 18 19
f 13 19 14
f 14 19 20
f 14 20 15
f 16 21 22
f 16 22 17
f 17 22 23
f 17 23 18
f 18 23 24
f 18 24 19
f 19 24 25
f 19 25 20
