v -0.524714 -0.991965 0.0
v -0.556594 -0.828095 0.0
v -0.557849 -0.640617 0.0
v -0.548762 -0.448972 0.0
v -0.531754 -0.257308 0.0
v -0.263768 -0.991966 0.0
v -0.275638 -0.811552 0.0
v -0.280474 -0.641073 0.0
v -0.273740 -0.457315 0.0
v -0.267223 -0.257313 0.0
v 0.000000 -0.991946 0.0
v 0.000000 -0.809788 0.0
v 0.000000 -0.639239 0.0
v 0.000000 -0.457729 0.0
v 0.000000 -0.257355 0.0
v 0.263768 -0.991966 0.0
v 0.275638 -0.811552 0.0
v 0.280474 -0.641073 0.0
v 0.273740 -0.457315 0.0
v 0.267223 -0.257313 0.0
v 0.524714 -0.991965 0.0
v 0.556594 -0.828095 0.0
v 0.557849 -0.640617 0.0
v 0.548762 -0.448972 0.0
v 0.531754 -0.257308 0.0
v 0.000000 -0.248706 0.0
f 1 6 7
f 1 7 2
f 2 7 8
f 2 8 3
f 3 8 9
f 3 9 4
f 4 9 10
f 4 10 5
f 6 11 12
f 6 12 7
f 7 12 13
f 7 13 8
f 8 13 14
f 8 14 9
f 9 14 15
f 9 15 10
f 11 16 17
f 11 17 12
f 12 17 18
f 12 18 13
f 13 18 19
f 13 19 14
f 14 19 20
f 14 20 15
f 16 21 22
f 16 22 17
f 17 22 23
f 17 23 18
f 18 23 24
f 18 24 19
f 19 24 25
f 19 25 20
