v -0.524727 -0.991990 0.0
v -0.558786 -0.832125 0.0
v -0.560058 -0.646090 0.0
v -0.549793 -0.456344 0.0
v -0.531619 -0.267178 0.0
v -0.263773 -0.991985 0.0
v -0.276767 -0.813992 0.0
v -0.281787 -0.647522 0.0
v -0.274152 -0.466184 0.0
v -0.267038 -0.267196 0.0
v 0.000000 -0.991961 0.0
v 0.000000 -0.811960 0.0
v 0.000000 -0.645991 0.0
v 0.000000 -0.467015 0.0
v 0.000000 -0.267246 0.0
v 0.263773 -0.991985 0.0
v 0.276767 -0.813992 0.0
v 0.281787 -0.647522 0.0
v 0.274152 -0.466184 0.0
v 0.267038 -0.267196 0.0
v 0.524727 -0.991990 0.0
v 0.558786 -0.832125 0.0
v 0.560058 -0.646090 0.0
v 0.549793 -0.456344 0.0
v 0.531619 -0.267178 0.0
v 0.000000 -0.258610 0.0
f 1 6 7
f 1 7 2
f 2 7 8
f 2 8 3
f 3 8 9
f 3 9 4
f 4 9 10
f 4 10 5
f 6 11 12
f 6 12 7
f 7 12 13
f 7 13 8
f 8 13 14
f 8 14 9
f 9 14 15
f 9 15 10
f 11 16 17
f 11 17 12
f 12 17 18
f 12 18 13
f 13 18 19
f 13 19 14
f 14 19 20
f 14 20 15
f 16 21 22
f 16 22 17
f 17 22 23
f 17 23 18
f 18 23 24
f 18 24 19
f 19 24 25
f 19 25 20
