v -0.525068 -0.991997 0.0
v -0.560002 -0.834335 0.0
v -0.561249 -0.648943 0.0
v -0.550315 -0.460090 0.0
v -0.531567 -0.272114 0.0
v -0.263775 -0.991988 0.0
v -0.277399 -0.815223 0.0
v -0.282519 -0.650890 0.0
v -0.274368 -0.470709 0.0
v -0.266956 -0.272140 0.0
v 0.000000 -0.991963 0.0
v 0.000000 -0.812964 0.0
v 0.000000 -0.649514 0.0
v 0.000000 -0.471759 0.0
v 0.000000 -0.272194 0.0
v 0.263775 -0.991988 0.0
v 0.277399 -0.815223 0.0
v 0.282519 -0.650890 0.0
v 0.274368 -0.470709 0.0
v 0.266956 -0.272140 0.0
v 0.525068 -0.991997 0.0
v 0.560002 -0.834335 0.0
v 0.561249 -0.648943 0.0
v 0.550315 -0.460090 0.0
v 0.531567 -0.272114 0.0
v 0.000000 -0.263561 0.0
f 1 6 7
f 1 7 2
f 2 7 8
f 2 8 3
f 3 8 9
f 3 9 4
f 4 9 10
f 4 10 5
f 6 11 12
f 6 12 7
f 7 12 13
f 7 13 8
f 8 13 14
f 8 14 9
f 9 14 15
f 9 15 10
f 11 16 17
f 11 17 12
f 12 17 18
f 12 18 13
f 13 18 19
f 13 19 14
f 14 19 20
f 14 20 15
f 16 21 22
f 16 22 17
f 17 22 23
f 17 23 18
f 18 23 24
f 18 24 19
f 19 24 25
f 19 25 20
