v -0.526809 -0.992018 0.0
v -0.563790 -0.841764 0.0
v -0.564995 -0.658054 0.0
v -0.551831 -0.471645 0.0
v -0.531504 -0.286928 0.0
v -0.263787 -0.992008 0.0
v -0.279517 -0.819190 0.0
v -0.284867 -0.661585 0.0
v -0.275061 -0.484597 0.0
v -0.266777 -0.286977 0.0
v 0.000000 -0.991973 0.0
v 0.000000 -0.815591 0.0
v 0.000000 -0.660673 0.0
v 0.000000 -0.486301 0.0
v 0.000000 -0.287045 0.0
v 0.263787 -0.992008 0.0
v 0.279517 -0.819190 0.0
v 0.284867 -0.661585 0.0
v 0.275061 -0.484597 0.0
v 0.266777 -0.286977 0.0
v 0.526809 -0.992018 0.0
v 0.563790 -0.841764 0.0
v 0.564995 -0.658054 0.0
v 0.551831 -0.471645 0.0
v 0.531504 -0.286928 0.0
v 0.000000 -0.278413 0.0
f 1 6 7
f 1 7 2
f 2 7 8
f 2 8 3
f 3 8 9
f 3 9 4
f 4 9 10
f 4 10 5
f 6 11 12
f 6 12 7
f 7 12 13
f 7 13 8
f 8 13 14
f 8 14 9
f 9 14 15
f 9 15 10
f 11 16 17
f 11 17 12
f 12 17 18
f 12 18 13
f 13 18 19
f 13 19 14
f 14 19 20
f 14 20 15
f 16 21 22
f 16 22 17
f 17 22 23
f 17 23 18
f 18 23 24
f 18 24 19
f 19 24 25
f 19 25 20
