v -0.527259 -0.992025 0.0
v -0.564979 -0.844477 0.0
v -0.566216 -0.661272 0.0
v -0.552288 -0.475615 0.0
v -0.531512 -0.291867 0.0
v -0.263792 -0.992015 0.0
v -0.280202 -0.820633 0.0
v -0.285633 -0.665334 0.0
v -0.275286 -0.489305 0.0
v -0.266736 -0.291923 0.0
v 0.000000 -0.991976 0.0
v 0.000000 -0.816374 0.0
v 0.000000 -0.664592 0.0
v 0.000000 -0.491219 0.0
v 0.000000 -0.291996 0.0
v 0.263792 -0.992015 0.0
v 0.280202 -0.820633 0.0
v 0.285633 -0.665334 0.0
v 0.275286 -0.489305 0.0
v 0.266736 -0.291923 0.0
v 0.527259 -0.992025 0.0
v 0.564979 -0.844477 0.0
v 0.566216 -0.661272 0.0
v 0.552288 -0.475615 0.0
v 0.531512 -0.291867 0.0
v 0.000000 -0.283363 0.0
f 1 6 7
f 1 7 2
f 2 7 8
f 2 8 3
f 3 8 9
f 3 9 4
f 4 9 10
f 4 10 5
f 6 11 12
f 6 12 7
f 7 12 13
f 7 13 8
f 8 13 14
f 8 14 9
f 9 14 15
f 9 15 10
f 11 16 17
f 11 17 12
f 12 17 18
f 12 18 13
f 13 18 19
f 13 19 14
f 14 19 20
f 14 20 15
f 16 21 22
f 16 22 17
f 17 22 23
f 17 23 18
f 18 23 24
f 18 24 19
f 19 24 25
f 19 25 20
