v -0.527547 -0.992030 0.0
v -0.566112 -0.847297 0.0
v -0.567388 -0.664576 0.0
v -0.552707 -0.479644 0.0
v -0.531523 -0.296807 0.0
v -0.263797 -0.992022 0.0
v -0.280840 -0.822115 0.0
v -0.286372 -0.669170 0.0
v -0.275494 -0.494043 0.0
v -0.266696 -0.296870 0.0
v 0.000000 -0.991980 0.0
v 0.000000 -0.817128 0.0
v 0.000000 -0.668615 0.0
v 0.000000 -0.496159 0.0
v 0.000000 -0.296947 0.0
v 0.263797 -0.992022 0.0
v 0.280840 -0.822115 0.0
v 0.286372 -0.669170 0.0
v 0.275494 -0.494043 0.0
v 0.266696 -0.296870 0.0
v 0.527547 -0.992030 0.0
v 0.566112 -0.847297 0.0
v 0.567388 -0.664576 0.0
v 0.552707 -0.479644 0.0
v 0.531523 -0.296807 0.0
v 0.000000 -0.288312 0.0
f 1 6 7
f 1 7 2
f 2 7 8
f 2 8 3
f 3 8 9
f 3 9 4
f 4 9 10
f 4 10 5
f 6 11 12
f 6 12 7
f 7 12 13
f 7 13 8
f 8 13 14
f 8 14 9
f 9 14 15
f 9 15 10
f 11 16 17
f 11 17 12
f 12 17 18
f 12 18 13
f 13 18 19
f 13 19 14
f 14 19 20
f 14 20 15
f 16 21 22
f 16 22 17
f 17 22 23
f 17 23 18
f 18 23 24
f 18 24 19
f 19 24 25
f 19 25 20
