v -0.527556 -0.992036 0.0
v -0.567193 -0.850217 0.0
v -0.568498 -0.667962 0.0
v -0.553084 -0.483732 0.0
v -0.531530 -0.301748 0.0
v -0.263802 -0.992030 0.0
v -0.281423 -0.823605 0.0
v -0.287078 -0.673091 0.0
v -0.275680 -0.498805 0.0
v -0.266654 -0.301817 0.0
v 0.000000 -0.991984 0.0
v 0.000000 -0.817855 0.0
v 0.000000 -0.672745 0.0
v 0.000000 -0.501117 0.0
v 0.000000 -0.301899 0.0
v 0.263802 -0.992030 0.0
v 0.281423 -0.823605 0.0
v 0.287078 -0.673091 0.0
v 0.275680 -0.498805 0.0
v 0.266654 -0.301817 0.0
v 0.527556 -0.992036 0.0
v 0.567193 -0.850217 0.0
v 0.568498 -0.667962 0.0
v 0.553084 -0.483732 0.0
v 0.531530 -0.301748 0.0
v 0.000000 -0.293262 0.0
f 1 6 7
f 1 7 2
f 2 7 8
f 2 8 3
f 3 8 9
f 3 9 4
f 4 9 10
f 4 10 5
f 6 11 12
f 6 12 7
f 7 12 13
f 7 13 8
f 8 13 14
f 8 14 9
f 9 14 15
f 9 15 10
f 11 16 17
f 11 17 12
f 12 17 18
f 12 18 13
f 13 18 19
f 13 19 14
f 14 19 20
f 14 20 15
f 16 21 22
f 16 22 17
f 17 22 23
f 17 23 18
f 18 23 24
f 18 24 19
f 19 24 25
f 19 25 20
