v -0.527563 -0.992039 0.0
v -0.568247 -0.853241 0.0
v -0.569551 -0.671424 0.0
v -0.553416 -0.487874 0.0
v -0.531525 -0.306690 0.0
v -0.263806 -0.992036 0.0
v -0.281969 -0.825075 0.0
v -0.287758 -0.677104 0.0
v -0.275838 -0.503591 0.0
v -0.266605 -0.306764 0.0
v 0.000000 -0.991989 0.0
v 0.000000 -0.818545 0.0
v 0.000000 -0.676990 0.0
v 0.000000 -0.506093 0.0
v 0.000000 -0.306850 0.0
v 0.263806 -0.992036 0.0
v 0.281969 -0.825075 0.0
v 0.287758 -0.677104 0.0
v 0.275838 -0.503591 0.0
v 0.266605 -0.306764 0.0
v 0.527563 -0.992039 0.0
v 0.568247 -0.853241 0.0
v 0.569551 -0.671424 0.0
v 0.553416 -0.487874 0.0
v 0.531525 -0.306690 0.0
v 0.000000 -0.298212 0.0
f 1 6 7
f 1 7 2
f 2 7 8
f 2 8 3
f 3 8 9
f 3 9 4
f 4 9 10
f 4 10 5
f 6 11 12
f 6 12 7
f 7 12 13
f 7 13 8
f 8 13 14
f 8 14 9
f 9 14 15
f 9 15 10
f 11 16 17
f 11 17 12
f 12 17 18
f 12 18 13
f 13 18 19
f 13 19 14
f 14 19 20
f 14 20 15
f 16 21 22
f 16 22 17
f 17 22 23
f 17 23 18
f 18 23 24
f 18 24 19
f 19 24 25
f 19 25 20
