v -0.527576 -0.992041 0.0
v -0.570368 -0.859619 0.0
v -0.571553 -0.678543 0.0
v -0.553932 -0.496298 0.0
v -0.531448 -0.316575 0.0
v -0.263814 -0.992046 0.0
v -0.283066 -0.827883 0.0
v -0.289082 -0.685464 0.0
v -0.276068 -0.513251 0.0
v -0.266471 -0.316659 0.0
v 0.000000 -0.991995 0.0
v 0.000000 -0.819699 0.0
v 0.000000 -0.685915 0.0
v 0.000000 -0.516135 0.0
v 0.000000 -0.316752 0.0
v 0.263814 -0.992046 0.0
v 0.283066 -0.827883 0.0
v 0.289082 -0.685464 0.0
v 0.276068 -0.513251 0.0
v 0.266471 -0.316659 0.0
v 0.527576 -0.992041 0.0
v 0.570368 -0.859619 0.0
v 0.571553 -0.678543 0.0
v 0.553932 -0.496298 0.0
v 0.531448 -0.316575 0.0
v 0.000000 -0.308111 0.0
f 1 6 7
f 1 7 2
f 2 7 8
f 2 8 3
f 3 8 9
f 3 9 4
f 4 9 10
f 4 10 5
f 6 11 12
f 6 12 7
f 7 12 13
f 7 13 8
f 8 13 14
f 8 14 9
f 9 14 15
f 9 15 10
f 11 16 17
f 11 17 12
f 12 17 18
f 12 18 13
f 13 18 19
f 13 19 14
f 14 19 20
f 14 20 15
f 16 21 22
f 16 22 17
f 17 22 23
f 17 23 18
f 18 23 24
f 18 24 19
f 19 24 25
f 19 25 20
