v -0.527583 -0.992039 0.0
v -0.571468 -0.862991 0.0
v -0.572554 -0.682182 0.0
v -0.554113 -0.500569 0.0
v -0.531362 -0.321518 0.0
v -0.263818 -0.992049 0.0
v -0.283661 -0.829196 0.0
v -0.289754 -0.689859 0.0
v -0.276138 -0.518150 0.0
v -0.266374 -0.321607 0.0
v 0.000000 -0.991995 0.0
v 0.000000 -0.820076 0.0
v 0.000000 -0.690679 0.0
v 0.000000 -0.521234 0.0
v 0.000000 -0.321704 0.0
v 0.263818 -0.992049 0.0
v 0.283661 -0.829196 0.0
v 0.289754 -0.689859 0.0
v 0.276138 -0.518150 0.0
v 0.266374 -0.321607 0.0
v 0.527583 -0.992039 0.0
v 0.571468 -0.862991 0.0
v 0.572554 -0.682182 0.0
v 0.554113 -0.500569 0.0
v 0.531362 -0.321518 0.0
v 0.000000 -0.313060 0.0
f 1 6 7
f 1 7 2
f 2 7 8
f 2 8 3
f 3 8 9
f 3 9 4
f 4 9 10
f 4 10 5
f 6 11 12
f 6 12 7
f 7 12 13
f 7 13 8
f 8 13 14
f 8 14 9
f 9 14 15
f 9 15 10
f 11 16 17
f 11 17 12
f 12 17 18
f 12 18 13
f 13 18 19
f 13 19 14
f 14 19 20
f 14 20 15
f 16 21 22
f 16 22 17
f 17 22 23
f 17 23 18
f 18 23 24
f 18 24 19
f 19 24 25
f 19 25 20
