v -0.527596 -0.992030 0.0
v -0.573802 -0.870174 0.0
v -0.574684 -0.689592 0.0
v -0.554287 -0.509213 0.0
v -0.531058 -0.331407 0.0
v -0.263823 -0.992050 0.0
v -0.285003 -0.831564 0.0
v -0.291193 -0.699267 0.0
v -0.276173 -0.528184 0.0
v -0.266090 -0.331505 0.0
v 0.000000 -0.991988 0.0
v 0.000000 -0.820090 0.0
v 0.000000 -0.701173 0.0
v 0.000000 -0.531725 0.0
v 0.000000 -0.331611 0.0
v 0.263823 -0.992050 0.0
v 0.285003 -0.831564 0.0
v 0.291193 -0.699267 0.0
v 0.276173 -0.528184 0.0
v 0.266090 -0.331505 0.0
v 0.527596 -0.992030 0.0
v 0.573802 -0.870174 0.0
v 0.574684 -0.689592 0.0
v 0.554287 -0.509213 0.0
v 0.531058 -0.331407 0.0
v 0.000000 -0.322958 0.0
f 1 6 7
f 1 7 2
f 2 7 8
f 2 8 3
f 3 8 9
f 3 9 4
f 4 9 10
f 4 10 5
f 6 11 12
f 6 12 7
f 7 12 13
f 7 13 8
f 8 13 14
f 8 14 9
f 9 14 15
f 9 15 10
f 11 16 17
f 11 17 12
f 12 17 18
f 12 18 13
f 13 18 19
f 13 19 14
f 14 19 20
f 14 20 15
f 16 21 22
f 16 22 17
f 17 22 23
f 17 23 18
f 18 23 24
f 18 24 19
f 19 24 25
f 19 25 20
