v -0.527603 -0.992021 0.0
v -0.575043 -0.874028 0.0
v -0.575850 -0.693368 0.0
v -0.554251 -0.513589 0.0
v -0.530817 -0.336352 0.0
v -0.263825 -0.992046 0.0
v -0.285762 -0.832556 0.0
v -0.291988 -0.704396 0.0
v -0.276117 -0.533377 0.0
v -0.265882 -0.336457 0.0
v 0.000000 -0.991978 0.0
v 0.000000 -0.819520 0.0
v 0.000000 -0.707140 0.0
v 0.000000 -0.537193 0.0
v 0.000000 -0.336568 0.0
v 0.263825 -0.992046 0.0
v 0.285762 -0.832556 0.0
v 0.291988 -0.704396 0.0
v 0.276117 -0.533377 0.0
v 0.265882 -0.336457 0.0
v 0.527603 -0.992021 0.0
v 0.575043 -0.874028 0.0
v 0.575850 -0.693368 0.0
v 0.554251 -0.513589 0.0
v 0.530817 -0.336352 0.0
v 0.000000 -0.327907 0.0
f 1 6 7
f 1 7 2
f 2 7 8
f 2 8 3
f 3 8 9
f 3 9 4
f 4 9 10
f 4 10 5
f 6 11 12
f 6 12 7
f 7 12 13
f 7 13 8
f 8 13 14
f 8 14 9
f 9 14 15
f 9 15 10
f 11 16 17
f 11 17 12
f 12 17 18
f 12 18 13
f 13 18 19
f 13 19 14
f 14 19 20
f 14 20 15
f 16 21 22
f 16 22 17
f 17 22 23
f 17 23 18
f 18 23 24
f 18 24 19
f 19 24 25
f 19 25 20
