v -0.527608 -0.992011 0.0
v -0.576332 -0.878091 0.0
v -0.577099 -0.697206 0.0
v -0.554095 -0.518016 0.0
v -0.530493 -0.341299 0.0
v -0.263826 -0.992040 0.0
v -0.286586 -0.833340 0.0
v -0.292844 -0.709924 0.0
v -0.275987 -0.538738 0.0
v -0.265613 -0.341411 0.0
v 0.000000 -0.991964 0.0
v 0.000000 -0.818360 0.0
v 0.000000 -0.713820 0.0
v 0.000000 -0.542872 0.0
v 0.000000 -0.341529 0.0
v 0.263826 -0.992040 0.0
v 0.286586 -0.833340 0.0
v 0.292844 -0.709924 0.0
v 0.275987 -0.538738 0.0
v 0.265613 -0.341411 0.0
v 0.527608 -0.992011 0.0
v 0.576332 -0.878091 0.0
v 0.577099 -0.697206 0.0
v 0.554095 -0.518016 0.0
v 0.530493 -0.341299 0.0
v 0.000000 -0.332857 0.0
f 1 6 7
f 1 7 2
f 2 7 8
f 2 8 3
f 3 8 9
f 3 9 4
f 4 9 10
f 4 10 5
f 6 11 12
f 6 12 7
f 7 12 13
f 7 13 8
f 8 13 14
f 8 14 9
f 9 14 15
f 9 15 10
f 11 16 17
f 11 17 12
f 12 17 18
f 12 18 13
f 13 18 19
f 13 19 14
f 14 19 20
f 14 20 15
f 16 21 22
f 16 22 17
f 17 22 23
f 17 23 18
f 18 23 24
f 18 24 19
f 19 24 25
f 19 25 20
