v -0.527614 -0.991996 0.0
v -0.577681 -0.882400 0.0
v -0.578447 -0.701132 0.0
v -0.553765 -0.522516 0.0
v -0.530061 -0.346247 0.0
v -0.263827 -0.992029 0.0
v -0.287493 -0.833765 0.0
v -0.293778 -0.716022 0.0
v -0.275741 -0.544321 0.0
v -0.265261 -0.346369 0.0
v 0.000000 -0.991941 0.0
v 0.000000 -0.816268 0.0
v 0.000000 -0.721588 0.0
v 0.000000 -0.548836 0.0
v 0.000000 -0.346494 0.0
v 0.263827 -0.992029 0.0
v 0.287493 -0.833765 0.0
v 0.293778 -0.716022 0.0
v 0.275741 -0.544321 0.0
v 0.265261 -0.346369 0.0
v 0.527614 -0.991996 0.0
v 0.577681 -0.882400 0.0
v 0.578447 -0.701132 0.0
v 0.553765 -0.522516 0.0
v 0.530061 -0.346247 0.0
v 0.000000 -0.337806 0.0
f 1 6 7
f 1 7 2
f 2 7 8
f 2 8 3
f 3 8 9
f 3 9 4
f 4 9 10
f 4 10 5
f 6 11 12
f 6 12 7
f 7 12 13
f 7 13 8
f 8 13 14
f 8 14 9
f 9 14 15
f 9 15 10
f 11 16 17
f 11 17 12
f 12 17 18
f 12 18 13
f 13 18 19
f 13 19 14
f 14 19 20
f 14 20 15
f 16 21 22
f 16 22 17
f 17 22 23
f 17 23 18
f 18 23 24
f 18 24 19
f 19 24 25
f 19 25 20
