v -0.527619 -0.991979 0.0
v -0.579086 -0.886976 0.0
v -0.579902 -0.705180 0.0
v -0.553186 -0.527131 0.0
v -0.529481 -0.351199 0.0
v -0.263826 -0.992010 0.0
v -0.288494 -0.833620 0.0
v -0.294787 -0.722920 0.0
v -0.275327 -0.550215 0.0
v -0.264798 -0.351331 0.0
v 0.000000 -0.991904 0.0
v 0.000000 -0.812836 0.0
v 0.000000 -0.730906 0.0
v 0.000000 -0.555192 0.0
v 0.000000 -0.351465 0.0
v 0.263826 -0.992010 0.0
v 0.288494 -0.833620 0.0
v 0.294787 -0.722920 0.0
v 0.275327 -0.550215 0.0
v 0.264798 -0.351331 0.0
v 0.527619 -0.991979 0.0
v 0.579086 -0.886976 0.0
v 0.579902 -0.705180 0.0
v 0.553186 -0.527131 0.0
v 0.529481 -0.351199 0.0
v 0.000000 -0.342756 0.0
f 1 6 7
f 1 7 2
f 2 7 8
f 2 8 3
f 3 8 9
f 3 9 4
f 4 9 10
f 4 10 5
f 6 11 12
f 6 12 7
f 7 12 13
f 7 13 8
f 8 13 14
f 8 14 9
f 9 14 15
f 9 15 10
f 11 16 17
f 11 17 12
f 12 17 18
f 12 18 13
f 13 18 19
f 13 19 14
f 14 19 20
f 14 20 15
f 16 21 22
f 16 22 17
f 17 22 23
f 17 23 18
f 18 23 24
f 18 24 19
f 19 24 25
f 19 25 20
