v -0.527622 -0.991958 0.0
v -0.580540 -0.891824 0.0
v -0.581475 -0.709405 0.0
v -0.552243 -0.531938 0.0
v -0.528696 -0.356155 0.0
v -0.263823 -0.991979 0.0
v -0.289597 -0.832540 0.0
v -0.295859 -0.730993 0.0
v -0.274664 -0.556557 0.0
v -0.264181 -0.356300 0.0
v 0.000000 -0.991843 0.0
v 0.000000 -0.807432 0.0
v 0.000000 -0.742505 0.0
v 0.000000 -0.562113 0.0
v 0.000000 -0.356445 0.0
v 0.263823 -0.991979 0.0
v 0.289597 -0.832540 0.0
v 0.295859 -0.730993 0.0
v 0.274664 -0.556557 0.0
v 0.264181 -0.356300 0.0
v 0.527622 -0.991958 0.0
v 0.580540 -0.891824 0.0
v 0.581475 -0.709405 0.0
v 0.552243 -0.531938 0.0
v 0.528696 -0.356155 0.0
v 0.000000 -0.347707 0.0
f 1 6 7
f 1 7 2
f 2 7 8
f 2 8 3
f 3 8 9
f 3 9 4
f 4 9 10
f 4 10 5
f 6 11 12
f 6 12 7
f 7 12 13
f 7 13 8
f 8 13 14
f 8 14 9
f 9 14 15
f 9 15 10
f 11 16 17
f 11 17 12
f 12 17 18
f 12 18 13
f 13 18 19
f 13 19 14
f 14 19 20
f 14 20 15
f 16 21 22
f 16 22 17
f 17 22 23
f 17 23 18
f 18 23 24
f 18 24 19
f 19 24 25
f 19 25 20
