v -0.527625 -0.991900 0.0
v -0.583379 -0.902041 0.0
v -0.584935 -0.718826 0.0
v -0.548359 -0.542754 0.0
v -0.526101 -0.366096 0.0
v -0.263228 -0.991826 0.0
v -0.292049 -0.824391 0.0
v -0.297934 -0.753777 0.0
v -0.271956 -0.571731 0.0
v -0.262162 -0.366284 0.0
v 0.000000 -0.991540 0.0
v 0.000000 -0.786304 0.0
v 0.000000 -0.777928 0.0
v 0.000000 -0.579105 0.0
v 0.000000 -0.366464 0.0
v 0.263228 -0.991826 0.0
v 0.292049 -0.824391 0.0
v 0.297934 -0.753777 0.0
v 0.271956 -0.571731 0.0
v 0.262162 -0.366284 0.0
v 0.527625 -0.991900 0.0
v 0.583379 -0.902041 0.0
v 0.584935 -0.718826 0.0
v 0.548359 -0.542754 0.0
v 0.526101 -0.366096 0.0
v 0.000000 -0.357611 0.0
f 1 6 7
f 1 7 2
f 2 7 8
f 2 8 3
f 3 8 9
f 3 9 4
f 4 9 10
f 4 10 5
f 6 11 12
f 6 12 7
f 7 12 13
f 7 13 8
f 8 13 14
f 8 14 9
f 9 14 15
f 9 15 10
f 11 16 17
f 11 17 12
f 12 17 18
f 12 18 13
f 13 18 19
f 13 19 14
f 14 19 20
f 14 20 15
f 16 21 22
f 16 22 17
f 17 22 23
f 17 23 18
f 18 23 24
f 18 24 19
f 19 24 25
f 19 25 20
