v -0.527621 -0.991856 0.0
v -0.584239 -0.906837 0.0
v -0.586608 -0.724572 0.0
v -0.544500 -0.549478 0.0
v -0.523894 -0.371099 0.0
v -0.261491 -0.991633 0.0
v -0.293152 -0.814121 0.0
v -0.298480 -0.771628 0.0
v -0.269328 -0.581787 0.0
v -0.260441 -0.371329 0.0
v 0.000000 -0.991147 0.0
v 0.000000 -0.767607 0.0
v 0.000000 -0.805813 0.0
v 0.000000 -0.590733 0.0
v 0.000000 -0.371545 0.0
v 0.261491 -0.991633 0.0
v 0.293152 -0.814121 0.0
v 0.298480 -0.771628 0.0
v 0.269328 -0.581787 0.0
v 0.260441 -0.371329 0.0
v 0.527621 -0.991856 0.0
v 0.584239 -0.906837 0.0
v 0.586608 -0.724572 0.0
v 0.544500 -0.549478 0.0
v 0.523894 -0.371099 0.0
v 0.000000 -0.362567 0.0
f 1 6 7
f 1 7 2
f 2 7 8
f 2 8 3
f 3 8 9
f 3 9 4
f 4 9 10
f 4 10 5
f 6 11 12
f 6 12 7
f 7 12 13
f 7 13 8
f 8 13 14
f 8 14 9
f 9 14 15
f 9 15 10
f 11 16 17
f 11 17 12
f 12 17 18
f 12 18 13
f 13 18 19
f 13 19 14
f 14 19 20
f 14 20 15
f 16 21 22
f 16 22 17
f 17 22 23
f 17 23 18
f 18 23 24
f 18 24 19
f 19 24 25
f 19 25 20
