v -0.526352 -0.991788 0.0
v -0.583841 -0.910190 0.0
v -0.587620 -0.731979 0.0
v -0.538240 -0.558130 0.0
v -0.520564 -0.376151 0.0
v -0.258198 -0.991256 0.0
v -0.293559 -0.796754 0.0
v -0.297946 -0.797029 0.0
v -0.265320 -0.594959 0.0
v -0.257833 -0.376463 0.0
v 0.000000 -0.990380 0.0
v 0.000000 -0.743766 0.0
v 0.000000 -0.841710 0.0
v 0.000000 -0.606192 0.0
v 0.000000 -0.376746 0.0
v 0.258198 -0.991256 0.0
v 0.293559 -0.796754 0.0
v 0.297946 -0.797029 0.0
v 0.265320 -0.594959 0.0
v 0.257833 -0.376463 0.0
v 0.526352 -0.991788 0.0
v 0.583841 -0.910190 0.0
v 0.587620 -0.731979 0.0
v 0.538240 -0.558130 0.0
v 0.520564 -0.376151 0.0
v 0.000000 -0.367529 0.0
f 1 6 7
f 1 7 2
f 2 7 8
f 2 8 3
f 3 8 9
f 3 9 4
f 4 9 10
f 4 10 5
f 6 11 12
f 6 12 7
f 7 12 13
f 7 13 8
f 8 13 14
f 8 14 9
f 9 14 15
f 9 15 10
f 11 16 17
f 11 17 12
f 12 17 18
f 12 18 13
f 13 18 19
f 13 19 14
f 14 19 20
f 14 20 15
f 16 21 22
f 16 22 17
f 17 22 23
f 17 23 18
f 18 23 24
f 18 24 19
f 19 24 25
f 19 25 20
