v -0.521832 -0.991685 0.0
v -0.581116 -0.909797 0.0
v -0.586754 -0.742717 0.0
v -0.528449 -0.570102 0.0
v -0.515474 -0.381292 0.0
v -0.253169 -0.990598 0.0
v -0.292542 -0.772066 0.0
v -0.295537 -0.831254 0.0
v -0.259757 -0.612294 0.0
v -0.253877 -0.381760 0.0
v 0.000000 -0.985231 0.0
v 0.000000 -0.719970 0.0
v 0.000000 -0.881110 0.0
v 0.000000 -0.626267 0.0
v 0.000000 -0.382176 0.0
v 0.253169 -0.990598 0.0
v 0.292542 -0.772066 0.0
v 0.295537 -0.831254 0.0
v 0.259757 -0.612294 0.0
v 0.253877 -0.381760 0.0
v 0.521832 -0.991685 0.0
v 0.581116 -0.909797 0.0
v 0.586754 -0.742717 0.0
v 0.528449 -0.570102 0.0
v 0.515474 -0.381292 0.0
v 0.000000 -0.372500 0.0
f 1 6 7
f 1 7 2
f 2 7 8
f 2 8 3
f 3 8 9
f 3 9 4
f 4 9 10
f 4 10 5
f 6 11 12
f 6 12 7
f 7 12 13
f 7 13 8
f 8 13 14
f 8 14 9
f 9 14 15
f 9 15 10
f 11 16 17
f 11 17 12
f 12 17 18
f 12 18 13
f 13 18 19
f 13 19 14
f 14 19 20
f 14 20 15
f 16 21 22
f 16 22 17
f 17 22 23
f 17 23 18
f 18 23 24
f 18 24 19
f 19 24 25
f 19 25 20
