v -0.512672 -0.991555 0.0
v -0.575207 -0.902162 0.0
v -0.582425 -0.759329 0.0
v -0.514512 -0.586675 0.0
v -0.507918 -0.386570 0.0
v -0.246647 -0.988313 0.0
v -0.289507 -0.744938 0.0
v -0.290773 -0.870821 0.0
v -0.253104 -0.633342 0.0
v -0.248202 -0.387299 0.0
v 0.000000 -0.972718 0.0
v 0.000000 -0.703188 0.0
v 0.000000 -0.915401 0.0
v 0.000000 -0.649486 0.0
v 0.000000 -0.389951 0.0
v 0.246647 -0.988313 0.0
v 0.289507 -0.744938 0.0
v 0.290773 -0.870821 0.0
v 0.253104 -0.633342 0.0
v 0.248202 -0.387299 0.0
v 0.512672 -0.991555 0.0
v 0.575207 -0.902162 0.0
v 0.582425 -0.759329 0.0
v 0.514512 -0.586675 0.0
v 0.507918 -0.386570 0.0
v 0.000000 -0.377488 0.0
f 1 6 7
f 1 7 2
f 2 7 8
f 2 8 3
f 3 8 9
f 3 9 4
f 4 9 10
f 4 10 5
f 6 11 12
f 6 12 7
f 7 12 13
f 7 13 8
f 8 13 14
f 8 14 9
f 9 14 15
f 9 15 10
f 11 16 17
f 11 17 12
f 12 17 18
f 12 18 13
f 13 18 19
f 13 19 14
f 14 19 20
f 14 20 15
f 16 21 22
f 16 22 17
f 17 22 23
f 17 23 18
f 18 23 24
f 18 24 19
f 19 24 25
f 19 25 20
