v -0.498894 -0.991463 0.0
v -0.566418 -0.883232 0.0
v -0.573688 -0.785013 0.0
v -0.497391 -0.607831 0.0
v -0.497455 -0.392017 0.0
v -0.239465 -0.981912 0.0
v -0.284197 -0.722540 0.0
v -0.283615 -0.908351 0.0
v -0.246440 -0.655887 0.0
v -0.240866 -0.395681 0.0
v 0.000000 -0.955199 0.0
v 0.000000 -0.696093 0.0
v 0.000000 -0.938735 0.0
v 0.000000 -0.672699 0.0
v 0.000000 -0.403070 0.0
v 0.239465 -0.981912 0.0
v 0.284197 -0.722540 0.0
v 0.283615 -0.908351 0.0
v 0.246440 -0.655887 0.0
v 0.240866 -0.395681 0.0
v 0.498894 -0.991463 0.0
v 0.566418 -0.883232 0.0
v 0.573688 -0.785013 0.0
v 0.497391 -0.607831 0.0
v 0.497455 -0.392017 0.0
v 0.000000 -0.382489 0.0
f 1 6 7
f 1 7 2
f 2 7 8
f 2 8 3
f 3 8 9
f 3 9 4
f 4 9 10
f 4 10 5
f 6 11 12
f 6 12 7
f 7 12 13
f 7 13 8
f 8 13 14
f 8 14 9
f 9 14 15
f 9 15 10
f 11 16 17
f 11 17 12
f 12 17 18
f 12 18 13
f 13 18 19
f 13 19 14
f 14 19 20
f 14 20 15
f 16 21 22
f 16 22 17
f 17 22 23
f 17 23 18
f 18 23 24
f 18 24 19
f 19 24 25
f 19 25 20
