v -0.482370 -0.991415 0.0
v -0.555768 -0.848252 0.0
v -0.560481 -0.824089 0.0
v -0.479967 -0.631991 0.0
v -0.484284 -0.398237 0.0
v -0.233070 -0.972337 0.0
v -0.276746 -0.708370 0.0
v -0.274349 -0.938260 0.0
v -0.241015 -0.677420 0.0
v -0.232511 -0.408824 0.0
v 0.000000 -0.937885 0.0
v 0.000000 -0.696087 0.0
v 0.000000 -0.951717 0.0
v 0.000000 -0.693392 0.0
v 0.000000 -0.421776 0.0
v 0.233070 -0.972337 0.0
v 0.276746 -0.708370 0.0
v 0.274349 -0.938260 0.0
v 0.241015 -0.677420 0.0
v 0.232511 -0.408824 0.0
v 0.482370 -0.991415 0.0
v 0.555768 -0.848252 0.0
v 0.560481 -0.824089 0.0
v 0.479967 -0.631991 0.0
v 0.484284 -0.398237 0.0
v 0.000000 -0.387491 0.0
f 1 6 7
f 1 7 2
f 2 7 8
f 2 8 3
f 3 8 9
f 3 9 4
f 4 9 10
f 4 10 5
f 6 11 12
f 6 12 7
f 7 12 13
f 7 13 8
f 8 13 14
f 8 14 9
f 9 14 15
f 9 15 10
f 11 16 17
f 11 17 12
f 12 17 18
f 12 18 13
f 13 18 19
f 13 19 14
f 14 19 20
f 14 20 15
f 16 21 22
f 16 22 17
f 17 22 23
f 17 23 18
f 18 23 24
f 18 24 19
f 19 24 25
f 19 25 20
