v -0.466924 -0.991118 0.0
v -0.542288 -0.795215 0.0
v -0.542395 -0.879455 0.0
v -0.466246 -0.657916 0.0
v -0.469644 -0.408134 0.0
v -0.229149 -0.961844 0.0
v -0.267960 -0.701783 0.0
v -0.263896 -0.959186 0.0
v -0.237902 -0.696887 0.0
v -0.224282 -0.426400 0.0
v 0.000000 -0.925670 0.0
v 0.000000 -0.698932 0.0
v 0.000000 -0.958712 0.0
v 0.000000 -0.710860 0.0
v 0.000000 -0.444037 0.0
v 0.229149 -0.961844 0.0
v 0.267960 -0.701783 0.0
v 0.263896 -0.959186 0.0
v 0.237902 -0.696887 0.0
v 0.224282 -0.426400 0.0
v 0.466924 -0.991118 0.0
v 0.542288 -0.795215 0.0
v 0.542395 -0.879455 0.0
v 0.466246 -0.657916 0.0
v 0.469644 -0.408134 0.0
v 0.000000 -0.392492 0.0
f 1 6 7
f 1 7 2
f 2 7 8
f 2 8 3
f 3 8 9
f 3 9 4
f 4 9 10
f 4 10 5
f 6 11 12
f 6 12 7
f 7 12 13
f 7 13 8
f 8 13 14
f 8 14 9
f 9 14 15
f 9 15 10
f 11 16 17
f 11 17 12
f 12 17 18
f 12 18 13
f 13 18 19
f 13 19 14
f 14 19 20
f 14 20 15
f 16 21 22
f 16 22 17
f 17 22 23
f 17 23 18
f 18 23 24
f 18 24 19
f 19 24 25
f 19 25 20
