v -0.456223 -0.974565 0.0
v -0.474412 -0.693247 0.0
v -0.470264 -0.993112 0.0
v -0.466583 -0.736997 0.0
v -0.440240 -0.467489 0.0
v -0.233574 -0.947129 0.0
v -0.243094 -0.712027 0.0
v -0.237787 -0.983214 0.0
v -0.239509 -0.744556 0.0
v -0.214091 -0.490317 0.0
v 0.000000 -0.941506 0.0
v 0.000000 -0.707761 0.0
v 0.000000 -0.979101 0.0
v 0.000000 -0.749650 0.0
v 0.000000 -0.506428 0.0
v 0.233574 -0.947129 0.0
v 0.243094 -0.712027 0.0
v 0.237787 -0.983214 0.0
v 0.239509 -0.744556 0.0
v 0.214091 -0.490317 0.0
v 0.456223 -0.974565 0.0
v 0.474412 -0.693247 0.0
v 0.470264 -0.993112 0.0
v 0.466583 -0.736997 0.0
v 0.440240 -0.467489 0.0
v 0.000000 -0.407494 0.0
f 1 6 7
f 1 7 2
f 2 7 8
f 2 8 3
f 3 8 9
f 3 9 4
f 4 9 10
f 4 10 5
f 6 11 12
f 6 12 7
f 7 12 13
f 7 13 8
f 8 13 14
f 8 14 9
f 9 14 15
f 9 15 10
f 11 16 17
f 11 17 12
f 12 17 18
f 12 18 13
f 13 18 19
f 13 19 14
f 14 19 20
f 14 20 15
f 16 21 22
f 16 22 17
f 17 22 23
f 17 23 18
f 18 23 24
f 18 24 19
f 19 24 25
f 19 25 20
