v -0.464768 -0.964350 0.0
v -0.455100 -0.697872 0.0
v -0.458291 -0.990895 0.0
v -0.476660 -0.753830 0.0
v -0.442292 -0.492048 0.0
v -0.235573 -0.955156 0.0
v -0.232620 -0.718052 0.0
v -0.231867 -0.989156 0.0
v -0.238847 -0.755580 0.0
v -0.218014 -0.509555 0.0
v 0.000000 -0.961860 0.0
v 0.000000 -0.714711 0.0
v 0.000000 -0.989898 0.0
v 0.000000 -0.759525 0.0
v 0.000000 -0.519287 0.0
v 0.235573 -0.955156 0.0
v 0.232620 -0.718052 0.0
v 0.231867 -0.989156 0.0
v 0.238847 -0.755580 0.0
v 0.218014 -0.509555 0.0
v 0.464768 -0.964350 0.0
v 0.455100 -0.697872 0.0
v 0.458291 -0.990895 0.0
v 0.476660 -0.753830 0.0
v 0.442292 -0.492048 0.0
v 0.000000 -0.412495 0.0
f 1 6 7
f 1 7 2
f 2 7 8
f 2 8 3
f 3 8 9
f 3 9 4
f 4 9 10
f 4 10 5
f 6 11 12
f 6 12 7
f 7 12 13
f 7 13 8
f 8 13 14
f 8 14 9
f 9 14 15
f 9 15 10
f 11 16 17
f 11 17 12
f 12 17 18
f 12 18 13
f 13 18 19
f 13 19 14
f 14 19 20
f 14 20 15
f 16 21 22
f 16 22 17
f 17 22 23
f 17 23 18
f 18 23 24
f 18 24 19
f 19 24 25
f 19 25 20
