v -0.489037 -0.951575 0.0
v -0.438686 -0.718267 0.0
v -0.458437 -0.990611 0.0
v -0.499339 -0.773712 0.0
v -0.466983 -0.533369 0.0
v -0.239738 -0.987210 0.0
v -0.216623 -0.731393 0.0
v -0.228561 -0.991759 0.0
v -0.239408 -0.768746 0.0
v -0.235120 -0.536087 0.0
v 0.000000 -0.992453 0.0
v 0.000000 -0.734644 0.0
v 0.000000 -0.992234 0.0
v 0.000000 -0.769133 0.0
v 0.000000 -0.529119 0.0
v 0.239738 -0.987210 0.0
v 0.216623 -0.731393 0.0
v 0.228561 -0.991759 0.0
v 0.239408 -0.768746 0.0
v 0.235120 -0.536087 0.0
v 0.489037 -0.951575 0.0
v 0.438686 -0.718267 0.0
v 0.458437 -0.990611 0.0
v 0.499339 -0.773712 0.0
v 0.466983 -0.533369 0.0
v 0.000000 -0.422497 0.0
f 1 6 7
f 1 7 2
f 2 7 8
f 2 8 3
f 3 8 9
f 3 9 4
f 4 9 10
f 4 10 5
f 6 11 12
f 6 12 7
f 7 12 13
f 7 13 8
f 8 13 14
f 8 14 9
f 9 14 15
f 9 15 10
f 11 16 17
f 11 17 12
f 12 17 18
f 12 18 13
f 13 18 19
f 13 19 14
f 14 19 20
f 14 20 15
f 16 21 22
f 16 22 17
f 17 22 23
f 17 23 18
f 18 23 24
f 18 24 19
f 19 24 25
f 19 25 20
