v -0.499997 -0.951006 0.0
v -0.441982 -0.724951 0.0
v -0.466960 -0.991020 0.0
v -0.508815 -0.779784 0.0
v -0.487015 -0.547385 0.0
v -0.243609 -0.992094 0.0
v -0.217027 -0.737054 0.0
v -0.231032 -0.991799 0.0
v -0.242658 -0.770452 0.0
v -0.246537 -0.541923 0.0
v 0.000000 -0.991964 0.0
v 0.000000 -0.741420 0.0
v 0.000000 -0.992183 0.0
v 0.000000 -0.767534 0.0
v 0.000000 -0.527735 0.0
v 0.243609 -0.992094 0.0
v 0.217027 -0.737054 0.0
v 0.231032 -0.991799 0.0
v 0.242658 -0.770452 0.0
v 0.246537 -0.541923 0.0
v 0.499997 -0.951006 0.0
v 0.441982 -0.724951 0.0
v 0.466960 -0.991020 0.0
v 0.508815 -0.779784 0.0
v 0.487015 -0.547385 0.0
v 0.000000 -0.427498 0.0
f 1 6 7
f 1 7 2
f 2 7 8
f 2 8 3
f 3 8 9
f 3 9 4
f 4 9 10
f 4 10 5
f 6 11 12
f 6 12 7
f 7 12 13
f 7 13 8
f 8 13 14
f 8 14 9
f 9 14 15
f 9 15 10
f 11 16 17
f 11 17 12
f 12 17 18
f 12 18 13
f 13 18 19
f 13 19 14
f 14 19 20
f 14 20 15
f 16 21 22
f 16 22 17
f 17 22 23
f 17 23 18
f 18 23 24
f 18 24 19
f 19 24 25
f 19 25 20
