v -0.513867 -0.961334 0.0
v -0.467765 -0.729081 0.0
v -0.490534 -0.991084 0.0
v -0.521183 -0.786143 0.0
v -0.530320 -0.561131 0.0
v -0.251452 -0.990493 0.0
v -0.234033 -0.742246 0.0
v -0.241392 -0.991467 0.0
v -0.253202 -0.765182 0.0
v -0.269532 -0.539314 0.0
v 0.000000 -0.990673 0.0
v 0.000000 -0.743995 0.0
v 0.000000 -0.991564 0.0
v 0.000000 -0.756121 0.0
v 0.000000 -0.519379 0.0
v 0.251452 -0.990493 0.0
v 0.234033 -0.742246 0.0
v 0.241392 -0.991467 0.0
v 0.253202 -0.765182 0.0
v 0.269532 -0.539314 0.0
v 0.513867 -0.961334 0.0
v 0.467765 -0.729081 0.0
v 0.490534 -0.991084 0.0
v 0.521183 -0.786143 0.0
v 0.530320 -0.561131 0.0
v 0.000000 -0.437500 0.0
f 1 6 7
f 1 7 2
f 2 7 8
f 2 8 3
f 3 8 9
f 3 9 4
f 4 9 10
f 4 10 5
f 6 11 12
f 6 12 7
f 7 12 13
f 7 13 8
f 8 13 14
f 8 14 9
f 9 14 15
f 9 15 10
f 11 16 17
f 11 17 12
f 12 17 18
f 12 18 13
f 13 18 19
f 13 19 14
f 14 19 20
f 14 20 15
f 16 21 22
f 16 22 17
f 17 22 23
f 17 23 18
f 18 23 24
f 18 24 19
f 19 24 25
f 19 25 20
