v -0.517648 -0.990573 0.0
v -0.518567 -0.741505 0.0
v -0.518240 -0.991047 0.0
v -0.525609 -0.777033 0.0
v -0.563768 -0.552522 0.0
v -0.261106 -0.990120 0.0
v -0.262675 -0.745762 0.0
v -0.257267 -0.990460 0.0
v -0.264429 -0.749919 0.0
v -0.286818 -0.516992 0.0
v 0.000000 -0.990062 0.0
v 0.000000 -0.744831 0.0
v 0.000000 -0.989793 0.0
v 0.000000 -0.741728 0.0
v 0.000000 -0.506485 0.0
v 0.261106 -0.990120 0.0
v 0.262675 -0.745762 0.0
v 0.257267 -0.990460 0.0
v 0.264429 -0.749919 0.0
v 0.286818 -0.516992 0.0
v 0.517648 -0.990573 0.0
v 0.518567 -0.741505 0.0
v 0.518240 -0.991047 0.0
v 0.525609 -0.777033 0.0
v 0.563768 -0.552522 0.0
v 0.000000 -0.452503 0.0
f 1 6 7
f 1 7 2
f 2 7 8
f 2 8 3
f 3 8 9
f 3 9 4
f 4 9 10
f 4 10 5
f 6 11 12
f 6 12 7
f 7 12 13
f 7 13 8
f 8 13 14
f 8 14 9
f 9 14 15
f 9 15 10
f 11 16 17
f 11 17 12
f 12 17 18
f 12 18 13
f 13 18 19
f 13 19 14
f 14 19 20
f 14 20 15
f 16 21 22
f 16 22 17
f 17 22 23
f 17 23 18
f 18 23 24
f 18 24 19
f 19 24 25
f 19 25 20
