v -0.517122 -0.991487 0.0
v -0.528669 -0.748358 0.0
v -0.521415 -0.991054 0.0
v -0.524273 -0.769954 0.0
v -0.561236 -0.543627 0.0
v -0.262009 -0.990122 0.0
v -0.266357 -0.746946 0.0
v -0.259907 -0.990312 0.0
v -0.264790 -0.746809 0.0
v -0.285034 -0.510019 0.0
v 0.000000 -0.990022 0.0
v 0.000000 -0.746379 0.0
v 0.000000 -0.988833 0.0
v 0.000000 -0.740434 0.0
v 0.000000 -0.503390 0.0
v 0.262009 -0.990122 0.0
v 0.266357 -0.746946 0.0
v 0.259907 -0.990312 0.0
v 0.264790 -0.746809 0.0
v 0.285034 -0.510019 0.0
v 0.517122 -0.991487 0.0
v 0.528669 -0.748358 0.0
v 0.521415 -0.991054 0.0
v 0.524273 -0.769954 0.0
v 0.561236 -0.543627 0.0
v 0.000000 -0.457504 0.0
f 1 6 7
f 1 7 2
f 2 7 8
f 2 8 3
f 3 8 9
f 3 9 4
f 4 9 10
f 4 10 5
f 6 11 12
f 6 12 7
f 7 12 13
f 7 13 8
f 8 13 14
f 8 14 9
f 9 14 15
f 9 15 10
f 11 16 17
f 11 17 12
f 12 17 18
f 12 18 13
f 13 18 19
f 13 19 14
f 14 19 20
f 14 20 15
f 16 21 22
f 16 22 17
f 17 22 23
f 17 23 18
f 18 23 24
f 18 24 19
f 19 24 25
f 19 25 20
