v -0.517116 -0.990817 0.0
v -0.533289 -0.753488 0.0
v -0.521419 -0.991009 0.0
v -0.521723 -0.762321 0.0
v -0.552705 -0.532565 0.0
v -0.261949 -0.990154 0.0
v -0.267060 -0.747446 0.0
v -0.260807 -0.990254 0.0
v -0.263596 -0.745120 0.0
v -0.279830 -0.504527 0.0
v 0.000000 -0.990051 0.0
v 0.000000 -0.747464 0.0
v 0.000000 -0.988119 0.0
v 0.000000 -0.740499 0.0
v 0.000000 -0.501055 0.0
v 0.261949 -0.990154 0.0
v 0.267060 -0.747446 0.0
v 0.260807 -0.990254 0.0
v 0.263596 -0.745120 0.0
v 0.279830 -0.504527 0.0
v 0.517116 -0.990817 0.0
v 0.533289 -0.753488 0.0
v 0.521419 -0.991009 0.0
v 0.521723 -0.762321 0.0
v 0.552705 -0.532565 0.0
v 0.000000 -0.462505 0.0
f 1 6 7
f 1 7 2
f 2 7 8
f 2 8 3
f 3 8 9
f 3 9 4
f 4 9 10
f 4 10 5
f 6 11 12
f 6 12 7
f 7 12 13
f 7 13 8
f 8 13 14
f 8 14 9
f 9 14 15
f 9 15 10
f 11 16 17
f 11 17 12
f 12 17 18
f 12 18 13
f 13 18 19
f 13 19 14
f 14 19 20
f 14 20 15
f 16 21 22
f 16 22 17
f 17 22 23
f 17 23 18
f 18 23 24
f 18 24 19
f 19 24 25
f 19 25 20
