v -0.516887 -0.990572 0.0
v -0.532718 -0.755668 0.0
v -0.519785 -0.990892 0.0
v -0.518094 -0.754962 0.0
v -0.539716 -0.520121 0.0
v -0.261165 -0.990194 0.0
v -0.265668 -0.747250 0.0
v -0.260487 -0.990260 0.0
v -0.261297 -0.744567 0.0
v -0.272165 -0.500592 0.0
v 0.000000 -0.990102 0.0
v 0.000000 -0.747720 0.0
v 0.000000 -0.988343 0.0
v 0.000000 -0.741586 0.0
v 0.000000 -0.499528 0.0
v 0.261165 -0.990194 0.0
v 0.265668 -0.747250 0.0
v 0.260487 -0.990260 0.0
v 0.261297 -0.744567 0.0
v 0.272165 -0.500592 0.0
v 0.516887 -0.990572 0.0
v 0.532718 -0.755668 0.0
v 0.519785 -0.990892 0.0
v 0.518094 -0.754962 0.0
v 0.539716 -0.520121 0.0
v 0.000000 -0.467506 0.0
f 1 6 7
f 1 7 2
f 2 7 8
f 2 8 3
f 3 8 9
f 3 9 4
f 4 9 10
f 4 10 5
f 6 11 12
f 6 12 7
f 7 12 13
f 7 13 8
f 8 13 14
f 8 14 9
f 9 14 15
f 9 15 10
f 11 16 17
f 11 17 12
f 12 17 18
f 12 18 13
f 13 18 19
f 13 19 14
f 14 19 20
f 14 20 15
f 16 21 22
f 16 22 17
f 17 22 23
f 17 23 18
f 18 23 24
f 18 24 19
f 19 24 25
f 19 25 20
