v -0.511491 -0.990316 0.0
v -0.511715 -0.746196 0.0
v -0.508950 -0.990272 0.0
v -0.503119 -0.738565 0.0
v -0.491871 -0.491290 0.0
v -0.256283 -0.990264 0.0
v -0.255750 -0.744446 0.0
v -0.255668 -0.990448 0.0
v -0.252084 -0.746033 0.0
v -0.245171 -0.495954 0.0
v 0.000000 -0.990250 0.0
v 0.000000 -0.745047 0.0
v 0.000000 -0.990614 0.0
v 0.000000 -0.748047 0.0
v 0.000000 -0.499335 0.0
v 0.256283 -0.990264 0.0
v 0.255750 -0.744446 0.0
v 0.255668 -0.990448 0.0
v 0.252084 -0.746033 0.0
v 0.245171 -0.495954 0.0
v 0.511491 -0.990316 0.0
v 0.511715 -0.746196 0.0
v 0.508950 -0.990272 0.0
v 0.503119 -0.738565 0.0
v 0.491871 -0.491290 0.0
v 0.000000 -0.482509 0.0
f 1 6 7
f 1 7 2
f 2 7 8
f 2 8 3
f 3 8 9
f 3 9 4
f 4 9 10
f 4 10 5
f 6 11 12
f 6 12 7
f 7 12 13
f 7 13 8
f 8 13 14
f 8 14 9
f 9 14 15
f 9 15 10
f 11 16 17
f 11 17 12
f 12 17 18
f 12 18 13
f 13 18 19
f 13 19 14
f 14 19 20
f 14 20 15
f 16 21 22
f 16 22 17
f 17 22 23
f 17 23 18
f 18 23 24
f 18 24 19
f 19 24 25
f 19 25 20
