v -0.507970 -0.990153 0.0
v -0.503133 -0.741427 0.0
v -0.504902 -0.990115 0.0
v -0.498121 -0.737296 0.0
v -0.479417 -0.495965 0.0
v -0.254184 -0.990270 0.0
v -0.252144 -0.743277 0.0
v -0.253750 -0.990563 0.0
v -0.248599 -0.747557 0.0
v -0.237996 -0.497133 0.0
v 0.000000 -0.990287 0.0
v 0.000000 -0.743772 0.0
v 0.000000 -0.990758 0.0
v 0.000000 -0.750199 0.0
v 0.000000 -0.500140 0.0
v 0.254184 -0.990270 0.0
v 0.252144 -0.743277 0.0
v 0.253750 -0.990563 0.0
v 0.248599 -0.747557 0.0
v 0.237996 -0.497133 0.0
v 0.507970 -0.990153 0.0
v 0.503133 -0.741427 0.0
v 0.504902 -0.990115 0.0
v 0.498121 -0.737296 0.0
v 0.479417 -0.495965 0.0
v 0.000000 -0.487488 0.0
f 1 6 7
f 1 7 2
f 2 7 8
f 2 8 3
f 3 8 9
f 3 9 4
f 4 9 10
f 4 10 5
f 6 11 12
f 6 12 7
f 7 12 13
f 7 13 8
f 8 13 14
f 8 14 9
f 9 14 15
f 9 15 10
f 11 16 17
f 11 17 12
f 12 17 18
f 12 18 13
f 13 18 19
f 13 19 14
f 14 19 20
f 14 20 15
f 16 21 22
f 16 22 17
f 17 22 23
f 17 23 18
f 18 23 24
f 18 24 19
f 19 24 25
f 19 25 20
