v -0.503869 -0.990034 0.0
v -0.495839 -0.737871 0.0
v -0.501362 -0.990082 0.0
v -0.494182 -0.738940 0.0
v -0.471178 -0.501753 0.0
v -0.251955 -0.990276 0.0
v -0.248963 -0.742214 0.0
v -0.251895 -0.990724 0.0
v -0.245254 -0.750061 0.0
v -0.233014 -0.501793 0.0
v 0.000000 -0.990316 0.0
v 0.000000 -0.742622 0.0
v 0.000000 -0.990961 0.0
v 0.000000 -0.752478 0.0
v 0.000000 -0.502221 0.0
v 0.251955 -0.990276 0.0
v 0.248963 -0.742214 0.0
v 0.251895 -0.990724 0.0
v 0.245254 -0.750061 0.0
v 0.233014 -0.501793 0.0
v 0.503869 -0.990034 0.0
v 0.495839 -0.737871 0.0
v 0.501362 -0.990082 0.0
v 0.494182 -0.738940 0.0
v 0.471178 -0.501753 0.0
v 0.000000 -0.492471 0.0
f 1 6 7
f 1 7 2
f 2 7 8
f 2 8 3
f 3 8 9
f 3 9 4
f 4 9 10
f 4 10 5
f 6 11 12
f 6 12 7
f 7 12 13
f 7 13 8
f 8 13 14
f 8 14 9
f 9 14 15
f 9 15 10
f 11 16 17
f 11 17 12
f 12 17 18
f 12 18 13
f 13 18 19
f 13 19 14
f 14 19 20
f 14 20 15
f 16 21 22
f 16 22 17
f 17 22 23
f 17 23 18
f 18 23 24
f 18 24 19
f 19 24 25
f 19 25 20
