v -0.499610 -0.989901 0.0
v -0.490603 -0.736024 0.0
v -0.498756 -0.990159 0.0
v -0.491849 -0.742692 0.0
v -0.467581 -0.506919 0.0
v -0.249696 -0.990286 0.0
v -0.246450 -0.741337 0.0
v -0.250290 -0.990908 0.0
v -0.242794 -0.753278 0.0
v -0.230652 -0.507056 0.0
v 0.000000 -0.990336 0.0
v 0.000000 -0.741664 0.0
v 0.000000 -0.991163 0.0
v 0.000000 -0.755092 0.0
v 0.000000 -0.506844 0.0
v 0.249696 -0.990286 0.0
v 0.246450 -0.741337 0.0
v 0.250290 -0.990908 0.0
v 0.242794 -0.753278 0.0
v 0.230652 -0.507056 0.0
v 0.499610 -0.989901 0.0
v 0.490603 -0.736024 0.0
v 0.498756 -0.990159 0.0
v 0.491849 -0.742692 0.0
v 0.467581 -0.506919 0.0
v 0.000000 -0.497456 0.0
f 1 6 7
f 1 7 2
f 2 7 8
f 2 8 3
f 3 8 9
f 3 9 4
f 4 9 10
f 4 10 5
f 6 11 12
f 6 12 7
f 7 12 13
f 7 13 8
f 8 13 14
f 8 14 9
f 9 14 15
f 9 15 10
f 11 16 17
f 11 17 12
f 12 17 18
f 12 18 13
f 13 18 19
f 13 19 14
f 14 19 20
f 14 20 15
f 16 21 22
f 16 22 17
f 17 22 23
f 17 23 18
f 18 23 24
f 18 24 19
f 19 24 25
f 19 25 20
