v -0.492579 -0.990053 0.0
v -0.487434 -0.736879 0.0
v -0.497413 -0.990502 0.0
v -0.493173 -0.752403 0.0
v -0.473584 -0.516812 0.0
v -0.245793 -0.990298 0.0
v -0.244191 -0.740340 0.0
v -0.248681 -0.991192 0.0
v -0.242491 -0.759430 0.0
v -0.233908 -0.516975 0.0
v 0.000000 -0.990336 0.0
v 0.000000 -0.740385 0.0
v 0.000000 -0.991392 0.0
v 0.000000 -0.760175 0.0
v 0.000000 -0.516957 0.0
v 0.245793 -0.990298 0.0
v 0.244191 -0.740340 0.0
v 0.248681 -0.991192 0.0
v 0.242491 -0.759430 0.0
v 0.233908 -0.516975 0.0
v 0.492579 -0.990053 0.0
v 0.487434 -0.736879 0.0
v 0.497413 -0.990502 0.0
v 0.493173 -0.752403 0.0
v 0.473584 -0.516812 0.0
v 0.000000 -0.507425 0.0
f 1 6 7
f 1 7 2
f 2 7 8
f 2 8 3
f 3 8 9
f 3 9 4
f 4 9 10
f 4 10 5
f 6 11 12
f 6 12 7
f 7 12 13
f 7 13 8
f 8 13 14
f 8 14 9
f 9 14 15
f 9 15 10
f 11 16 17
f 11 17 12
f 12 17 18
f 12 18 13
f 13 18 19
f 13 19 14
f 14 19 20
f 14 20 15
f 16 21 22
f 16 22 17
f 17 22 23
f 17 23 18
f 18 23 24
f 18 24 19
f 19 24 25
f 19 25 20
