v -0.490666 -0.990174 0.0
v -0.489141 -0.738613 0.0
v -0.498335 -0.990690 0.0
v -0.496926 -0.756989 0.0
v -0.481930 -0.521819 0.0
v -0.244631 -0.990293 0.0
v -0.244554 -0.740255 0.0
v -0.248678 -0.991248 0.0
v -0.244740 -0.761493 0.0
v -0.238842 -0.521867 0.0
v 0.000000 -0.990315 0.0
v 0.000000 -0.740091 0.0
v 0.000000 -0.991395 0.0
v 0.000000 -0.761895 0.0
v 0.000000 -0.521836 0.0
v 0.244631 -0.990293 0.0
v 0.244554 -0.740255 0.0
v 0.248678 -0.991248 0.0
v 0.244740 -0.761493 0.0
v 0.238842 -0.521867 0.0
v 0.490666 -0.990174 0.0
v 0.489141 -0.738613 0.0
v 0.498335 -0.990690 0.0
v 0.496926 -0.756989 0.0
v 0.481930 -0.521819 0.0
v 0.000000 -0.512408 0.0
f 1 6 7
f 1 7 2
f 2 7 8
f 2 8 3
f 3 8 9
f 3 9 4
f 4 9 10
f 4 10 5
f 6 11 12
f 6 12 7
f 7 12 13
f 7 13 8
f 8 13 14
f 8 14 9
f 9 14 15
f 9 15 10
f 11 16 17
f 11 17 12
f 12 17 18
f 12 18 13
f 13 18 19
f 13 19 14
f 14 19 20
f 14 20 15
f 16 21 22
f 16 22 17
f 17 22 23
f 17 23 18
f 18 23 24
f 18 24 19
f 19 24 25
f 19 25 20
