v -0.490219 -0.990258 0.0
v -0.492298 -0.740563 0.0
v -0.499908 -0.990864 0.0
v -0.502364 -0.761125 0.0
v -0.492549 -0.526829 0.0
v -0.244286 -0.990279 0.0
v -0.245745 -0.740426 0.0
v -0.248682 -0.991249 0.0
v -0.248169 -0.762787 0.0
v -0.245160 -0.526769 0.0
v 0.000000 -0.990283 0.0
v 0.000000 -0.740008 0.0
v 0.000000 -0.991335 0.0
v 0.000000 -0.762835 0.0
v 0.000000 -0.526711 0.0
v 0.244286 -0.990279 0.0
v 0.245745 -0.740426 0.0
v 0.248682 -0.991249 0.0
v 0.248169 -0.762787 0.0
v 0.245160 -0.526769 0.0
v 0.490219 -0.990258 0.0
v 0.492298 -0.740563 0.0
v 0.499908 -0.990864 0.0
v 0.502364 -0.761125 0.0
v 0.492549 -0.526829 0.0
v 0.000000 -0.517388 0.0
f 1 6 7
f 1 7 2
f 2 7 8
f 2 8 3
f 3 8 9
f 3 9 4
f 4 9 10
f 4 10 5
f 6 11 12
f 6 12 7
f 7 12 13
f 7 13 8
f 8 13 14
f 8 14 9
f 9 14 15
f 9 15 10
f 11 16 17
f 11 17 12
f 12 17 18
f 12 18 13
f 13 18 19
f 13 19 14
f 14 19 20
f 14 20 15
f 16 21 22
f 16 22 17
f 17 22 23
f 17 23 18
f 18 23 24
f 18 24 19
f 19 24 25
f 19 25 20
