v -0.490960 -0.990325 0.0
v -0.496162 -0.742393 0.0
v -0.501854 -0.991018 0.0
v -0.508873 -0.764918 0.0
v -0.504249 -0.531831 0.0
v -0.244555 -0.990261 0.0
v -0.247480 -0.740810 0.0
v -0.248963 -0.991211 0.0
v -0.252263 -0.763547 0.0
v -0.252110 -0.531672 0.0
v 0.000000 -0.990247 0.0
v 0.000000 -0.740117 0.0
v 0.000000 -0.991233 0.0
v 0.000000 -0.763129 0.0
v 0.000000 -0.531595 0.0
v 0.244555 -0.990261 0.0
v 0.247480 -0.740810 0.0
v 0.248963 -0.991211 0.0
v 0.252263 -0.763547 0.0
v 0.252110 -0.531672 0.0
v 0.490960 -0.990325 0.0
v 0.496162 -0.742393 0.0
v 0.501854 -0.991018 0.0
v 0.508873 -0.764918 0.0
v 0.504249 -0.531831 0.0
v 0.000000 -0.522368 0.0
f 1 6 7
f 1 7 2
f 2 7 8
f 2 8 3
f 3 8 9
f 3 9 4
f 4 9 10
f 4 10 5
f 6 11 12
f 6 12 7
f 7 12 13
f 7 13 8
f 8 13 14
f 8 14 9
f 9 14 15
f 9 15 10
f 11 16 17
f 11 17 12
f 12 17 18
f 12 18 13
f 13 18 19
f 13 19 14
f 14 19 20
f 14 20 15
f 16 21 22
f 16 22 17
f 17 22 23
f 17 23 18
f 18 23 24
f 18 24 19
f 19 24 25
f 19 25 20
