v -0.492732 -0.990376 0.0
v -0.500062 -0.743863 0.0
v -0.503908 -0.991151 0.0
v -0.515772 -0.768509 0.0
v -0.515790 -0.536824 0.0
v -0.245519 -0.990245 0.0
v -0.249421 -0.741349 0.0
v -0.249858 -0.991160 0.0
v -0.256480 -0.764096 0.0
v -0.258940 -0.536577 0.0
v 0.000000 -0.990215 0.0
v 0.000000 -0.740465 0.0
v 0.000000 -0.991120 0.0
v 0.000000 -0.763141 0.0
v 0.000000 -0.536485 0.0
v 0.245519 -0.990245 0.0
v 0.249421 -0.741349 0.0
v 0.249858 -0.991160 0.0
v 0.256480 -0.764096 0.0
v 0.258940 -0.536577 0.0
v 0.492732 -0.990376 0.0
v 0.500062 -0.743863 0.0
v 0.503908 -0.991151 0.0
v 0.515772 -0.768509 0.0
v 0.515790 -0.536824 0.0
v 0.000000 -0.527346 0.0
f 1 6 7
f 1 7 2
f 2 7 8
f 2 8 3
f 3 8 9
f 3 9 4
f 4 9 10
f 4 10 5
f 6 11 12
f 6 12 7
f 7 12 13
f 7 13 8
f 8 13 14
f 8 14 9
f 9 14 15
f 9 15 10
f 11 16 17
f 11 17 12
f 12 17 18
f 12 18 13
f 13 18 19
f 13 19 14
f 14 19 20
f 14 20 15
f 16 21 22
f 16 22 17
f 17 22 23
f 17 23 18
f 18 23 24
f 18 24 19
f 19 24 25
f 19 25 20
