v -0.495288 -0.990402 0.0
v -0.503495 -0.744820 0.0
v -0.505949 -0.991258 0.0
v -0.522352 -0.771974 0.0
v -0.526030 -0.541807 0.0
v -0.247091 -0.990236 0.0
v -0.251266 -0.741988 0.0
v -0.251323 -0.991119 0.0
v -0.260344 -0.764766 0.0
v -0.264978 -0.541488 0.0
v 0.000000 -0.990197 0.0
v 0.000000 -0.741110 0.0
v 0.000000 -0.991029 0.0
v 0.000000 -0.763322 0.0
v 0.000000 -0.541380 0.0
v 0.247091 -0.990236 0.0
v 0.251266 -0.741988 0.0
v 0.251323 -0.991119 0.0
v 0.260344 -0.764766 0.0
v 0.264978 -0.541488 0.0
v 0.495288 -0.990402 0.0
v 0.503495 -0.744820 0.0
v 0.505949 -0.991258 0.0
v 0.522352 -0.771974 0.0
v 0.526030 -0.541807 0.0
v 0.000000 -0.532322 0.0
f 1 6 7
f 1 7 2
f 2 7 8
f 2 8 3
f 3 8 9
f 3 9 4
f 4 9 10
f 4 10 5
f 6 11 12
f 6 12 7
f 7 12 13
f 7 13 8
f 8 13 14
f 8 14 9
f 9 14 15
f 9 15 10
f 11 16 17
f 11 17 12
f 12 17 18
f 12 18 13
f 13 18 19
f 13 19 14
f 14 19 20
f 14 20 15
f 16 21 22
f 16 22 17
f 17 22 23
f 17 23 18
f 18 23 24
f 18 24 19
f 19 24 25
f 19 25 20
