v -0.498323 -0.990402 0.0
v -0.506149 -0.745211 0.0
v -0.507915 -0.991339 0.0
v -0.528011 -0.775309 0.0
v -0.534072 -0.546772 0.0
v -0.249043 -0.990236 0.0
v -0.252813 -0.742680 0.0
v -0.253061 -0.991106 0.0
v -0.263505 -0.765819 0.0
v -0.269707 -0.546405 0.0
v 0.000000 -0.990198 0.0
v 0.000000 -0.742040 0.0
v 0.000000 -0.990986 0.0
v 0.000000 -0.764051 0.0
v 0.000000 -0.546284 0.0
v 0.249043 -0.990236 0.0
v 0.252813 -0.742680 0.0
v 0.253061 -0.991106 0.0
v 0.263505 -0.765819 0.0
v 0.269707 -0.546405 0.0
v 0.498323 -0.990402 0.0
v 0.506149 -0.745211 0.0
v 0.507915 -0.991339 0.0
v 0.528011 -0.775309 0.0
v 0.534072 -0.546772 0.0
v 0.000000 -0.537297 0.0
f 1 6 7
f 1 7 2
f 2 7 8
f 2 8 3
f 3 8 9
f 3 9 4
f 4 9 10
f 4 10 5
f 6 11 12
f 6 12 7
f 7 12 13
f 7 13 8
f 8 13 14
f 8 14 9
f 9 14 15
f 9 15 10
f 11 16 17
f 11 17 12
f 12 17 18
f 12 18 13
f 13 18 19
f 13 19 14
f 14 19 20
f 14 20 15
f 16 21 22
f 16 22 17
f 17 22 23
f 17 23 18
f 18 23 24
f 18 24 19
f 19 24 25
f 19 25 20
