v -0.501497 -0.990381 0.0
v -0.507891 -0.745088 0.0
v -0.509756 -0.991395 0.0
v -0.532340 -0.778454 0.0
v -0.539382 -0.551715 0.0
v -0.251083 -0.990245 0.0
v -0.253968 -0.743384 0.0
v -0.254714 -0.991130 0.0
v -0.265762 -0.767418 0.0
v -0.272821 -0.551325 0.0
v 0.000000 -0.990216 0.0
v 0.000000 -0.743142 0.0
v 0.000000 -0.991004 0.0
v 0.000000 -0.765537 0.0
v 0.000000 -0.551193 0.0
v 0.251083 -0.990245 0.0
v 0.253968 -0.743384 0.0
v 0.254714 -0.991130 0.0
v 0.265762 -0.767418 0.0
v 0.272821 -0.551325 0.0
v 0.501497 -0.990381 0.0
v 0.507891 -0.745088 0.0
v 0.509756 -0.991395 0.0
v 0.532340 -0.778454 0.0
v 0.539382 -0.551715 0.0
v 0.000000 -0.542271 0.0
f 1 6 7
f 1 7 2
f 2 7 8
f 2 8 3
f 3 8 9
f 3 9 4
f 4 9 10
f 4 10 5
f 6 11 12
f 6 12 7
f 7 12 13
f 7 13 8
f 8 13 14
f 8 14 9
f 9 14 15
f 9 15 10
f 11 16 17
f 11 17 12
f 12 17 18
f 12 18 13
f 13 18 19
f 13 19 14
f 14 19 20
f 14 20 15
f 16 21 22
f 16 22 17
f 17 22 23
f 17 23 18
f 18 23 24
f 18 24 19
f 19 24 25
f 19 25 20
