v -0.504463 -0.990345 0.0
v -0.508737 -0.744594 0.0
v -0.511407 -0.991432 0.0
v -0.535160 -0.781341 0.0
v -0.541836 -0.556631 0.0
v -0.252922 -0.990261 0.0
v -0.254728 -0.744059 0.0
v -0.256018 -0.991192 0.0
v -0.267062 -0.769617 0.0
v -0.274250 -0.556242 0.0
v 0.000000 -0.990244 0.0
v 0.000000 -0.744232 0.0
v 0.000000 -0.991079 0.0
v 0.000000 -0.767803 0.0
v 0.000000 -0.556107 0.0
v 0.252922 -0.990261 0.0
v 0.254728 -0.744059 0.0
v 0.256018 -0.991192 0.0
v 0.267062 -0.769617 0.0
v 0.274250 -0.556242 0.0
v 0.504463 -0.990345 0.0
v 0.508737 -0.744594 0.0
v 0.511407 -0.991432 0.0
v 0.535160 -0.781341 0.0
v 0.541836 -0.556631 0.0
v 0.000000 -0.547242 0.0
f 1 6 7
f 1 7 2
f 2 7 8
f 2 8 3
f 3 8 9
f 3 9 4
f 4 9 10
f 4 10 5
f 6 11 12
f 6 12 7
f 7 12 13
f 7 13 8
f 8 13 14
f 8 14 9
f 9 14 15
f 9 15 10
f 11 16 17
f 11 17 12
f 12 17 18
f 12 18 13
f 13 18 19
f 13 19 14
f 14 19 20
f 14 20 15
f 16 21 22
f 16 22 17
f 17 22 23
f 17 23 18
f 18 23 24
f 18 24 19
f 19 24 25
f 19 25 20
