v -0.508597 -0.990267 0.0
v -0.508314 -0.743248 0.0
v -0.513884 -0.991472 0.0
v -0.536674 -0.786214 0.0
v -0.539473 -0.566398 0.0
v -0.255205 -0.990298 0.0
v -0.255254 -0.745134 0.0
v -0.257243 -0.991393 0.0
v -0.267176 -0.775585 0.0
v -0.272803 -0.566057 0.0
v 0.000000 -0.990301 0.0
v 0.000000 -0.745691 0.0
v 0.000000 -0.991332 0.0
v 0.000000 -0.774115 0.0
v 0.000000 -0.565928 0.0
v 0.255205 -0.990298 0.0
v 0.255254 -0.745134 0.0
v 0.257243 -0.991393 0.0
v 0.267176 -0.775585 0.0
v 0.272803 -0.566057 0.0
v 0.508597 -0.990267 0.0
v 0.508314 -0.743248 0.0
v 0.513884 -0.991472 0.0
v 0.536674 -0.786214 0.0
v 0.539473 -0.566398 0.0
v 0.000000 -0.557178 0.0
f 1 6 7
f 1 7 2
f 2 7 8
f 2 8 3
f 3 8 9
f 3 9 4
f 4 9 10
f 4 10 5
f 6 11 12
f 6 12 7
f 7 12 13
f 7 13 8
f 8 13 14
f 8 14 9
f 9 14 15
f 9 15 10
f 11 16 17
f 11 17 12
f 12 17 18
f 12 18 13
f 13 18 19
f 13 19 14
f 14 19 20
f 14 20 15
f 16 21 22
f 16 22 17
f 17 22 23
f 17 23 18
f 18 23 24
f 18 24 19
f 19 24 25
f 19 25 20
