v -0.509391 -0.990229 0.0
v -0.506523 -0.742362 0.0
v -0.514610 -0.991516 0.0
v -0.534973 -0.790130 0.0
v -0.531811 -0.576121 0.0
v -0.255482 -0.990325 0.0
v -0.254846 -0.745543 0.0
v -0.257255 -0.991618 0.0
v -0.265370 -0.782645 0.0
v -0.268195 -0.575845 0.0
v 0.000000 -0.990329 0.0
v 0.000000 -0.745832 0.0
v 0.000000 -0.991611 0.0
v 0.000000 -0.781453 0.0
v 0.000000 -0.575733 0.0
v 0.255482 -0.990325 0.0
v 0.254846 -0.745543 0.0
v 0.257255 -0.991618 0.0
v 0.265370 -0.782645 0.0
v 0.268195 -0.575845 0.0
v 0.509391 -0.990229 0.0
v 0.506523 -0.742362 0.0
v 0.514610 -0.991516 0.0
v 0.534973 -0.790130 0.0
v 0.531811 -0.576121 0.0
v 0.000000 -0.567102 0.0
f 1 6 7
f 1 7 2
f 2 7 8
f 2 8 3
f 3 8 9
f 3 9 4
f 4 9 10
f 4 10 5
f 6 11 12
f 6 12 7
f 7 12 13
f 7 13 8
f 8 13 14
f 8 14 9
f 9 14 15
f 9 15 10
f 11 16 17
f 11 17 12
f 12 17 18
f 12 18 13
f 13 18 19
f 13 19 14
f 14 19 20
f 14 20 15
f 16 21 22
f 16 22 17
f 17 22 23
f 17 23 18
f 18 23 24
f 18 24 19
f 19 24 25
f 19 25 20
