v -0.507994 -0.990228 0.0
v -0.505009 -0.742114 0.0
v -0.514625 -0.991559 0.0
v -0.533609 -0.793715 0.0
v -0.524469 -0.585858 0.0
v -0.254770 -0.990332 0.0
v -0.254059 -0.745306 0.0
v -0.257261 -0.991780 0.0
v -0.263644 -0.789592 0.0
v -0.263743 -0.585638 0.0
v 0.000000 -0.990333 0.0
v 0.000000 -0.745430 0.0
v 0.000000 -0.991817 0.0
v 0.000000 -0.788717 0.0
v 0.000000 -0.585535 0.0
v 0.254770 -0.990332 0.0
v 0.254059 -0.745306 0.0
v 0.257261 -0.991780 0.0
v 0.263644 -0.789592 0.0
v 0.263743 -0.585638 0.0
v 0.507994 -0.990228 0.0
v 0.505009 -0.742114 0.0
v 0.514625 -0.991559 0.0
v 0.533609 -0.793715 0.0
v 0.524469 -0.585858 0.0
v 0.000000 -0.577016 0.0
f 1 6 7
f 1 7 2
f 2 7 8
f 2 8 3
f 3 8 9
f 3 9 4
f 4 9 10
f 4 10 5
f 6 11 12
f 6 12 7
f 7 12 13
f 7 13 8
f 8 13 14
f 8 14 9
f 9 14 15
f 9 15 10
f 11 16 17
f 11 17 12
f 12 17 18
f 12 18 13
f 13 18 19
f 13 19 14
f 14 19 20
f 14 20 15
f 16 21 22
f 16 22 17
f 17 22 23
f 17 23 18
f 18 23 24
f 18 24 19
f 19 24 25
f 19 25 20
