v -0.506882 -0.990238 0.0
v -0.504604 -0.742155 0.0
v -0.514750 -0.991584 0.0
v -0.533864 -0.795631 0.0
v -0.522217 -0.590739 0.0
v -0.254167 -0.990330 0.0
v -0.253744 -0.745113 0.0
v -0.257265 -0.991840 0.0
v -0.263344 -0.792794 0.0
v -0.262366 -0.590540 0.0
v 0.000000 -0.990332 0.0
v 0.000000 -0.745245 0.0
v 0.000000 -0.991894 0.0
v 0.000000 -0.792087 0.0
v 0.000000 -0.590440 0.0
v 0.254167 -0.990330 0.0
v 0.253744 -0.745113 0.0
v 0.257265 -0.991840 0.0
v 0.263344 -0.792794 0.0
v 0.262366 -0.590540 0.0
v 0.506882 -0.990238 0.0
v 0.504604 -0.742155 0.0
v 0.514750 -0.991584 0.0
v 0.533864 -0.795631 0.0
v 0.522217 -0.590739 0.0
v 0.000000 -0.581969 0.0
f 1 6 7
f 1 7 2
f 2 7 8
f 2 8 3
f 3 8 9
f 3 9 4
f 4 9 10
f 4 10 5
f 6 11 12
f 6 12 7
f 7 12 13
f 7 13 8
f 8 13 14
f 8 14 9
f 9 14 15
f 9 15 10
f 11 16 17
f 11 17 12
f 12 17 18
f 12 18 13
f 13 18 19
f 13 19 14
f 14 19 20
f 14 20 15
f 16 21 22
f 16 22 17
f 17 22 23
f 17 23 18
f 18 23 24
f 18 24 19
f 19 24 25
f 19 25 20
