v -0.504052 -0.990287 0.0
v -0.504610 -0.742630 0.0
v -0.515935 -0.991682 0.0
v -0.538968 -0.803040 0.0
v -0.523724 -0.605453 0.0
v -0.252590 -0.990324 0.0
v -0.253538 -0.744838 0.0
v -0.257282 -0.991938 0.0
v -0.265393 -0.800750 0.0
v -0.263267 -0.605273 0.0
v 0.000000 -0.990320 0.0
v 0.000000 -0.744886 0.0
v 0.000000 -0.992002 0.0
v 0.000000 -0.800047 0.0
v 0.000000 -0.605172 0.0
v 0.252590 -0.990324 0.0
v 0.253538 -0.744838 0.0
v 0.257282 -0.991938 0.0
v 0.265393 -0.800750 0.0
v 0.263267 -0.605273 0.0
v 0.504052 -0.990287 0.0
v 0.504610 -0.742630 0.0
v 0.515935 -0.991682 0.0
v 0.538968 -0.803040 0.0
v 0.523724 -0.605453 0.0
v 0.000000 -0.596817 0.0
f 1 6 7
f 1 7 2
f 2 7 8
f 2 8 3
f 3 8 9
f 3 9 4
f 4 9 10
f 4 10 5
f 6 11 12
f 6 12 7
f 7 12 13
f 7 13 8
f 8 13 14
f 8 14 9
f 9 14 15
f 9 15 10
f 11 16 17
f 11 17 12
f 12 17 18
f 12 18 13
f 13 18 19
f 13 19 14
f 14 19 20
f 14 20 15
f 16 21 22
f 16 22 17
f 17 22 23
f 17 23 18
f 18 23 24
f 18 24 19
f 19 24 25
f 19 25 20
