v -0.503742 -0.990317 0.0
v -0.505614 -0.743131 0.0
v -0.516781 -0.991801 0.0
v -0.547527 -0.813450 0.0
v -0.537817 -0.610498 0.0
v -0.252402 -0.990323 0.0
v -0.254090 -0.745065 0.0
v -0.257434 -0.991931 0.0
v -0.270556 -0.803208 0.0
v -0.272240 -0.610259 0.0
v 0.000000 -0.990311 0.0
v 0.000000 -0.744905 0.0
v 0.000000 -0.991932 0.0
v 0.000000 -0.800569 0.0
v 0.000000 -0.610116 0.0
v 0.252402 -0.990323 0.0
v 0.254090 -0.745065 0.0
v 0.257434 -0.991931 0.0
v 0.270556 -0.803208 0.0
v 0.272240 -0.610259 0.0
v 0.503742 -0.990317 0.0
v 0.505614 -0.743131 0.0
v 0.516781 -0.991801 0.0
v 0.547527 -0.813450 0.0
v 0.537817 -0.610498 0.0
v 0.000000 -0.601764 0.0
f 1 6 7
f 1 7 2
f 2 7 8
f 2 8 3
f 3 8 9
f 3 9 4
f 4 9 10
f 4 10 5
f 6 11 12
f 6 12 7
f 7 12 13
f 7 13 8
f 8 13 14
f 8 14 9
f 9 14 15
f 9 15 10
f 11 16 17
f 11 17 12
f 12 17 18
f 12 18 13
f 13 18 19
f 13 19 14
f 14 19 20
f 14 20 15
f 16 21 22
f 16 22 17
f 17 22 23
f 17 23 18
f 18 23 24
f 18 24 19
f 19 24 25
f 19 25 20
