v -0.503752 -0.990317 0.0
v -0.505755 -0.743155 0.0
v -0.516788 -0.991794 0.0
v -0.548160 -0.814024 0.0
v -0.542817 -0.610565 0.0
v -0.252404 -0.990319 0.0
v -0.254130 -0.745016 0.0
v -0.257443 -0.991872 0.0
v -0.271303 -0.799711 0.0
v -0.275286 -0.610245 0.0
v 0.000000 -0.990308 0.0
v 0.000000 -0.744890 0.0
v 0.000000 -0.991839 0.0
v 0.000000 -0.796112 0.0
v 0.000000 -0.610087 0.0
v 0.252404 -0.990319 0.0
v 0.254130 -0.745016 0.0
v 0.257443 -0.991872 0.0
v 0.271303 -0.799711 0.0
v 0.275286 -0.610245 0.0
v 0.503752 -0.990317 0.0
v 0.505755 -0.743155 0.0
v 0.516788 -0.991794 0.0
v 0.548160 -0.814024 0.0
v 0.542817 -0.610565 0.0
v 0.000000 -0.601764 0.0
f 1 6 7
f 1 7 2
f 2 7 8
f 2 8 3
f 3 8 9
f 3 9 4
f 4 9 10
f 4 10 5
f 6 11 12
f 6 12 7
f 7 12 13
f 7 13 8
f 8 13 14
f 8 14 9
f 9 14 15
f 9 15 10
f 11 16 17
f 11 17 12
f 12 17 18
f 12 18 13
f 13 18 19
f 13 19 14
f 14 19 20
f 14 20 15
f 16 21 22
f 16 22 17
f 17 22 23
f 17 23 18
f 18 23 24
f 18 24 19
f 19 24 25
f 19 25 20
