v -0.503775 -0.990305 0.0
v -0.505207 -0.742863 0.0
v -0.516802 -0.991737 0.0
v -0.544927 -0.809538 0.0
v -0.541281 -0.610502 0.0
v -0.252407 -0.990321 0.0
v -0.253926 -0.744964 0.0
v -0.257460 -0.991853 0.0
v -0.269537 -0.797174 0.0
v -0.273576 -0.610153 0.0
v 0.000000 -0.990311 0.0
v 0.000000 -0.744841 0.0
v 0.000000 -0.991831 0.0
v 0.000000 -0.794331 0.0
v 0.000000 -0.610018 0.0
v 0.252407 -0.990321 0.0
v 0.253926 -0.744964 0.0
v 0.257460 -0.991853 0.0
v 0.269537 -0.797174 0.0
v 0.273576 -0.610153 0.0
v 0.503775 -0.990305 0.0
v 0.505207 -0.742863 0.0
v 0.516802 -0.991737 0.0
v 0.544927 -0.809538 0.0
v 0.541281 -0.610502 0.0
v 0.000000 -0.601764 0.0
f 1 6 7
f 1 7 2
f 2 7 8
f 2 8 3
f 3 8 9
f 3 9 4
f 4 9 10
f 4 10 5
f 6 11 12
f 6 12 7
f 7 12 13
f 7 13 8
f 8 13 14
f 8 14 9
f 9 14 15
f 9 15 10
f 11 16 17
f 11 17 12
f 12 17 18
f 12 18 13
f 13 18 19
f 13 19 14
f 14 19 20
f 14 20 15
f 16 21 22
f 16 22 17
f 17 22 23
f 17 23 18
f 18 23 24
f 18 24 19
f 19 24 25
f 19 25 20
