v -0.503794 -0.990305 0.0
v -0.505192 -0.742868 0.0
v -0.516817 -0.991742 0.0
v -0.543674 -0.808828 0.0
v -0.534420 -0.610458 0.0
v -0.252409 -0.990324 0.0
v -0.253912 -0.745020 0.0
v -0.257478 -0.991921 0.0
v -0.268404 -0.800901 0.0
v -0.269619 -0.610195 0.0
v 0.000000 -0.990315 0.0
v 0.000000 -0.744919 0.0
v 0.000000 -0.991939 0.0
v 0.000000 -0.799071 0.0
v 0.000000 -0.610073 0.0
v 0.252409 -0.990324 0.0
v 0.253912 -0.745020 0.0
v 0.257478 -0.991921 0.0
v 0.268404 -0.800901 0.0
v 0.269619 -0.610195 0.0
v 0.503794 -0.990305 0.0
v 0.505192 -0.742868 0.0
v 0.516817 -0.991742 0.0
v 0.543674 -0.808828 0.0
v 0.534420 -0.610458 0.0
v 0.000000 -0.601764 0.0
f 1 6 7
f 1 7 2
f 2 7 8
f 2 8 3
f 3 8 9
f 3 9 4
f 4 9 10
f 4 10 5
f 6 11 12
f 6 12 7
f 7 12 13
f 7 13 8
f 8 13 14
f 8 14 9
f 9 14 15
f 9 15 10
f 11 16 17
f 11 17 12
f 12 17 18
f 12 18 13
f 13 18 19
f 13 19 14
f 14 19 20
f 14 20 15
f 16 21 22
f 16 22 17
f 17 22 23
f 17 23 18
f 18 23 24
f 18 24 19
f 19 24 25
f 19 25 20
