v -0.503817 -0.990310 0.0
v -0.505414 -0.742982 0.0
v -0.516837 -0.991746 0.0
v -0.544198 -0.809175 0.0
v -0.534123 -0.610455 0.0
v -0.252413 -0.990322 0.0
v -0.253995 -0.745016 0.0
v -0.257501 -0.991912 0.0
v -0.268618 -0.800882 0.0
v -0.269685 -0.610198 0.0
v 0.000000 -0.990312 0.0
v 0.000000 -0.744911 0.0
v 0.000000 -0.991927 0.0
v 0.000000 -0.798609 0.0
v 0.000000 -0.610070 0.0
v 0.252413 -0.990322 0.0
v 0.253995 -0.745016 0.0
v 0.257501 -0.991912 0.0
v 0.268618 -0.800882 0.0
v 0.269685 -0.610198 0.0
v 0.503817 -0.990310 0.0
v 0.505414 -0.742982 0.0
v 0.516837 -0.991746 0.0
v 0.544198 -0.809175 0.0
v 0.534123 -0.610455 0.0
v 0.000000 -0.601764 0.0
f 1 6 7
f 1 7 2
f 2 7 8
f 2 8 3
f 3 8 9
f 3 9 4
f 4 9 10
f 4 10 5
f 6 11 12
f 6 12 7
f 7 12 13
f 7 13 8
f 8 13 14
f 8 14 9
f 9 14 15
f 9 15 10
f 11 16 17
f 11 17 12
f 12 17 18
f 12 18 13
f 13 18 19
f 13 19 14
f 14 19 20
f 14 20 15
f 16 21 22
f 16 22 17
f 17 22 23
f 17 23 18
f 18 23 24
f 18 24 19
f 19 24 25
f 19 25 20
