v -0.503821 -0.990309 0.0
v -0.505411 -0.742976 0.0
v -0.516841 -0.991746 0.0
v -0.544415 -0.809253 0.0
v -0.535099 -0.610461 0.0
v -0.252414 -0.990322 0.0
v -0.253997 -0.745013 0.0
v -0.257505 -0.991905 0.0
v -0.268800 -0.800465 0.0
v -0.270227 -0.610194 0.0
v 0.000000 -0.990312 0.0
v 0.000000 -0.744907 0.0
v 0.000000 -0.991914 0.0
v 0.000000 -0.798099 0.0
v 0.000000 -0.610065 0.0
v 0.252414 -0.990322 0.0
v 0.253997 -0.745013 0.0
v 0.257505 -0.991905 0.0
v 0.268800 -0.800465 0.0
v 0.270227 -0.610194 0.0
v 0.503821 -0.990309 0.0
v 0.505411 -0.742976 0.0
v 0.516841 -0.991746 0.0
v 0.544415 -0.809253 0.0
v 0.535099 -0.610461 0.0
v 0.000000 -0.601764 0.0
f 1 6 7
f 1 7 2
f 2 7 8
f 2 8 3
f 3 8 9
f 3 9 4
f 4 9 10
f 4 10 5
f 6 11 12
f 6 12 7
f 7 12 13
f 7 13 8
f 8 13 14
f 8 14 9
f 9 14 15
f 9 15 10
f 11 16 17
f 11 17 12
f 12 17 18
f 12 18 13
f 13 18 19
f 13 19 14
f 14 19 20
f 14 20 15
f 16 21 22
f 16 22 17
f 17 22 23
f 17 23 18
f 18 23 24
f 18 24 19
f 19 24 25
f 19 25 20
