v -0.503852 -0.990307 0.0
v -0.505320 -0.742914 0.0
v -0.516866 -0.991751 0.0
v -0.545207 -0.810288 0.0
v -0.538874 -0.610497 0.0
v -0.252420 -0.990322 0.0
v -0.253976 -0.745010 0.0
v -0.257535 -0.991885 0.0
v -0.269501 -0.799216 0.0
v -0.272371 -0.610190 0.0
v 0.000000 -0.990313 0.0
v 0.000000 -0.744901 0.0
v 0.000000 -0.991877 0.0
v 0.000000 -0.796636 0.0
v 0.000000 -0.610055 0.0
v 0.252420 -0.990322 0.0
v 0.253976 -0.745010 0.0
v 0.257535 -0.991885 0.0
v 0.269501 -0.799216 0.0
v 0.272371 -0.610190 0.0
v 0.503852 -0.990307 0.0
v 0.505320 -0.742914 0.0
v 0.516866 -0.991751 0.0
v 0.545207 -0.810288 0.0
v 0.538874 -0.610497 0.0
v 0.000000 -0.601764 0.0
f 1 6 7
f 1 7 2
f 2 7 8
f 2 8 3
f 3 8 9
f 3 9 4
f 4 9 10
f 4 10 5
f 6 11 12
f 6 12 7
f 7 12 13
f 7 13 8
f 8 13 14
f 8 14 9
f 9 14 15
f 9 15 10
f 11 16 17
f 11 17 12
f 12 17 18
f 12 18 13
f 13 18 19
f 13 19 14
f 14 19 20
f 14 20 15
f 16 21 22
f 16 22 17
f 17 22 23
f 17 23 18
f 18 23 24
f 18 24 19
f 19 24 25
f 19 25 20
