v -0.503856 -0.990307 0.0
v -0.505331 -0.742920 0.0
v -0.516870 -0.991751 0.0
v -0.545122 -0.810270 0.0
v -0.538543 -0.610495 0.0
v -0.252421 -0.990322 0.0
v -0.253980 -0.745013 0.0
v -0.257539 -0.991887 0.0
v -0.269429 -0.799338 0.0
v -0.272196 -0.610191 0.0
v 0.000000 -0.990313 0.0
v 0.000000 -0.744904 0.0
v 0.000000 -0.991880 0.0
v 0.000000 -0.796759 0.0
v 0.000000 -0.610056 0.0
v 0.252421 -0.990322 0.0
v 0.253980 -0.745013 0.0
v 0.257539 -0.991887 0.0
v 0.269429 -0.799338 0.0
v 0.272196 -0.610191 0.0
v 0.503856 -0.990307 0.0
v 0.505331 -0.742920 0.0
v 0.516870 -0.991751 0.0
v 0.545122 -0.810270 0.0
v 0.538543 -0.610495 0.0
v 0.000000 -0.601764 0.0
f 1 6 7
f 1 7 2
f 2 7 8
f 2 8 3
f 3 8 9
f 3 9 4
f 4 9 10
f 4 10 5
f 6 11 12
f 6 12 7
f 7 12 13
f 7 13 8
f 8 13 14
f 8 14 9
f 9 14 15
f 9 15 10
f 11 16 17
f 11 17 12
f 12 17 18
f 12 18 13
f 13 18 19
f 13 19 14
f 14 19 20
f 14 20 15
f 16 21 22
f 16 22 17
f 17 22 23
f 17 23 18
f 18 23 24
f 18 24 19
f 19 24 25
f 19 25 20
