v -0.503869 -0.990308 0.0
v -0.505369 -0.742939 0.0
v -0.516881 -0.991749 0.0
v -0.544726 -0.809852 0.0
v -0.537090 -0.610482 0.0
v -0.252424 -0.990322 0.0
v -0.253993 -0.745020 0.0
v -0.257551 -0.991896 0.0
v -0.269110 -0.799818 0.0
v -0.271357 -0.610192 0.0
v 0.000000 -0.990313 0.0
v 0.000000 -0.744915 0.0
v 0.000000 -0.991897 0.0
v 0.000000 -0.797336 0.0
v 0.000000 -0.610060 0.0
v 0.252424 -0.990322 0.0
v 0.253993 -0.745020 0.0
v 0.257551 -0.991896 0.0
v 0.269110 -0.799818 0.0
v 0.271357 -0.610192 0.0
v 0.503869 -0.990308 0.0
v 0.505369 -0.742939 0.0
v 0.516881 -0.991749 0.0
v 0.544726 -0.809852 0.0
v 0.537090 -0.610482 0.0
v 0.000000 -0.601764 0.0
f 1 6 7
f 1 7 2
f 2 7 8
f 2 8 3
f 3 8 9
f 3 9 4
f 4 9 10
f 4 10 5
f 6 11 12
f 6 12 7
f 7 12 13
f 7 13 8
f 8 13 14
f 8 14 9
f 9 14 15
f 9 15 10
f 11 16 17
f 11 17 12
f 12 17 18
f 12 18 13
f 13 18 19
f 13 19 14
f 14 19 20
f 14 20 15
f 16 21 22
f 16 22 17
f 17 22 23
f 17 23 18
f 18 23 24
f 18 24 19
f 19 24 25
f 19 25 20
