v -0.503890 -0.990307 0.0
v -0.505371 -0.742935 0.0
v -0.516899 -0.991744 0.0
v -0.544445 -0.809333 0.0
v -0.536053 -0.610469 0.0
v -0.252429 -0.990323 0.0
v -0.253995 -0.745028 0.0
v -0.257572 -0.991902 0.0
v -0.268896 -0.800139 0.0
v -0.270698 -0.610191 0.0
v 0.000000 -0.990313 0.0
v 0.000000 -0.744926 0.0
v 0.000000 -0.991909 0.0
v 0.000000 -0.797856 0.0
v 0.000000 -0.610063 0.0
v 0.252429 -0.990323 0.0
v 0.253995 -0.745028 0.0
v 0.257572 -0.991902 0.0
v 0.268896 -0.800139 0.0
v 0.270698 -0.610191 0.0
v 0.503890 -0.990307 0.0
v 0.505371 -0.742935 0.0
v 0.516899 -0.991744 0.0
v 0.544445 -0.809333 0.0
v 0.536053 -0.610469 0.0
v 0.000000 -0.601764 0.0
f 1 6 7
f 1 7 2
f 2 7 8
f 2 8 3
f 3 8 9
f 3 9 4
f 4 9 10
f 4 10 5
f 6 11 12
f 6 12 7
f 7 12 13
f 7 13 8
f 8 13 14
f 8 14 9
f 9 14 15
f 9 15 10
f 11 16 17
f 11 17 12
f 12 17 18
f 12 18 13
f 13 18 19
f 13 19 14
f 14 19 20
f 14 20 15
f 16 21 22
f 16 22 17
f 17 22 23
f 17 23 18
f 18 23 24
f 18 24 19
f 19 24 25
f 19 25 20
