v -0.503898 -0.990307 0.0
v -0.505367 -0.742929 0.0
v -0.516907 -0.991745 0.0
v -0.544587 -0.809497 0.0
v -0.536465 -0.610473 0.0
v -0.252431 -0.990323 0.0
v -0.253996 -0.745029 0.0
v -0.257580 -0.991899 0.0
v -0.269000 -0.800018 0.0
v -0.270947 -0.610191 0.0
v 0.000000 -0.990313 0.0
v 0.000000 -0.744927 0.0
v 0.000000 -0.991904 0.0
v 0.000000 -0.797689 0.0
v 0.000000 -0.610062 0.0
v 0.252431 -0.990323 0.0
v 0.253996 -0.745029 0.0
v 0.257580 -0.991899 0.0
v 0.269000 -0.800018 0.0
v 0.270947 -0.610191 0.0
v 0.503898 -0.990307 0.0
v 0.505367 -0.742929 0.0
v 0.516907 -0.991745 0.0
v 0.544587 -0.809497 0.0
v 0.536465 -0.610473 0.0
v 0.000000 -0.601764 0.0
f 1 6 7
f 1 7 2
f 2 7 8
f 2 8 3
f 3 8 9
f 3 9 4
f 4 9 10
f 4 10 5
f 6 11 12
f 6 12 7
f 7 12 13
f 7 13 8
f 8 13 14
f 8 14 9
f 9 14 15
f 9 15 10
f 11 16 17
f 11 17 12
f 12 17 18
f 12 18 13
f 13 18 19
f 13 19 14
f 14 19 20
f 14 20 15
f 16 21 22
f 16 22 17
f 17 22 23
f 17 23 18
f 18 23 24
f 18 24 19
f 19 24 25
f 19 25 20
