v -0.503910 -0.990307 0.0
v -0.505369 -0.742925 0.0
v -0.516918 -0.991747 0.0
v -0.544816 -0.809754 0.0
v -0.537167 -0.610480 0.0
v -0.252434 -0.990323 0.0
v -0.254001 -0.745030 0.0
v -0.257593 -0.991895 0.0
v -0.269167 -0.799804 0.0
v -0.271374 -0.610192 0.0
v 0.000000 -0.990313 0.0
v 0.000000 -0.744929 0.0
v 0.000000 -0.991896 0.0
v 0.000000 -0.797386 0.0
v 0.000000 -0.610060 0.0
v 0.252434 -0.990323 0.0
v 0.254001 -0.745030 0.0
v 0.257593 -0.991895 0.0
v 0.269167 -0.799804 0.0
v 0.271374 -0.610192 0.0
v 0.503910 -0.990307 0.0
v 0.505369 -0.742925 0.0
v 0.516918 -0.991747 0.0
v 0.544816 -0.809754 0.0
v 0.537167 -0.610480 0.0
v 0.000000 -0.601764 0.0
f 1 6 7
f 1 7 2
f 2 7 8
f 2 8 3
f 3 8 9
f 3 9 4
f 4 9 10
f 4 10 5
f 6 11 12
f 6 12 7
f 7 12 13
f 7 13 8
f 8 13 14
f 8 14 9
f 9 14 15
f 9 15 10
f 11 16 17
f 11 17 12
f 12 17 18
f 12 18 13
f 13 18 19
f 13 19 14
f 14 19 20
f 14 20 15
f 16 21 22
f 16 22 17
f 17 22 23
f 17 23 18
f 18 23 24
f 18 24 19
f 19 24 25
f 19 25 20
