v -0.502595 -0.992400 0.0
v -0.506339 -0.785004 0.0
v -0.501936 -0.546046 0.0
v -0.500549 -0.299145 0.0
v -0.500131 -0.049972 0.0
v -0.250239 -0.992651 0.0
v -0.251230 -0.782552 0.0
v -0.250940 -0.545567 0.0
v -0.250277 -0.299060 0.0
v -0.250074 -0.049936 0.0
v 0.000000 -0.992668 0.0
v 0.000000 -0.782317 0.0
v 0.000000 -0.545074 0.0
v -0.000000 -0.298983 0.0
v -0.000000 -0.049921 0.0
v 0.250239 -0.992651 0.0
v 0.251230 -0.782552 0.0
v 0.250940 -0.545567 0.0
v 0.250277 -0.299060 0.0
v 0.250074 -0.049936 0.0
v 0.502595 -0.992400 0.0
v 0.506339 -0.785004 0.0
v 0.501936 -0.546046 0.0
v 0.500549 -0.299145 0.0
v 0.500131 -0.049972 0.0
v 0.000000 0.434973 0.0
f 1 6 7
f 1 7 2
f 2 7 8
f 2 8 3
f 3 8 9
f 3 9 4
f 4 9 10
f 4 10 5
f 6 11 12
f 6 12 7
f 7 12 13
f 7 13 8
f 8 13 14
f 8 14 9
f 9 14 15
f 9 15 10
f 11 16 17
f 11 17 12
f 12 17 18
f 12 18 13
f 13 18 19
f 13 19 14
f 14 19 20
f 14 20 15
f 16 21 22
f 16 22 17
f 17 22 23
f 17 23 18
f 18 23 24
f 18 24 19
f 19 24 25
f 19 25 20
