v -0.504973 -0.991702 0.0
v -0.514101 -0.800901 0.0
v -0.505368 -0.572062 0.0
v -0.501807 -0.329730 0.0
v -0.500496 -0.082220 0.0
v -0.250243 -0.992013 0.0
v -0.253412 -0.796445 0.0
v -0.252671 -0.571274 0.0
v -0.250903 -0.329617 0.0
v -0.250279 -0.082125 0.0
v 0.000000 -0.992053 0.0
v 0.000000 -0.795833 0.0
v 0.000000 -0.570085 0.0
v -0.000000 -0.329421 0.0
v -0.000000 -0.082083 0.0
v 0.250243 -0.992013 0.0
v 0.253412 -0.796445 0.0
v 0.252671 -0.571274 0.0
v 0.250903 -0.329617 0.0
v 0.250279 -0.082125 0.0
v 0.504973 -0.991702 0.0
v 0.514101 -0.800901 0.0
v 0.505368 -0.572062 0.0
v 0.501807 -0.329730 0.0
v 0.500496 -0.082220 0.0
v 0.000000 0.429972 0.0
f 1 6 7
f 1 7 2
f 2 7 8
f 2 8 3
f 3 8 9
f 3 9 4
f 4 9 10
f 4 10 5
f 6 11 12
f 6 12 7
f 7 12 13
f 7 13 8
f 8 13 14
f 8 14 9
f 9 14 15
f 9 15 10
f 11 16 17
f 11 17 12
f 12 17 18
f 12 18 13
f 13 18 19
f 13 19 14
f 14 19 20
f 14 20 15
f 16 21 22
f 16 22 17
f 17 22 23
f 17 23 18
f 18 23 24
f 18 24 19
f 19 24 25
f 19 25 20
