v -0.509065 -0.991778 0.0
v -0.524198 -0.812460 0.0
v -0.511103 -0.594287 0.0
v -0.504293 -0.358438 0.0
v -0.501333 -0.113820 0.0
v -0.251148 -0.992052 0.0
v -0.257201 -0.806191 0.0
v -0.255651 -0.593640 0.0
v -0.252136 -0.358536 0.0
v -0.250749 -0.113683 0.0
v 0.000000 -0.992109 0.0
v 0.000000 -0.804914 0.0
v 0.000000 -0.591567 0.0
v 0.000000 -0.358209 0.0
v -0.000000 -0.113615 0.0
v 0.251148 -0.992052 0.0
v 0.257201 -0.806191 0.0
v 0.255651 -0.593640 0.0
v 0.252136 -0.358536 0.0
v 0.250749 -0.113683 0.0
v 0.509065 -0.991778 0.0
v 0.524198 -0.812460 0.0
v 0.511103 -0.594287 0.0
v 0.504293 -0.358438 0.0
v 0.501333 -0.113820 0.0
v 0.000000 0.424971 0.0
f 1 6 7
f 1 7 2
f 2 7 8
f 2 8 3
f 3 8 9
f 3 9 4
f 4 9 10
f 4 10 5
f 6 11 12
f 6 12 7
f 7 12 13
f 7 13 8
f 8 13 14
f 8 14 9
f 9 14 15
f 9 15 10
f 11 16 17
f 11 17 12
f 12 17 18
f 12 18 13
f 13 18 19
f 13 19 14
f 14 19 20
f 14 20 15
f 16 21 22
f 16 22 17
f 17 22 23
f 17 23 18
f 18 23 24
f 18 24 19
f 19 24 25
f 19 25 20
