v -0.514287 -0.991925 0.0
v -0.535538 -0.820897 0.0
v -0.519102 -0.612525 0.0
v -0.508247 -0.384331 0.0
v -0.502840 -0.143709 0.0
v -0.253532 -0.992127 0.0
v -0.262463 -0.813241 0.0
v -0.259904 -0.612860 0.0
v -0.254112 -0.385173 0.0
v -0.251597 -0.143685 0.0
v 0.000000 -0.992188 0.0
v 0.000000 -0.811149 0.0
v 0.000000 -0.609981 0.0
v 0.000000 -0.384799 0.0
v -0.000000 -0.143644 0.0
v 0.253532 -0.992127 0.0
v 0.262463 -0.813241 0.0
v 0.259904 -0.612860 0.0
v 0.254112 -0.385173 0.0
v 0.251597 -0.143685 0.0
v 0.514287 -0.991925 0.0
v 0.535538 -0.820897 0.0
v 0.519102 -0.612525 0.0
v 0.508247 -0.384331 0.0
v 0.502840 -0.143709 0.0
v 0.000000 0.419970 0.0
f 1 6 7
f 1 7 2
f 2 7 8
f 2 8 3
f 3 8 9
f 3 9 4
f 4 9 10
f 4 10 5
f 6 11 12
f 6 12 7
f 7 12 13
f 7 13 8
f 8 13 14
f 8 14 9
f 9 14 15
f 9 15 10
f 11 16 17
f 11 17 12
f 12 17 18
f 12 18 13
f 13 18 19
f 13 19 14
f 14 19 20
f 14 20 15
f 16 21 22
f 16 22 17
f 17 22 23
f 17 23 18
f 18 23 24
f 18 24 19
f 19 24 25
f 19 25 20
