v -0.531791 -0.991999 0.0
v -0.566580 -0.836555 0.0
v -0.550092 -0.646681 0.0
v -0.526711 -0.440155 0.0
v -0.511324 -0.212956 0.0
v -0.266496 -0.992023 0.0
v -0.280482 -0.826210 0.0
v -0.276812 -0.655582 0.0
v -0.263820 -0.448290 0.0
v -0.256383 -0.216620 0.0
v 0.000000 -0.992041 0.0
v -0.000000 -0.823080 0.0
v 0.000000 -0.653343 0.0
v 0.000000 -0.449465 0.0
v -0.000000 -0.217976 0.0
v 0.266496 -0.992023 0.0
v 0.280482 -0.826210 0.0
v 0.276812 -0.655582 0.0
v 0.263820 -0.448290 0.0
v 0.256383 -0.216620 0.0
v 0.531791 -0.991999 0.0
v 0.566580 -0.836555 0.0
v 0.550092 -0.646681 0.0
v 0.526711 -0.440155 0.0
v 0.511324 -0.212956 0.0
v 0.000000 0.404967 0.0
f 1 6 7
f 1 7 2
f 2 7 8
f 2 8 3
f 3 8 9
f 3 9 4
f 4 9 10
f 4 10 5
f 6 11 12
f 6 12 7
f 7 12 13
f 7 13 8
f 8 13 14
f 8 14 9
f 9 14 15
f 9 15 10
f 11 16 17
f 11 17 12
f 12 17 18
f 12 18 13
f 13 18 19
f 13 19 14
f 14 19 20
f 14 20 15
f 16 21 22
f 16 22 17
f 17 22 23
f 17 23 18
f 18 23 24
f 18 24 19
f 19 24 25
f 19 25 20
