v -0.537074 -0.992001 0.0
v -0.573469 -0.840413 0.0
v -0.559379 -0.653021 0.0
v -0.533100 -0.451159 0.0
v -0.514542 -0.227017 0.0
v -0.270489 -0.991997 0.0
v -0.284885 -0.828999 0.0
v -0.281988 -0.665616 0.0
v -0.267435 -0.463164 0.0
v -0.258185 -0.233684 0.0
v 0.000000 -0.991997 0.0
v -0.000000 -0.826403 0.0
v -0.000000 -0.664863 0.0
v -0.000000 -0.465619 0.0
v -0.000000 -0.236260 0.0
v 0.270489 -0.991997 0.0
v 0.284885 -0.828999 0.0
v 0.281988 -0.665616 0.0
v 0.267435 -0.463164 0.0
v 0.258185 -0.233684 0.0
v 0.537074 -0.992001 0.0
v 0.573469 -0.840413 0.0
v 0.559379 -0.653021 0.0
v 0.533100 -0.451159 0.0
v 0.514542 -0.227017 0.0
v 0.000000 0.399966 0.0
f 1 6 7
f 1 7 2
f 2 7 8
f 2 8 3
f 3 8 9
f 3 9 4
f 4 9 10
f 4 10 5
f 6 11 12
f 6 12 7
f 7 12 13
f 7 13 8
f 8 13 14
f 8 14 9
f 9 14 15
f 9 15 10
f 11 16 17
f 11 17 12
f 12 17 18
f 12 18 13
f 13 18 19
f 13 19 14
f 14 19 20
f 14 20 15
f 16 21 22
f 16 22 17
f 17 22 23
f 17 23 18
f 18 23 24
f 18 24 19
f 19 24 25
f 19 25 20
