v -0.541464 -0.991998 0.0
v -0.578053 -0.844006 0.0
v -0.566548 -0.657725 0.0
v -0.538442 -0.458639 0.0
v -0.517163 -0.236242 0.0
v -0.273379 -0.991986 0.0
v -0.287902 -0.831285 0.0
v -0.286077 -0.673577 0.0
v -0.270620 -0.474682 0.0
v -0.259634 -0.246780 0.0
v 0.000000 -0.991972 0.0
v -0.000000 -0.829480 0.0
v -0.000000 -0.674669 0.0
v -0.000000 -0.478721 0.0
v -0.000000 -0.250971 0.0
v 0.273379 -0.991986 0.0
v 0.287902 -0.831285 0.0
v 0.286077 -0.673577 0.0
v 0.270620 -0.474682 0.0
v 0.259634 -0.246780 0.0
v 0.541464 -0.991998 0.0
v 0.578053 -0.844006 0.0
v 0.566548 -0.657725 0.0
v 0.538442 -0.458639 0.0
v 0.517163 -0.236242 0.0
v 0.000000 0.394965 0.0
f 1 6 7
f 1 7 2
f 2 7 8
f 2 8 3
f 3 8 9
f 3 9 4
f 4 9 10
f 4 10 5
f 6 11 12
f 6 12 7
f 7 12 13
f 7 13 8
f 8 13 14
f 8 14 9
f 9 14 15
f 9 15 10
f 11 16 17
f 11 17 12
f 12 17 18
f 12 18 13
f 13 18 19
f 13 19 14
f 14 19 20
f 14 20 15
f 16 21 22
f 16 22 17
f 17 22 23
f 17 23 18
f 18 23 24
f 18 24 19
f 19 24 25
f 19 25 20
