v -0.544597 -0.991993 0.0
v -0.580392 -0.847346 0.0
v -0.571089 -0.661143 0.0
v -0.542214 -0.462876 0.0
v -0.518699 -0.240862 0.0
v -0.275000 -0.991988 0.0
v -0.289556 -0.833165 0.0
v -0.288803 -0.679355 0.0
v -0.273045 -0.482685 0.0
v -0.260460 -0.255834 0.0
v 0.000000 -0.991963 0.0
v -0.000000 -0.832126 0.0
v -0.000000 -0.682327 0.0
v -0.000000 -0.488461 0.0
v -0.000000 -0.261906 0.0
v 0.275000 -0.991988 0.0
v 0.289556 -0.833165 0.0
v 0.288803 -0.679355 0.0
v 0.273045 -0.482685 0.0
v 0.260460 -0.255834 0.0
v 0.544597 -0.991993 0.0
v 0.580392 -0.847346 0.0
v 0.571089 -0.661143 0.0
v 0.542214 -0.462876 0.0
v 0.518699 -0.240862 0.0
v 0.000000 0.389964 0.0
f 1 6 7
f 1 7 2
f 2 7 8
f 2 8 3
f 3 8 9
f 3 9 4
f 4 9 10
f 4 10 5
f 6 11 12
f 6 12 7
f 7 12 13
f 7 13 8
f 8 13 14
f 8 14 9
f 9 14 15
f 9 15 10
f 11 16 17
f 11 17 12
f 12 17 18
f 12 18 13
f 13 18 19
f 13 19 14
f 14 19 20
f 14 20 15
f 16 21 22
f 16 22 17
f 17 22 23
f 17 23 18
f 18 23 24
f 18 24 19
f 19 24 25
f 19 25 20
