v -0.546224 -0.991990 0.0
v -0.579645 -0.852721 0.0
v -0.572272 -0.664467 0.0
v -0.544144 -0.462674 0.0
v -0.517357 -0.238034 0.0
v -0.275404 -0.992026 0.0
v -0.289485 -0.835902 0.0
v -0.290068 -0.683850 0.0
v -0.274885 -0.487778 0.0
v -0.259659 -0.261590 0.0
v 0.000000 -0.991991 0.0
v -0.000000 -0.835390 0.0
v -0.000000 -0.689403 0.0
v -0.000000 -0.496733 0.0
v -0.000000 -0.271395 0.0
v 0.275404 -0.992026 0.0
v 0.289485 -0.835902 0.0
v 0.290068 -0.683850 0.0
v 0.274885 -0.487778 0.0
v 0.259659 -0.261590 0.0
v 0.546224 -0.991990 0.0
v 0.579645 -0.852721 0.0
v 0.572272 -0.664467 0.0
v 0.544144 -0.462674 0.0
v 0.517357 -0.238034 0.0
v 0.000000 0.379962 0.0
f 1 6 7
f 1 7 2
f 2 7 8
f 2 8 3
f 3 8 9
f 3 9 4
f 4 9 10
f 4 10 5
f 6 11 12
f 6 12 7
f 7 12 13
f 7 13 8
f 8 13 14
f 8 14 9
f 9 14 15
f 9 15 10
f 11 16 17
f 11 17 12
f 12 17 18
f 12 18 13
f 13 18 19
f 13 19 14
f 14 19 20
f 14 20 15
f 16 21 22
f 16 22 17
f 17 22 23
f 17 23 18
f 18 23 24
f 18 24 19
f 19 24 25
f 19 25 20
