v -0.546224 -0.991983 0.0
v -0.577451 -0.854166 0.0
v -0.569635 -0.664030 0.0
v -0.542482 -0.458604 0.0
v -0.514448 -0.231585 0.0
v -0.275404 -0.992047 0.0
v -0.288186 -0.836782 0.0
v -0.288973 -0.682362 0.0
v -0.274320 -0.484881 0.0
v -0.258037 -0.258251 0.0
v 0.000000 -0.992017 0.0
v -0.000000 -0.835973 0.0
v -0.000000 -0.688198 0.0
v -0.000000 -0.494924 0.0
v -0.000000 -0.269452 0.0
v 0.275404 -0.992047 0.0
v 0.288186 -0.836782 0.0
v 0.288973 -0.682362 0.0
v 0.274320 -0.484881 0.0
v 0.258037 -0.258251 0.0
v 0.546224 -0.991983 0.0
v 0.577451 -0.854166 0.0
v 0.569635 -0.664030 0.0
v 0.542482 -0.458604 0.0
v 0.514448 -0.231585 0.0
v 0.000000 0.374961 0.0
f 1 6 7
f 1 7 2
f 2 7 8
f 2 8 3
f 3 8 9
f 3 9 4
f 4 9 10
f 4 10 5
f 6 11 12
f 6 12 7
f 7 12 13
f 7 13 8
f 8 13 14
f 8 14 9
f 9 14 15
f 9 15 10
f 11 16 17
f 11 17 12
f 12 17 18
f 12 18 13
f 13 18 19
f 13 19 14
f 14 19 20
f 14 20 15
f 16 21 22
f 16 22 17
f 17 22 23
f 17 23 18
f 18 23 24
f 18 24 19
f 19 24 25
f 19 25 20
