v -0.546226 -0.991974 0.0
v -0.574545 -0.854213 0.0
v -0.565545 -0.661726 0.0
v -0.539497 -0.452022 0.0
v -0.510418 -0.222367 0.0
v -0.275403 -0.992070 0.0
v -0.286387 -0.837271 0.0
v -0.287070 -0.678313 0.0
v -0.272955 -0.478489 0.0
v -0.255802 -0.250844 0.0
v 0.000000 -0.992048 0.0
v -0.000000 -0.835953 0.0
v -0.000000 -0.683711 0.0
v -0.000000 -0.489118 0.0
v -0.000000 -0.262889 0.0
v 0.275403 -0.992070 0.0
v 0.286387 -0.837271 0.0
v 0.287070 -0.678313 0.0
v 0.272955 -0.478489 0.0
v 0.255802 -0.250844 0.0
v 0.546226 -0.991974 0.0
v 0.574545 -0.854213 0.0
v 0.565545 -0.661726 0.0
v 0.539497 -0.452022 0.0
v 0.510418 -0.222367 0.0
v 0.000000 0.369960 0.0
f 1 6 7
f 1 7 2
f 2 7 8
f 2 8 3
f 3 8 9
f 3 9 4
f 4 9 10
f 4 10 5
f 6 11 12
f 6 12 7
f 7 12 13
f 7 13 8
f 8 13 14
f 8 14 9
f 9 14 15
f 9 15 10
f 11 16 17
f 11 17 12
f 12 17 18
f 12 18 13
f 13 18 19
f 13 19 14
f 14 19 20
f 14 20 15
f 16 21 22
f 16 22 17
f 17 22 23
f 17 23 18
f 18 23 24
f 18 24 19
f 19 24 25
f 19 25 20
