v -0.546227 -0.991964 0.0
v -0.571174 -0.852341 0.0
v -0.560496 -0.657139 0.0
v -0.535588 -0.442981 0.0
v -0.505782 -0.210707 0.0
v -0.275401 -0.992091 0.0
v -0.284312 -0.837132 0.0
v -0.284573 -0.671729 0.0
v -0.270977 -0.468777 0.0
v -0.253227 -0.239547 0.0
v 0.000000 -0.992080 0.0
v -0.000000 -0.835319 0.0
v -0.000000 -0.676126 0.0
v -0.000000 -0.479428 0.0
v -0.000000 -0.251790 0.0
v 0.275401 -0.992091 0.0
v 0.284312 -0.837132 0.0
v 0.284573 -0.671729 0.0
v 0.270977 -0.468777 0.0
v 0.253227 -0.239547 0.0
v 0.546227 -0.991964 0.0
v 0.571174 -0.852341 0.0
v 0.560496 -0.657139 0.0
v 0.535588 -0.442981 0.0
v 0.505782 -0.210707 0.0
v 0.000000 0.364959 0.0
f 1 6 7
f 1 7 2
f 2 7 8
f 2 8 3
f 3 8 9
f 3 9 4
f 4 9 10
f 4 10 5
f 6 11 12
f 6 12 7
f 7 12 13
f 7 13 8
f 8 13 14
f 8 14 9
f 9 14 15
f 9 15 10
f 11 16 17
f 11 17 12
f 12 17 18
f 12 18 13
f 13 18 19
f 13 19 14
f 14 19 20
f 14 20 15
f 16 21 22
f 16 22 17
f 17 22 23
f 17 23 18
f 18 23 24
f 18 24 19
f 19 24 25
f 19 25 20
