v -0.546228 -0.991952 0.0
v -0.567458 -0.848029 0.0
v -0.554870 -0.649903 0.0
v -0.531137 -0.431526 0.0
v -0.501126 -0.196840 0.0
v -0.275399 -0.992106 0.0
v -0.282114 -0.835918 0.0
v -0.281635 -0.662689 0.0
v -0.268568 -0.455946 0.0
v -0.250626 -0.224647 0.0
v 0.000000 -0.992106 0.0
v -0.000000 -0.833879 0.0
v -0.000000 -0.665840 0.0
v -0.000000 -0.466068 0.0
v -0.000000 -0.236423 0.0
v 0.275399 -0.992106 0.0
v 0.282114 -0.835918 0.0
v 0.281635 -0.662689 0.0
v 0.268568 -0.455946 0.0
v 0.250626 -0.224647 0.0
v 0.546228 -0.991952 0.0
v 0.567458 -0.848029 0.0
v 0.554870 -0.649903 0.0
v 0.531137 -0.431526 0.0
v 0.501126 -0.196840 0.0
v 0.000000 0.359958 0.0
f 1 6 7
f 1 7 2
f 2 7 8
f 2 8 3
f 3 8 9
f 3 9 4
f 4 9 10
f 4 10 5
f 6 11 12
f 6 12 7
f 7 12 13
f 7 13 8
f 8 13 14
f 8 14 9
f 9 14 15
f 9 15 10
f 11 16 17
f 11 17 12
f 12 17 18
f 12 18 13
f 13 18 19
f 13 19 14
f 14 19 20
f 14 20 15
f 16 21 22
f 16 22 17
f 17 22 23
f 17 23 18
f 18 23 24
f 18 24 19
f 19 24 25
f 19 25 20
