v -0.546229 -0.991930 0.0
v -0.563408 -0.840855 0.0
v -0.548931 -0.639772 0.0
v -0.526460 -0.417719 0.0
v -0.497007 -0.180943 0.0
v -0.275396 -0.992110 0.0
v -0.279886 -0.833020 0.0
v -0.278343 -0.651303 0.0
v -0.265873 -0.440226 0.0
v -0.248302 -0.206522 0.0
v 0.000000 -0.992120 0.0
v -0.000000 -0.831236 0.0
v -0.000000 -0.653365 0.0
v -0.000000 -0.449356 0.0
v -0.000000 -0.217227 0.0
v 0.275396 -0.992110 0.0
v 0.279886 -0.833020 0.0
v 0.278343 -0.651303 0.0
v 0.265873 -0.440226 0.0
v 0.248302 -0.206522 0.0
v 0.546229 -0.991930 0.0
v 0.563408 -0.840855 0.0
v 0.548931 -0.639772 0.0
v 0.526460 -0.417719 0.0
v 0.497007 -0.180943 0.0
v 0.000000 0.354957 0.0
f 1 6 7
f 1 7 2
f 2 7 8
f 2 8 3
f 3 8 9
f 3 9 4
f 4 9 10
f 4 10 5
f 6 11 12
f 6 12 7
f 7 12 13
f 7 13 8
f 8 13 14
f 8 14 9
f 9 14 15
f 9 15 10
f 11 16 17
f 11 17 12
f 12 17 18
f 12 18 13
f 13 18 19
f 13 19 14
f 14 19 20
f 14 20 15
f 16 21 22
f 16 22 17
f 17 22 23
f 17 23 18
f 18 23 24
f 18 24 19
f 19 24 25
f 19 25 20
