v -0.546230 -0.991885 0.0
v -0.558962 -0.830637 0.0
v -0.542849 -0.626659 0.0
v -0.521787 -0.401659 0.0
v -0.493872 -0.163163 0.0
v -0.275394 -0.992093 0.0
v -0.277685 -0.827822 0.0
v -0.274756 -0.637657 0.0
v -0.263002 -0.421868 0.0
v -0.246501 -0.185610 0.0
v 0.000000 -0.992114 0.0
v -0.000000 -0.826871 0.0
v -0.000000 -0.639150 0.0
v -0.000000 -0.429697 0.0
v -0.000000 -0.194767 0.0
v 0.275394 -0.992093 0.0
v 0.277685 -0.827822 0.0
v 0.274756 -0.637657 0.0
v 0.263002 -0.421868 0.0
v 0.246501 -0.185610 0.0
v 0.546230 -0.991885 0.0
v 0.558962 -0.830637 0.0
v 0.542849 -0.626659 0.0
v 0.521787 -0.401659 0.0
v 0.493872 -0.163163 0.0
v 0.000000 0.349956 0.0
f 1 6 7
f 1 7 2
f 2 7 8
f 2 8 3
f 3 8 9
f 3 9 4
f 4 9 10
f 4 10 5
f 6 11 12
f 6 12 7
f 7 12 13
f 7 13 8
f 8 13 14
f 8 14 9
f 9 14 15
f 9 15 10
f 11 16 17
f 11 17 12
f 12 17 18
f 12 18 13
f 13 18 19
f 13 19 14
f 14 19 20
f 14 20 15
f 16 21 22
f 16 22 17
f 17 22 23
f 17 23 18
f 18 23 24
f 18 24 19
f 19 24 25
f 19 25 20
