v -0.546224 -0.991634 0.0
v -0.548483 -0.802437 0.0
v -0.530729 -0.592115 0.0
v -0.513046 -0.363395 0.0
v -0.491449 -0.122575 0.0
v -0.275390 -0.991928 0.0
v -0.273424 -0.809496 0.0
v -0.267006 -0.603800 0.0
v -0.257096 -0.378360 0.0
v -0.244964 -0.137275 0.0
v 0.000000 -0.991981 0.0
v -0.000000 -0.811473 0.0
v -0.000000 -0.606173 0.0
v -0.000000 -0.383415 0.0
v -0.000000 -0.142622 0.0
v 0.275390 -0.991928 0.0
v 0.273424 -0.809496 0.0
v 0.267006 -0.603800 0.0
v 0.257096 -0.378360 0.0
v 0.244964 -0.137275 0.0
v 0.546224 -0.991634 0.0
v 0.548483 -0.802437 0.0
v 0.530729 -0.592115 0.0
v 0.513046 -0.363395 0.0
v 0.491449 -0.122575 0.0
v 0.000000 0.339954 0.0
f 1 6 7
f 1 7 2
f 2 7 8
f 2 8 3
f 3 8 9
f 3 9 4
f 4 9 10
f 4 10 5
f 6 11 12
f 6 12 7
f 7 12 13
f 7 13 8
f 8 13 14
f 8 14 9
f 9 14 15
f 9 15 10
f 11 16 17
f 11 17 12
f 12 17 18
f 12 18 13
f 13 18 19
f 13 19 14
f 14 19 20
f 14 20 15
f 16 21 22
f 16 22 17
f 17 22 23
f 17 23 18
f 18 23 24
f 18 24 19
f 19 24 25
f 19 25 20
