v -0.545688 -0.991380 0.0
v -0.542292 -0.786346 0.0
v -0.524855 -0.571582 0.0
v -0.509178 -0.341638 0.0
v -0.492132 -0.100130 0.0
v -0.275387 -0.991739 0.0
v -0.271272 -0.797086 0.0
v -0.263086 -0.583857 0.0
v -0.254296 -0.353838 0.0
v -0.245207 -0.110739 0.0
v 0.000000 -0.991815 0.0
v 0.000000 -0.800550 0.0
v 0.000000 -0.587307 0.0
v -0.000000 -0.357724 0.0
v -0.000000 -0.114208 0.0
v 0.275387 -0.991739 0.0
v 0.271272 -0.797086 0.0
v 0.263086 -0.583857 0.0
v 0.254296 -0.353838 0.0
v 0.245207 -0.110739 0.0
v 0.545688 -0.991380 0.0
v 0.542292 -0.786346 0.0
v 0.524855 -0.571582 0.0
v 0.509178 -0.341638 0.0
v 0.492132 -0.100130 0.0
v 0.000000 0.334953 0.0
f 1 6 7
f 1 7 2
f 2 7 8
f 2 8 3
f 3 8 9
f 3 9 4
f 4 9 10
f 4 10 5
f 6 11 12
f 6 12 7
f 7 12 13
f 7 13 8
f 8 13 14
f 8 14 9
f 9 14 15
f 9 15 10
f 11 16 17
f 11 17 12
f 12 17 18
f 12 18 13
f 13 18 19
f 13 19 14
f 14 19 20
f 14 20 15
f 16 21 22
f 16 22 17
f 17 22 23
f 17 23 18
f 18 23 24
f 18 24 19
f 19 24 25
f 19 25 20
