v -0.543768 -0.991037 0.0
v -0.535491 -0.770674 0.0
v -0.519135 -0.549927 0.0
v -0.505737 -0.318564 0.0
v -0.493781 -0.076543 0.0
v -0.275378 -0.991460 0.0
v -0.268913 -0.783690 0.0
v -0.259336 -0.562452 0.0
v -0.251795 -0.327985 0.0
v -0.245971 -0.083180 0.0
v 0.000000 -0.991563 0.0
v 0.000000 -0.788246 0.0
v 0.000000 -0.566901 0.0
v -0.000000 -0.330929 0.0
v -0.000000 -0.084998 0.0
v 0.275378 -0.991460 0.0
v 0.268913 -0.783690 0.0
v 0.259336 -0.562452 0.0
v 0.251795 -0.327985 0.0
v 0.245971 -0.083180 0.0
v 0.543768 -0.991037 0.0
v 0.535491 -0.770674 0.0
v 0.519135 -0.549927 0.0
v 0.505737 -0.318564 0.0
v 0.493781 -0.076543 0.0
v 0.000000 0.329952 0.0
f 1 6 7
f 1 7 2
f 2 7 8
f 2 8 3
f 3 8 9
f 3 9 4
f 4 9 10
f 4 10 5
f 6 11 12
f 6 12 7
f 7 12 13
f 7 13 8
f 8 13 14
f 8 14 9
f 9 14 15
f 9 15 10
f 11 16 17
f 11 17 12
f 12 17 18
f 12 18 13
f 13 18 19
f 13 19 14
f 14 19 20
f 14 20 15
f 16 21 22
f 16 22 17
f 17 22 23
f 17 23 18
f 18 23 24
f 18 24 19
f 19 24 25
f 19 25 20
