v -0.533214 -0.990228 0.0
v -0.520163 -0.744987 0.0
v -0.507880 -0.507762 0.0
v -0.500163 -0.270613 0.0
v -0.498469 -0.027145 0.0
v -0.271090 -0.990680 0.0
v -0.262724 -0.757650 0.0
v -0.252755 -0.518561 0.0
v -0.248168 -0.274606 0.0
v -0.248340 -0.026777 0.0
v 0.000000 -0.990815 0.0
v 0.000000 -0.762428 0.0
v 0.000000 -0.523434 0.0
v -0.000000 -0.276146 0.0
v -0.000000 -0.026282 0.0
v 0.271090 -0.990680 0.0
v 0.262724 -0.757650 0.0
v 0.252755 -0.518561 0.0
v 0.248168 -0.274606 0.0
v 0.248340 -0.026777 0.0
v 0.533214 -0.990228 0.0
v 0.520163 -0.744987 0.0
v 0.507880 -0.507762 0.0
v 0.500163 -0.270613 0.0
v 0.498469 -0.027145 0.0
v 0.000000 0.319950 0.0
f 1 6 7
f 1 7 2
f 2 7 8
f 2 8 3
f 3 8 9
f 3 9 4
f 4 9 10
f 4 10 5
f 6 11 12
f 6 12 7
f 7 12 13
f 7 13 8
f 8 13 14
f 8 14 9
f 9 14 15
f 9 15 10
f 11 16 17
f 11 17 12
f 12 17 18
f 12 18 13
f 13 18 19
f 13 19 14
f 14 19 20
f 14 20 15
f 16 21 22
f 16 22 17
f 17 22 23
f 17 23 18
f 18 23 24
f 18 24 19
f 19 24 25
f 19 25 20
