v -0.524169 -0.989183 0.0
v -0.511598 -0.735768 0.0
v -0.502138 -0.489472 0.0
v -0.497869 -0.247247 0.0
v -0.500680 -0.002223 0.0
v -0.266043 -0.990228 0.0
v -0.258530 -0.746088 0.0
v -0.249942 -0.497998 0.0
v -0.247100 -0.248677 0.0
v -0.249562 0.000909 0.0
v 0.000000 -0.990352 0.0
v 0.000000 -0.749986 0.0
v 0.000000 -0.502032 0.0
v -0.000000 -0.249581 0.0
v -0.000000 0.002064 0.0
v 0.266043 -0.990228 0.0
v 0.258530 -0.746088 0.0
v 0.249942 -0.497998 0.0
v 0.247100 -0.248677 0.0
v 0.249562 0.000909 0.0
v 0.524169 -0.989183 0.0
v 0.511598 -0.735768 0.0
v 0.502138 -0.489472 0.0
v 0.497869 -0.247247 0.0
v 0.500680 -0.002223 0.0
v 0.000000 0.314949 0.0
f 1 6 7
f 1 7 2
f 2 7 8
f 2 8 3
f 3 8 9
f 3 9 4
f 4 9 10
f 4 10 5
f 6 11 12
f 6 12 7
f 7 12 13
f 7 13 8
f 8 13 14
f 8 14 9
f 9 14 15
f 9 15 10
f 11 16 17
f 11 17 12
f 12 17 18
f 12 18 13
f 13 18 19
f 13 19 14
f 14 19 20
f 14 20 15
f 16 21 22
f 16 22 17
f 17 22 23
f 17 23 18
f 18 23 24
f 18 24 19
f 19 24 25
f 19 25 20
