v -0.501278 -0.981382 0.0
v -0.493138 -0.721549 0.0
v -0.490313 -0.461070 0.0
v -0.493470 -0.206103 0.0
v -0.503036 0.044571 0.0
v -0.251702 -0.984681 0.0
v -0.247894 -0.725274 0.0
v -0.244735 -0.462780 0.0
v -0.245909 -0.202864 0.0
v -0.251200 0.051233 0.0
v 0.000000 -0.985477 0.0
v 0.000000 -0.726547 0.0
v 0.000000 -0.463737 0.0
v -0.000000 -0.202302 0.0
v -0.000000 0.053020 0.0
v 0.251702 -0.984681 0.0
v 0.247894 -0.725274 0.0
v 0.244735 -0.462780 0.0
v 0.245909 -0.202864 0.0
v 0.251200 0.051233 0.0
v 0.501278 -0.981382 0.0
v 0.493138 -0.721549 0.0
v 0.490313 -0.461070 0.0
v 0.493470 -0.206103 0.0
v 0.503036 0.044571 0.0
v 0.000000 0.304947 0.0
f 1 6 7
f 1 7 2
f 2 7 8
f 2 8 3
f 3 8 9
f 3 9 4
f 4 9 10
f 4 10 5
f 6 11 12
f 6 12 7
f 7 12 13
f 7 13 8
f 8 13 14
f 8 14 9
f 9 14 15
f 9 15 10
f 11 16 17
f 11 17 12
f 12 17 18
f 12 18 13
f 13 18 19
f 13 19 14
f 14 19 20
f 14 20 15
f 16 21 22
f 16 22 17
f 17 22 23
f 17 23 18
f 18 23 24
f 18 24 19
f 19 24 25
f 19 25 20
