v -0.489516 -0.974489 0.0
v -0.484153 -0.714351 0.0
v -0.484612 -0.450205 0.0
v -0.491135 -0.189621 0.0
v -0.502774 0.064649 0.0
v -0.244049 -0.977679 0.0
v -0.242146 -0.714746 0.0
v -0.242167 -0.448145 0.0
v -0.245419 -0.184324 0.0
v -0.251369 0.072075 0.0
v 0.000000 -0.978472 0.0
v 0.000000 -0.714675 0.0
v 0.000000 -0.447417 0.0
v -0.000000 -0.182928 0.0
v -0.000000 0.074027 0.0
v 0.244049 -0.977679 0.0
v 0.242146 -0.714746 0.0
v 0.242167 -0.448145 0.0
v 0.245419 -0.184324 0.0
v 0.251369 0.072075 0.0
v 0.489516 -0.974489 0.0
v 0.484153 -0.714351 0.0
v 0.484612 -0.450205 0.0
v 0.491135 -0.189621 0.0
v 0.502774 0.064649 0.0
v 0.000000 0.299946 0.0
f 1 6 7
f 1 7 2
f 2 7 8
f 2 8 3
f 3 8 9
f 3 9 4
f 4 9 10
f 4 10 5
f 6 11 12
f 6 12 7
f 7 12 13
f 7 13 8
f 8 13 14
f 8 14 9
f 9 14 15
f 9 15 10
f 11 16 17
f 11 17 12
f 12 17 18
f 12 18 13
f 13 18 19
f 13 19 14
f 14 19 20
f 14 20 15
f 16 21 22
f 16 22 17
f 17 22 23
f 17 23 18
f 18 23 24
f 18 24 19
f 19 24 25
f 19 25 20
