v -0.478853 -0.965948 0.0
v -0.476255 -0.706042 0.0
v -0.479578 -0.440452 0.0
v -0.488766 -0.176110 0.0
v -0.501562 0.081399 0.0
v -0.237078 -0.967962 0.0
v -0.236896 -0.703456 0.0
v -0.239714 -0.435032 0.0
v -0.244805 -0.169026 0.0
v -0.251052 0.089109 0.0
v 0.000000 -0.968366 0.0
v 0.000000 -0.702161 0.0
v 0.000000 -0.432832 0.0
v -0.000000 -0.166800 0.0
v -0.000000 0.091252 0.0
v 0.237078 -0.967962 0.0
v 0.236896 -0.703456 0.0
v 0.239714 -0.435032 0.0
v 0.244805 -0.169026 0.0
v 0.251052 0.089109 0.0
v 0.478853 -0.965948 0.0
v 0.476255 -0.706042 0.0
v 0.479578 -0.440452 0.0
v 0.488766 -0.176110 0.0
v 0.501562 0.081399 0.0
v 0.000000 0.294945 0.0
f 1 6 7
f 1 7 2
f 2 7 8
f 2 8 3
f 3 8 9
f 3 9 4
f 4 9 10
f 4 10 5
f 6 11 12
f 6 12 7
f 7 12 13
f 7 13 8
f 8 13 14
f 8 14 9
f 9 14 15
f 9 15 10
f 11 16 17
f 11 17 12
f 12 17 18
f 12 18 13
f 13 18 19
f 13 19 14
f 14 19 20
f 14 20 15
f 16 21 22
f 16 22 17
f 17 22 23
f 17 23 18
f 18 23 24
f 18 24 19
f 19 24 25
f 19 25 20
