v -0.463676 -0.945082 0.0
v -0.466381 -0.685813 0.0
v -0.473544 -0.421773 0.0
v -0.485068 -0.156545 0.0
v -0.497486 0.103633 0.0
v -0.227134 -0.942997 0.0
v -0.230074 -0.678804 0.0
v -0.236158 -0.412073 0.0
v -0.243251 -0.147110 0.0
v -0.249344 0.111421 0.0
v 0.000000 -0.941985 0.0
v 0.000000 -0.675585 0.0
v 0.000000 -0.407948 0.0
v -0.000000 -0.143567 0.0
v -0.000000 0.114217 0.0
v 0.227134 -0.942997 0.0
v 0.230074 -0.678804 0.0
v 0.236158 -0.412073 0.0
v 0.243251 -0.147110 0.0
v 0.249344 0.111421 0.0
v 0.463676 -0.945082 0.0
v 0.466381 -0.685813 0.0
v 0.473544 -0.421773 0.0
v 0.485068 -0.156545 0.0
v 0.497486 0.103633 0.0
v 0.000000 0.284943 0.0
f 1 6 7
f 1 7 2
f 2 7 8
f 2 8 3
f 3 8 9
f 3 9 4
f 4 9 10
f 4 10 5
f 6 11 12
f 6 12 7
f 7 12 13
f 7 13 8
f 8 13 14
f 8 14 9
f 9 14 15
f 9 15 10
f 11 16 17
f 11 17 12
f 12 17 18
f 12 18 13
f 13 18 19
f 13 19 14
f 14 19 20
f 14 20 15
f 16 21 22
f 16 22 17
f 17 22 23
f 17 23 18
f 18 23 24
f 18 24 19
f 19 24 25
f 19 25 20
