v -0.460082 -0.933330 0.0
v -0.465264 -0.674558 0.0
v -0.473337 -0.412490 0.0
v -0.484461 -0.149453 0.0
v -0.495534 0.109691 0.0
v -0.224780 -0.929193 0.0
v -0.229152 -0.666221 0.0
v -0.235636 -0.402046 0.0
v -0.242625 -0.139637 0.0
v -0.248350 0.117606 0.0
v 0.000000 -0.927491 0.0
v 0.000000 -0.662400 0.0
v 0.000000 -0.397512 0.0
v -0.000000 -0.135716 0.0
v -0.000000 0.120835 0.0
v 0.224780 -0.929193 0.0
v 0.229152 -0.666221 0.0
v 0.235636 -0.402046 0.0
v 0.242625 -0.139637 0.0
v 0.248350 0.117606 0.0
v 0.460082 -0.933330 0.0
v 0.465264 -0.674558 0.0
v 0.473337 -0.412490 0.0
v 0.484461 -0.149453 0.0
v 0.495534 0.109691 0.0
v 0.000000 0.279942 0.0
f 1 6 7
f 1 7 2
f 2 7 8
f 2 8 3
f 3 8 9
f 3 9 4
f 4 9 10
f 4 10 5
f 6 11 12
f 6 12 7
f 7 12 13
f 7 13 8
f 8 13 14
f 8 14 9
f 9 14 15
f 9 15 10
f 11 16 17
f 11 17 12
f 12 17 18
f 12 18 13
f 13 18 19
f 13 19 14
f 14 19 20
f 14 20 15
f 16 21 22
f 16 22 17
f 17 22 23
f 17 23 18
f 18 23 24
f 18 24 19
f 19 24 25
f 19 25 20
