v -0.459446 -0.921144 0.0
v -0.466852 -0.663192 0.0
v -0.475216 -0.403440 0.0
v -0.485054 -0.143546 0.0
v -0.494249 0.113368 0.0
v -0.224383 -0.915376 0.0
v -0.229983 -0.654127 0.0
v -0.236233 -0.393103 0.0
v -0.242412 -0.133931 0.0
v -0.247591 0.121471 0.0
v 0.000000 -0.913164 0.0
v 0.000000 -0.650004 0.0
v 0.000000 -0.388513 0.0
v -0.000000 -0.129849 0.0
v -0.000000 0.125109 0.0
v 0.224383 -0.915376 0.0
v 0.229983 -0.654127 0.0
v 0.236233 -0.393103 0.0
v 0.242412 -0.133931 0.0
v 0.247591 0.121471 0.0
v 0.459446 -0.921144 0.0
v 0.466852 -0.663192 0.0
v 0.475216 -0.403440 0.0
v 0.485054 -0.143546 0.0
v 0.494249 0.113368 0.0
v 0.000000 0.274941 0.0
f 1 6 7
f 1 7 2
f 2 7 8
f 2 8 3
f 3 8 9
f 3 9 4
f 4 9 10
f 4 10 5
f 6 11 12
f 6 12 7
f 7 12 13
f 7 13 8
f 8 13 14
f 8 14 9
f 9 14 15
f 9 15 10
f 11 16 17
f 11 17 12
f 12 17 18
f 12 18 13
f 13 18 19
f 13 19 14
f 14 19 20
f 14 20 15
f 16 21 22
f 16 22 17
f 17 22 23
f 17 23 18
f 18 23 24
f 18 24 19
f 19 24 25
f 19 25 20
