v -0.461753 -0.908922 0.0
v -0.470952 -0.652178 0.0
v -0.479048 -0.394885 0.0
v -0.486924 -0.138495 0.0
v -0.493940 0.115562 0.0
v -0.225938 -0.902081 0.0
v -0.232411 -0.642960 0.0
v -0.237995 -0.385374 0.0
v -0.242817 -0.129648 0.0
v -0.247279 0.123755 0.0
v 0.000000 -0.899585 0.0
v 0.000000 -0.638850 0.0
v 0.000000 -0.381053 0.0
v -0.000000 -0.125635 0.0
v -0.000000 0.127677 0.0
v 0.225938 -0.902081 0.0
v 0.232411 -0.642960 0.0
v 0.237995 -0.385374 0.0
v 0.242817 -0.129648 0.0
v 0.247279 0.123755 0.0
v 0.461753 -0.908922 0.0
v 0.470952 -0.652178 0.0
v 0.479048 -0.394885 0.0
v 0.486924 -0.138495 0.0
v 0.493940 0.115562 0.0
v 0.000000 0.269940 0.0
f 1 6 7
f 1 7 2
f 2 7 8
f 2 8 3
f 3 8 9
f 3 9 4
f 4 9 10
f 4 10 5
f 6 11 12
f 6 12 7
f 7 12 13
f 7 13 8
f 8 13 14
f 8 14 9
f 9 14 15
f 9 15 10
f 11 16 17
f 11 17 12
f 12 17 18
f 12 18 13
f 13 18 19
f 13 19 14
f 14 19 20
f 14 20 15
f 16 21 22
f 16 22 17
f 17 22 23
f 17 23 18
f 18 23 24
f 18 24 19
f 19 24 25
f 19 25 20
