v -0.474133 -0.886011 0.0
v -0.484810 -0.632592 0.0
v -0.490972 -0.380128 0.0
v -0.493899 -0.130111 0.0
v -0.496501 0.118503 0.0
v -0.234123 -0.878673 0.0
v -0.240756 -0.624627 0.0
v -0.244375 -0.373831 0.0
v -0.245797 -0.124282 0.0
v -0.248379 0.125680 0.0
v 0.000000 -0.876241 0.0
v 0.000000 -0.621397 0.0
v 0.000000 -0.370823 0.0
v 0.000000 -0.121117 0.0
v -0.000000 0.129366 0.0
v 0.234123 -0.878673 0.0
v 0.240756 -0.624627 0.0
v 0.244375 -0.373831 0.0
v 0.245797 -0.124282 0.0
v 0.248379 0.125680 0.0
v 0.474133 -0.886011 0.0
v 0.484810 -0.632592 0.0
v 0.490972 -0.380128 0.0
v 0.493899 -0.130111 0.0
v 0.496501 0.118503 0.0
v 0.000000 0.259938 0.0
f 1 6 7
f 1 7 2
f 2 7 8
f 2 8 3
f 3 8 9
f 3 9 4
f 4 9 10
f 4 10 5
f 6 11 12
f 6 12 7
f 7 12 13
f 7 13 8
f 8 13 14
f 8 14 9
f 9 14 15
f 9 15 10
f 11 16 17
f 11 17 12
f 12 17 18
f 12 18 13
f 13 18 19
f 13 19 14
f 14 19 20
f 14 20 15
f 16 21 22
f 16 22 17
f 17 22 23
f 17 23 18
f 18 23 24
f 18 24 19
f 19 24 25
f 19 25 20
