v -0.483165 -0.876027 0.0
v -0.493230 -0.624456 0.0
v -0.497879 -0.374194 0.0
v -0.498341 -0.126561 0.0
v -0.499020 0.120183 0.0
v -0.239960 -0.869127 0.0
v -0.245811 -0.617805 0.0
v -0.248330 -0.369980 0.0
v -0.248192 -0.122790 0.0
v -0.249672 0.125896 0.0
v 0.000000 -0.866953 0.0
v 0.000000 -0.615323 0.0
v 0.000000 -0.367878 0.0
v 0.000000 -0.120402 0.0
v -0.000000 0.128912 0.0
v 0.239960 -0.869127 0.0
v 0.245811 -0.617805 0.0
v 0.248330 -0.369980 0.0
v 0.248192 -0.122790 0.0
v 0.249672 0.125896 0.0
v 0.483165 -0.876027 0.0
v 0.493230 -0.624456 0.0
v 0.497879 -0.374194 0.0
v 0.498341 -0.126561 0.0
v 0.499020 0.120183 0.0
v 0.000000 0.254937 0.0
f 1 6 7
f 1 7 2
f 2 7 8
f 2 8 3
f 3 8 9
f 3 9 4
f 4 9 10
f 4 10 5
f 6 11 12
f 6 12 7
f 7 12 13
f 7 13 8
f 8 13 14
f 8 14 9
f 9 14 15
f 9 15 10
f 11 16 17
f 11 17 12
f 12 17 18
f 12 18 13
f 13 18 19
f 13 19 14
f 14 19 20
f 14 20 15
f 16 21 22
f 16 22 17
f 17 22 23
f 17 23 18
f 18 23 24
f 18 24 19
f 19 24 25
f 19 25 20
