v -0.493086 -0.867363 0.0
v -0.501613 -0.617584 0.0
v -0.504522 -0.369310 0.0
v -0.502851 -0.123423 0.0
v -0.501887 0.122207 0.0
v -0.246221 -0.861267 0.0
v -0.250824 -0.612625 0.0
v -0.252231 -0.367290 0.0
v -0.250869 -0.121896 0.0
v -0.251202 0.125765 0.0
v 0.000000 -0.859436 0.0
v 0.000000 -0.610987 0.0
v 0.000000 -0.366156 0.0
v 0.000000 -0.120483 0.0
v -0.000000 0.127730 0.0
v 0.246221 -0.861267 0.0
v 0.250824 -0.612625 0.0
v 0.252231 -0.367290 0.0
v 0.250869 -0.121896 0.0
v 0.251202 0.125765 0.0
v 0.493086 -0.867363 0.0
v 0.501613 -0.617584 0.0
v 0.504522 -0.369310 0.0
v 0.502851 -0.123423 0.0
v 0.501887 0.122207 0.0
v 0.000000 0.249936 0.0
f 1 6 7
f 1 7 2
f 2 7 8
f 2 8 3
f 3 8 9
f 3 9 4
f 4 9 10
f 4 10 5
f 6 11 12
f 6 12 7
f 7 12 13
f 7 13 8
f 8 13 14
f 8 14 9
f 9 14 15
f 9 15 10
f 11 16 17
f 11 17 12
f 12 17 18
f 12 18 13
f 13 18 19
f 13 19 14
f 14 19 20
f 14 20 15
f 16 21 22
f 16 22 17
f 17 22 23
f 17 23 18
f 18 23 24
f 18 24 19
f 19 24 25
f 19 25 20
