v -0.511959 -0.854555 0.0
v -0.515370 -0.607871 0.0
v -0.514708 -0.362817 0.0
v -0.510363 -0.118700 0.0
v -0.506867 0.126689 0.0
v -0.257610 -0.851015 0.0
v -0.259043 -0.607007 0.0
v -0.258353 -0.364885 0.0
v -0.255762 -0.121557 0.0
v -0.253895 0.124564 0.0
v 0.000000 -0.850005 0.0
v 0.000000 -0.607014 0.0
v 0.000000 -0.365570 0.0
v 0.000000 -0.122381 0.0
v -0.000000 0.123710 0.0
v 0.257610 -0.851015 0.0
v 0.259043 -0.607007 0.0
v 0.258353 -0.364885 0.0
v 0.255762 -0.121557 0.0
v 0.253895 0.124564 0.0
v 0.511959 -0.854555 0.0
v 0.515370 -0.607871 0.0
v 0.514708 -0.362817 0.0
v 0.510363 -0.118700 0.0
v 0.506867 0.126689 0.0
v 0.000000 0.239934 0.0
f 1 6 7
f 1 7 2
f 2 7 8
f 2 8 3
f 3 8 9
f 3 9 4
f 4 9 10
f 4 10 5
f 6 11 12
f 6 12 7
f 7 12 13
f 7 13 8
f 8 13 14
f 8 14 9
f 9 14 15
f 9 15 10
f 11 16 17
f 11 17 12
f 12 17 18
f 12 18 13
f 13 18 19
f 13 19 14
f 14 19 20
f 14 20 15
f 16 21 22
f 16 22 17
f 17 22 23
f 17 23 18
f 18 23 24
f 18 24 19
f 19 24 25
f 19 25 20
