v -0.519179 -0.850602 0.0
v -0.519676 -0.605135 0.0
v -0.517503 -0.361245 0.0
v -0.512685 -0.117346 0.0
v -0.508193 0.128575 0.0
v -0.261749 -0.848736 0.0
v -0.261632 -0.606359 0.0
v -0.260080 -0.364931 0.0
v -0.257398 -0.122021 0.0
v -0.254595 0.123560 0.0
v 0.000000 -0.848178 0.0
v 0.000000 -0.607053 0.0
v 0.000000 -0.366359 0.0
v 0.000000 -0.123894 0.0
v -0.000000 0.121282 0.0
v 0.261749 -0.848736 0.0
v 0.261632 -0.606359 0.0
v 0.260080 -0.364931 0.0
v 0.257398 -0.122021 0.0
v 0.254595 0.123560 0.0
v 0.519179 -0.850602 0.0
v 0.519676 -0.605135 0.0
v 0.517503 -0.361245 0.0
v 0.512685 -0.117346 0.0
v 0.508193 0.128575 0.0
v 0.000000 0.234933 0.0
f 1 6 7
f 1 7 2
f 2 7 8
f 2 8 3
f 3 8 9
f 3 9 4
f 4 9 10
f 4 10 5
f 6 11 12
f 6 12 7
f 7 12 13
f 7 13 8
f 8 13 14
f 8 14 9
f 9 14 15
f 9 15 10
f 11 16 17
f 11 17 12
f 12 17 18
f 12 18 13
f 13 18 19
f 13 19 14
f 14 19 20
f 14 20 15
f 16 21 22
f 16 22 17
f 17 22 23
f 17 23 18
f 18 23 24
f 18 24 19
f 19 24 25
f 19 25 20
