v -0.524071 -0.848412 0.0
v -0.521915 -0.603889 0.0
v -0.518602 -0.360810 0.0
v -0.513785 -0.116815 0.0
v -0.508433 0.129816 0.0
v -0.264453 -0.848370 0.0
v -0.262997 -0.606983 0.0
v -0.260802 -0.365696 0.0
v -0.258249 -0.122885 0.0
v -0.254688 0.122363 0.0
v 0.000000 -0.848286 0.0
v 0.000000 -0.608241 0.0
v 0.000000 -0.367715 0.0
v 0.000000 -0.125618 0.0
v 0.000000 0.118903 0.0
v 0.264453 -0.848370 0.0
v 0.262997 -0.606983 0.0
v 0.260802 -0.365696 0.0
v 0.258249 -0.122885 0.0
v 0.254688 0.122363 0.0
v 0.524071 -0.848412 0.0
v 0.521915 -0.603889 0.0
v 0.518602 -0.360810 0.0
v 0.513785 -0.116815 0.0
v 0.508433 0.129816 0.0
v 0.000000 0.229932 0.0
f 1 6 7
f 1 7 2
f 2 7 8
f 2 8 3
f 3 8 9
f 3 9 4
f 4 9 10
f 4 10 5
f 6 11 12
f 6 12 7
f 7 12 13
f 7 13 8
f 8 13 14
f 8 14 9
f 9 14 15
f 9 15 10
f 11 16 17
f 11 17 12
f 12 17 18
f 12 18 13
f 13 18 19
f 13 19 14
f 14 19 20
f 14 20 15
f 16 21 22
f 16 22 17
f 17 22 23
f 17 23 18
f 18 23 24
f 18 24 19
f 19 24 25
f 19 25 20
