v -0.526365 -0.848090 0.0
v -0.522114 -0.604186 0.0
v -0.518116 -0.361522 0.0
v -0.513633 -0.117192 0.0
v -0.507568 0.130181 0.0
v -0.265644 -0.849882 0.0
v -0.263140 -0.608771 0.0
v -0.260572 -0.367144 0.0
v -0.258266 -0.124151 0.0
v -0.254166 0.121033 0.0
v 0.000000 -0.850286 0.0
v 0.000000 -0.610470 0.0
v 0.000000 -0.369584 0.0
v 0.000000 -0.127475 0.0
v 0.000000 0.116780 0.0
v 0.265644 -0.849882 0.0
v 0.263140 -0.608771 0.0
v 0.260572 -0.367144 0.0
v 0.258266 -0.124151 0.0
v 0.254166 0.121033 0.0
v 0.526365 -0.848090 0.0
v 0.522114 -0.604186 0.0
v 0.518116 -0.361522 0.0
v 0.513633 -0.117192 0.0
v 0.507568 0.130181 0.0
v 0.000000 0.224931 0.0
f 1 6 7
f 1 7 2
f 2 7 8
f 2 8 3
f 3 8 9
f 3 9 4
f 4 9 10
f 4 10 5
f 6 11 12
f 6 12 7
f 7 12 13
f 7 13 8
f 8 13 14
f 8 14 9
f 9 14 15
f 9 15 10
f 11 16 17
f 11 17 12
f 12 17 18
f 12 18 13
f 13 18 19
f 13 19 14
f 14 19 20
f 14 20 15
f 16 21 22
f 16 22 17
f 17 22 23
f 17 23 18
f 18 23 24
f 18 24 19
f 19 24 25
f 19 25 20
