v -0.519440 -0.859079 0.0
v -0.513330 -0.614632 0.0
v -0.509938 -0.370573 0.0
v -0.507128 -0.124108 0.0
v -0.500491 0.125081 0.0
v -0.261492 -0.864720 0.0
v -0.257828 -0.620568 0.0
v -0.255742 -0.375774 0.0
v -0.254265 -0.130588 0.0
v -0.250091 0.116344 0.0
v 0.000000 -0.866402 0.0
v 0.000000 -0.622863 0.0
v 0.000000 -0.378353 0.0
v 0.000000 -0.133779 0.0
v 0.000000 0.112503 0.0
v 0.261492 -0.864720 0.0
v 0.257828 -0.620568 0.0
v 0.255742 -0.375774 0.0
v 0.254265 -0.130588 0.0
v 0.250091 0.116344 0.0
v 0.519440 -0.859079 0.0
v 0.513330 -0.614632 0.0
v 0.509938 -0.370573 0.0
v 0.507128 -0.124108 0.0
v 0.500491 0.125081 0.0
v 0.000000 0.209928 0.0
f 1 6 7
f 1 7 2
f 2 7 8
f 2 8 3
f 3 8 9
f 3 9 4
f 4 9 10
f 4 10 5
f 6 11 12
f 6 12 7
f 7 12 13
f 7 13 8
f 8 13 14
f 8 14 9
f 9 14 15
f 9 15 10
f 11 16 17
f 11 17 12
f 12 17 18
f 12 18 13
f 13 18 19
f 13 19 14
f 14 19 20
f 14 20 15
f 16 21 22
f 16 22 17
f 17 22 23
f 17 23 18
f 18 23 24
f 18 24 19
f 19 24 25
f 19 25 20
