v -0.508288 -0.876037 0.0
v -0.503878 -0.629252 0.0
v -0.502179 -0.382272 0.0
v -0.500430 -0.133564 0.0
v -0.495414 0.116599 0.0
v -0.255020 -0.881633 0.0
v -0.252091 -0.633685 0.0
v -0.251066 -0.385620 0.0
v -0.250071 -0.137635 0.0
v -0.247184 0.111681 0.0
v 0.000000 -0.883592 0.0
v 0.000000 -0.635677 0.0
v 0.000000 -0.387418 0.0
v 0.000000 -0.139475 0.0
v -0.000000 0.109812 0.0
v 0.255020 -0.881633 0.0
v 0.252091 -0.633685 0.0
v 0.251066 -0.385620 0.0
v 0.250071 -0.137635 0.0
v 0.247184 0.111681 0.0
v 0.508288 -0.876037 0.0
v 0.503878 -0.629252 0.0
v 0.502179 -0.382272 0.0
v 0.500430 -0.133564 0.0
v 0.495414 0.116599 0.0
v 0.000000 0.199927 0.0
f 1 6 7
f 1 7 2
f 2 7 8
f 2 8 3
f 3 8 9
f 3 9 4
f 4 9 10
f 4 10 5
f 6 11 12
f 6 12 7
f 7 12 13
f 7 13 8
f 8 13 14
f 8 14 9
f 9 14 15
f 9 15 10
f 11 16 17
f 11 17 12
f 12 17 18
f 12 18 13
f 13 18 19
f 13 19 14
f 14 19 20
f 14 20 15
f 16 21 22
f 16 22 17
f 17 22 23
f 17 23 18
f 18 23 24
f 18 24 19
f 19 24 25
f 19 25 20
