v -0.502460 -0.886870 0.0
v -0.499306 -0.638536 0.0
v -0.498462 -0.389747 0.0
v -0.497251 -0.139764 0.0
v -0.493683 0.110885 0.0
v -0.251593 -0.891616 0.0
v -0.249355 -0.641770 0.0
v -0.248853 -0.391939 0.0
v -0.248124 -0.142293 0.0
v -0.246209 0.108286 0.0
v 0.000000 -0.893444 0.0
v 0.000000 -0.643385 0.0
v 0.000000 -0.393173 0.0
v 0.000000 -0.143304 0.0
v -0.000000 0.107535 0.0
v 0.251593 -0.891616 0.0
v 0.249355 -0.641770 0.0
v 0.248853 -0.391939 0.0
v 0.248124 -0.142293 0.0
v 0.246209 0.108286 0.0
v 0.502460 -0.886870 0.0
v 0.499306 -0.638536 0.0
v 0.498462 -0.389747 0.0
v 0.497251 -0.139764 0.0
v 0.493683 0.110885 0.0
v 0.000000 0.194926 0.0
f 1 6 7
f 1 7 2
f 2 7 8
f 2 8 3
f 3 8 9
f 3 9 4
f 4 9 10
f 4 10 5
f 6 11 12
f 6 12 7
f 7 12 13
f 7 13 8
f 8 13 14
f 8 14 9
f 9 14 15
f 9 15 10
f 11 16 17
f 11 17 12
f 12 17 18
f 12 18 13
f 13 18 19
f 13 19 14
f 14 19 20
f 14 20 15
f 16 21 22
f 16 22 17
f 17 22 23
f 17 23 18
f 18 23 24
f 18 24 19
f 19 24 25
f 19 25 20
