v -0.497080 -0.898869 0.0
v -0.495247 -0.648900 0.0
v -0.495131 -0.398251 0.0
v -0.494515 -0.146990 0.0
v -0.492708 0.104142 0.0
v -0.248388 -0.902354 0.0
v -0.246968 -0.650800 0.0
v -0.246913 -0.399248 0.0
v -0.246496 -0.147911 0.0
v -0.245684 0.103829 0.0
v 0.000000 -0.903875 0.0
v 0.000000 -0.651909 0.0
v 0.000000 -0.399863 0.0
v -0.000000 -0.148105 0.0
v -0.000000 0.104117 0.0
v 0.248388 -0.902354 0.0
v 0.246968 -0.650800 0.0
v 0.246913 -0.399248 0.0
v 0.246496 -0.147911 0.0
v 0.245684 0.103829 0.0
v 0.497080 -0.898869 0.0
v 0.495247 -0.648900 0.0
v 0.495131 -0.398251 0.0
v 0.494515 -0.146990 0.0
v 0.492708 0.104142 0.0
v 0.000000 0.189925 0.0
f 1 6 7
f 1 7 2
f 2 7 8
f 2 8 3
f 3 8 9
f 3 9 4
f 4 9 10
f 4 10 5
f 6 11 12
f 6 12 7
f 7 12 13
f 7 13 8
f 8 13 14
f 8 14 9
f 9 14 15
f 9 15 10
f 11 16 17
f 11 17 12
f 12 17 18
f 12 18 13
f 13 18 19
f 13 19 14
f 14 19 20
f 14 20 15
f 16 21 22
f 16 22 17
f 17 22 23
f 17 23 18
f 18 23 24
f 18 24 19
f 19 24 25
f 19 25 20
