v -0.492475 -0.911689 0.0
v -0.491907 -0.660140 0.0
v -0.492350 -0.407737 0.0
v -0.492400 -0.155295 0.0
v -0.492523 0.096284 0.0
v -0.245605 -0.913674 0.0
v -0.245053 -0.660691 0.0
v -0.245347 -0.407575 0.0
v -0.245297 -0.154657 0.0
v -0.245627 0.098045 0.0
v -0.000000 -0.914745 0.0
v -0.000000 -0.661212 0.0
v 0.000000 -0.407571 0.0
v -0.000000 -0.154119 0.0
v -0.000000 0.099201 0.0
v 0.245605 -0.913674 0.0
v 0.245053 -0.660691 0.0
v 0.245347 -0.407575 0.0
v 0.245297 -0.154657 0.0
v 0.245627 0.098045 0.0
v 0.492475 -0.911689 0.0
v 0.491907 -0.660140 0.0
v 0.492350 -0.407737 0.0
v 0.492400 -0.155295 0.0
v 0.492523 0.096284 0.0
v 0.000000 0.184924 0.0
f 1 6 7
f 1 7 2
f 2 7 8
f 2 8 3
f 3 8 9
f 3 9 4
f 4 9 10
f 4 10 5
f 6 11 12
f 6 12 7
f 7 12 13
f 7 13 8
f 8 13 14
f 8 14 9
f 9 14 15
f 9 15 10
f 11 16 17
f 11 17 12
f 12 17 18
f 12 18 13
f 13 18 19
f 13 19 14
f 14 19 20
f 14 20 15
f 16 21 22
f 16 22 17
f 17 22 23
f 17 23 18
f 18 23 24
f 18 24 19
f 19 24 25
f 19 25 20
