v -0.488865 -0.925001 0.0
v -0.489417 -0.672063 0.0
v -0.490244 -0.418161 0.0
v -0.491023 -0.164733 0.0
v -0.493067 0.087211 0.0
v -0.243390 -0.925434 0.0
v -0.243674 -0.671359 0.0
v -0.244223 -0.416944 0.0
v -0.244585 -0.162691 0.0
v -0.245997 0.090704 0.0
v -0.000000 -0.925966 0.0
v -0.000000 -0.671264 0.0
v -0.000000 -0.416367 0.0
v -0.000000 -0.161555 0.0
v -0.000000 0.092504 0.0
v 0.243390 -0.925434 0.0
v 0.243674 -0.671359 0.0
v 0.244223 -0.416944 0.0
v 0.244585 -0.162691 0.0
v 0.245997 0.090704 0.0
v 0.488865 -0.925001 0.0
v 0.489417 -0.672063 0.0
v 0.490244 -0.418161 0.0
v 0.491023 -0.164733 0.0
v 0.493067 0.087211 0.0
v 0.000000 0.179923 0.0
f 1 6 7
f 1 7 2
f 2 7 8
f 2 8 3
f 3 8 9
f 3 9 4
f 4 9 10
f 4 10 5
f 6 11 12
f 6 12 7
f 7 12 13
f 7 13 8
f 8 13 14
f 8 14 9
f 9 14 15
f 9 15 10
f 11 16 17
f 11 17 12
f 12 17 18
f 12 18 13
f 13 18 19
f 13 19 14
f 14 19 20
f 14 20 15
f 16 21 22
f 16 22 17
f 17 22 23
f 17 23 18
f 18 23 24
f 18 24 19
f 19 24 25
f 19 25 20
