v -0.486370 -0.938525 0.0
v -0.487837 -0.684507 0.0
v -0.488910 -0.429484 0.0
v -0.490435 -0.175358 0.0
v -0.494208 0.076822 0.0
v -0.241831 -0.937533 0.0
v -0.242847 -0.682728 0.0
v -0.243577 -0.427371 0.0
v -0.244368 -0.172148 0.0
v -0.246710 0.081627 0.0
v -0.000000 -0.937504 0.0
v -0.000000 -0.682053 0.0
v -0.000000 -0.426307 0.0
v -0.000000 -0.170571 0.0
v -0.000000 0.083833 0.0
v 0.241831 -0.937533 0.0
v 0.242847 -0.682728 0.0
v 0.243577 -0.427371 0.0
v 0.244368 -0.172148 0.0
v 0.246710 0.081627 0.0
v 0.486370 -0.938525 0.0
v 0.487837 -0.684507 0.0
v 0.488910 -0.429484 0.0
v 0.490435 -0.175358 0.0
v 0.494208 0.076822 0.0
v 0.000000 0.174922 0.0
f 1 6 7
f 1 7 2
f 2 7 8
f 2 8 3
f 3 8 9
f 3 9 4
f 4 9 10
f 4 10 5
f 6 11 12
f 6 12 7
f 7 12 13
f 7 13 8
f 8 13 14
f 8 14 9
f 9 14 15
f 9 15 10
f 11 16 17
f 11 17 12
f 12 17 18
f 12 18 13
f 13 18 19
f 13 19 14
f 14 19 20
f 14 20 15
f 16 21 22
f 16 22 17
f 17 22 23
f 17 23 18
f 18 23 24
f 18 24 19
f 19 24 25
f 19 25 20
