v -0.485027 -0.952064 0.0
v -0.487171 -0.697358 0.0
v -0.488398 -0.441680 0.0
v -0.490623 -0.187204 0.0
v -0.495768 0.065047 0.0
v -0.240966 -0.949915 0.0
v -0.242552 -0.694748 0.0
v -0.243410 -0.438868 0.0
v -0.244610 -0.183119 0.0
v -0.247656 0.070708 0.0
v -0.000000 -0.949370 0.0
v -0.000000 -0.693586 0.0
v -0.000000 -0.437431 0.0
v -0.000000 -0.181261 0.0
v -0.000000 0.073097 0.0
v 0.240966 -0.949915 0.0
v 0.242552 -0.694748 0.0
v 0.243410 -0.438868 0.0
v 0.244610 -0.183119 0.0
v 0.247656 0.070708 0.0
v 0.485027 -0.952064 0.0
v 0.487171 -0.697358 0.0
v 0.488398 -0.441680 0.0
v 0.490623 -0.187204 0.0
v 0.495768 0.065047 0.0
v 0.000000 0.169921 0.0
f 1 6 7
f 1 7 2
f 2 7 8
f 2 8 3
f 3 8 9
f 3 9 4
f 4 9 10
f 4 10 5
f 6 11 12
f 6 12 7
f 7 12 13
f 7 13 8
f 8 13 14
f 8 14 9
f 9 14 15
f 9 15 10
f 11 16 17
f 11 17 12
f 12 17 18
f 12 18 13
f 13 18 19
f 13 19 14
f 14 19 20
f 14 20 15
f 16 21 22
f 16 22 17
f 17 22 23
f 17 23 18
f 18 23 24
f 18 24 19
f 19 24 25
f 19 25 20
