v -0.484803 -0.965525 0.0
v -0.487374 -0.710564 0.0
v -0.488710 -0.454734 0.0
v -0.491512 -0.200283 0.0
v -0.497552 0.051855 0.0
v -0.240784 -0.962574 0.0
v -0.242742 -0.707400 0.0
v -0.243697 -0.451442 0.0
v -0.245241 -0.195648 0.0
v -0.248718 0.057920 0.0
v -0.000000 -0.961615 0.0
v -0.000000 -0.705889 0.0
v -0.000000 -0.449764 0.0
v -0.000000 -0.193659 0.0
v -0.000000 0.060305 0.0
v 0.240784 -0.962574 0.0
v 0.242742 -0.707400 0.0
v 0.243697 -0.451442 0.0
v 0.245241 -0.195648 0.0
v 0.248718 0.057920 0.0
v 0.484803 -0.965525 0.0
v 0.487374 -0.710564 0.0
v 0.488710 -0.454734 0.0
v 0.491512 -0.200283 0.0
v 0.497552 0.051855 0.0
v 0.000000 0.164920 0.0
f 1 6 7
f 1 7 2
f 2 7 8
f 2 8 3
f 3 8 9
f 3 9 4
f 4 9 10
f 4 10 5
f 6 11 12
f 6 12 7
f 7 12 13
f 7 13 8
f 8 13 14
f 8 14 9
f 9 14 15
f 9 15 10
f 11 16 17
f 11 17 12
f 12 17 18
f 12 18 13
f 13 18 19
f 13 19 14
f 14 19 20
f 14 20 15
f 16 21 22
f 16 22 17
f 17 22 23
f 17 23 18
f 18 23 24
f 18 24 19
f 19 24 25
f 19 25 20
