v -0.485604 -0.978918 0.0
v -0.488363 -0.724134 0.0
v -0.489790 -0.468644 0.0
v -0.492979 -0.214580 0.0
v -0.499371 0.037267 0.0
v -0.241237 -0.975555 0.0
v -0.243356 -0.720702 0.0
v -0.244383 -0.465103 0.0
v -0.246168 -0.209729 0.0
v -0.249787 0.043310 0.0
v -0.000000 -0.974322 0.0
v -0.000000 -0.719004 0.0
v -0.000000 -0.463318 0.0
v -0.000000 -0.207737 0.0
v 0.000000 0.045551 0.0
v 0.241237 -0.975555 0.0
v 0.243356 -0.720702 0.0
v 0.244383 -0.465103 0.0
v 0.246168 -0.209729 0.0
v 0.249787 0.043310 0.0
v 0.485604 -0.978918 0.0
v 0.488363 -0.724134 0.0
v 0.489790 -0.468644 0.0
v 0.492979 -0.214580 0.0
v 0.499371 0.037267 0.0
v 0.000000 0.159919 0.0
f 1 6 7
f 1 7 2
f 2 7 8
f 2 8 3
f 3 8 9
f 3 9 4
f 4 9 10
f 4 10 5
f 6 11 12
f 6 12 7
f 7 12 13
f 7 13 8
f 8 13 14
f 8 14 9
f 9 14 15
f 9 15 10
f 11 16 17
f 11 17 12
f 12 17 18
f 12 18 13
f 13 18 19
f 13 19 14
f 14 19 20
f 14 20 15
f 16 21 22
f 16 22 17
f 17 22 23
f 17 23 18
f 18 23 24
f 18 24 19
f 19 24 25
f 19 25 20
