v -0.490554 -0.991847 0.0
v -0.492905 -0.749837 0.0
v -0.493919 -0.498471 0.0
v -0.497018 -0.246504 0.0
v -0.502513 0.004254 0.0
v -0.243881 -0.991923 0.0
v -0.245330 -0.746740 0.0
v -0.246653 -0.495056 0.0
v -0.248506 -0.242139 0.0
v -0.251612 0.009184 0.0
v -0.000000 -0.991755 0.0
v -0.000000 -0.745470 0.0
v -0.000000 -0.493391 0.0
v -0.000000 -0.240431 0.0
v -0.000000 0.010875 0.0
v 0.243881 -0.991923 0.0
v 0.245330 -0.746740 0.0
v 0.246653 -0.495056 0.0
v 0.248506 -0.242139 0.0
v 0.251612 0.009184 0.0
v 0.490554 -0.991847 0.0
v 0.492905 -0.749837 0.0
v 0.493919 -0.498471 0.0
v 0.497018 -0.246504 0.0
v 0.502513 0.004254 0.0
v 0.000000 0.149917 0.0
f 1 6 7
f 1 7 2
f 2 7 8
f 2 8 3
f 3 8 9
f 3 9 4
f 4 9 10
f 4 10 5
f 6 11 12
f 6 12 7
f 7 12 13
f 7 13 8
f 8 13 14
f 8 14 9
f 9 14 15
f 9 15 10
f 11 16 17
f 11 17 12
f 12 17 18
f 12 18 13
f 13 18 19
f 13 19 14
f 14 19 20
f 14 20 15
f 16 21 22
f 16 22 17
f 17 22 23
f 17 23 18
f 18 23 24
f 18 24 19
f 19 24 25
f 19 25 20
