v -0.498289 -0.990998 0.0
v -0.503428 -0.766063 0.0
v -0.501416 -0.526559 0.0
v -0.502092 -0.280592 0.0
v -0.504618 -0.032324 0.0
v -0.246502 -0.991185 0.0
v -0.249387 -0.762599 0.0
v -0.250432 -0.523667 0.0
v -0.251218 -0.277586 0.0
v -0.252824 -0.029406 0.0
v -0.000000 -0.991239 0.0
v -0.000000 -0.761683 0.0
v -0.000000 -0.522035 0.0
v -0.000000 -0.276317 0.0
v -0.000000 -0.028398 0.0
v 0.246502 -0.991185 0.0
v 0.249387 -0.762599 0.0
v 0.250432 -0.523667 0.0
v 0.251218 -0.277586 0.0
v 0.252824 -0.029406 0.0
v 0.498289 -0.990998 0.0
v 0.503428 -0.766063 0.0
v 0.501416 -0.526559 0.0
v 0.502092 -0.280592 0.0
v 0.504618 -0.032324 0.0
v 0.000000 0.139915 0.0
f 1 6 7
f 1 7 2
f 2 7 8
f 2 8 3
f 3 8 9
f 3 9 4
f 4 9 10
f 4 10 5
f 6 11 12
f 6 12 7
f 7 12 13
f 7 13 8
f 8 13 14
f 8 14 9
f 9 14 15
f 9 15 10
f 11 16 17
f 11 17 12
f 12 17 18
f 12 18 13
f 13 18 19
f 13 19 14
f 14 19 20
f 14 20 15
f 16 21 22
f 16 22 17
f 17 22 23
f 17 23 18
f 18 23 24
f 18 24 19
f 19 24 25
f 19 25 20
