v -0.503108 -0.991147 0.0
v -0.510513 -0.771258 0.0
v -0.506757 -0.538335 0.0
v -0.505172 -0.296923 0.0
v -0.505437 -0.050784 0.0
v -0.248879 -0.991269 0.0
v -0.252609 -0.767561 0.0
v -0.253145 -0.535996 0.0
v -0.252796 -0.294894 0.0
v -0.253290 -0.049011 0.0
v -0.000000 -0.991287 0.0
v -0.000000 -0.766556 0.0
v -0.000000 -0.534294 0.0
v -0.000000 -0.293862 0.0
v -0.000000 -0.048351 0.0
v 0.248879 -0.991269 0.0
v 0.252609 -0.767561 0.0
v 0.253145 -0.535996 0.0
v 0.252796 -0.294894 0.0
v 0.253290 -0.049011 0.0
v 0.503108 -0.991147 0.0
v 0.510513 -0.771258 0.0
v 0.506757 -0.538335 0.0
v 0.505172 -0.296923 0.0
v 0.505437 -0.050784 0.0
v 0.000000 0.134914 0.0
f 1 6 7
f 1 7 2
f 2 7 8
f 2 8 3
f 3 8 9
f 3 9 4
f 4 9 10
f 4 10 5
f 6 11 12
f 6 12 7
f 7 12 13
f 7 13 8
f 8 13 14
f 8 14 9
f 9 14 15
f 9 15 10
f 11 16 17
f 11 17 12
f 12 17 18
f 12 18 13
f 13 18 19
f 13 19 14
f 14 19 20
f 14 20 15
f 16 21 22
f 16 22 17
f 17 22 23
f 17 23 18
f 18 23 24
f 18 24 19
f 19 24 25
f 19 25 20
