v -0.513300 -0.991347 0.0
v -0.525279 -0.778956 0.0
v -0.519719 -0.556676 0.0
v -0.512597 -0.325153 0.0
v -0.507257 -0.084574 0.0
v -0.255517 -0.991412 0.0
v -0.260389 -0.775408 0.0
v -0.259914 -0.556638 0.0
v -0.256552 -0.326035 0.0
v -0.254302 -0.085327 0.0
v -0.000000 -0.991428 0.0
v -0.000000 -0.774431 0.0
v -0.000000 -0.555127 0.0
v -0.000000 -0.325668 0.0
v 0.000000 -0.085450 0.0
v 0.255517 -0.991412 0.0
v 0.260389 -0.775408 0.0
v 0.259914 -0.556638 0.0
v 0.256552 -0.326035 0.0
v 0.254302 -0.085327 0.0
v 0.513300 -0.991347 0.0
v 0.525279 -0.778956 0.0
v 0.519719 -0.556676 0.0
v 0.512597 -0.325153 0.0
v 0.507257 -0.084574 0.0
v 0.000000 0.124912 0.0
f 1 6 7
f 1 7 2
f 2 7 8
f 2 8 3
f 3 8 9
f 3 9 4
f 4 9 10
f 4 10 5
f 6 11 12
f 6 12 7
f 7 12 13
f 7 13 8
f 8 13 14
f 8 14 9
f 9 14 15
f 9 15 10
f 11 16 17
f 11 17 12
f 12 17 18
f 12 18 13
f 13 18 19
f 13 19 14
f 14 19 20
f 14 20 15
f 16 21 22
f 16 22 17
f 17 22 23
f 17 23 18
f 18 23 24
f 18 24 19
f 19 24 25
f 19 25 20
