v -0.518129 -0.991404 0.0
v -0.531924 -0.782265 0.0
v -0.526406 -0.563624 0.0
v -0.516657 -0.336345 0.0
v -0.508384 -0.098549 0.0
v -0.258954 -0.991444 0.0
v -0.264227 -0.778968 0.0
v -0.263506 -0.565282 0.0
v -0.258640 -0.339229 0.0
v -0.254922 -0.100817 0.0
v -0.000000 -0.991455 0.0
v -0.000000 -0.778339 0.0
v -0.000000 -0.564209 0.0
v -0.000000 -0.339381 0.0
v 0.000000 -0.101455 0.0
v 0.258954 -0.991444 0.0
v 0.264227 -0.778968 0.0
v 0.263506 -0.565282 0.0
v 0.258640 -0.339229 0.0
v 0.254922 -0.100817 0.0
v 0.518129 -0.991404 0.0
v 0.531924 -0.782265 0.0
v 0.526406 -0.563624 0.0
v 0.516657 -0.336345 0.0
v 0.508384 -0.098549 0.0
v 0.000000 0.119911 0.0
f 1 6 7
f 1 7 2
f 2 7 8
f 2 8 3
f 3 8 9
f 3 9 4
f 4 9 10
f 4 10 5
f 6 11 12
f 6 12 7
f 7 12 13
f 7 13 8
f 8 13 14
f 8 14 9
f 9 14 15
f 9 15 10
f 11 16 17
f 11 17 12
f 12 17 18
f 12 18 13
f 13 18 19
f 13 19 14
f 14 19 20
f 14 20 15
f 16 21 22
f 16 22 17
f 17 22 23
f 17 23 18
f 18 23 24
f 18 24 19
f 19 24 25
f 19 25 20
