v -0.528793 -0.991551 0.0
v -0.545123 -0.791415 0.0
v -0.540953 -0.578411 0.0
v -0.526572 -0.357409 0.0
v -0.511559 -0.124134 0.0
v -0.265822 -0.991569 0.0
v -0.272158 -0.788345 0.0
v -0.271721 -0.584858 0.0
v -0.264144 -0.366982 0.0
v -0.256644 -0.132466 0.0
v -0.000000 -0.991563 0.0
v -0.000000 -0.789339 0.0
v -0.000000 -0.585999 0.0
v -0.000000 -0.369467 0.0
v 0.000000 -0.135466 0.0
v 0.265822 -0.991569 0.0
v 0.272158 -0.788345 0.0
v 0.271721 -0.584858 0.0
v 0.264144 -0.366982 0.0
v 0.256644 -0.132466 0.0
v 0.528793 -0.991551 0.0
v 0.545123 -0.791415 0.0
v 0.540953 -0.578411 0.0
v 0.526572 -0.357409 0.0
v 0.511559 -0.124134 0.0
v 0.000000 0.104908 0.0
f 1 6 7
f 1 7 2
f 2 7 8
f 2 8 3
f 3 8 9
f 3 9 4
f 4 9 10
f 4 10 5
f 6 11 12
f 6 12 7
f 7 12 13
f 7 13 8
f 8 13 14
f 8 14 9
f 9 14 15
f 9 15 10
f 11 16 17
f 11 17 12
f 12 17 18
f 12 18 13
f 13 18 19
f 13 19 14
f 14 19 20
f 14 20 15
f 16 21 22
f 16 22 17
f 17 22 23
f 17 23 18
f 18 23 24
f 18 24 19
f 19 24 25
f 19 25 20
