$MeshFormat
4.1 0 8
$EndMeshFormat
$Entities
0 0 1 1
1 -17.15843391418457 -36.72283172607422 -0.7796783447265625 20.71664810180664 30.87100982666016 68.05536651611328 0 0 
1 -17.15843391418457 -36.72283172607422 -0.7796783447265625 20.71664810180664 30.87100982666016 68.05536651611328 0 1 1 
$EndEntities
$Nodes
2 258 1 258
2 1 0 252
1
2
3
4
5
6
7
8
9
10
11
12
13
14
15
16
17
18
19
20
21
22
23
24
25
26
27
28
29
30
31
32
33
34
35
36
37
38
39
40
41
42
43
44
45
46
47
48
49
50
51
52
53
54
55
56
57
58
59
60
61
62
63
64
65
66
67
68
69
70
71
72
73
74
75
76
77
78
79
80
81
82
83
84
85
86
87
88
89
90
91
92
93
94
95
96
97
98
99
100
101
102
103
104
105
106
107
108
109
110
111
112
113
114
115
116
117
118
119
120
121
122
123
124
125
126
127
128
129
130
131
132
133
134
135
136
137
138
139
140
141
142
143
144
145
146
147
148
149
150
151
152
153
154
155
156
157
158
159
160
161
162
163
164
165
166
167
168
169
170
171
172
173
174
175
176
177
178
179
180
181
182
183
184
185
186
187
188
189
190
191
192
193
194
195
196
197
198
199
200
201
202
203
204
205
206
207
208
209
210
211
212
213
214
215
216
217
218
219
220
221
222
223
224
225
226
227
228
229
230
231
232
233
234
235
236
237
238
239
240
241
242
243
244
245
246
247
248
249
250
251
252
-6.540542602539062 5.870941162109375 -0.7546326518058777
-2.649702310562134 2.594498157501221 -0.7452167868614197
-4.880302429199219 -2.380652666091919 -0.7607325911521912
9.257312774658203 -3.716344833374023 -0.7669486999511719
5.419197082519531 -3.712997436523438 -0.7681255340576172
8.369653701782227 -13.38004302978516 -0.7262784242630005
13.11264991760254 -11.86851596832275 -0.7585350871086121
-8.140720367431641 1.772991180419922 -0.7796783447265625
-3.437305212020874 8.625618934631348 -0.7669776082038879
-11.53633880615234 -9.770259857177734 5.43474006652832
-12.33466720581055 -12.83943748474121 10.85058212280273
-16.42204093933105 -3.304166793823242 10.86571025848389
-17.15843391418457 -6.368946075439453 17.20991516113281
-7.59620189666748 -15.65758323669434 9.253891944885254
-7.79478120803833 -10.97840595245361 3.843273162841797
-4.469518184661865 -15.59707450866699 4.690074920654297
-3.319701910018921 -8.546026229858398 -0.7669506072998047
-1.856583476066589 -9.634738922119141 -0.7669506072998047
-12.54926681518555 -14.26627349853516 16.31464004516602
-13.93758296966553 -10.24324893951416 23.28528785705566
-10.40622901916504 -2.970768928527832 22.0413932800293
-9.244972229003906 2.504512786865234 17.92777442932129
0 3.931652307510376 22.92005920410156
-10.97757339477539 1.297740936279297 4.172298431396484
-8.556647300720215 4.21519660949707 14.17085075378418
-10.36995792388916 -3.167461395263672 2.856882095336914
-8.405379295349121 -1.144125938415527 -0.7669486999511719
-2.825651961302356e-07 6.004786968231201 17.00968360900879
-8.69800853729248 -16.99425506591797 13.07363319396973
-11.39192199707031 -19.95644187927246 21.22994804382324
-11.05459880828857 -23.23559188842773 29.86087226867676
-12.57539939880371 -15.12109184265137 32.00685882568359
-10.19155216217041 -24.32486724853516 35.45125961303711
-11.03709888458252 -20.1832389831543 38.57200622558594
-8.569628715515137 -3.663052558898926 31.23971939086914
-8.207927703857422 -8.042415618896484 36.53064727783203
0 0.1962747573852539 31.20493316650391
-6.443341732025146 -2.720710754394531 0.2347202301025391
-10.47988319396973 -6.711062431335449 1.7230224609375
-6.320675373077393 5.951387882232666 3.928723573684692
0 7.575393676757812 10.30152320861816
-7.224583625793457 -13.66475486755371 41.15808486938477
-1.961328592869904e-07 -6.783625602722168 39.25076675415039
0.006808147765696049 -13.56758975982666 44.16160202026367
-10.30297374725342 -23.10323524475098 17.57768249511719
-11.47537517547607 -23.8046989440918 23.69338035583496
-7.129424095153809 -16.51375579833984 44.39228057861328
-8.038614273071289 -23.68942260742188 12.11575508117676
-4.603167057037354 -18.78439521789551 7.965715408325195
-5.79069185256958 -17.53121948242188 10.81083583831787
-12.70611953735352 -11.72537517547607 -0.7652887105941772
-7.399088859558105 -12.90301322937012 -0.721289336681366
-11.56600093841553 -10.61082458496094 2.354129791259766
-8.300641059875488 -10.65706348419189 2.157578945159912
-7.810359954833984 -26.58370399475098 41.80143356323242
-7.277058601379395 -30.30916786193848 32.09816741943359
-9.043527603149414 -27.160888671875 20.1284065246582
-10.65801429748535 -22.48910903930664 42.91797637939453
-9.201653480529785 -24.00097465515137 46.54838180541992
-6.244192123413086 -18.72936630249023 46.54983139038086
0 -16.31732559204102 46.0384521484375
-6.819520473480225 -25.4635009765625 6.298184871673584
-6.732452392578125 -24.92288398742676 5.353174686431885
-3.246154546737671 -30.04985237121582 26.89166069030762
-3.739129543304443 8.929958343505859 1.146417737007141
-2.436075925827026 8.906673431396484 3.040859937667847
0 7.951147079467773 6.265403747558594
-5.418363571166992 -29.65573883056641 40.59336471557617
-5.917814254760742 -30.28326034545898 46.19049072265625
-6.863974571228027 -29.57467651367188 50.79083633422852
-8.495490074157715 -22.9332447052002 49.28480529785156
8.569628715515137 -3.663052558898926 31.23971939086914
8.207927703857422 -8.042411804199219 36.5306510925293
7.225777626037598 -13.66183662414551 41.15512847900391
10.18023109436035 -2.355218887329102 21.85875511169434
9.244973182678223 2.504512786865234 17.92777442932129
17.1584358215332 -6.368946075439453 17.20991516113281
16.42204284667969 -3.304166793823242 10.86571025848389
8.556647300720215 4.21519660949707 14.17085075378418
-6.224607944488525 -20.38505554199219 4.036673545837402
-1.504167199134827 -20.7277946472168 4.07243537902832
-5.515456199645996 -21.05365753173828 -0.7669525146484375
-2.567244529724121 -21.56692886352539 -0.7647762298583984
-9.604887962341309 -23.44972801208496 56.42098236083984
-9.578299522399902 -21.93740463256836 53.86216735839844
-8.506071090698242 -28.20631408691406 55.48334121704102
-6.638956546783447 -17.81524276733398 53.00111389160156
-6.342772483825684 -19.15262603759766 49.70095825195312
-9.554446220397949 -24.19806861877441 52.18424224853516
-7.342818260192871 -27.71396255493164 59.35537719726562
-8.352287292480469 -21.70068359375 59.19210815429688
-8.014834403991699 -23.59543991088867 60.39984893798828
-7.051204681396484 -17.94182968139648 55.74513244628906
0.03877049311995506 -14.56347179412842 54.84550094604492
-5.716109275817871 -17.48275566101074 59.37627792358398
0.006851073820143938 -15.57803630828857 58.69956207275391
0.0001721618318697438 -15.59064674377441 50.1904411315918
-3.346854448318481 -30.59163284301758 62.95858383178711
-7.903385162353516 -29.73499870300293 53.58397674560547
-5.109588623046875 -33.6010856628418 54.56187057495117
-4.990564346313477 -35.04485321044922 57.38339996337891
-3.700878381729126 -33.30849456787109 59.49272918701172
0.009115548804402351 -16.56222915649414 47.65872192382812
-9.456157684326172 -21.48946189880371 64.50138854980469
-5.692078590393066 -22.87997817993164 61.73573303222656
-3.086334705352783 -24.58121299743652 63.99538040161133
-3.515836954116821 -19.31845474243164 62.30376052856445
-3.122397184371948 -31.67537879943848 50.58042907714844
-0.04707719758152962 -36.38825607299805 59.06650543212891
-1.883485436439514 -32.77902221679688 60.43589782714844
-3.230035305023193 -36.01900482177734 54.19868469238281
-2.907253980636597 -31.39435958862305 35.12777709960938
-2.637699604034424 -31.18747329711914 45.84164810180664
6.34207010269165 5.941074848175049 3.951251029968262
10.95705127716064 1.27069091796875 4.176126480102539
6.58213996887207 5.89392614364624 -0.148102268576622
1.591867923736572 -9.692010879516602 -0.7467485070228577
3.312393426895142 -8.554222106933594 -0.7669506072998047
7.129424571990967 -16.51375579833984 44.39228057861328
-3.589657545089722 -25.77287101745605 10.08341026306152
-6.944983959197998 -24.40005874633789 2.128058910369873
-2.616698980331421 -25.21346664428711 1.81330680847168
-3.377084493637085 -18.80560302734375 7.691681861877441
-0.1107743084430695 -21.10894775390625 12.76332187652588
-2.485702037811279 -20.72051429748535 12.83451080322266
-2.297034025192261 -29.69433403015137 -0.7665557265281677
-1.34588611125946 -23.49921417236328 0.554930567741394
-2.165715217590332 -27.86539268493652 2.01877498626709
-7.7198805809021 -29.26092147827148 -0.6813865303993225
-1.449594020843506 -24.91901016235352 14.58407783508301
-1.69826865196228 -23.70891952514648 8.81330394744873
-1.090154886245728 -28.08226013183594 23.74617576599121
-0.1192434057593346 -31.86174392700195 32.82809066772461
1.862436771392822 -25.61067581176758 18.34840774536133
-0.125491589307785 -25.34735107421875 17.60878372192383
-0.1211293712258339 -32.31365966796875 37.33736419677734
-0.04367245361208916 -31.95988464355469 49.90937805175781
-3.316257476806641 20.55849456787109 -0.7669467926025391
-3.620319843292236 20.69247817993164 0.9522628784179688
8.13507080078125 1.654544472694397 -0.7695198655128479
5.082770824432373 -17.49771881103516 59.25270843505859
6.845301628112793 -18.19246482849121 55.19557571411133
5.748965740203857 -17.87442588806152 50.85662460327148
6.599071979522705 -19.33945655822754 48.74132919311523
-2.635825395584106 20.82497024536133 2.65229606628418
6.593186855316162 -18.89636993408203 46.222900390625
3.485060214996338 -19.1549015045166 61.91984176635742
5.205407619476318 -18.6010913848877 7.46348762512207
8.615609169006348 -10.25394058227539 1.953347682952881
6.401880741119385 -2.773375511169434 0.2181549072265625
7.669959545135498 -11.03519535064697 3.778915405273438
6.984716415405273 -15.79839897155762 7.292951107025146
-2.406054258346558 -21.98673439025879 63.53929901123047
2.17867636680603 -22.27694702148438 63.56582641601562
-0.09821667522192001 -36.72283172607422 53.71466064453125
-0.05683253332972527 -35.87284088134766 57.03742599487305
3.136941909790039 -36.10258483886719 54.18561935424805
-1.872339606285095 -22.47903442382812 15.86097431182861
4.277798652648926 -20.59622573852539 12.8068733215332
2.066933631896973 23.43300628662109 -0.7669410109519958
0.3911716639995575 28.62836837768555 -0.76806640625
7.69428825378418 30.87100982666016 -0.7669448852539062
9.36412525177002 26.1591968536377 -0.7641794681549072
0 8.729362487792969 4.360328674316406
3.647977352142334 8.911375999450684 1.898083209991455
-0.7855817079544067 14.78457450866699 3.323699951171875
-0.7855817079544067 20.87729263305664 3.323692321777344
0.6576362252235413 28.85649871826172 2.032299518585205
2.029022932052612 26.67148208618164 3.323699951171875
7.902958393096924 30.69223403930664 1.802282333374023
3.933578968048096 -29.91175842285156 62.96516036987305
3.665591955184937 -32.88137054443359 59.77867126464844
3.156782627105713 24.37129783630371 2.216045618057251
1.677049994468689 20.68301010131836 2.112506628036499
1.745102524757385 14.46882057189941 -0.7670230865478516
1.848401308059692 14.495849609375 2.00655198097229
3.469345808029175 8.585794448852539 -0.7669467926025391
5.437756061553955 -29.60447883605957 40.60224151611328
7.136589050292969 -30.41994857788086 32.14453125
7.477846622467041 -27.10146522521973 42.05920028686523
10.18074417114258 -26.04960250854492 33.54705810546875
8.741666793823242 -26.17383193969727 19.81038475036621
10.55250930786133 -23.54852294921875 18.28255844116211
9.331461906433105 -22.80520820617676 13.64372730255127
3.15494441986084 -30.86287117004395 44.31278610229492
3.258838415145874 -31.86080551147461 50.88508224487305
4.802556991577148 -31.01360702514648 47.23685455322266
6.676854133605957 -29.72952461242676 50.489013671875
3.007308959960938 -30.23282241821289 27.61546325683594
2.907254695892334 -31.39400863647461 35.12731552124023
8.129169464111328 28.35766983032227 3.323703765869141
3.528182983398438 -24.73395729064941 63.70455169677734
8.09516429901123 25.99990653991699 2.212036848068237
13.08545207977295 25.85718154907227 3.323703765869141
5.058916091918945 -35.13381576538086 57.214599609375
2.269365310668945 -19.70620346069336 9.929089546203613
2.703974962234497 -20.51241683959961 3.929067373275757
6.685713768005371 -17.26642227172852 10.1769437789917
3.956707715988159 -27.03783798217773 17.59748077392578
2.234916687011719 -23.35723876953125 9.831698417663574
3.26161789894104 -24.92080688476562 4.29852294921875
1.485223650932312 -22.60923767089844 2.966414213180542
2.270665168762207 -22.01943588256836 -0.6946774125099182
6.944394588470459 -28.27400779724121 21.17915725708008
7.894335269927979 -24.49762725830078 59.41733169555664
5.264333724975586 -23.14288330078125 61.76779937744141
9.570235252380371 -21.96368789672852 53.50453948974609
9.81093692779541 -23.5456600189209 56.05163192749023
8.376880645751953 -21.47194862365723 58.57362747192383
9.479735374450684 -24.54760551452637 52.24109649658203
8.42620849609375 -23.65398216247559 49.04239654541016
9.201762199401855 -24.00093841552734 46.54842376708984
10.65808773040771 -22.48908996582031 42.91798400878906
10.96529960632324 -20.32930755615234 38.86484527587891
12.57539939880371 -15.12067985534668 32.01357269287109
14.24623489379883 -9.871335983276367 22.70255661010742
9.144331932067871 -21.38578414916992 64.87479400634766
7.220464706420898 -29.58963012695312 58.11357116699219
14.96727180480957 27.9852409362793 0.9522628784179688
15.21796321868896 27.46166038513184 -0.7703556418418884
16.66257286071777 15.52715396881104 -0.7669618129730225
14.36183738708496 27.19769668579102 2.652313232421875
8.974146842956543 -28.24438095092773 54.77845764160156
5.280002593994141 -21.07882118225098 -0.7649067640304565
7.131562232971191 -19.6248722076416 5.76934814453125
2.995590925216675 -29.89609718322754 -0.7746402025222778
2.722020149230957 -25.81920433044434 1.600799560546875
6.728876113891602 -23.90059852600098 1.901250004768372
4.959182262420654 -25.46195411682129 5.77296257019043
7.704635620117188 -25.27789306640625 10.83983993530273
5.759655952453613 -28.53620719909668 1.780113577842712
8.64922046661377 -27.78210639953613 -0.7538871169090271
11.01221656799316 24.03071784973145 1.875100612640381
16.28839874267578 20.79819869995117 3.323692321777344
10.18669033050537 -6.75334644317627 1.460292816162109
11.79812812805176 -10.51939105987549 2.183702230453491
10.1825065612793 -2.914072036743164 2.560409545898438
11.4885835647583 -10.22497177124023 5.499044418334961
12.25524616241455 -12.80977249145508 10.85058212280273
12.49122714996338 -14.2003698348999 16.31464195251465
10.83319187164307 -20.10047340393066 16.103759765625
10.74559783935547 -17.18421745300293 15.93051433563232
11.65657138824463 -19.32872009277344 21.56418991088867
17.91128349304199 21.68835067749023 2.652305603027344
18.72709465026855 22.25513076782227 0.9522628784179688
16.74992942810059 15.90110969543457 1.743596434593201
19.84012031555176 15.7176456451416 1.958226442337036
20.71664810180664 16.94767379760742 -0.7360033392906189
-5.351173877716064 -21.35659027099609 67.00856018066406
-8.105060577392578 -21.39988327026367 68.05536651611328
5.597899436950684 -21.28372764587402 67.04947662353516
7.960830211639404 -21.42330169677734 67.94317626953125
3 1 0 6
253
254
255
256
257
258
-0.6169396446370008 -5.778419874143206 14.36865655800903
-4.054007319650722 -11.70916069716398 31.86996891087974
-0.001163862488207716 -24.3924733538165 54.79008587279426
1.371685885524831 -21.19895711960574 34.00305320260219
1.155861106343977 -13.45906541809839 19.21986063288609
-0.0796591058273856 -0.4838547512504579 5.875664095402363
$EndNodes
$Elements
2 1154 1 1154
2 1 2 500
1 1 2 3 
2 9 2 1 
3 8 1 3 
4 8 24 1 
5 9 1 65 
6 1 24 40 
7 1 40 65 
8 5 3 2 
9 2 4 5 
10 9 4 2 
11 3 5 117 
12 27 8 3 
13 38 3 17 
14 17 3 117 
15 52 27 3 
16 38 52 3 
17 5 4 6 
18 4 7 6 
19 4 235 7 
20 9 140 4 
21 4 140 237 
22 235 4 237 
23 5 6 149 
24 5 118 117 
25 5 150 118 
26 5 149 150 
27 7 236 6 
28 149 6 236 
29 235 236 7 
30 24 8 26 
31 26 8 27 
32 9 65 138 
33 9 138 160 
34 9 177 140 
35 160 175 9 
36 175 177 9 
37 10 11 12 
38 11 10 14 
39 10 12 26 
40 10 15 14 
41 15 10 38 
42 10 26 38 
43 11 13 12 
44 11 19 13 
45 19 11 14 
46 12 13 22 
47 12 22 25 
48 24 12 25 
49 12 24 26 
50 19 20 13 
51 13 20 21 
52 13 21 22 
53 14 15 16 
54 49 14 16 
55 19 14 29 
56 50 29 14 
57 14 49 50 
58 15 17 16 
59 15 38 17 
60 16 17 18 
61 16 18 123 
62 49 16 123 
63 18 17 117 
64 123 18 117 
65 19 30 20 
66 30 19 29 
67 21 20 35 
68 30 31 20 
69 20 31 32 
70 20 32 35 
71 22 21 23 
72 21 35 23 
73 22 23 28 
74 25 22 28 
75 23 76 28 
76 35 37 23 
77 23 37 72 
78 75 23 72 
79 23 75 76 
80 24 25 40 
81 25 28 41 
82 40 25 41 
83 39 26 27 
84 26 39 38 
85 51 39 27 
86 51 27 52 
87 79 41 28 
88 76 79 28 
89 29 45 30 
90 29 48 45 
91 29 80 48 
92 29 50 80 
93 30 46 31 
94 30 45 46 
95 31 33 32 
96 46 33 31 
97 32 33 34 
98 32 34 42 
99 32 36 35 
100 42 36 32 
101 34 33 55 
102 33 46 57 
103 55 33 56 
104 33 57 56 
105 34 47 42 
106 34 58 47 
107 34 55 58 
108 35 36 43 
109 43 37 35 
110 36 42 44 
111 36 44 43 
112 37 43 72 
113 38 39 54 
114 52 38 54 
115 53 39 51 
116 39 53 54 
117 41 67 40 
118 65 40 66 
119 40 67 66 
120 67 41 114 
121 79 114 41 
122 42 47 44 
123 43 44 73 
124 72 43 73 
125 47 60 44 
126 44 60 61 
127 61 146 44 
128 73 44 74 
129 44 119 74 
130 146 119 44 
131 46 45 57 
132 45 48 57 
133 58 59 47 
134 47 59 60 
135 57 48 62 
136 48 63 62 
137 80 63 48 
138 50 49 80 
139 49 81 80 
140 49 123 81 
141 53 51 52 
142 53 52 54 
143 56 68 55 
144 55 59 58 
145 59 55 69 
146 55 68 69 
147 56 57 64 
148 112 56 64 
149 56 112 68 
150 57 62 64 
151 59 71 60 
152 70 59 69 
153 59 70 71 
154 103 61 60 
155 88 60 71 
156 88 103 60 
157 61 103 144 
158 146 61 144 
159 62 63 120 
160 64 62 120 
161 80 82 63 
162 82 121 63 
163 63 122 120 
164 121 122 63 
165 64 133 112 
166 64 120 130 
167 130 132 64 
168 64 132 133 
169 65 66 139 
170 65 139 138 
171 66 67 164 
172 66 145 139 
173 66 166 145 
174 164 166 66 
175 67 114 165 
176 67 165 164 
177 68 113 69 
178 112 113 68 
179 70 69 108 
180 113 108 69 
181 71 70 99 
182 99 70 100 
183 70 108 100 
184 89 88 71 
185 89 71 99 
186 72 73 215 
187 75 72 216 
188 72 215 216 
189 73 74 215 
190 74 119 214 
191 74 214 215 
192 75 77 76 
193 75 216 77 
194 76 77 78 
195 79 76 78 
196 78 77 239 
197 77 216 240 
198 239 77 240 
199 79 78 115 
200 115 78 237 
201 237 78 238 
202 238 78 239 
203 114 79 115 
204 80 81 82 
205 81 83 82 
206 83 81 127 
207 81 123 125 
208 131 81 125 
209 131 127 81 
210 129 82 83 
211 82 129 121 
212 126 83 127 
213 83 126 129 
214 84 85 86 
215 85 84 87 
216 84 86 90 
217 87 84 93 
218 84 90 91 
219 84 91 93 
220 85 89 86 
221 85 87 88 
222 89 85 88 
223 86 89 99 
224 102 90 86 
225 101 86 99 
226 86 101 102 
227 88 87 97 
228 87 93 94 
229 87 94 97 
230 88 97 103 
231 90 92 91 
232 92 90 98 
233 98 90 110 
234 90 102 110 
235 104 91 92 
236 91 95 93 
237 91 104 95 
238 92 98 105 
239 92 105 104 
240 93 95 94 
241 94 95 96 
242 94 96 141 
243 97 94 142 
244 94 141 142 
245 95 107 96 
246 95 104 250 
247 107 95 250 
248 96 107 147 
249 141 96 147 
250 103 97 143 
251 97 142 143 
252 105 98 106 
253 106 98 171 
254 110 171 98 
255 101 99 100 
256 111 101 100 
257 100 108 111 
258 102 101 109 
259 101 111 109 
260 102 109 110 
261 144 103 143 
262 250 104 105 
263 249 105 106 
264 105 249 250 
265 106 154 153 
266 249 106 153 
267 106 192 154 
268 192 106 171 
269 107 154 147 
270 153 154 107 
271 153 107 249 
272 107 250 249 
273 111 108 137 
274 113 137 108 
275 110 109 172 
276 111 156 109 
277 156 157 109 
278 195 109 157 
279 109 195 172 
280 171 110 172 
281 155 111 137 
282 111 155 156 
283 112 136 113 
284 133 136 112 
285 136 137 113 
286 114 115 116 
287 165 114 116 
288 116 115 140 
289 140 115 237 
290 177 116 140 
291 177 165 116 
292 117 118 148 
293 117 148 123 
294 118 151 148 
295 150 151 118 
296 146 212 119 
297 212 213 119 
298 119 213 214 
299 120 122 127 
300 120 127 131 
301 130 120 131 
302 121 128 122 
303 121 129 128 
304 128 127 122 
305 123 124 125 
306 196 124 123 
307 148 196 123 
308 158 125 124 
309 135 124 134 
310 124 159 134 
311 158 124 135 
312 196 159 124 
313 130 131 125 
314 158 130 125 
315 126 127 128 
316 126 128 129 
317 158 132 130 
318 133 132 134 
319 132 135 134 
320 132 158 135 
321 134 189 133 
322 136 133 190 
323 133 189 190 
324 159 196 134 
325 189 134 199 
326 134 196 200 
327 134 200 199 
328 137 136 185 
329 136 190 185 
330 137 186 155 
331 137 185 186 
332 138 139 161 
333 138 161 160 
334 139 145 168 
335 139 168 161 
336 142 141 209 
337 147 252 141 
338 141 217 209 
339 217 141 252 
340 142 207 143 
341 207 142 208 
342 142 209 208 
343 143 210 144 
344 143 207 210 
345 144 211 146 
346 144 210 211 
347 166 167 145 
348 145 167 168 
349 211 212 146 
350 147 154 251 
351 251 252 147 
352 151 152 148 
353 152 198 148 
354 196 148 197 
355 225 197 148 
356 198 225 148 
357 150 149 235 
358 235 149 236 
359 238 151 150 
360 150 235 237 
361 150 237 238 
362 238 152 151 
363 242 198 152 
364 152 238 239 
365 152 239 240 
366 242 152 240 
367 251 154 192 
368 155 157 156 
369 186 157 155 
370 186 195 157 
371 161 162 160 
372 160 162 163 
373 160 163 173 
374 160 173 174 
375 160 174 176 
376 175 160 176 
377 161 168 162 
378 162 220 163 
379 168 170 162 
380 162 170 219 
381 220 162 219 
382 163 193 173 
383 193 163 233 
384 220 221 163 
385 163 221 233 
386 164 165 176 
387 166 164 176 
388 175 176 165 
389 177 175 165 
390 167 166 174 
391 166 176 174 
392 167 169 168 
393 169 167 173 
394 167 174 173 
395 168 169 170 
396 169 191 170 
397 191 169 173 
398 170 191 194 
399 222 170 194 
400 170 222 219 
401 171 172 218 
402 192 171 206 
403 171 205 206 
404 171 218 205 
405 172 195 223 
406 172 223 218 
407 173 193 191 
408 178 179 180 
409 190 179 178 
410 178 180 188 
411 185 178 187 
412 185 190 178 
413 187 178 188 
414 180 179 181 
415 179 182 181 
416 179 204 182 
417 189 179 190 
418 204 179 189 
419 214 180 181 
420 180 212 188 
421 213 212 180 
422 180 214 213 
423 181 182 183 
424 243 181 183 
425 215 214 181 
426 216 215 181 
427 216 181 243 
428 182 184 183 
429 182 230 184 
430 204 230 182 
431 184 241 183 
432 241 243 183 
433 230 225 184 
434 225 241 184 
435 185 187 186 
436 187 188 186 
437 195 186 188 
438 195 188 223 
439 188 212 211 
440 188 211 223 
441 189 199 204 
442 193 194 191 
443 192 206 251 
444 193 233 194 
445 194 234 222 
446 233 234 194 
447 196 197 202 
448 196 202 200 
449 197 203 202 
450 203 197 224 
451 197 225 224 
452 225 198 241 
453 198 242 241 
454 199 200 201 
455 199 201 204 
456 200 202 201 
457 202 203 201 
458 203 227 201 
459 201 229 204 
460 201 227 228 
461 201 228 229 
462 226 203 224 
463 203 226 227 
464 204 229 230 
465 206 205 217 
466 205 208 209 
467 205 218 208 
468 205 209 217 
469 252 206 217 
470 251 206 252 
471 218 207 208 
472 223 210 207 
473 223 207 218 
474 223 211 210 
475 240 216 243 
476 219 245 220 
477 219 222 244 
478 245 219 244 
479 220 248 221 
480 245 248 220 
481 221 246 233 
482 221 247 246 
483 221 248 247 
484 234 244 222 
485 228 224 225 
486 224 232 226 
487 232 224 228 
488 230 228 225 
489 227 226 231 
490 231 226 232 
491 231 228 227 
492 229 228 230 
493 231 232 228 
494 233 246 234 
495 234 247 244 
496 246 247 234 
497 243 242 240 
498 241 242 243 
499 244 247 245 
500 247 248 245 
3 1 4 654
501 16 14 50 253 
502 245 248 221 220 
503 16 253 50 257 
504 185 211 144 255 
505 185 187 211 255 
506 88 60 103 255 
507 15 14 16 253 
508 64 130 120 57 
509 60 88 71 255 
510 61 144 185 146 
511 79 238 239 253 
512 79 237 238 253 
513 60 113 103 255 
514 134 132 256 257 
515 60 61 103 113 
516 144 211 185 146 
517 240 239 152 253 
518 225 241 198 184 
519 76 79 239 253 
520 254 256 132 257 
521 239 238 79 78 
522 14 29 50 253 
523 19 29 14 253 
524 237 253 79 258 
525 61 185 180 146 
526 156 110 172 186 
527 215 256 254 257 
528 239 75 76 253 
529 61 60 55 113 
530 238 237 79 78 
531 19 14 11 253 
532 239 79 76 78 
533 12 10 26 253 
534 243 256 215 257 
535 240 75 239 253 
536 37 254 253 257 
537 115 237 79 258 
538 188 211 187 255 
539 211 212 185 146 
540 79 253 41 258 
541 100 111 108 156 
542 55 60 61 256 
543 181 243 183 182 
544 50 253 29 257 
545 12 11 10 253 
546 75 253 240 257 
547 115 150 237 258 
548 61 180 185 256 
549 146 180 61 256 
550 211 223 210 255 
551 24 253 26 258 
552 207 218 208 255 
553 38 27 52 39 
554 79 114 115 258 
555 29 253 19 257 
556 134 189 243 256 
557 172 186 110 255 
558 114 79 41 258 
559 134 256 243 257 
560 52 27 51 39 
561 19 11 21 253 
562 186 188 187 255 
563 156 137 108 110 
564 24 25 253 258 
565 132 254 31 256 
566 106 153 154 255 
567 215 254 72 257 
568 37 72 254 257 
569 150 118 151 258 
570 71 89 99 255 
571 143 103 144 255 
572 37 35 253 254 
573 34 58 55 47 
574 192 206 171 255 
575 211 212 187 185 
576 237 115 79 78 
577 41 253 25 258 
578 156 172 157 186 
579 180 185 212 146 
580 110 156 137 186 
581 90 110 102 255 
582 85 89 88 255 
583 177 140 116 258 
584 208 205 209 255 
585 154 206 192 255 
586 154 192 106 255 
587 29 19 30 257 
588 9 2 150 258 
589 12 25 22 253 
590 155 156 157 186 
591 98 171 110 255 
592 84 85 87 255 
593 120 57 48 62 
594 27 38 52 3 
595 110 137 108 255 
596 18 152 123 117 
597 80 50 48 49 
598 17 38 15 258 
599 96 147 107 255 
600 91 90 84 255 
601 21 253 35 254 
602 28 41 79 253 
603 98 110 90 255 
604 89 85 86 255 
605 20 30 19 257 
606 171 172 110 255 
607 215 73 72 254 
608 21 19 13 11 
609 114 41 67 258 
610 218 205 208 255 
611 71 99 70 255 
612 105 107 153 255 
613 208 209 142 255 
614 73 254 215 256 
615 84 93 91 255 
616 77 75 239 240 
617 205 206 209 255 
618 185 113 137 255 
619 29 30 158 257 
620 84 86 85 255 
621 20 254 30 257 
622 85 88 87 255 
623 73 215 74 256 
624 71 88 89 255 
625 91 92 90 255 
626 88 103 97 255 
627 110 186 137 255 
628 223 218 207 255 
629 47 55 34 256 
630 181 243 189 256 
631 55 47 60 256 
632 106 105 153 255 
633 86 99 89 255 
634 41 25 40 258 
635 103 143 97 255 
636 154 147 206 255 
637 84 87 93 255 
638 185 180 178 256 
639 73 74 254 256 
640 113 108 137 255 
641 24 40 25 258 
642 94 93 87 255 
643 28 25 41 253 
644 214 74 215 256 
645 50 29 80 48 
646 223 207 210 255 
647 207 143 210 255 
648 142 97 143 255 
649 90 86 84 255 
650 171 218 172 255 
651 73 44 43 254 
652 95 96 107 255 
653 87 88 97 255 
654 242 159 241 257 
655 211 188 223 255 
656 34 42 47 256 
657 243 181 215 256 
658 87 97 94 255 
659 125 50 29 257 
660 29 30 45 158 
661 188 186 223 255 
662 93 95 91 255 
663 91 105 92 255 
664 97 142 94 255 
665 34 254 42 256 
666 158 125 29 257 
667 91 95 105 255 
668 147 96 141 255 
669 198 196 159 257 
670 198 159 242 257 
671 207 208 142 255 
672 216 215 72 257 
673 185 212 187 180 
674 67 41 40 258 
675 44 254 74 256 
676 207 142 143 255 
677 142 209 141 255 
678 196 134 200 159 
679 120 127 63 131 
680 221 220 163 233 
681 5 118 150 258 
682 124 159 196 257 
683 73 74 44 254 
684 16 152 196 123 
685 111 137 108 156 
686 5 117 118 258 
687 34 33 254 256 
688 95 107 105 255 
689 119 74 214 256 
690 120 127 122 63 
691 79 76 28 253 
692 216 243 215 257 
693 216 72 75 257 
694 37 72 43 254 
695 177 116 165 258 
696 226 232 227 231 
697 172 195 157 186 
698 155 137 111 156 
699 179 189 190 256 
700 34 33 32 254 
701 172 223 195 186 
702 70 59 71 69 
703 240 242 243 257 
704 38 52 54 39 
705 34 32 42 254 
706 242 241 243 257 
707 230 199 204 182 
708 44 42 254 256 
709 43 72 73 254 
710 156 155 137 186 
711 44 47 42 256 
712 216 75 240 257 
713 36 44 42 254 
714 202 196 200 197 
715 165 116 114 258 
716 23 76 75 253 
717 23 28 76 253 
718 214 215 181 256 
719 232 228 227 231 
720 124 125 158 257 
721 44 74 119 256 
722 187 212 188 180 
723 133 190 189 256 
724 45 48 29 125 
725 48 45 158 125 
726 123 152 148 117 
727 28 22 25 253 
728 21 35 20 254 
729 31 254 33 256 
730 158 45 29 125 
731 3 1 8 258 
732 152 123 148 196 
733 21 19 20 13 
734 34 55 33 256 
735 170 194 219 222 
736 211 212 188 187 
737 44 36 43 254 
738 21 22 23 253 
739 24 26 38 258 
740 55 68 113 69 
741 33 31 32 254 
742 35 37 43 254 
743 17 3 38 258 
744 28 23 22 253 
745 217 206 147 209 
746 163 193 162 173 
747 33 112 56 256 
748 223 195 186 188 
749 240 243 216 257 
750 131 127 63 81 
751 132 64 133 256 
752 33 56 64 256 
753 179 181 189 256 
754 77 75 240 216 
755 32 20 35 254 
756 57 33 56 64 
757 149 236 7 235 
758 2 3 5 258 
759 56 112 64 256 
760 147 141 217 209 
761 43 36 35 254 
762 50 125 48 49 
763 162 170 168 169 
764 8 24 38 258 
765 3 2 1 258 
766 67 66 164 258 
767 8 40 24 258 
768 48 45 130 158 
769 4 149 5 6 
770 140 114 116 258 
771 180 214 181 256 
772 2 5 150 258 
773 17 117 3 258 
774 162 168 161 169 
775 24 8 1 40 
776 131 80 63 49 
777 36 42 32 254 
778 32 35 36 254 
779 110 109 156 172 
780 91 104 105 95 
781 198 152 148 196 
782 225 229 228 230 
783 128 129 121 122 
784 64 112 133 256 
785 26 8 38 27 
786 5 3 117 258 
787 125 48 29 50 
788 177 175 66 165 
789 184 159 198 230 
790 164 66 176 165 
791 179 190 181 256 
792 105 249 153 107 
793 184 198 225 230 
794 120 48 57 130 
795 206 147 154 251 
796 206 217 205 209 
797 81 49 80 131 
798 159 184 241 183 
799 198 159 184 241 
800 126 129 128 122 
801 132 158 130 57 
802 66 67 40 258 
803 159 198 242 241 
804 176 66 175 165 
805 40 8 1 258 
806 243 134 183 182 
807 48 45 57 130 
808 206 154 192 251 
809 184 159 199 183 
810 80 63 81 131 
811 178 185 187 180 
812 130 45 57 158 
813 230 184 159 199 
814 219 170 162 163 
815 134 189 199 204 
816 164 66 166 176 
817 127 63 81 80 
818 106 105 249 153 
819 159 148 198 230 
820 160 162 173 163 
821 122 128 126 127 
822 199 230 184 182 
823 167 173 160 169 
824 109 156 102 110 
825 224 225 197 228 
826 220 219 162 163 
827 159 134 199 183 
828 26 8 24 38 
829 148 225 198 230 
830 66 40 65 258 
831 200 134 199 159 
832 197 202 224 228 
833 3 8 38 258 
834 91 104 92 105 
835 161 139 138 160 
836 197 202 203 224 
837 114 116 115 140 
838 81 80 82 83 
839 236 7 6 149 
840 158 130 48 125 
841 200 196 148 197 
842 159 196 148 200 
843 127 80 81 83 
844 224 202 203 228 
845 221 246 248 245 
846 197 201 200 202 
847 140 115 150 237 
848 27 26 39 38 
849 183 134 199 182 
850 200 229 197 148 
851 173 174 167 160 
852 194 193 163 233 
853 125 50 123 49 
854 193 162 170 163 
855 163 219 194 233 
856 197 225 229 228 
857 201 203 228 227 
858 183 199 184 182 
859 197 225 148 229 
860 201 203 202 228 
861 196 148 198 159 
862 130 120 48 125 
863 220 219 163 233 
864 3 8 27 38 
865 229 200 197 201 
866 202 197 201 228 
867 229 201 197 228 
868 204 199 134 182 
869 237 150 4 235 
870 130 131 120 125 
871 221 246 247 248 
872 150 4 140 237 
873 229 199 201 204 
874 64 62 57 120 
875 64 130 57 132 
876 2 4 150 5 
877 145 66 139 166 
878 137 136 113 185 
879 147 141 252 217 
880 178 187 188 180 
881 4 9 150 140 
882 9 4 150 2 
883 16 152 123 18 
884 216 181 215 243 
885 229 199 204 230 
886 200 229 199 201 
887 134 132 133 256 
888 134 133 189 256 
889 140 177 9 258 
890 9 150 140 258 
891 160 166 176 174 
892 125 81 49 123 
893 125 49 81 131 
894 255 144 113 103 
895 255 113 144 185 
896 61 113 144 103 
897 61 144 113 185 
898 198 196 253 152 
899 198 253 196 257 
900 16 253 196 152 
901 16 196 253 257 
902 258 17 253 15 
903 16 253 17 15 
904 16 17 253 18 
905 107 250 105 249 
906 250 95 105 104 
907 250 105 95 107 
908 253 24 12 25 
909 253 12 24 26 
910 16 123 257 50 
911 16 257 123 196 
912 125 257 123 50 
913 255 102 108 110 
914 156 108 102 110 
915 156 102 108 100 
916 69 55 60 113 
917 60 55 69 59 
918 69 71 60 59 
919 18 152 253 16 
920 63 49 120 131 
921 152 253 117 18 
922 55 68 61 113 
923 55 61 68 256 
924 258 118 253 117 
925 258 253 118 151 
926 253 118 152 117 
927 253 152 118 151 
928 152 118 148 117 
929 152 148 118 151 
930 206 252 147 251 
931 206 147 252 217 
932 257 242 253 240 
933 257 253 242 198 
934 152 253 242 240 
935 152 242 253 198 
936 255 71 108 70 
937 69 108 71 70 
938 111 109 102 101 
939 102 109 111 156 
940 102 100 111 101 
941 111 100 102 156 
942 257 124 123 196 
943 257 123 124 125 
944 56 55 112 33 
945 56 112 55 68 
946 256 112 55 33 
947 256 55 112 68 
948 10 14 253 11 
949 253 14 10 15 
950 109 157 172 195 
951 172 157 109 156 
952 171 106 255 98 
953 171 255 106 192 
954 146 119 180 256 
955 214 119 180 213 
956 214 180 119 256 
957 107 154 255 147 
958 255 154 107 153 
959 102 255 86 90 
960 94 141 255 142 
961 255 141 94 96 
962 255 99 102 86 
963 101 102 99 86 
964 101 99 102 100 
965 9 258 1 2 
966 72 257 253 75 
967 253 257 72 37 
968 253 23 72 75 
969 72 23 253 37 
970 22 253 11 12 
971 11 253 22 21 
972 11 13 22 12 
973 22 13 11 21 
974 35 23 253 21 
975 35 253 23 37 
976 149 150 4 5 
977 149 4 150 235 
978 76 77 239 78 
979 239 77 76 75 
980 17 117 253 18 
981 17 253 117 258 
982 179 189 182 204 
983 134 189 182 243 
984 134 182 189 204 
985 144 210 255 211 
986 144 255 210 143 
987 152 238 253 239 
988 152 253 238 151 
989 149 4 7 6 
990 149 7 4 235 
991 171 205 255 206 
992 255 205 171 218 
993 175 65 160 9 
994 138 160 65 9 
995 94 95 255 96 
996 255 95 94 93 
997 183 243 257 134 
998 257 243 183 241 
999 257 159 183 134 
1000 183 159 257 241 
1001 245 247 246 248 
1002 258 140 115 150 
1003 258 115 140 114 
1004 165 67 258 114 
1005 165 258 67 164 
1006 234 245 247 246 
1007 247 245 234 244 
1008 158 132 46 57 
1009 158 45 46 30 
1010 46 45 158 57 
1011 50 49 16 123 
1012 16 49 50 14 
1013 246 234 221 233 
1014 246 221 234 245 
1015 220 221 234 233 
1016 220 234 221 245 
1017 63 48 49 80 
1018 165 66 258 164 
1019 165 258 66 177 
1020 194 234 219 222 
1021 244 219 234 222 
1022 147 209 255 141 
1023 255 209 147 206 
1024 257 134 124 159 
1025 135 132 257 158 
1026 257 132 135 134 
1027 257 124 135 158 
1028 135 124 257 134 
1029 169 161 167 168 
1030 169 167 161 160 
1031 167 161 145 168 
1032 167 145 161 160 
1033 145 161 139 168 
1034 145 139 161 160 
1035 120 49 125 131 
1036 125 49 120 48 
1037 65 258 177 66 
1038 177 258 65 9 
1039 177 175 65 66 
1040 65 175 177 9 
1041 194 193 219 163 
1042 170 219 193 163 
1043 229 148 230 225 
1044 233 219 234 220 
1045 233 234 219 194 
1046 52 53 39 51 
1047 39 53 52 54 
1048 169 160 162 173 
1049 169 162 160 161 
1050 133 136 256 112 
1051 256 136 133 190 
1052 31 20 254 30 
1053 31 254 20 32 
1054 38 10 258 26 
1055 38 258 10 15 
1056 253 258 10 26 
1057 253 10 258 15 
1058 60 44 256 47 
1059 60 256 44 61 
1060 98 255 105 106 
1061 223 172 255 186 
1062 223 255 172 218 
1063 185 186 255 137 
1064 185 255 186 187 
1065 185 190 256 178 
1066 256 190 185 136 
1067 212 119 180 146 
1068 212 180 119 213 
1069 146 44 256 61 
1070 146 256 44 119 
1071 194 170 193 191 
1072 194 193 170 219 
1073 191 173 170 193 
1074 191 170 173 169 
1075 162 170 173 193 
1076 162 173 170 169 
1077 224 226 227 203 
1078 227 226 224 232 
1079 227 228 224 203 
1080 224 228 227 232 
1081 179 180 190 178 
1082 179 190 180 181 
1083 256 190 180 178 
1084 256 180 190 181 
1085 253 238 258 237 
1086 253 258 238 151 
1087 150 258 238 237 
1088 150 238 258 151 
1089 59 47 55 58 
1090 59 55 47 60 
1091 160 167 166 174 
1092 82 63 83 80 
1093 127 83 63 80 
1094 92 98 255 105 
1095 92 255 98 90 
1096 254 253 20 21 
1097 254 20 253 257 
1098 19 20 253 21 
1099 19 253 20 257 
1100 229 199 159 200 
1101 159 199 229 230 
1102 159 148 229 200 
1103 229 148 159 230 
1104 234 245 219 244 
1105 234 219 245 220 
1106 256 33 132 64 
1107 256 132 33 31 
1108 46 33 132 31 
1109 33 57 132 64 
1110 132 57 33 46 
1111 181 182 189 243 
1112 181 189 182 179 
1113 102 108 99 255 
1114 102 99 108 100 
1115 70 99 108 255 
1116 70 108 99 100 
1117 60 69 108 71 
1118 108 69 60 113 
1119 108 255 60 71 
1120 60 255 108 113 
1121 120 63 48 49 
1122 48 63 120 62 
1123 65 258 1 9 
1124 65 1 258 40 
1125 66 65 176 175 
1126 160 176 65 175 
1127 138 66 139 65 
1128 139 66 138 166 
1129 160 176 66 65 
1130 66 176 160 166 
1131 138 160 66 65 
1132 66 160 138 166 
1133 46 158 31 132 
1134 31 158 46 30 
1135 158 254 31 132 
1136 31 254 158 30 
1137 158 257 254 132 
1138 254 257 158 30 
1139 166 139 160 138 
1140 145 160 166 139 
1141 145 166 160 167 
1142 256 112 113 68 
1143 256 61 113 185 
1144 113 61 256 68 
1145 136 113 256 112 
1146 136 256 113 185 
1147 63 83 121 82 
1148 129 121 83 82 
1149 63 127 121 83 
1150 121 127 63 122 
1151 127 129 121 83 
1152 121 129 127 122 
1153 127 126 129 83 
1154 129 126 127 122 
$EndElements
